G04 (created by PCBNEW (2013-jul-07)-stable) date Mon 28 Dec 2015 12:48:25 PM PST*
%MOIN*%
G04 Gerber Fmt 3.4, Leading zero omitted, Abs format*
%FSLAX34Y34*%
G01*
G70*
G90*
G04 APERTURE LIST*
%ADD10C,0.00393701*%
%ADD11C,0.004*%
%ADD12C,0.005*%
%ADD13C,0.006*%
%ADD14C,0.008*%
G04 APERTURE END LIST*
G54D10*
G54D11*
X60161Y-40472D02*
X60161Y-40192D01*
X60495Y-40472D02*
X60495Y-40192D01*
G54D12*
X60516Y-40662D02*
X60516Y-40465D01*
X60516Y-40465D02*
X60142Y-40465D01*
X60142Y-40465D02*
X60142Y-40662D01*
X60142Y-40662D02*
X60516Y-40662D01*
X60516Y-40202D02*
X60516Y-40006D01*
X60516Y-40006D02*
X60142Y-40006D01*
X60142Y-40006D02*
X60142Y-40202D01*
X60142Y-40202D02*
X60516Y-40202D01*
G54D13*
X62711Y-44296D02*
X62711Y-44636D01*
X62991Y-44636D02*
X62991Y-44296D01*
G54D12*
X62681Y-44636D02*
X62681Y-44796D01*
X62681Y-44796D02*
X63021Y-44796D01*
X63021Y-44796D02*
X63021Y-44636D01*
X63021Y-44636D02*
X62681Y-44636D01*
X62681Y-44136D02*
X62681Y-44296D01*
X62681Y-44296D02*
X63021Y-44296D01*
X63021Y-44296D02*
X63021Y-44136D01*
X63021Y-44136D02*
X62681Y-44136D01*
G54D11*
X64915Y-41894D02*
X65195Y-41894D01*
X64915Y-42228D02*
X65195Y-42228D01*
G54D12*
X64725Y-42249D02*
X64922Y-42249D01*
X64922Y-42249D02*
X64922Y-41875D01*
X64922Y-41875D02*
X64725Y-41875D01*
X64725Y-41875D02*
X64725Y-42249D01*
X65185Y-42249D02*
X65381Y-42249D01*
X65381Y-42249D02*
X65381Y-41875D01*
X65381Y-41875D02*
X65185Y-41875D01*
X65185Y-41875D02*
X65185Y-42249D01*
G54D14*
X63402Y-41551D02*
X62103Y-41551D01*
X62103Y-41551D02*
X61906Y-41551D01*
X61906Y-41551D02*
X61906Y-39663D01*
X61906Y-39663D02*
X62103Y-39663D01*
X62103Y-39663D02*
X63402Y-39663D01*
X63402Y-39663D02*
X63402Y-41551D01*
X62103Y-41551D02*
X62103Y-39663D01*
G54D12*
X61434Y-39761D02*
X61434Y-39954D01*
X61434Y-39954D02*
X61867Y-39954D01*
X61867Y-39954D02*
X61867Y-39761D01*
X61867Y-39761D02*
X61434Y-39761D01*
X61434Y-40261D02*
X61434Y-40454D01*
X61434Y-40454D02*
X61867Y-40454D01*
X61867Y-40454D02*
X61867Y-40261D01*
X61867Y-40261D02*
X61434Y-40261D01*
X61434Y-40760D02*
X61434Y-40953D01*
X61434Y-40953D02*
X61867Y-40953D01*
X61867Y-40953D02*
X61867Y-40760D01*
X61867Y-40760D02*
X61434Y-40760D01*
X61434Y-41260D02*
X61434Y-41453D01*
X61434Y-41453D02*
X61867Y-41453D01*
X61867Y-41453D02*
X61867Y-41260D01*
X61867Y-41260D02*
X61434Y-41260D01*
X63441Y-41260D02*
X63441Y-41453D01*
X63441Y-41453D02*
X63874Y-41453D01*
X63874Y-41453D02*
X63874Y-41260D01*
X63874Y-41260D02*
X63441Y-41260D01*
X63441Y-40760D02*
X63441Y-40953D01*
X63441Y-40953D02*
X63874Y-40953D01*
X63874Y-40953D02*
X63874Y-40760D01*
X63874Y-40760D02*
X63441Y-40760D01*
X63441Y-40261D02*
X63441Y-40454D01*
X63441Y-40454D02*
X63874Y-40454D01*
X63874Y-40454D02*
X63874Y-40261D01*
X63874Y-40261D02*
X63441Y-40261D01*
X63441Y-39761D02*
X63441Y-39954D01*
X63441Y-39954D02*
X63874Y-39954D01*
X63874Y-39954D02*
X63874Y-39761D01*
X63874Y-39761D02*
X63441Y-39761D01*
G54D13*
X59167Y-41225D02*
X59167Y-41565D01*
X59447Y-41565D02*
X59447Y-41225D01*
G54D12*
X59137Y-41565D02*
X59137Y-41725D01*
X59137Y-41725D02*
X59477Y-41725D01*
X59477Y-41725D02*
X59477Y-41565D01*
X59477Y-41565D02*
X59137Y-41565D01*
X59137Y-41065D02*
X59137Y-41225D01*
X59137Y-41225D02*
X59477Y-41225D01*
X59477Y-41225D02*
X59477Y-41065D01*
X59477Y-41065D02*
X59137Y-41065D01*
G54D11*
X60115Y-41297D02*
X60547Y-41297D01*
X60547Y-41965D02*
X60115Y-41965D01*
G54D12*
X60390Y-42162D02*
X60390Y-41945D01*
X60390Y-41945D02*
X60272Y-41945D01*
X60272Y-41945D02*
X60272Y-42162D01*
X60272Y-42162D02*
X60390Y-42162D01*
X60390Y-41317D02*
X60390Y-41100D01*
X60390Y-41100D02*
X60272Y-41100D01*
X60272Y-41100D02*
X60272Y-41317D01*
X60272Y-41317D02*
X60390Y-41317D01*
X60547Y-41965D02*
X60547Y-41650D01*
X60547Y-41650D02*
X60115Y-41650D01*
X60115Y-41650D02*
X60115Y-41965D01*
X60115Y-41965D02*
X60547Y-41965D01*
G54D11*
X54334Y-40472D02*
X54334Y-40192D01*
X54668Y-40472D02*
X54668Y-40192D01*
G54D12*
X54689Y-40662D02*
X54689Y-40465D01*
X54689Y-40465D02*
X54315Y-40465D01*
X54315Y-40465D02*
X54315Y-40662D01*
X54315Y-40662D02*
X54689Y-40662D01*
X54689Y-40202D02*
X54689Y-40006D01*
X54689Y-40006D02*
X54315Y-40006D01*
X54315Y-40006D02*
X54315Y-40202D01*
X54315Y-40202D02*
X54689Y-40202D01*
G54D11*
X53966Y-42515D02*
X53966Y-42795D01*
X53632Y-42515D02*
X53632Y-42795D01*
G54D12*
X53611Y-42325D02*
X53611Y-42522D01*
X53611Y-42522D02*
X53985Y-42522D01*
X53985Y-42522D02*
X53985Y-42325D01*
X53985Y-42325D02*
X53611Y-42325D01*
X53611Y-42785D02*
X53611Y-42981D01*
X53611Y-42981D02*
X53985Y-42981D01*
X53985Y-42981D02*
X53985Y-42785D01*
X53985Y-42785D02*
X53611Y-42785D01*
G54D11*
X53966Y-43971D02*
X53966Y-44251D01*
X53632Y-43971D02*
X53632Y-44251D01*
G54D12*
X53611Y-43781D02*
X53611Y-43978D01*
X53611Y-43978D02*
X53985Y-43978D01*
X53985Y-43978D02*
X53985Y-43781D01*
X53985Y-43781D02*
X53611Y-43781D01*
X53611Y-44241D02*
X53611Y-44437D01*
X53611Y-44437D02*
X53985Y-44437D01*
X53985Y-44437D02*
X53985Y-44241D01*
X53985Y-44241D02*
X53611Y-44241D01*
G54D13*
X53210Y-43707D02*
X53210Y-43107D01*
X53210Y-42707D02*
X53210Y-42107D01*
X53210Y-40707D02*
X53210Y-40107D01*
X53210Y-39707D02*
X53210Y-39107D01*
X53210Y-44707D02*
X53210Y-44107D01*
G54D11*
X61411Y-44414D02*
X61691Y-44414D01*
X61411Y-44748D02*
X61691Y-44748D01*
G54D12*
X61221Y-44769D02*
X61418Y-44769D01*
X61418Y-44769D02*
X61418Y-44395D01*
X61418Y-44395D02*
X61221Y-44395D01*
X61221Y-44395D02*
X61221Y-44769D01*
X61681Y-44769D02*
X61877Y-44769D01*
X61877Y-44769D02*
X61877Y-44395D01*
X61877Y-44395D02*
X61681Y-44395D01*
X61681Y-44395D02*
X61681Y-44769D01*
G54D11*
X57115Y-41530D02*
X57115Y-41810D01*
X56781Y-41530D02*
X56781Y-41810D01*
G54D12*
X56760Y-41340D02*
X56760Y-41537D01*
X56760Y-41537D02*
X57134Y-41537D01*
X57134Y-41537D02*
X57134Y-41340D01*
X57134Y-41340D02*
X56760Y-41340D01*
X56760Y-41800D02*
X56760Y-41996D01*
X56760Y-41996D02*
X57134Y-41996D01*
X57134Y-41996D02*
X57134Y-41800D01*
X57134Y-41800D02*
X56760Y-41800D01*
G54D13*
X57351Y-43105D02*
X57011Y-43105D01*
X57011Y-43385D02*
X57351Y-43385D01*
G54D12*
X57011Y-43075D02*
X56851Y-43075D01*
X56851Y-43075D02*
X56851Y-43415D01*
X56851Y-43415D02*
X57011Y-43415D01*
X57011Y-43415D02*
X57011Y-43075D01*
X57511Y-43075D02*
X57351Y-43075D01*
X57351Y-43075D02*
X57351Y-43415D01*
X57351Y-43415D02*
X57511Y-43415D01*
X57511Y-43415D02*
X57511Y-43075D01*
G54D11*
X54797Y-44256D02*
X55077Y-44256D01*
X54797Y-44590D02*
X55077Y-44590D01*
G54D12*
X54607Y-44611D02*
X54804Y-44611D01*
X54804Y-44611D02*
X54804Y-44237D01*
X54804Y-44237D02*
X54607Y-44237D01*
X54607Y-44237D02*
X54607Y-44611D01*
X55067Y-44611D02*
X55263Y-44611D01*
X55263Y-44611D02*
X55263Y-44237D01*
X55263Y-44237D02*
X55067Y-44237D01*
X55067Y-44237D02*
X55067Y-44611D01*
G54D13*
X55545Y-40162D02*
X55545Y-40502D01*
X55825Y-40502D02*
X55825Y-40162D01*
G54D12*
X55515Y-40502D02*
X55515Y-40662D01*
X55515Y-40662D02*
X55855Y-40662D01*
X55855Y-40662D02*
X55855Y-40502D01*
X55855Y-40502D02*
X55515Y-40502D01*
X55515Y-40002D02*
X55515Y-40162D01*
X55515Y-40162D02*
X55855Y-40162D01*
X55855Y-40162D02*
X55855Y-40002D01*
X55855Y-40002D02*
X55515Y-40002D01*
G54D13*
X55537Y-43525D02*
X54417Y-43525D01*
X54417Y-42887D02*
X55537Y-42887D01*
G54D12*
X54505Y-43796D02*
X54702Y-43796D01*
X54702Y-43796D02*
X54702Y-43540D01*
X54702Y-43540D02*
X54505Y-43540D01*
X54505Y-43540D02*
X54505Y-43796D01*
X54879Y-43796D02*
X55075Y-43796D01*
X55075Y-43796D02*
X55075Y-43540D01*
X55075Y-43540D02*
X54879Y-43540D01*
X54879Y-43540D02*
X54879Y-43796D01*
X55252Y-43796D02*
X55449Y-43796D01*
X55449Y-43796D02*
X55449Y-43540D01*
X55449Y-43540D02*
X55252Y-43540D01*
X55252Y-43540D02*
X55252Y-43796D01*
X55252Y-42872D02*
X55449Y-42872D01*
X55449Y-42872D02*
X55449Y-42616D01*
X55449Y-42616D02*
X55252Y-42616D01*
X55252Y-42616D02*
X55252Y-42872D01*
X54505Y-42872D02*
X54702Y-42872D01*
X54702Y-42872D02*
X54702Y-42616D01*
X54702Y-42616D02*
X54505Y-42616D01*
X54505Y-42616D02*
X54505Y-42872D01*
G54D11*
X55156Y-42195D02*
X54876Y-42195D01*
X55156Y-41861D02*
X54876Y-41861D01*
G54D12*
X55346Y-41840D02*
X55149Y-41840D01*
X55149Y-41840D02*
X55149Y-42214D01*
X55149Y-42214D02*
X55346Y-42214D01*
X55346Y-42214D02*
X55346Y-41840D01*
X54886Y-41840D02*
X54690Y-41840D01*
X54690Y-41840D02*
X54690Y-42214D01*
X54690Y-42214D02*
X54886Y-42214D01*
X54886Y-42214D02*
X54886Y-41840D01*
G54D11*
X54876Y-41146D02*
X55156Y-41146D01*
X54876Y-41480D02*
X55156Y-41480D01*
G54D12*
X54686Y-41501D02*
X54883Y-41501D01*
X54883Y-41501D02*
X54883Y-41127D01*
X54883Y-41127D02*
X54686Y-41127D01*
X54686Y-41127D02*
X54686Y-41501D01*
X55146Y-41501D02*
X55342Y-41501D01*
X55342Y-41501D02*
X55342Y-41127D01*
X55342Y-41127D02*
X55146Y-41127D01*
X55146Y-41127D02*
X55146Y-41501D01*
G54D13*
X56180Y-44439D02*
X56180Y-44099D01*
X55900Y-44099D02*
X55900Y-44439D01*
G54D12*
X56210Y-44099D02*
X56210Y-43939D01*
X56210Y-43939D02*
X55870Y-43939D01*
X55870Y-43939D02*
X55870Y-44099D01*
X55870Y-44099D02*
X56210Y-44099D01*
X56210Y-44599D02*
X56210Y-44439D01*
X56210Y-44439D02*
X55870Y-44439D01*
X55870Y-44439D02*
X55870Y-44599D01*
X55870Y-44599D02*
X56210Y-44599D01*
G54D13*
X56219Y-41919D02*
X56219Y-41579D01*
X55939Y-41579D02*
X55939Y-41919D01*
G54D12*
X56249Y-41579D02*
X56249Y-41419D01*
X56249Y-41419D02*
X55909Y-41419D01*
X55909Y-41419D02*
X55909Y-41579D01*
X55909Y-41579D02*
X56249Y-41579D01*
X56249Y-42079D02*
X56249Y-41919D01*
X56249Y-41919D02*
X55909Y-41919D01*
X55909Y-41919D02*
X55909Y-42079D01*
X55909Y-42079D02*
X56249Y-42079D01*
X63707Y-38896D02*
X63907Y-38896D01*
X63907Y-38896D02*
X63907Y-38696D01*
X63907Y-38696D02*
X63707Y-38696D01*
X63707Y-38696D02*
X63707Y-38896D01*
X62707Y-38896D02*
X62907Y-38896D01*
X62907Y-38896D02*
X62907Y-38696D01*
X62907Y-38696D02*
X62707Y-38696D01*
X62707Y-38696D02*
X62707Y-38896D01*
X61707Y-38896D02*
X61907Y-38896D01*
X61907Y-38896D02*
X61907Y-38696D01*
X61907Y-38696D02*
X61707Y-38696D01*
X61707Y-38696D02*
X61707Y-38896D01*
X60707Y-38896D02*
X60907Y-38896D01*
X60907Y-38896D02*
X60907Y-38696D01*
X60907Y-38696D02*
X60707Y-38696D01*
X60707Y-38696D02*
X60707Y-38896D01*
X59707Y-38896D02*
X59907Y-38896D01*
X59907Y-38896D02*
X59907Y-38696D01*
X59907Y-38696D02*
X59707Y-38696D01*
X59707Y-38696D02*
X59707Y-38896D01*
X58707Y-38896D02*
X58907Y-38896D01*
X58907Y-38896D02*
X58907Y-38696D01*
X58907Y-38696D02*
X58707Y-38696D01*
X58707Y-38696D02*
X58707Y-38896D01*
X57707Y-38896D02*
X57907Y-38896D01*
X57907Y-38896D02*
X57907Y-38696D01*
X57907Y-38696D02*
X57707Y-38696D01*
X57707Y-38696D02*
X57707Y-38896D01*
X56707Y-38896D02*
X56907Y-38896D01*
X56907Y-38896D02*
X56907Y-38696D01*
X56907Y-38696D02*
X56707Y-38696D01*
X56707Y-38696D02*
X56707Y-38896D01*
X55707Y-38896D02*
X55907Y-38896D01*
X55907Y-38896D02*
X55907Y-38696D01*
X55907Y-38696D02*
X55707Y-38696D01*
X55707Y-38696D02*
X55707Y-38896D01*
X54707Y-38896D02*
X54907Y-38896D01*
X54907Y-38896D02*
X54907Y-38696D01*
X54907Y-38696D02*
X54707Y-38696D01*
X54707Y-38696D02*
X54707Y-38896D01*
X53707Y-38896D02*
X53907Y-38896D01*
X53907Y-38896D02*
X53907Y-38696D01*
X53907Y-38696D02*
X53707Y-38696D01*
X53707Y-38696D02*
X53707Y-38896D01*
X64707Y-38896D02*
X64907Y-38896D01*
X64907Y-38896D02*
X64907Y-38696D01*
X64907Y-38696D02*
X64707Y-38696D01*
X64707Y-38696D02*
X64707Y-38896D01*
X63707Y-45904D02*
X63907Y-45904D01*
X63907Y-45904D02*
X63907Y-45704D01*
X63907Y-45704D02*
X63707Y-45704D01*
X63707Y-45704D02*
X63707Y-45904D01*
X62707Y-45904D02*
X62907Y-45904D01*
X62907Y-45904D02*
X62907Y-45704D01*
X62907Y-45704D02*
X62707Y-45704D01*
X62707Y-45704D02*
X62707Y-45904D01*
X61707Y-45904D02*
X61907Y-45904D01*
X61907Y-45904D02*
X61907Y-45704D01*
X61907Y-45704D02*
X61707Y-45704D01*
X61707Y-45704D02*
X61707Y-45904D01*
X60707Y-45904D02*
X60907Y-45904D01*
X60907Y-45904D02*
X60907Y-45704D01*
X60907Y-45704D02*
X60707Y-45704D01*
X60707Y-45704D02*
X60707Y-45904D01*
X59707Y-45904D02*
X59907Y-45904D01*
X59907Y-45904D02*
X59907Y-45704D01*
X59907Y-45704D02*
X59707Y-45704D01*
X59707Y-45704D02*
X59707Y-45904D01*
X58707Y-45904D02*
X58907Y-45904D01*
X58907Y-45904D02*
X58907Y-45704D01*
X58907Y-45704D02*
X58707Y-45704D01*
X58707Y-45704D02*
X58707Y-45904D01*
X57707Y-45904D02*
X57907Y-45904D01*
X57907Y-45904D02*
X57907Y-45704D01*
X57907Y-45704D02*
X57707Y-45704D01*
X57707Y-45704D02*
X57707Y-45904D01*
X56707Y-45904D02*
X56907Y-45904D01*
X56907Y-45904D02*
X56907Y-45704D01*
X56907Y-45704D02*
X56707Y-45704D01*
X56707Y-45704D02*
X56707Y-45904D01*
X55707Y-45904D02*
X55907Y-45904D01*
X55907Y-45904D02*
X55907Y-45704D01*
X55907Y-45704D02*
X55707Y-45704D01*
X55707Y-45704D02*
X55707Y-45904D01*
X54707Y-45904D02*
X54907Y-45904D01*
X54907Y-45904D02*
X54907Y-45704D01*
X54907Y-45704D02*
X54707Y-45704D01*
X54707Y-45704D02*
X54707Y-45904D01*
X53707Y-45904D02*
X53907Y-45904D01*
X53907Y-45904D02*
X53907Y-45704D01*
X53907Y-45704D02*
X53707Y-45704D01*
X53707Y-45704D02*
X53707Y-45904D01*
X64707Y-45904D02*
X64907Y-45904D01*
X64907Y-45904D02*
X64907Y-45704D01*
X64907Y-45704D02*
X64707Y-45704D01*
X64707Y-45704D02*
X64707Y-45904D01*
G54D11*
X60161Y-43267D02*
X60161Y-42987D01*
X60495Y-43267D02*
X60495Y-42987D01*
G54D12*
X60516Y-43457D02*
X60516Y-43260D01*
X60516Y-43260D02*
X60142Y-43260D01*
X60142Y-43260D02*
X60142Y-43457D01*
X60142Y-43457D02*
X60516Y-43457D01*
X60516Y-42997D02*
X60516Y-42801D01*
X60516Y-42801D02*
X60142Y-42801D01*
X60142Y-42801D02*
X60142Y-42997D01*
X60142Y-42997D02*
X60516Y-42997D01*
G54D13*
X63813Y-44296D02*
X63813Y-44636D01*
X64093Y-44636D02*
X64093Y-44296D01*
G54D12*
X63783Y-44636D02*
X63783Y-44796D01*
X63783Y-44796D02*
X64123Y-44796D01*
X64123Y-44796D02*
X64123Y-44636D01*
X64123Y-44636D02*
X63783Y-44636D01*
X63783Y-44136D02*
X63783Y-44296D01*
X63783Y-44296D02*
X64123Y-44296D01*
X64123Y-44296D02*
X64123Y-44136D01*
X64123Y-44136D02*
X63783Y-44136D01*
G54D11*
X64915Y-41146D02*
X65195Y-41146D01*
X64915Y-41480D02*
X65195Y-41480D01*
G54D12*
X64725Y-41501D02*
X64922Y-41501D01*
X64922Y-41501D02*
X64922Y-41127D01*
X64922Y-41127D02*
X64725Y-41127D01*
X64725Y-41127D02*
X64725Y-41501D01*
X65185Y-41501D02*
X65381Y-41501D01*
X65381Y-41501D02*
X65381Y-41127D01*
X65381Y-41127D02*
X65185Y-41127D01*
X65185Y-41127D02*
X65185Y-41501D01*
G54D14*
X63402Y-43796D02*
X62103Y-43796D01*
X62103Y-43796D02*
X61906Y-43796D01*
X61906Y-43796D02*
X61906Y-41908D01*
X61906Y-41908D02*
X62103Y-41908D01*
X62103Y-41908D02*
X63402Y-41908D01*
X63402Y-41908D02*
X63402Y-43796D01*
X62103Y-43796D02*
X62103Y-41908D01*
G54D12*
X61434Y-42006D02*
X61434Y-42199D01*
X61434Y-42199D02*
X61867Y-42199D01*
X61867Y-42199D02*
X61867Y-42006D01*
X61867Y-42006D02*
X61434Y-42006D01*
X61434Y-42506D02*
X61434Y-42699D01*
X61434Y-42699D02*
X61867Y-42699D01*
X61867Y-42699D02*
X61867Y-42506D01*
X61867Y-42506D02*
X61434Y-42506D01*
X61434Y-43005D02*
X61434Y-43198D01*
X61434Y-43198D02*
X61867Y-43198D01*
X61867Y-43198D02*
X61867Y-43005D01*
X61867Y-43005D02*
X61434Y-43005D01*
X61434Y-43505D02*
X61434Y-43698D01*
X61434Y-43698D02*
X61867Y-43698D01*
X61867Y-43698D02*
X61867Y-43505D01*
X61867Y-43505D02*
X61434Y-43505D01*
X63441Y-43505D02*
X63441Y-43698D01*
X63441Y-43698D02*
X63874Y-43698D01*
X63874Y-43698D02*
X63874Y-43505D01*
X63874Y-43505D02*
X63441Y-43505D01*
X63441Y-43005D02*
X63441Y-43198D01*
X63441Y-43198D02*
X63874Y-43198D01*
X63874Y-43198D02*
X63874Y-43005D01*
X63874Y-43005D02*
X63441Y-43005D01*
X63441Y-42506D02*
X63441Y-42699D01*
X63441Y-42699D02*
X63874Y-42699D01*
X63874Y-42699D02*
X63874Y-42506D01*
X63874Y-42506D02*
X63441Y-42506D01*
X63441Y-42006D02*
X63441Y-42199D01*
X63441Y-42199D02*
X63874Y-42199D01*
X63874Y-42199D02*
X63874Y-42006D01*
X63874Y-42006D02*
X63441Y-42006D01*
G54D13*
X59522Y-44256D02*
X59522Y-44596D01*
X59802Y-44596D02*
X59802Y-44256D01*
G54D12*
X59492Y-44596D02*
X59492Y-44756D01*
X59492Y-44756D02*
X59832Y-44756D01*
X59832Y-44756D02*
X59832Y-44596D01*
X59832Y-44596D02*
X59492Y-44596D01*
X59492Y-44096D02*
X59492Y-44256D01*
X59492Y-44256D02*
X59832Y-44256D01*
X59832Y-44256D02*
X59832Y-44096D01*
X59832Y-44096D02*
X59492Y-44096D01*
G54D11*
X60115Y-44092D02*
X60547Y-44092D01*
X60547Y-44760D02*
X60115Y-44760D01*
G54D12*
X60390Y-44957D02*
X60390Y-44740D01*
X60390Y-44740D02*
X60272Y-44740D01*
X60272Y-44740D02*
X60272Y-44957D01*
X60272Y-44957D02*
X60390Y-44957D01*
X60390Y-44112D02*
X60390Y-43895D01*
X60390Y-43895D02*
X60272Y-43895D01*
X60272Y-43895D02*
X60272Y-44112D01*
X60272Y-44112D02*
X60390Y-44112D01*
X60547Y-44760D02*
X60547Y-44445D01*
X60547Y-44445D02*
X60115Y-44445D01*
X60115Y-44445D02*
X60115Y-44760D01*
X60115Y-44760D02*
X60547Y-44760D01*
G54D13*
X56805Y-40122D02*
X56805Y-40462D01*
X57085Y-40462D02*
X57085Y-40122D01*
G54D12*
X56775Y-40462D02*
X56775Y-40622D01*
X56775Y-40622D02*
X57115Y-40622D01*
X57115Y-40622D02*
X57115Y-40462D01*
X57115Y-40462D02*
X56775Y-40462D01*
X56775Y-39962D02*
X56775Y-40122D01*
X56775Y-40122D02*
X57115Y-40122D01*
X57115Y-40122D02*
X57115Y-39962D01*
X57115Y-39962D02*
X56775Y-39962D01*
G54D13*
X58192Y-40314D02*
X58532Y-40314D01*
X58532Y-40034D02*
X58192Y-40034D01*
G54D12*
X58532Y-40344D02*
X58692Y-40344D01*
X58692Y-40344D02*
X58692Y-40004D01*
X58692Y-40004D02*
X58532Y-40004D01*
X58532Y-40004D02*
X58532Y-40344D01*
X58032Y-40344D02*
X58192Y-40344D01*
X58192Y-40344D02*
X58192Y-40004D01*
X58192Y-40004D02*
X58032Y-40004D01*
X58032Y-40004D02*
X58032Y-40344D01*
G54D11*
X58502Y-40974D02*
X58222Y-40974D01*
X58502Y-40640D02*
X58222Y-40640D01*
G54D12*
X58692Y-40619D02*
X58495Y-40619D01*
X58495Y-40619D02*
X58495Y-40993D01*
X58495Y-40993D02*
X58692Y-40993D01*
X58692Y-40993D02*
X58692Y-40619D01*
X58232Y-40619D02*
X58036Y-40619D01*
X58036Y-40619D02*
X58036Y-40993D01*
X58036Y-40993D02*
X58232Y-40993D01*
X58232Y-40993D02*
X58232Y-40619D01*
G54D13*
X57954Y-43098D02*
X58007Y-43098D01*
X58187Y-43098D02*
X58263Y-43098D01*
X58443Y-43098D02*
X58518Y-43098D01*
X58698Y-43098D02*
X58774Y-43098D01*
X58954Y-43098D02*
X58992Y-43098D01*
X57969Y-41819D02*
X58007Y-41819D01*
X58187Y-41819D02*
X58263Y-41819D01*
X58443Y-41819D02*
X58518Y-41819D01*
X58698Y-41819D02*
X58774Y-41819D01*
X58954Y-41819D02*
X58992Y-41819D01*
G54D12*
X58049Y-41819D02*
X58145Y-41819D01*
X58145Y-41819D02*
X58145Y-41531D01*
X58145Y-41531D02*
X58049Y-41531D01*
X58049Y-41531D02*
X58049Y-41819D01*
X58305Y-41819D02*
X58401Y-41819D01*
X58401Y-41819D02*
X58401Y-41531D01*
X58401Y-41531D02*
X58305Y-41531D01*
X58305Y-41531D02*
X58305Y-41819D01*
X58560Y-41819D02*
X58656Y-41819D01*
X58656Y-41819D02*
X58656Y-41531D01*
X58656Y-41531D02*
X58560Y-41531D01*
X58560Y-41531D02*
X58560Y-41819D01*
X58816Y-41819D02*
X58912Y-41819D01*
X58912Y-41819D02*
X58912Y-41531D01*
X58912Y-41531D02*
X58816Y-41531D01*
X58816Y-41531D02*
X58816Y-41819D01*
X58049Y-43385D02*
X58145Y-43385D01*
X58145Y-43385D02*
X58145Y-43098D01*
X58145Y-43098D02*
X58049Y-43098D01*
X58049Y-43098D02*
X58049Y-43385D01*
X58305Y-43385D02*
X58401Y-43385D01*
X58401Y-43385D02*
X58401Y-43098D01*
X58401Y-43098D02*
X58305Y-43098D01*
X58305Y-43098D02*
X58305Y-43385D01*
X58560Y-43385D02*
X58656Y-43385D01*
X58656Y-43385D02*
X58656Y-43098D01*
X58656Y-43098D02*
X58560Y-43098D01*
X58560Y-43098D02*
X58560Y-43385D01*
X58816Y-43385D02*
X58912Y-43385D01*
X58912Y-43385D02*
X58912Y-43098D01*
X58912Y-43098D02*
X58816Y-43098D01*
X58816Y-43098D02*
X58816Y-43385D01*
G54D13*
X57159Y-44374D02*
X57159Y-44714D01*
X57439Y-44714D02*
X57439Y-44374D01*
G54D12*
X57129Y-44714D02*
X57129Y-44874D01*
X57129Y-44874D02*
X57469Y-44874D01*
X57469Y-44874D02*
X57469Y-44714D01*
X57469Y-44714D02*
X57129Y-44714D01*
X57129Y-44214D02*
X57129Y-44374D01*
X57129Y-44374D02*
X57469Y-44374D01*
X57469Y-44374D02*
X57469Y-44214D01*
X57469Y-44214D02*
X57129Y-44214D01*
G54D13*
X58690Y-43814D02*
X58350Y-43814D01*
X58350Y-44094D02*
X58690Y-44094D01*
G54D12*
X58350Y-43784D02*
X58190Y-43784D01*
X58190Y-43784D02*
X58190Y-44124D01*
X58190Y-44124D02*
X58350Y-44124D01*
X58350Y-44124D02*
X58350Y-43784D01*
X58850Y-43784D02*
X58690Y-43784D01*
X58690Y-43784D02*
X58690Y-44124D01*
X58690Y-44124D02*
X58850Y-44124D01*
X58850Y-44124D02*
X58850Y-43784D01*
G54D11*
X58380Y-44453D02*
X58660Y-44453D01*
X58380Y-44787D02*
X58660Y-44787D01*
G54D12*
X58190Y-44808D02*
X58387Y-44808D01*
X58387Y-44808D02*
X58387Y-44434D01*
X58387Y-44434D02*
X58190Y-44434D01*
X58190Y-44434D02*
X58190Y-44808D01*
X58650Y-44808D02*
X58846Y-44808D01*
X58846Y-44808D02*
X58846Y-44434D01*
X58846Y-44434D02*
X58650Y-44434D01*
X58650Y-44434D02*
X58650Y-44808D01*
G54D11*
X64915Y-40398D02*
X65195Y-40398D01*
X64915Y-40732D02*
X65195Y-40732D01*
G54D12*
X64725Y-40753D02*
X64922Y-40753D01*
X64922Y-40753D02*
X64922Y-40379D01*
X64922Y-40379D02*
X64725Y-40379D01*
X64725Y-40379D02*
X64725Y-40753D01*
X65185Y-40753D02*
X65381Y-40753D01*
X65381Y-40753D02*
X65381Y-40379D01*
X65381Y-40379D02*
X65185Y-40379D01*
X65185Y-40379D02*
X65185Y-40753D01*
G54D11*
X64915Y-43115D02*
X65195Y-43115D01*
X64915Y-43449D02*
X65195Y-43449D01*
G54D12*
X64725Y-43470D02*
X64922Y-43470D01*
X64922Y-43470D02*
X64922Y-43096D01*
X64922Y-43096D02*
X64725Y-43096D01*
X64725Y-43096D02*
X64725Y-43470D01*
X65185Y-43470D02*
X65381Y-43470D01*
X65381Y-43470D02*
X65381Y-43096D01*
X65381Y-43096D02*
X65185Y-43096D01*
X65185Y-43096D02*
X65185Y-43470D01*
G54D13*
X64664Y-35813D02*
X64664Y-35263D01*
X63164Y-35263D02*
X63164Y-35813D01*
X64668Y-36248D02*
G75*
G03X64441Y-35912I-754J-264D01*
G74*
G01*
X63159Y-36248D02*
G75*
G02X63386Y-35912I754J-264D01*
G74*
G01*
X64157Y-37275D02*
G75*
G03X64644Y-36839I-243J762D01*
G74*
G01*
X63652Y-37106D02*
G75*
G03X64426Y-36911I261J593D01*
G74*
G01*
X63672Y-37275D02*
G75*
G03X64077Y-37295I241J762D01*
G74*
G01*
X63670Y-37275D02*
G75*
G02X63183Y-36839I243J762D01*
G74*
G01*
X64175Y-37106D02*
G75*
G02X63401Y-36911I-261J593D01*
G74*
G01*
X64155Y-37275D02*
G75*
G02X63750Y-37295I-241J762D01*
G74*
G01*
X64664Y-35263D02*
X64114Y-35263D01*
X63714Y-35263D02*
X63164Y-35263D01*
X64664Y-36163D02*
X64664Y-36863D01*
X64664Y-37213D02*
X64664Y-37763D01*
X64664Y-37763D02*
X64114Y-37763D01*
X63714Y-37763D02*
X63164Y-37763D01*
X63164Y-37763D02*
X63164Y-37213D01*
X63164Y-36163D02*
X63164Y-36863D01*
G54D11*
X65195Y-40029D02*
X64915Y-40029D01*
X65195Y-39695D02*
X64915Y-39695D01*
G54D12*
X65385Y-39674D02*
X65188Y-39674D01*
X65188Y-39674D02*
X65188Y-40048D01*
X65188Y-40048D02*
X65385Y-40048D01*
X65385Y-40048D02*
X65385Y-39674D01*
X64925Y-39674D02*
X64729Y-39674D01*
X64729Y-39674D02*
X64729Y-40048D01*
X64729Y-40048D02*
X64925Y-40048D01*
X64925Y-40048D02*
X64925Y-39674D01*
G54D11*
X64915Y-43902D02*
X65195Y-43902D01*
X64915Y-44236D02*
X65195Y-44236D01*
G54D12*
X64725Y-44257D02*
X64922Y-44257D01*
X64922Y-44257D02*
X64922Y-43883D01*
X64922Y-43883D02*
X64725Y-43883D01*
X64725Y-43883D02*
X64725Y-44257D01*
X65185Y-44257D02*
X65381Y-44257D01*
X65381Y-44257D02*
X65381Y-43883D01*
X65381Y-43883D02*
X65185Y-43883D01*
X65185Y-43883D02*
X65185Y-44257D01*
M02*
