G04 (created by PCBNEW (2013-jul-07)-stable) date Mon 28 Dec 2015 12:37:34 PM PST*
%MOIN*%
G04 Gerber Fmt 3.4, Leading zero omitted, Abs format*
%FSLAX34Y34*%
G01*
G70*
G90*
G04 APERTURE LIST*
%ADD10C,0.00393701*%
%ADD11C,0.004*%
%ADD12C,0.005*%
%ADD13C,3.93701e-08*%
G04 APERTURE END LIST*
G54D10*
G54D11*
X56690Y-39580D02*
X56666Y-39604D01*
X56595Y-39628D01*
X56547Y-39628D01*
X56476Y-39604D01*
X56428Y-39556D01*
X56404Y-39509D01*
X56381Y-39414D01*
X56381Y-39342D01*
X56404Y-39247D01*
X56428Y-39199D01*
X56476Y-39152D01*
X56547Y-39128D01*
X56595Y-39128D01*
X56666Y-39152D01*
X56690Y-39176D01*
X56881Y-39176D02*
X56904Y-39152D01*
X56952Y-39128D01*
X57071Y-39128D01*
X57119Y-39152D01*
X57143Y-39176D01*
X57166Y-39223D01*
X57166Y-39271D01*
X57143Y-39342D01*
X56857Y-39628D01*
X57166Y-39628D01*
X56476Y-38628D02*
X56190Y-38628D01*
X56333Y-38628D02*
X56333Y-38128D01*
X56285Y-38199D01*
X56238Y-38247D01*
X56190Y-38271D01*
X56690Y-38295D02*
X56690Y-38628D01*
X56690Y-38342D02*
X56714Y-38318D01*
X56762Y-38295D01*
X56833Y-38295D01*
X56881Y-38318D01*
X56904Y-38366D01*
X56904Y-38628D01*
X57309Y-38366D02*
X57143Y-38366D01*
X57143Y-38628D02*
X57143Y-38128D01*
X57381Y-38128D01*
X57190Y-41155D02*
X57166Y-41179D01*
X57095Y-41203D01*
X57047Y-41203D01*
X56976Y-41179D01*
X56928Y-41131D01*
X56904Y-41084D01*
X56881Y-40989D01*
X56881Y-40917D01*
X56904Y-40822D01*
X56928Y-40774D01*
X56976Y-40727D01*
X57047Y-40703D01*
X57095Y-40703D01*
X57166Y-40727D01*
X57190Y-40751D01*
X57357Y-40703D02*
X57666Y-40703D01*
X57500Y-40893D01*
X57571Y-40893D01*
X57619Y-40917D01*
X57643Y-40941D01*
X57666Y-40989D01*
X57666Y-41108D01*
X57643Y-41155D01*
X57619Y-41179D01*
X57571Y-41203D01*
X57428Y-41203D01*
X57381Y-41179D01*
X57357Y-41155D01*
X56976Y-42203D02*
X56690Y-42203D01*
X56833Y-42203D02*
X56833Y-41703D01*
X56785Y-41774D01*
X56738Y-41822D01*
X56690Y-41846D01*
X57190Y-41870D02*
X57190Y-42203D01*
X57190Y-41917D02*
X57214Y-41893D01*
X57262Y-41870D01*
X57333Y-41870D01*
X57381Y-41893D01*
X57404Y-41941D01*
X57404Y-42203D01*
X57809Y-41941D02*
X57643Y-41941D01*
X57643Y-42203D02*
X57643Y-41703D01*
X57881Y-41703D01*
X55261Y-39786D02*
X55095Y-39548D01*
X54975Y-39786D02*
X54975Y-39286D01*
X55166Y-39286D01*
X55214Y-39310D01*
X55237Y-39334D01*
X55261Y-39381D01*
X55261Y-39453D01*
X55237Y-39500D01*
X55214Y-39524D01*
X55166Y-39548D01*
X54975Y-39548D01*
X55737Y-39786D02*
X55452Y-39786D01*
X55595Y-39786D02*
X55595Y-39286D01*
X55547Y-39357D01*
X55499Y-39405D01*
X55452Y-39429D01*
X55333Y-40453D02*
X55333Y-40786D01*
X55214Y-40262D02*
X55095Y-40619D01*
X55404Y-40619D01*
X55595Y-40738D02*
X55618Y-40762D01*
X55595Y-40786D01*
X55571Y-40762D01*
X55595Y-40738D01*
X55595Y-40786D01*
X55785Y-40286D02*
X56118Y-40286D01*
X55904Y-40786D01*
X56309Y-40786D02*
X56309Y-40286D01*
X56595Y-40786D02*
X56380Y-40500D01*
X56595Y-40286D02*
X56309Y-40572D01*
X55261Y-41046D02*
X55095Y-40808D01*
X54975Y-41046D02*
X54975Y-40546D01*
X55166Y-40546D01*
X55214Y-40570D01*
X55237Y-40594D01*
X55261Y-40641D01*
X55261Y-40713D01*
X55237Y-40760D01*
X55214Y-40784D01*
X55166Y-40808D01*
X54975Y-40808D01*
X55452Y-40594D02*
X55475Y-40570D01*
X55523Y-40546D01*
X55642Y-40546D01*
X55690Y-40570D01*
X55714Y-40594D01*
X55737Y-40641D01*
X55737Y-40689D01*
X55714Y-40760D01*
X55428Y-41046D01*
X55737Y-41046D01*
X55333Y-41713D02*
X55333Y-42046D01*
X55214Y-41522D02*
X55095Y-41879D01*
X55404Y-41879D01*
X55595Y-41998D02*
X55618Y-42022D01*
X55595Y-42046D01*
X55571Y-42022D01*
X55595Y-41998D01*
X55595Y-42046D01*
X55785Y-41546D02*
X56118Y-41546D01*
X55904Y-42046D01*
X56309Y-42046D02*
X56309Y-41546D01*
X56595Y-42046D02*
X56380Y-41760D01*
X56595Y-41546D02*
X56309Y-41832D01*
X55995Y-40078D02*
X55971Y-40102D01*
X55900Y-40126D01*
X55852Y-40126D01*
X55781Y-40102D01*
X55733Y-40054D01*
X55709Y-40007D01*
X55686Y-39912D01*
X55686Y-39840D01*
X55709Y-39745D01*
X55733Y-39697D01*
X55781Y-39650D01*
X55852Y-39626D01*
X55900Y-39626D01*
X55971Y-39650D01*
X55995Y-39674D01*
X56424Y-39793D02*
X56424Y-40126D01*
X56305Y-39602D02*
X56186Y-39959D01*
X56495Y-39959D01*
X56257Y-39293D02*
X56257Y-39626D01*
X56138Y-39102D02*
X56019Y-39459D01*
X56329Y-39459D01*
X56471Y-39126D02*
X56805Y-39126D01*
X56590Y-39626D01*
X57090Y-39126D02*
X57138Y-39126D01*
X57186Y-39150D01*
X57209Y-39174D01*
X57233Y-39221D01*
X57257Y-39316D01*
X57257Y-39435D01*
X57233Y-39531D01*
X57209Y-39578D01*
X57186Y-39602D01*
X57138Y-39626D01*
X57090Y-39626D01*
X57043Y-39602D01*
X57019Y-39578D01*
X56995Y-39531D01*
X56971Y-39435D01*
X56971Y-39316D01*
X56995Y-39221D01*
X57019Y-39174D01*
X57043Y-39150D01*
X57090Y-39126D01*
X57471Y-39293D02*
X57471Y-39793D01*
X57471Y-39316D02*
X57519Y-39293D01*
X57614Y-39293D01*
X57662Y-39316D01*
X57686Y-39340D01*
X57709Y-39388D01*
X57709Y-39531D01*
X57686Y-39578D01*
X57662Y-39602D01*
X57614Y-39626D01*
X57519Y-39626D01*
X57471Y-39602D01*
X58090Y-39364D02*
X57924Y-39364D01*
X57924Y-39626D02*
X57924Y-39126D01*
X58162Y-39126D01*
X56560Y-42581D02*
X56394Y-42343D01*
X56274Y-42581D02*
X56274Y-42081D01*
X56465Y-42081D01*
X56513Y-42105D01*
X56536Y-42129D01*
X56560Y-42176D01*
X56560Y-42248D01*
X56536Y-42295D01*
X56513Y-42319D01*
X56465Y-42343D01*
X56274Y-42343D01*
X56727Y-42081D02*
X57036Y-42081D01*
X56870Y-42271D01*
X56941Y-42271D01*
X56989Y-42295D01*
X57013Y-42319D01*
X57036Y-42367D01*
X57036Y-42486D01*
X57013Y-42533D01*
X56989Y-42557D01*
X56941Y-42581D01*
X56798Y-42581D01*
X56751Y-42557D01*
X56727Y-42533D01*
X56560Y-43581D02*
X56274Y-43581D01*
X56417Y-43581D02*
X56417Y-43081D01*
X56370Y-43152D01*
X56322Y-43200D01*
X56274Y-43224D01*
X56870Y-43081D02*
X56917Y-43081D01*
X56965Y-43105D01*
X56989Y-43129D01*
X57013Y-43176D01*
X57036Y-43271D01*
X57036Y-43390D01*
X57013Y-43486D01*
X56989Y-43533D01*
X56965Y-43557D01*
X56917Y-43581D01*
X56870Y-43581D01*
X56822Y-43557D01*
X56798Y-43533D01*
X56774Y-43486D01*
X56751Y-43390D01*
X56751Y-43271D01*
X56774Y-43176D01*
X56798Y-43129D01*
X56822Y-43105D01*
X56870Y-43081D01*
X57346Y-43081D02*
X57394Y-43081D01*
X57441Y-43105D01*
X57465Y-43129D01*
X57489Y-43176D01*
X57513Y-43271D01*
X57513Y-43390D01*
X57489Y-43486D01*
X57465Y-43533D01*
X57441Y-43557D01*
X57394Y-43581D01*
X57346Y-43581D01*
X57298Y-43557D01*
X57274Y-43533D01*
X57251Y-43486D01*
X57227Y-43390D01*
X57227Y-43271D01*
X57251Y-43176D01*
X57274Y-43129D01*
X57298Y-43105D01*
X57346Y-43081D01*
X57727Y-43581D02*
X57727Y-43081D01*
X58013Y-43581D02*
X57798Y-43295D01*
X58013Y-43081D02*
X57727Y-43367D01*
X57859Y-38250D02*
X57693Y-38012D01*
X57573Y-38250D02*
X57573Y-37750D01*
X57764Y-37750D01*
X57812Y-37774D01*
X57835Y-37798D01*
X57859Y-37845D01*
X57859Y-37917D01*
X57835Y-37964D01*
X57812Y-37988D01*
X57764Y-38012D01*
X57573Y-38012D01*
X58288Y-37917D02*
X58288Y-38250D01*
X58169Y-37726D02*
X58050Y-38083D01*
X58359Y-38083D01*
X57859Y-39250D02*
X57573Y-39250D01*
X57716Y-39250D02*
X57716Y-38750D01*
X57669Y-38821D01*
X57621Y-38869D01*
X57573Y-38893D01*
X58169Y-38750D02*
X58216Y-38750D01*
X58264Y-38774D01*
X58288Y-38798D01*
X58312Y-38845D01*
X58335Y-38940D01*
X58335Y-39059D01*
X58312Y-39155D01*
X58288Y-39202D01*
X58264Y-39226D01*
X58216Y-39250D01*
X58169Y-39250D01*
X58121Y-39226D01*
X58097Y-39202D01*
X58073Y-39155D01*
X58050Y-39059D01*
X58050Y-38940D01*
X58073Y-38845D01*
X58097Y-38798D01*
X58121Y-38774D01*
X58169Y-38750D01*
X58645Y-38750D02*
X58693Y-38750D01*
X58740Y-38774D01*
X58764Y-38798D01*
X58788Y-38845D01*
X58812Y-38940D01*
X58812Y-39059D01*
X58788Y-39155D01*
X58764Y-39202D01*
X58740Y-39226D01*
X58693Y-39250D01*
X58645Y-39250D01*
X58597Y-39226D01*
X58573Y-39202D01*
X58550Y-39155D01*
X58526Y-39059D01*
X58526Y-38940D01*
X58550Y-38845D01*
X58573Y-38798D01*
X58597Y-38774D01*
X58645Y-38750D01*
X59026Y-39250D02*
X59026Y-38750D01*
X59312Y-39250D02*
X59097Y-38964D01*
X59312Y-38750D02*
X59026Y-39036D01*
X57885Y-40390D02*
X57719Y-40152D01*
X57599Y-40390D02*
X57599Y-39890D01*
X57790Y-39890D01*
X57838Y-39914D01*
X57861Y-39938D01*
X57885Y-39985D01*
X57885Y-40057D01*
X57861Y-40104D01*
X57838Y-40128D01*
X57790Y-40152D01*
X57599Y-40152D01*
X58338Y-39890D02*
X58099Y-39890D01*
X58076Y-40128D01*
X58099Y-40104D01*
X58147Y-40080D01*
X58266Y-40080D01*
X58314Y-40104D01*
X58338Y-40128D01*
X58361Y-40176D01*
X58361Y-40295D01*
X58338Y-40342D01*
X58314Y-40366D01*
X58266Y-40390D01*
X58147Y-40390D01*
X58099Y-40366D01*
X58076Y-40342D01*
X56576Y-39938D02*
X56599Y-39914D01*
X56647Y-39890D01*
X56766Y-39890D01*
X56814Y-39914D01*
X56838Y-39938D01*
X56861Y-39985D01*
X56861Y-40033D01*
X56838Y-40104D01*
X56552Y-40390D01*
X56861Y-40390D01*
X57076Y-40390D02*
X57076Y-39890D01*
X57361Y-40390D02*
X57147Y-40104D01*
X57361Y-39890D02*
X57076Y-40176D01*
X54721Y-42533D02*
X54697Y-42557D01*
X54626Y-42581D01*
X54578Y-42581D01*
X54507Y-42557D01*
X54459Y-42509D01*
X54435Y-42462D01*
X54412Y-42367D01*
X54412Y-42295D01*
X54435Y-42200D01*
X54459Y-42152D01*
X54507Y-42105D01*
X54578Y-42081D01*
X54626Y-42081D01*
X54697Y-42105D01*
X54721Y-42129D01*
X55174Y-42081D02*
X54935Y-42081D01*
X54912Y-42319D01*
X54935Y-42295D01*
X54983Y-42271D01*
X55102Y-42271D01*
X55150Y-42295D01*
X55174Y-42319D01*
X55197Y-42367D01*
X55197Y-42486D01*
X55174Y-42533D01*
X55150Y-42557D01*
X55102Y-42581D01*
X54983Y-42581D01*
X54935Y-42557D01*
X54912Y-42533D01*
X53483Y-41248D02*
X53483Y-41581D01*
X53364Y-41057D02*
X53245Y-41414D01*
X53555Y-41414D01*
X53697Y-41081D02*
X54031Y-41081D01*
X53816Y-41581D01*
X54316Y-41081D02*
X54364Y-41081D01*
X54412Y-41105D01*
X54435Y-41129D01*
X54459Y-41176D01*
X54483Y-41271D01*
X54483Y-41390D01*
X54459Y-41486D01*
X54435Y-41533D01*
X54412Y-41557D01*
X54364Y-41581D01*
X54316Y-41581D01*
X54269Y-41557D01*
X54245Y-41533D01*
X54221Y-41486D01*
X54197Y-41390D01*
X54197Y-41271D01*
X54221Y-41176D01*
X54245Y-41129D01*
X54269Y-41105D01*
X54316Y-41081D01*
X54697Y-41248D02*
X54697Y-41748D01*
X54697Y-41271D02*
X54745Y-41248D01*
X54840Y-41248D01*
X54888Y-41271D01*
X54912Y-41295D01*
X54935Y-41343D01*
X54935Y-41486D01*
X54912Y-41533D01*
X54888Y-41557D01*
X54840Y-41581D01*
X54745Y-41581D01*
X54697Y-41557D01*
X55316Y-41319D02*
X55150Y-41319D01*
X55150Y-41581D02*
X55150Y-41081D01*
X55388Y-41081D01*
X56021Y-38202D02*
X55997Y-38226D01*
X55926Y-38250D01*
X55878Y-38250D01*
X55807Y-38226D01*
X55759Y-38178D01*
X55735Y-38131D01*
X55712Y-38036D01*
X55712Y-37964D01*
X55735Y-37869D01*
X55759Y-37821D01*
X55807Y-37774D01*
X55878Y-37750D01*
X55926Y-37750D01*
X55997Y-37774D01*
X56021Y-37798D01*
X56450Y-37750D02*
X56355Y-37750D01*
X56307Y-37774D01*
X56283Y-37798D01*
X56235Y-37869D01*
X56212Y-37964D01*
X56212Y-38155D01*
X56235Y-38202D01*
X56259Y-38226D01*
X56307Y-38250D01*
X56402Y-38250D01*
X56450Y-38226D01*
X56474Y-38202D01*
X56497Y-38155D01*
X56497Y-38036D01*
X56474Y-37988D01*
X56450Y-37964D01*
X56402Y-37940D01*
X56307Y-37940D01*
X56259Y-37964D01*
X56235Y-37988D01*
X56212Y-38036D01*
X54783Y-36917D02*
X54783Y-37250D01*
X54664Y-36726D02*
X54545Y-37083D01*
X54855Y-37083D01*
X54997Y-36750D02*
X55331Y-36750D01*
X55116Y-37250D01*
X55616Y-36750D02*
X55664Y-36750D01*
X55712Y-36774D01*
X55735Y-36798D01*
X55759Y-36845D01*
X55783Y-36940D01*
X55783Y-37059D01*
X55759Y-37155D01*
X55735Y-37202D01*
X55712Y-37226D01*
X55664Y-37250D01*
X55616Y-37250D01*
X55569Y-37226D01*
X55545Y-37202D01*
X55521Y-37155D01*
X55497Y-37059D01*
X55497Y-36940D01*
X55521Y-36845D01*
X55545Y-36798D01*
X55569Y-36774D01*
X55616Y-36750D01*
X55997Y-36917D02*
X55997Y-37417D01*
X55997Y-36940D02*
X56045Y-36917D01*
X56140Y-36917D01*
X56188Y-36940D01*
X56212Y-36964D01*
X56235Y-37012D01*
X56235Y-37155D01*
X56212Y-37202D01*
X56188Y-37226D01*
X56140Y-37250D01*
X56045Y-37250D01*
X55997Y-37226D01*
X56616Y-36988D02*
X56450Y-36988D01*
X56450Y-37250D02*
X56450Y-36750D01*
X56688Y-36750D01*
G54D12*
X54325Y-40852D02*
X53825Y-40852D01*
X54277Y-40328D02*
X54301Y-40352D01*
X54325Y-40423D01*
X54325Y-40471D01*
X54301Y-40542D01*
X54253Y-40590D01*
X54206Y-40614D01*
X54111Y-40637D01*
X54039Y-40637D01*
X53944Y-40614D01*
X53896Y-40590D01*
X53849Y-40542D01*
X53825Y-40471D01*
X53825Y-40423D01*
X53849Y-40352D01*
X53873Y-40328D01*
X54325Y-39852D02*
X54325Y-40137D01*
X54325Y-39994D02*
X53825Y-39994D01*
X53896Y-40042D01*
X53944Y-40090D01*
X53968Y-40137D01*
X55108Y-40416D02*
X55203Y-40416D01*
X55251Y-40440D01*
X55299Y-40487D01*
X55323Y-40583D01*
X55323Y-40749D01*
X55299Y-40844D01*
X55251Y-40892D01*
X55203Y-40916D01*
X55108Y-40916D01*
X55061Y-40892D01*
X55013Y-40844D01*
X54989Y-40749D01*
X54989Y-40583D01*
X55013Y-40487D01*
X55061Y-40440D01*
X55108Y-40416D01*
X55537Y-40916D02*
X55537Y-40416D01*
X55727Y-40416D01*
X55775Y-40440D01*
X55799Y-40464D01*
X55823Y-40511D01*
X55823Y-40583D01*
X55799Y-40630D01*
X55775Y-40654D01*
X55727Y-40678D01*
X55537Y-40678D01*
X56013Y-40773D02*
X56251Y-40773D01*
X55965Y-40916D02*
X56132Y-40416D01*
X56299Y-40916D01*
X56442Y-40464D02*
X56465Y-40440D01*
X56513Y-40416D01*
X56632Y-40416D01*
X56680Y-40440D01*
X56703Y-40464D01*
X56727Y-40511D01*
X56727Y-40559D01*
X56703Y-40630D01*
X56418Y-40916D01*
X56727Y-40916D01*
X57203Y-40916D02*
X56918Y-40916D01*
X57061Y-40916D02*
X57061Y-40416D01*
X57013Y-40487D01*
X56965Y-40535D01*
X56918Y-40559D01*
X57680Y-40916D02*
X57394Y-40916D01*
X57537Y-40916D02*
X57537Y-40416D01*
X57489Y-40487D01*
X57442Y-40535D01*
X57394Y-40559D01*
X58156Y-40916D02*
X57870Y-40916D01*
X58013Y-40916D02*
X58013Y-40416D01*
X57965Y-40487D01*
X57918Y-40535D01*
X57870Y-40559D01*
X58370Y-40916D02*
X58370Y-40416D01*
X58656Y-40916D02*
X58442Y-40630D01*
X58656Y-40416D02*
X58370Y-40702D01*
X58870Y-40916D02*
X58870Y-40416D01*
X59061Y-40416D01*
X59108Y-40440D01*
X59132Y-40464D01*
X59156Y-40511D01*
X59156Y-40583D01*
X59132Y-40630D01*
X59108Y-40654D01*
X59061Y-40678D01*
X58870Y-40678D01*
G54D11*
X55221Y-38202D02*
X55197Y-38226D01*
X55126Y-38250D01*
X55078Y-38250D01*
X55007Y-38226D01*
X54959Y-38178D01*
X54935Y-38131D01*
X54912Y-38036D01*
X54912Y-37964D01*
X54935Y-37869D01*
X54959Y-37821D01*
X55007Y-37774D01*
X55078Y-37750D01*
X55126Y-37750D01*
X55197Y-37774D01*
X55221Y-37798D01*
X55388Y-37750D02*
X55721Y-37750D01*
X55507Y-38250D01*
X54947Y-38750D02*
X54995Y-38750D01*
X55043Y-38774D01*
X55066Y-38798D01*
X55090Y-38845D01*
X55114Y-38940D01*
X55114Y-39059D01*
X55090Y-39155D01*
X55066Y-39202D01*
X55043Y-39226D01*
X54995Y-39250D01*
X54947Y-39250D01*
X54900Y-39226D01*
X54876Y-39202D01*
X54852Y-39155D01*
X54828Y-39059D01*
X54828Y-38940D01*
X54852Y-38845D01*
X54876Y-38798D01*
X54900Y-38774D01*
X54947Y-38750D01*
X55328Y-39202D02*
X55352Y-39226D01*
X55328Y-39250D01*
X55305Y-39226D01*
X55328Y-39202D01*
X55328Y-39250D01*
X55828Y-39250D02*
X55543Y-39250D01*
X55685Y-39250D02*
X55685Y-38750D01*
X55638Y-38821D01*
X55590Y-38869D01*
X55543Y-38893D01*
X56043Y-38917D02*
X56043Y-39417D01*
X56281Y-39178D02*
X56305Y-39226D01*
X56352Y-39250D01*
X56043Y-39178D02*
X56066Y-39226D01*
X56114Y-39250D01*
X56209Y-39250D01*
X56257Y-39226D01*
X56281Y-39178D01*
X56281Y-38917D01*
X56733Y-38988D02*
X56566Y-38988D01*
X56566Y-39250D02*
X56566Y-38750D01*
X56805Y-38750D01*
X57556Y-42533D02*
X57532Y-42557D01*
X57461Y-42581D01*
X57413Y-42581D01*
X57342Y-42557D01*
X57294Y-42509D01*
X57270Y-42462D01*
X57247Y-42367D01*
X57247Y-42295D01*
X57270Y-42200D01*
X57294Y-42152D01*
X57342Y-42105D01*
X57413Y-42081D01*
X57461Y-42081D01*
X57532Y-42105D01*
X57556Y-42129D01*
X57842Y-42295D02*
X57794Y-42271D01*
X57770Y-42248D01*
X57747Y-42200D01*
X57747Y-42176D01*
X57770Y-42129D01*
X57794Y-42105D01*
X57842Y-42081D01*
X57937Y-42081D01*
X57985Y-42105D01*
X58009Y-42129D01*
X58032Y-42176D01*
X58032Y-42200D01*
X58009Y-42248D01*
X57985Y-42271D01*
X57937Y-42295D01*
X57842Y-42295D01*
X57794Y-42319D01*
X57770Y-42343D01*
X57747Y-42390D01*
X57747Y-42486D01*
X57770Y-42533D01*
X57794Y-42557D01*
X57842Y-42581D01*
X57937Y-42581D01*
X57985Y-42557D01*
X58009Y-42533D01*
X58032Y-42486D01*
X58032Y-42390D01*
X58009Y-42343D01*
X57985Y-42319D01*
X57937Y-42295D01*
X56282Y-41081D02*
X56330Y-41081D01*
X56378Y-41105D01*
X56401Y-41129D01*
X56425Y-41176D01*
X56449Y-41271D01*
X56449Y-41390D01*
X56425Y-41486D01*
X56401Y-41533D01*
X56378Y-41557D01*
X56330Y-41581D01*
X56282Y-41581D01*
X56235Y-41557D01*
X56211Y-41533D01*
X56187Y-41486D01*
X56163Y-41390D01*
X56163Y-41271D01*
X56187Y-41176D01*
X56211Y-41129D01*
X56235Y-41105D01*
X56282Y-41081D01*
X56663Y-41533D02*
X56687Y-41557D01*
X56663Y-41581D01*
X56640Y-41557D01*
X56663Y-41533D01*
X56663Y-41581D01*
X57163Y-41581D02*
X56878Y-41581D01*
X57020Y-41581D02*
X57020Y-41081D01*
X56973Y-41152D01*
X56925Y-41200D01*
X56878Y-41224D01*
X57378Y-41248D02*
X57378Y-41748D01*
X57616Y-41509D02*
X57640Y-41557D01*
X57687Y-41581D01*
X57378Y-41509D02*
X57401Y-41557D01*
X57449Y-41581D01*
X57544Y-41581D01*
X57592Y-41557D01*
X57616Y-41509D01*
X57616Y-41248D01*
X58068Y-41319D02*
X57901Y-41319D01*
X57901Y-41581D02*
X57901Y-41081D01*
X58140Y-41081D01*
X58475Y-40126D02*
X58309Y-39888D01*
X58189Y-40126D02*
X58189Y-39626D01*
X58380Y-39626D01*
X58428Y-39650D01*
X58451Y-39674D01*
X58475Y-39721D01*
X58475Y-39793D01*
X58451Y-39840D01*
X58428Y-39864D01*
X58380Y-39888D01*
X58189Y-39888D01*
X58761Y-39840D02*
X58713Y-39816D01*
X58689Y-39793D01*
X58666Y-39745D01*
X58666Y-39721D01*
X58689Y-39674D01*
X58713Y-39650D01*
X58761Y-39626D01*
X58856Y-39626D01*
X58904Y-39650D01*
X58928Y-39674D01*
X58951Y-39721D01*
X58951Y-39745D01*
X58928Y-39793D01*
X58904Y-39816D01*
X58856Y-39840D01*
X58761Y-39840D01*
X58713Y-39864D01*
X58689Y-39888D01*
X58666Y-39935D01*
X58666Y-40031D01*
X58689Y-40078D01*
X58713Y-40102D01*
X58761Y-40126D01*
X58856Y-40126D01*
X58904Y-40102D01*
X58928Y-40078D01*
X58951Y-40031D01*
X58951Y-39935D01*
X58928Y-39888D01*
X58904Y-39864D01*
X58856Y-39840D01*
X58939Y-39674D02*
X58963Y-39650D01*
X59011Y-39626D01*
X59130Y-39626D01*
X59178Y-39650D01*
X59201Y-39674D01*
X59225Y-39721D01*
X59225Y-39769D01*
X59201Y-39840D01*
X58916Y-40126D01*
X59225Y-40126D01*
X59535Y-39626D02*
X59582Y-39626D01*
X59630Y-39650D01*
X59654Y-39674D01*
X59678Y-39721D01*
X59701Y-39816D01*
X59701Y-39935D01*
X59678Y-40031D01*
X59654Y-40078D01*
X59630Y-40102D01*
X59582Y-40126D01*
X59535Y-40126D01*
X59487Y-40102D01*
X59463Y-40078D01*
X59439Y-40031D01*
X59416Y-39935D01*
X59416Y-39816D01*
X59439Y-39721D01*
X59463Y-39674D01*
X59487Y-39650D01*
X59535Y-39626D01*
X60011Y-39626D02*
X60059Y-39626D01*
X60106Y-39650D01*
X60130Y-39674D01*
X60154Y-39721D01*
X60178Y-39816D01*
X60178Y-39935D01*
X60154Y-40031D01*
X60130Y-40078D01*
X60106Y-40102D01*
X60059Y-40126D01*
X60011Y-40126D01*
X59963Y-40102D01*
X59939Y-40078D01*
X59916Y-40031D01*
X59892Y-39935D01*
X59892Y-39816D01*
X59916Y-39721D01*
X59939Y-39674D01*
X59963Y-39650D01*
X60011Y-39626D01*
X60599Y-41956D02*
X60575Y-41980D01*
X60504Y-42004D01*
X60456Y-42004D01*
X60385Y-41980D01*
X60337Y-41932D01*
X60313Y-41885D01*
X60290Y-41790D01*
X60290Y-41718D01*
X60313Y-41623D01*
X60337Y-41575D01*
X60385Y-41528D01*
X60456Y-41504D01*
X60504Y-41504D01*
X60575Y-41528D01*
X60599Y-41552D01*
X61075Y-42004D02*
X60790Y-42004D01*
X60932Y-42004D02*
X60932Y-41504D01*
X60885Y-41575D01*
X60837Y-41623D01*
X60790Y-41647D01*
X61551Y-42004D02*
X61266Y-42004D01*
X61409Y-42004D02*
X61409Y-41504D01*
X61361Y-41575D01*
X61313Y-41623D01*
X61266Y-41647D01*
X59063Y-42004D02*
X59111Y-42004D01*
X59159Y-42028D01*
X59182Y-42052D01*
X59206Y-42099D01*
X59230Y-42194D01*
X59230Y-42313D01*
X59206Y-42409D01*
X59182Y-42456D01*
X59159Y-42480D01*
X59111Y-42504D01*
X59063Y-42504D01*
X59016Y-42480D01*
X58992Y-42456D01*
X58968Y-42409D01*
X58944Y-42313D01*
X58944Y-42194D01*
X58968Y-42099D01*
X58992Y-42052D01*
X59016Y-42028D01*
X59063Y-42004D01*
X59444Y-42456D02*
X59468Y-42480D01*
X59444Y-42504D01*
X59421Y-42480D01*
X59444Y-42456D01*
X59444Y-42504D01*
X59944Y-42504D02*
X59659Y-42504D01*
X59801Y-42504D02*
X59801Y-42004D01*
X59754Y-42075D01*
X59706Y-42123D01*
X59659Y-42147D01*
X60159Y-42171D02*
X60159Y-42671D01*
X60397Y-42432D02*
X60421Y-42480D01*
X60468Y-42504D01*
X60159Y-42432D02*
X60182Y-42480D01*
X60230Y-42504D01*
X60325Y-42504D01*
X60373Y-42480D01*
X60397Y-42432D01*
X60397Y-42171D01*
X60849Y-42242D02*
X60682Y-42242D01*
X60682Y-42504D02*
X60682Y-42004D01*
X60921Y-42004D01*
G54D12*
X60179Y-39612D02*
X59679Y-39612D01*
X60131Y-39088D02*
X60155Y-39112D01*
X60179Y-39183D01*
X60179Y-39231D01*
X60155Y-39302D01*
X60107Y-39350D01*
X60060Y-39374D01*
X59965Y-39397D01*
X59893Y-39397D01*
X59798Y-39374D01*
X59750Y-39350D01*
X59703Y-39302D01*
X59679Y-39231D01*
X59679Y-39183D01*
X59703Y-39112D01*
X59727Y-39088D01*
X59893Y-38802D02*
X59869Y-38850D01*
X59846Y-38874D01*
X59798Y-38897D01*
X59774Y-38897D01*
X59727Y-38874D01*
X59703Y-38850D01*
X59679Y-38802D01*
X59679Y-38707D01*
X59703Y-38659D01*
X59727Y-38635D01*
X59774Y-38612D01*
X59798Y-38612D01*
X59846Y-38635D01*
X59869Y-38659D01*
X59893Y-38707D01*
X59893Y-38802D01*
X59917Y-38850D01*
X59941Y-38874D01*
X59988Y-38897D01*
X60084Y-38897D01*
X60131Y-38874D01*
X60155Y-38850D01*
X60179Y-38802D01*
X60179Y-38707D01*
X60155Y-38659D01*
X60131Y-38635D01*
X60084Y-38612D01*
X59988Y-38612D01*
X59941Y-38635D01*
X59917Y-38659D01*
X59893Y-38707D01*
X61536Y-43533D02*
X61536Y-43295D01*
X61679Y-43581D02*
X61179Y-43414D01*
X61679Y-43247D01*
X61679Y-43081D02*
X61179Y-43081D01*
X61179Y-42962D01*
X61203Y-42890D01*
X61250Y-42843D01*
X61298Y-42819D01*
X61393Y-42795D01*
X61465Y-42795D01*
X61560Y-42819D01*
X61607Y-42843D01*
X61655Y-42890D01*
X61679Y-42962D01*
X61679Y-43081D01*
X61393Y-42509D02*
X61369Y-42557D01*
X61346Y-42581D01*
X61298Y-42604D01*
X61274Y-42604D01*
X61227Y-42581D01*
X61203Y-42557D01*
X61179Y-42509D01*
X61179Y-42414D01*
X61203Y-42366D01*
X61227Y-42343D01*
X61274Y-42319D01*
X61298Y-42319D01*
X61346Y-42343D01*
X61369Y-42366D01*
X61393Y-42414D01*
X61393Y-42509D01*
X61417Y-42557D01*
X61441Y-42581D01*
X61488Y-42604D01*
X61584Y-42604D01*
X61631Y-42581D01*
X61655Y-42557D01*
X61679Y-42509D01*
X61679Y-42414D01*
X61655Y-42366D01*
X61631Y-42343D01*
X61584Y-42319D01*
X61488Y-42319D01*
X61441Y-42343D01*
X61417Y-42366D01*
X61393Y-42414D01*
X61346Y-41890D02*
X61679Y-41890D01*
X61155Y-42009D02*
X61512Y-42128D01*
X61512Y-41819D01*
X61227Y-41652D02*
X61203Y-41628D01*
X61179Y-41581D01*
X61179Y-41462D01*
X61203Y-41414D01*
X61227Y-41390D01*
X61274Y-41366D01*
X61322Y-41366D01*
X61393Y-41390D01*
X61679Y-41676D01*
X61679Y-41366D01*
X61227Y-41176D02*
X61203Y-41152D01*
X61179Y-41104D01*
X61179Y-40985D01*
X61203Y-40938D01*
X61227Y-40914D01*
X61274Y-40890D01*
X61322Y-40890D01*
X61393Y-40914D01*
X61679Y-41200D01*
X61679Y-40890D01*
X61536Y-40700D02*
X61536Y-40462D01*
X61679Y-40747D02*
X61179Y-40581D01*
X61679Y-40414D01*
X61679Y-39962D02*
X61441Y-40128D01*
X61679Y-40247D02*
X61179Y-40247D01*
X61179Y-40057D01*
X61203Y-40009D01*
X61227Y-39985D01*
X61274Y-39962D01*
X61346Y-39962D01*
X61393Y-39985D01*
X61417Y-40009D01*
X61441Y-40057D01*
X61441Y-40247D01*
X61679Y-39747D02*
X61179Y-39747D01*
X61536Y-39581D01*
X61179Y-39414D01*
X61679Y-39414D01*
X61179Y-39223D02*
X61179Y-38890D01*
X61679Y-39223D01*
X61679Y-38890D01*
G54D11*
X60599Y-39240D02*
X60575Y-39264D01*
X60504Y-39288D01*
X60456Y-39288D01*
X60385Y-39264D01*
X60337Y-39216D01*
X60313Y-39169D01*
X60290Y-39074D01*
X60290Y-39002D01*
X60313Y-38907D01*
X60337Y-38859D01*
X60385Y-38812D01*
X60456Y-38788D01*
X60504Y-38788D01*
X60575Y-38812D01*
X60599Y-38836D01*
X61075Y-39288D02*
X60790Y-39288D01*
X60932Y-39288D02*
X60932Y-38788D01*
X60885Y-38859D01*
X60837Y-38907D01*
X60790Y-38931D01*
X61266Y-38836D02*
X61290Y-38812D01*
X61337Y-38788D01*
X61456Y-38788D01*
X61504Y-38812D01*
X61528Y-38836D01*
X61551Y-38883D01*
X61551Y-38931D01*
X61528Y-39002D01*
X61242Y-39288D01*
X61551Y-39288D01*
X59063Y-39288D02*
X59111Y-39288D01*
X59159Y-39312D01*
X59182Y-39336D01*
X59206Y-39383D01*
X59230Y-39478D01*
X59230Y-39597D01*
X59206Y-39693D01*
X59182Y-39740D01*
X59159Y-39764D01*
X59111Y-39788D01*
X59063Y-39788D01*
X59016Y-39764D01*
X58992Y-39740D01*
X58968Y-39693D01*
X58944Y-39597D01*
X58944Y-39478D01*
X58968Y-39383D01*
X58992Y-39336D01*
X59016Y-39312D01*
X59063Y-39288D01*
X59444Y-39740D02*
X59468Y-39764D01*
X59444Y-39788D01*
X59421Y-39764D01*
X59444Y-39740D01*
X59444Y-39788D01*
X59944Y-39788D02*
X59659Y-39788D01*
X59801Y-39788D02*
X59801Y-39288D01*
X59754Y-39359D01*
X59706Y-39407D01*
X59659Y-39431D01*
X60159Y-39455D02*
X60159Y-39955D01*
X60397Y-39716D02*
X60421Y-39764D01*
X60468Y-39788D01*
X60159Y-39716D02*
X60182Y-39764D01*
X60230Y-39788D01*
X60325Y-39788D01*
X60373Y-39764D01*
X60397Y-39716D01*
X60397Y-39455D01*
X60849Y-39526D02*
X60682Y-39526D01*
X60682Y-39788D02*
X60682Y-39288D01*
X60921Y-39288D01*
X61794Y-42100D02*
X61770Y-42124D01*
X61699Y-42148D01*
X61651Y-42148D01*
X61580Y-42124D01*
X61532Y-42076D01*
X61508Y-42029D01*
X61485Y-41934D01*
X61485Y-41862D01*
X61508Y-41767D01*
X61532Y-41719D01*
X61580Y-41672D01*
X61651Y-41648D01*
X61699Y-41648D01*
X61770Y-41672D01*
X61794Y-41696D01*
X62270Y-42148D02*
X61985Y-42148D01*
X62127Y-42148D02*
X62127Y-41648D01*
X62080Y-41719D01*
X62032Y-41767D01*
X61985Y-41791D01*
X62437Y-41648D02*
X62746Y-41648D01*
X62580Y-41838D01*
X62651Y-41838D01*
X62699Y-41862D01*
X62723Y-41886D01*
X62746Y-41934D01*
X62746Y-42053D01*
X62723Y-42100D01*
X62699Y-42124D01*
X62651Y-42148D01*
X62508Y-42148D01*
X62461Y-42124D01*
X62437Y-42100D01*
X61782Y-43148D02*
X61496Y-43148D01*
X61639Y-43148D02*
X61639Y-42648D01*
X61592Y-42719D01*
X61544Y-42767D01*
X61496Y-42791D01*
X61996Y-42815D02*
X61996Y-43315D01*
X62235Y-43076D02*
X62258Y-43124D01*
X62306Y-43148D01*
X61996Y-43076D02*
X62020Y-43124D01*
X62068Y-43148D01*
X62163Y-43148D01*
X62211Y-43124D01*
X62235Y-43076D01*
X62235Y-42815D01*
X62687Y-42886D02*
X62520Y-42886D01*
X62520Y-43148D02*
X62520Y-42648D01*
X62758Y-42648D01*
X62963Y-39642D02*
X62797Y-39404D01*
X62677Y-39642D02*
X62677Y-39142D01*
X62868Y-39142D01*
X62916Y-39166D01*
X62939Y-39190D01*
X62963Y-39237D01*
X62963Y-39309D01*
X62939Y-39356D01*
X62916Y-39380D01*
X62868Y-39404D01*
X62677Y-39404D01*
X63201Y-39642D02*
X63297Y-39642D01*
X63344Y-39618D01*
X63368Y-39594D01*
X63416Y-39523D01*
X63439Y-39428D01*
X63439Y-39237D01*
X63416Y-39190D01*
X63392Y-39166D01*
X63344Y-39142D01*
X63249Y-39142D01*
X63201Y-39166D01*
X63177Y-39190D01*
X63154Y-39237D01*
X63154Y-39356D01*
X63177Y-39404D01*
X63201Y-39428D01*
X63249Y-39451D01*
X63344Y-39451D01*
X63392Y-39428D01*
X63416Y-39404D01*
X63439Y-39356D01*
X61904Y-39642D02*
X61618Y-39642D01*
X61761Y-39642D02*
X61761Y-39142D01*
X61713Y-39213D01*
X61666Y-39261D01*
X61618Y-39285D01*
X62118Y-39642D02*
X62118Y-39142D01*
X62285Y-39499D01*
X62451Y-39142D01*
X62451Y-39642D01*
X62725Y-40941D02*
X62558Y-40703D01*
X62439Y-40941D02*
X62439Y-40441D01*
X62630Y-40441D01*
X62677Y-40465D01*
X62701Y-40489D01*
X62725Y-40536D01*
X62725Y-40608D01*
X62701Y-40655D01*
X62677Y-40679D01*
X62630Y-40703D01*
X62439Y-40703D01*
X63201Y-40941D02*
X62916Y-40941D01*
X63058Y-40941D02*
X63058Y-40441D01*
X63011Y-40512D01*
X62963Y-40560D01*
X62916Y-40584D01*
X63511Y-40441D02*
X63558Y-40441D01*
X63606Y-40465D01*
X63630Y-40489D01*
X63654Y-40536D01*
X63677Y-40631D01*
X63677Y-40750D01*
X63654Y-40846D01*
X63630Y-40893D01*
X63606Y-40917D01*
X63558Y-40941D01*
X63511Y-40941D01*
X63463Y-40917D01*
X63439Y-40893D01*
X63416Y-40846D01*
X63392Y-40750D01*
X63392Y-40631D01*
X63416Y-40536D01*
X63439Y-40489D01*
X63463Y-40465D01*
X63511Y-40441D01*
X61297Y-41108D02*
X61297Y-41441D01*
X61177Y-40917D02*
X61058Y-41274D01*
X61368Y-41274D01*
X61558Y-41393D02*
X61582Y-41417D01*
X61558Y-41441D01*
X61535Y-41417D01*
X61558Y-41393D01*
X61558Y-41441D01*
X61892Y-40941D02*
X61939Y-40941D01*
X61987Y-40965D01*
X62011Y-40989D01*
X62035Y-41036D01*
X62058Y-41131D01*
X62058Y-41250D01*
X62035Y-41346D01*
X62011Y-41393D01*
X61987Y-41417D01*
X61939Y-41441D01*
X61892Y-41441D01*
X61844Y-41417D01*
X61820Y-41393D01*
X61797Y-41346D01*
X61773Y-41250D01*
X61773Y-41131D01*
X61797Y-41036D01*
X61820Y-40989D01*
X61844Y-40965D01*
X61892Y-40941D01*
X62249Y-40989D02*
X62273Y-40965D01*
X62320Y-40941D01*
X62439Y-40941D01*
X62487Y-40965D01*
X62511Y-40989D01*
X62535Y-41036D01*
X62535Y-41084D01*
X62511Y-41155D01*
X62225Y-41441D01*
X62535Y-41441D01*
X62749Y-41441D02*
X62749Y-40941D01*
X63035Y-41441D02*
X62820Y-41155D01*
X63035Y-40941D02*
X62749Y-41227D01*
X61834Y-38054D02*
X61667Y-37816D01*
X61548Y-38054D02*
X61548Y-37554D01*
X61739Y-37554D01*
X61786Y-37578D01*
X61810Y-37602D01*
X61834Y-37649D01*
X61834Y-37721D01*
X61810Y-37768D01*
X61786Y-37792D01*
X61739Y-37816D01*
X61548Y-37816D01*
X62310Y-38054D02*
X62025Y-38054D01*
X62167Y-38054D02*
X62167Y-37554D01*
X62120Y-37625D01*
X62072Y-37673D01*
X62025Y-37697D01*
X62477Y-37554D02*
X62786Y-37554D01*
X62620Y-37744D01*
X62691Y-37744D01*
X62739Y-37768D01*
X62763Y-37792D01*
X62786Y-37840D01*
X62786Y-37959D01*
X62763Y-38006D01*
X62739Y-38030D01*
X62691Y-38054D01*
X62548Y-38054D01*
X62501Y-38030D01*
X62477Y-38006D01*
X62013Y-39054D02*
X61727Y-39054D01*
X61870Y-39054D02*
X61870Y-38554D01*
X61822Y-38625D01*
X61775Y-38673D01*
X61727Y-38697D01*
X62227Y-39054D02*
X62227Y-38554D01*
X62394Y-38911D01*
X62560Y-38554D01*
X62560Y-39054D01*
X61334Y-38872D02*
X61310Y-38896D01*
X61239Y-38920D01*
X61191Y-38920D01*
X61120Y-38896D01*
X61072Y-38848D01*
X61048Y-38801D01*
X61025Y-38706D01*
X61025Y-38634D01*
X61048Y-38539D01*
X61072Y-38491D01*
X61120Y-38444D01*
X61191Y-38420D01*
X61239Y-38420D01*
X61310Y-38444D01*
X61334Y-38468D01*
X61810Y-38920D02*
X61525Y-38920D01*
X61667Y-38920D02*
X61667Y-38420D01*
X61620Y-38491D01*
X61572Y-38539D01*
X61525Y-38563D01*
X62239Y-38587D02*
X62239Y-38920D01*
X62120Y-38396D02*
X62001Y-38753D01*
X62310Y-38753D01*
X60572Y-37587D02*
X60572Y-37920D01*
X60453Y-37396D02*
X60334Y-37753D01*
X60644Y-37753D01*
X60786Y-37420D02*
X61120Y-37420D01*
X60906Y-37920D01*
X61310Y-37587D02*
X61310Y-38087D01*
X61310Y-37610D02*
X61358Y-37587D01*
X61453Y-37587D01*
X61501Y-37610D01*
X61525Y-37634D01*
X61548Y-37682D01*
X61548Y-37825D01*
X61525Y-37872D01*
X61501Y-37896D01*
X61453Y-37920D01*
X61358Y-37920D01*
X61310Y-37896D01*
X61929Y-37658D02*
X61763Y-37658D01*
X61763Y-37920D02*
X61763Y-37420D01*
X62001Y-37420D01*
G54D12*
X61018Y-40662D02*
X60518Y-40662D01*
X60970Y-40138D02*
X60994Y-40162D01*
X61018Y-40233D01*
X61018Y-40281D01*
X60994Y-40352D01*
X60946Y-40400D01*
X60899Y-40424D01*
X60804Y-40447D01*
X60732Y-40447D01*
X60637Y-40424D01*
X60589Y-40400D01*
X60542Y-40352D01*
X60518Y-40281D01*
X60518Y-40233D01*
X60542Y-40162D01*
X60566Y-40138D01*
X60685Y-39709D02*
X61018Y-39709D01*
X60494Y-39828D02*
X60851Y-39947D01*
X60851Y-39638D01*
X62618Y-40912D02*
X62618Y-40816D01*
X62642Y-40769D01*
X62689Y-40721D01*
X62785Y-40697D01*
X62951Y-40697D01*
X63046Y-40721D01*
X63094Y-40769D01*
X63118Y-40816D01*
X63118Y-40912D01*
X63094Y-40959D01*
X63046Y-41007D01*
X62951Y-41031D01*
X62785Y-41031D01*
X62689Y-41007D01*
X62642Y-40959D01*
X62618Y-40912D01*
X63118Y-40483D02*
X62618Y-40483D01*
X62618Y-40293D01*
X62642Y-40245D01*
X62666Y-40221D01*
X62713Y-40197D01*
X62785Y-40197D01*
X62832Y-40221D01*
X62856Y-40245D01*
X62880Y-40293D01*
X62880Y-40483D01*
X62666Y-40007D02*
X62642Y-39983D01*
X62618Y-39935D01*
X62618Y-39816D01*
X62642Y-39769D01*
X62666Y-39745D01*
X62713Y-39721D01*
X62761Y-39721D01*
X62832Y-39745D01*
X63118Y-40031D01*
X63118Y-39721D01*
X63118Y-39245D02*
X63118Y-39531D01*
X63118Y-39388D02*
X62618Y-39388D01*
X62689Y-39435D01*
X62737Y-39483D01*
X62761Y-39531D01*
X62618Y-39078D02*
X62618Y-38745D01*
X63118Y-38959D01*
X62618Y-38602D02*
X62618Y-38269D01*
X63118Y-38483D01*
X62975Y-38102D02*
X62975Y-37864D01*
X63118Y-38150D02*
X62618Y-37983D01*
X63118Y-37816D01*
X63118Y-37364D02*
X62880Y-37531D01*
X63118Y-37650D02*
X62618Y-37650D01*
X62618Y-37459D01*
X62642Y-37412D01*
X62666Y-37388D01*
X62713Y-37364D01*
X62785Y-37364D01*
X62832Y-37388D01*
X62856Y-37412D01*
X62880Y-37459D01*
X62880Y-37650D01*
X63118Y-37150D02*
X62618Y-37150D01*
X62975Y-36983D01*
X62618Y-36816D01*
X63118Y-36816D01*
X62618Y-36626D02*
X62618Y-36293D01*
X63118Y-36626D01*
X63118Y-36293D01*
X53085Y-35863D02*
X53085Y-36220D01*
X53061Y-36291D01*
X53013Y-36339D01*
X52942Y-36363D01*
X52894Y-36363D01*
X53323Y-36363D02*
X53323Y-35863D01*
X53513Y-35863D01*
X53561Y-35887D01*
X53585Y-35911D01*
X53609Y-35958D01*
X53609Y-36030D01*
X53585Y-36077D01*
X53561Y-36101D01*
X53513Y-36125D01*
X53323Y-36125D01*
X54085Y-36363D02*
X53799Y-36363D01*
X53942Y-36363D02*
X53942Y-35863D01*
X53894Y-35934D01*
X53847Y-35982D01*
X53799Y-36006D01*
G54D11*
X53032Y-38285D02*
X53055Y-38309D01*
X53032Y-38333D01*
X53008Y-38309D01*
X53032Y-38285D01*
X53032Y-38333D01*
G54D12*
X53085Y-42871D02*
X53085Y-43228D01*
X53061Y-43299D01*
X53013Y-43347D01*
X52942Y-43371D01*
X52894Y-43371D01*
X53323Y-43371D02*
X53323Y-42871D01*
X53513Y-42871D01*
X53561Y-42895D01*
X53585Y-42919D01*
X53609Y-42966D01*
X53609Y-43038D01*
X53585Y-43085D01*
X53561Y-43109D01*
X53513Y-43133D01*
X53323Y-43133D01*
X53775Y-42871D02*
X54085Y-42871D01*
X53918Y-43061D01*
X53990Y-43061D01*
X54037Y-43085D01*
X54061Y-43109D01*
X54085Y-43157D01*
X54085Y-43276D01*
X54061Y-43323D01*
X54037Y-43347D01*
X53990Y-43371D01*
X53847Y-43371D01*
X53799Y-43347D01*
X53775Y-43323D01*
G54D11*
X53032Y-45293D02*
X53055Y-45317D01*
X53032Y-45341D01*
X53008Y-45317D01*
X53032Y-45293D01*
X53032Y-45341D01*
G54D12*
X53770Y-38886D02*
X53770Y-39243D01*
X53746Y-39314D01*
X53698Y-39362D01*
X53627Y-39386D01*
X53579Y-39386D01*
X54008Y-39386D02*
X54008Y-38886D01*
X54198Y-38886D01*
X54246Y-38910D01*
X54270Y-38934D01*
X54294Y-38981D01*
X54294Y-39053D01*
X54270Y-39100D01*
X54246Y-39124D01*
X54198Y-39148D01*
X54008Y-39148D01*
X54484Y-38934D02*
X54508Y-38910D01*
X54556Y-38886D01*
X54675Y-38886D01*
X54722Y-38910D01*
X54746Y-38934D01*
X54770Y-38981D01*
X54770Y-39029D01*
X54746Y-39100D01*
X54460Y-39386D01*
X54770Y-39386D01*
G54D11*
X52217Y-38868D02*
X52240Y-38892D01*
X52217Y-38916D01*
X52193Y-38892D01*
X52217Y-38868D01*
X52217Y-38916D01*
G54D12*
X63788Y-38367D02*
X63860Y-38391D01*
X63979Y-38391D01*
X64026Y-38367D01*
X64050Y-38343D01*
X64074Y-38296D01*
X64074Y-38248D01*
X64050Y-38200D01*
X64026Y-38177D01*
X63979Y-38153D01*
X63883Y-38129D01*
X63836Y-38105D01*
X63812Y-38081D01*
X63788Y-38034D01*
X63788Y-37986D01*
X63812Y-37939D01*
X63836Y-37915D01*
X63883Y-37891D01*
X64002Y-37891D01*
X64074Y-37915D01*
X64431Y-37891D02*
X64431Y-38248D01*
X64407Y-38319D01*
X64360Y-38367D01*
X64288Y-38391D01*
X64240Y-38391D01*
X64931Y-38391D02*
X64645Y-38391D01*
X64788Y-38391D02*
X64788Y-37891D01*
X64740Y-37962D01*
X64693Y-38010D01*
X64645Y-38034D01*
G54D13*
X64107Y-38602D02*
X64107Y-38602D01*
X64107Y-38602D01*
X64106Y-38602D01*
X64107Y-38602D01*
X64107Y-38602D01*
G54D12*
X59343Y-39067D02*
X59415Y-39091D01*
X59534Y-39091D01*
X59581Y-39067D01*
X59605Y-39043D01*
X59629Y-38996D01*
X59629Y-38948D01*
X59605Y-38900D01*
X59581Y-38877D01*
X59534Y-38853D01*
X59438Y-38829D01*
X59391Y-38805D01*
X59367Y-38781D01*
X59343Y-38734D01*
X59343Y-38686D01*
X59367Y-38639D01*
X59391Y-38615D01*
X59438Y-38591D01*
X59557Y-38591D01*
X59629Y-38615D01*
X59986Y-38591D02*
X59986Y-38948D01*
X59962Y-39019D01*
X59915Y-39067D01*
X59843Y-39091D01*
X59795Y-39091D01*
X60200Y-38639D02*
X60224Y-38615D01*
X60272Y-38591D01*
X60391Y-38591D01*
X60438Y-38615D01*
X60462Y-38639D01*
X60486Y-38686D01*
X60486Y-38734D01*
X60462Y-38805D01*
X60176Y-39091D01*
X60486Y-39091D01*
G54D13*
X59504Y-38638D02*
X59504Y-38638D01*
X59504Y-38638D01*
X59503Y-38638D01*
X59504Y-38638D01*
X59504Y-38638D01*
G54D12*
X58443Y-41717D02*
X58515Y-41741D01*
X58634Y-41741D01*
X58681Y-41717D01*
X58705Y-41693D01*
X58729Y-41646D01*
X58729Y-41598D01*
X58705Y-41550D01*
X58681Y-41527D01*
X58634Y-41503D01*
X58538Y-41479D01*
X58491Y-41455D01*
X58467Y-41431D01*
X58443Y-41384D01*
X58443Y-41336D01*
X58467Y-41289D01*
X58491Y-41265D01*
X58538Y-41241D01*
X58657Y-41241D01*
X58729Y-41265D01*
X59086Y-41241D02*
X59086Y-41598D01*
X59062Y-41669D01*
X59015Y-41717D01*
X58943Y-41741D01*
X58895Y-41741D01*
X59276Y-41241D02*
X59586Y-41241D01*
X59419Y-41431D01*
X59491Y-41431D01*
X59538Y-41455D01*
X59562Y-41479D01*
X59586Y-41527D01*
X59586Y-41646D01*
X59562Y-41693D01*
X59538Y-41717D01*
X59491Y-41741D01*
X59348Y-41741D01*
X59300Y-41717D01*
X59276Y-41693D01*
G54D13*
X59426Y-41794D02*
X59426Y-41794D01*
X59426Y-41794D01*
X59425Y-41794D01*
X59426Y-41794D01*
X59426Y-41794D01*
G54D12*
X64321Y-40106D02*
X64321Y-40463D01*
X64297Y-40534D01*
X64249Y-40582D01*
X64178Y-40606D01*
X64130Y-40606D01*
X64559Y-40606D02*
X64559Y-40106D01*
X64749Y-40106D01*
X64797Y-40130D01*
X64821Y-40154D01*
X64845Y-40201D01*
X64845Y-40273D01*
X64821Y-40320D01*
X64797Y-40344D01*
X64749Y-40368D01*
X64559Y-40368D01*
X65273Y-40273D02*
X65273Y-40606D01*
X65154Y-40082D02*
X65035Y-40439D01*
X65345Y-40439D01*
G54D11*
X62768Y-40088D02*
X62791Y-40112D01*
X62768Y-40136D01*
X62744Y-40112D01*
X62768Y-40088D01*
X62768Y-40136D01*
M02*
