G04 (created by PCBNEW (2013-jul-07)-stable) date Mon 28 Dec 2015 12:37:34 PM PST*
%MOIN*%
G04 Gerber Fmt 3.4, Leading zero omitted, Abs format*
%FSLAX34Y34*%
G01*
G70*
G90*
G04 APERTURE LIST*
%ADD10C,0.00393701*%
%ADD11C,0.002*%
G04 APERTURE END LIST*
G54D10*
G54D11*
X57603Y-39813D02*
X56445Y-39813D01*
X56445Y-39813D02*
X56445Y-39039D01*
X56445Y-39039D02*
X57603Y-39039D01*
X57603Y-39039D02*
X57603Y-39813D01*
X56445Y-40614D02*
X57603Y-40614D01*
X57603Y-40614D02*
X57603Y-41388D01*
X57603Y-41388D02*
X56445Y-41388D01*
X56445Y-41388D02*
X56445Y-40614D01*
X54516Y-39197D02*
X55674Y-39197D01*
X55674Y-39197D02*
X55674Y-39971D01*
X55674Y-39971D02*
X54516Y-39971D01*
X54516Y-39971D02*
X54516Y-39197D01*
X54516Y-40457D02*
X55674Y-40457D01*
X55674Y-40457D02*
X55674Y-41231D01*
X55674Y-41231D02*
X54516Y-41231D01*
X54516Y-41231D02*
X54516Y-40457D01*
X55692Y-40753D02*
X55692Y-39595D01*
X55692Y-39595D02*
X56466Y-39595D01*
X56466Y-39595D02*
X56466Y-40753D01*
X56466Y-40753D02*
X55692Y-40753D01*
X55815Y-41992D02*
X56973Y-41992D01*
X56973Y-41992D02*
X56973Y-42766D01*
X56973Y-42766D02*
X55815Y-42766D01*
X55815Y-42766D02*
X55815Y-41992D01*
X57114Y-37661D02*
X58272Y-37661D01*
X58272Y-37661D02*
X58272Y-38435D01*
X58272Y-38435D02*
X57114Y-38435D01*
X57114Y-38435D02*
X57114Y-37661D01*
X58356Y-39359D02*
X58356Y-40517D01*
X58356Y-40517D02*
X57582Y-40517D01*
X57582Y-40517D02*
X57582Y-39359D01*
X57582Y-39359D02*
X58356Y-39359D01*
X55634Y-42766D02*
X54476Y-42766D01*
X54476Y-42766D02*
X54476Y-41992D01*
X54476Y-41992D02*
X55634Y-41992D01*
X55634Y-41992D02*
X55634Y-42766D01*
X56934Y-38435D02*
X55776Y-38435D01*
X55776Y-38435D02*
X55776Y-37661D01*
X55776Y-37661D02*
X56934Y-37661D01*
X56934Y-37661D02*
X56934Y-38435D01*
X54476Y-37661D02*
X55634Y-37661D01*
X55634Y-37661D02*
X55634Y-38435D01*
X55634Y-38435D02*
X54476Y-38435D01*
X54476Y-38435D02*
X54476Y-37661D01*
X58469Y-42766D02*
X57311Y-42766D01*
X57311Y-42766D02*
X57311Y-41992D01*
X57311Y-41992D02*
X58469Y-41992D01*
X58469Y-41992D02*
X58469Y-42766D01*
X58172Y-40753D02*
X58172Y-39595D01*
X58172Y-39595D02*
X58946Y-39595D01*
X58946Y-39595D02*
X58946Y-40753D01*
X58946Y-40753D02*
X58172Y-40753D01*
X61308Y-40973D02*
X61308Y-42131D01*
X61308Y-42131D02*
X60534Y-42131D01*
X60534Y-42131D02*
X60534Y-40973D01*
X60534Y-40973D02*
X61308Y-40973D01*
X61308Y-38257D02*
X61308Y-39415D01*
X61308Y-39415D02*
X60534Y-39415D01*
X60534Y-39415D02*
X60534Y-38257D01*
X60534Y-38257D02*
X61308Y-38257D01*
X61287Y-41559D02*
X62445Y-41559D01*
X62445Y-41559D02*
X62445Y-42333D01*
X62445Y-42333D02*
X61287Y-42333D01*
X61287Y-42333D02*
X61287Y-41559D01*
X63434Y-38611D02*
X63434Y-39769D01*
X63434Y-39769D02*
X62660Y-39769D01*
X62660Y-39769D02*
X62660Y-38611D01*
X62660Y-38611D02*
X63434Y-38611D01*
X63434Y-39910D02*
X63434Y-41068D01*
X63434Y-41068D02*
X62660Y-41068D01*
X62660Y-41068D02*
X62660Y-39910D01*
X62660Y-39910D02*
X63434Y-39910D01*
X61327Y-37465D02*
X62485Y-37465D01*
X62485Y-37465D02*
X62485Y-38239D01*
X62485Y-38239D02*
X61327Y-38239D01*
X61327Y-38239D02*
X61327Y-37465D01*
X62485Y-39105D02*
X61327Y-39105D01*
X61327Y-39105D02*
X61327Y-38331D01*
X61327Y-38331D02*
X62485Y-38331D01*
X62485Y-38331D02*
X62485Y-39105D01*
M02*
