  0
SECTION
  2
HEADER
  9
$ANGBASE
  50
0.0
  9
$ANGDIR
  70
  1
  9
$MEASUREMENT
  70
0
  0
ENDSEC
  0
SECTION
  2
TABLES
  0
TABLE
  2
LTYPE
  70
1
  0
LTYPE
  2
CONTINUOUS
  70
0
  3
Solid line
  72
65
  73
0
  40
0.0
  0
ENDTAB
  0
TABLE
  2
STYLE
  70
4
  0
STYLE
  2
KICAD
  70
0
  40
0
  41
1
  42
1
  50
0
  71
0
  3
isocp.shx
  0
STYLE
  2
KICADB
  70
0
  40
0
  41
1
  42
1
  50
0
  71
0
  3
isocp.shx
  0
STYLE
  2
KICADI
  70
0
  40
0
  41
1
  42
1
  50
15
  71
0
  3
isocp.shx
  0
STYLE
  2
KICADBI
  70
0
  40
0
  41
1
  42
1
  50
15
  71
0
  3
isocp.shx
  0
ENDTAB
  0
TABLE
  2
LAYER
  70
24
  0
LAYER
  2
BLACK
  70
0
  62
250
  6
CONTINUOUS
  0
LAYER
  2
BLUE
  70
0
  62
5
  6
CONTINUOUS
  0
LAYER
  2
GREEN
  70
0
  62
3
  6
CONTINUOUS
  0
LAYER
  2
CYAN
  70
0
  62
4
  6
CONTINUOUS
  0
LAYER
  2
RED
  70
0
  62
1
  6
CONTINUOUS
  0
LAYER
  2
MAGENTA
  70
0
  62
6
  6
CONTINUOUS
  0
LAYER
  2
BROWN
  70
0
  62
54
  6
CONTINUOUS
  0
LAYER
  2
LIGHTGRAY
  70
0
  62
9
  6
CONTINUOUS
  0
LAYER
  2
DARKGRAY
  70
0
  62
8
  6
CONTINUOUS
  0
LAYER
  2
LIGHTBLUE
  70
0
  62
171
  6
CONTINUOUS
  0
LAYER
  2
LIGHTGREEN
  70
0
  62
91
  6
CONTINUOUS
  0
LAYER
  2
LIGHTCYAN
  70
0
  62
131
  6
CONTINUOUS
  0
LAYER
  2
LIGHTRED
  70
0
  62
11
  6
CONTINUOUS
  0
LAYER
  2
LIGHTMAGENTA
  70
0
  62
221
  6
CONTINUOUS
  0
LAYER
  2
YELLOW
  70
0
  62
2
  6
CONTINUOUS
  0
LAYER
  2
WHITE
  70
0
  62
7
  6
CONTINUOUS
  0
LAYER
  2
DARKDARKGRAY
  70
0
  62
251
  6
CONTINUOUS
  0
LAYER
  2
DARKBLUE
  70
0
  62
178
  6
CONTINUOUS
  0
LAYER
  2
DARKGREEN
  70
0
  62
98
  6
CONTINUOUS
  0
LAYER
  2
DARKCYAN
  70
0
  62
138
  6
CONTINUOUS
  0
LAYER
  2
DARKRED
  70
0
  62
18
  6
CONTINUOUS
  0
LAYER
  2
DARKMAGENTA
  70
0
  62
228
  6
CONTINUOUS
  0
LAYER
  2
DARKBROWN
  70
0
  62
58
  6
CONTINUOUS
  0
LAYER
  2
LIGHTYELLOW
  70
0
  62
51
  6
CONTINUOUS
  0
ENDTAB
  0
ENDSEC
  0
SECTION
  2
ENTITIES
0
LINE
8
BLACK
10
98.4428
20
-145.042
11
198.542
21
-145.042
0
LINE
8
BLACK
10
98.4428
20
-145.042
11
198.542
21
-145.042
0
LINE
8
BLACK
10
198.542
20
-145.042
11
198.542
21
-65.0418
0
LINE
8
BLACK
10
198.542
20
-145.042
11
198.542
21
-65.0418
0
LINE
8
BLACK
10
98.5418
20
-65.0418
11
198.542
21
-65.0418
0
LINE
8
BLACK
10
98.5418
20
-65.0418
11
198.542
21
-65.0418
0
LINE
8
BLACK
10
98.4923
20
-65.0418
11
98.4923
21
-145.042
0
LINE
8
BLACK
10
98.4923
20
-65.0418
11
98.4923
21
-145.042
0
LINE
8
BLACK
10
136.652
20
-104.513
11
137.287
21
-105.148
0
LINE
8
BLACK
10
137.287
20
-104.513
11
136.652
21
-105.148
0
LINE
8
BLACK
10
139.576
20
-102.151
11
140.211
21
-102.786
0
LINE
8
BLACK
10
140.211
20
-102.151
11
139.576
21
-102.786
0
LINE
8
BLACK
10
142.123
20
-108.125
11
142.758
21
-108.76
0
LINE
8
BLACK
10
142.758
20
-108.125
11
142.123
21
-108.76
0
LINE
8
BLACK
10
142.123
20
-110.124
11
142.758
21
-110.759
0
LINE
8
BLACK
10
142.758
20
-110.124
11
142.123
21
-110.759
0
LINE
8
BLACK
10
143.124
20
-102.024
11
143.759
21
-102.659
0
LINE
8
BLACK
10
143.759
20
-102.024
11
143.124
21
-102.659
0
LINE
8
BLACK
10
145.702
20
-103.711
11
146.337
21
-104.346
0
LINE
8
BLACK
10
146.337
20
-103.711
11
145.702
21
-104.346
0
LINE
8
BLACK
10
146.022
20
-105.626
11
146.657
21
-106.261
0
LINE
8
BLACK
10
146.657
20
-105.626
11
146.022
21
-106.261
0
LINE
8
BLACK
10
146.022
20
-107.925
11
146.657
21
-108.56
0
LINE
8
BLACK
10
146.657
20
-107.925
11
146.022
21
-108.56
0
LINE
8
BLACK
10
147.523
20
-107.826
11
148.158
21
-108.461
0
LINE
8
BLACK
10
148.158
20
-107.826
11
147.523
21
-108.461
0
LINE
8
BLACK
10
150.023
20
-107.826
11
150.658
21
-108.461
0
LINE
8
BLACK
10
150.658
20
-107.826
11
150.023
21
-108.461
0
LINE
8
BLACK
10
150.221
20
-109.817
11
150.856
21
-110.452
0
LINE
8
BLACK
10
150.856
20
-109.817
11
150.221
21
-110.452
0
LINE
8
BLACK
10
150.261
20
-101.981
11
150.896
21
-102.616
0
LINE
8
BLACK
10
150.896
20
-101.981
11
150.261
21
-102.616
0
LINE
8
BLACK
10
151.722
20
-103.927
11
152.357
21
-104.562
0
LINE
8
BLACK
10
152.357
20
-103.927
11
151.722
21
-104.562
0
LINE
8
BLACK
10
151.722
20
-107.424
11
152.357
21
-108.059
0
LINE
8
BLACK
10
152.357
20
-107.424
11
151.722
21
-108.059
0
LINE
8
BLACK
10
154.224
20
-104.724
11
154.859
21
-105.359
0
LINE
8
BLACK
10
154.859
20
-104.724
11
154.224
21
-105.359
0
LINE
8
BLACK
10
154.224
20
-111.026
11
154.859
21
-111.661
0
LINE
8
BLACK
10
154.859
20
-111.026
11
154.224
21
-111.661
0
LINE
8
BLACK
10
158.836
20
-107.937
11
159.471
21
-108.572
0
LINE
8
BLACK
10
159.471
20
-107.937
11
158.836
21
-108.572
0
LINE
8
BLACK
10
159.113
20
-104.694
11
159.748
21
-105.329
0
LINE
8
BLACK
10
159.748
20
-104.694
11
159.113
21
-105.329
0
LINE
8
BLACK
10
159.423
20
-101.526
11
160.058
21
-102.161
0
LINE
8
BLACK
10
160.058
20
-101.526
11
159.423
21
-102.161
0
LINE
8
BLACK
10
160.724
20
-112.725
11
161.359
21
-113.36
0
LINE
8
BLACK
10
161.359
20
-112.725
11
160.724
21
-113.36
0
LINE
8
BLACK
10
162.123
20
-105.926
11
162.758
21
-106.561
0
LINE
8
BLACK
10
162.758
20
-105.926
11
162.123
21
-106.561
0
LINE
8
BLACK
10
163.624
20
-113.025
11
164.259
21
-113.66
0
LINE
8
BLACK
10
164.259
20
-113.025
11
163.624
21
-113.66
0
LINE
8
BLACK
10
164.523
20
-108.026
11
165.158
21
-108.661
0
LINE
8
BLACK
10
165.158
20
-108.026
11
164.523
21
-108.661
0
LINE
8
BLACK
10
165.824
20
-108.326
11
166.459
21
-108.961
0
LINE
8
BLACK
10
166.459
20
-108.326
11
165.824
21
-108.961
0
LINE
8
BLACK
10
166.223
20
-99.3242
11
166.858
21
-99.9592
0
LINE
8
BLACK
10
166.858
20
-99.3242
11
166.223
21
-99.9592
0
CIRCLE
8
BLACK
10
134.01
20
-100.094
40
0.4064
0
CIRCLE
8
BLACK
10
134.01
20
-102.634
40
0.4064
0
CIRCLE
8
BLACK
10
134.01
20
-107.714
40
0.4064
0
CIRCLE
8
BLACK
10
134.01
20
-110.254
40
0.4064
0
CIRCLE
8
BLACK
10
134.01
20
-112.794
40
0.4064
0
CIRCLE
8
BLACK
10
161.072
20
-90.203
40
0.4064
0
CIRCLE
8
BLACK
10
161.072
20
-92.743
40
0.4064
0
CIRCLE
8
BLACK
10
161.072
20
-95.283
40
0.4064
0
CIRCLE
8
BLACK
10
163.612
20
-90.203
40
0.4064
0
CIRCLE
8
BLACK
10
163.612
20
-92.743
40
0.4064
0
CIRCLE
8
BLACK
10
163.612
20
-95.283
40
0.4064
0
LINE
8
BLACK
10
136.67
20
-98.0338
11
136.67
21
-99.0498
0
LINE
8
BLACK
10
136.162
20
-98.5418
11
137.178
21
-98.5418
0
LINE
8
BLACK
10
136.67
20
-115.834
11
136.67
21
-116.85
0
LINE
8
BLACK
10
136.162
20
-116.342
11
137.178
21
-116.342
0
LINE
8
BLACK
10
139.21
20
-98.0338
11
139.21
21
-99.0498
0
LINE
8
BLACK
10
138.702
20
-98.5418
11
139.718
21
-98.5418
0
LINE
8
BLACK
10
139.21
20
-115.834
11
139.21
21
-116.85
0
LINE
8
BLACK
10
138.702
20
-116.342
11
139.718
21
-116.342
0
LINE
8
BLACK
10
141.75
20
-98.0338
11
141.75
21
-99.0498
0
LINE
8
BLACK
10
141.242
20
-98.5418
11
142.258
21
-98.5418
0
LINE
8
BLACK
10
141.75
20
-115.834
11
141.75
21
-116.85
0
LINE
8
BLACK
10
141.242
20
-116.342
11
142.258
21
-116.342
0
LINE
8
BLACK
10
144.29
20
-98.0338
11
144.29
21
-99.0498
0
LINE
8
BLACK
10
143.782
20
-98.5418
11
144.798
21
-98.5418
0
LINE
8
BLACK
10
144.29
20
-115.834
11
144.29
21
-116.85
0
LINE
8
BLACK
10
143.782
20
-116.342
11
144.798
21
-116.342
0
LINE
8
BLACK
10
146.83
20
-98.0338
11
146.83
21
-99.0498
0
LINE
8
BLACK
10
146.322
20
-98.5418
11
147.338
21
-98.5418
0
LINE
8
BLACK
10
146.83
20
-115.834
11
146.83
21
-116.85
0
LINE
8
BLACK
10
146.322
20
-116.342
11
147.338
21
-116.342
0
LINE
8
BLACK
10
149.37
20
-98.0338
11
149.37
21
-99.0498
0
LINE
8
BLACK
10
148.862
20
-98.5418
11
149.878
21
-98.5418
0
LINE
8
BLACK
10
149.37
20
-115.834
11
149.37
21
-116.85
0
LINE
8
BLACK
10
148.862
20
-116.342
11
149.878
21
-116.342
0
LINE
8
BLACK
10
151.91
20
-98.0338
11
151.91
21
-99.0498
0
LINE
8
BLACK
10
151.402
20
-98.5418
11
152.418
21
-98.5418
0
LINE
8
BLACK
10
151.91
20
-115.834
11
151.91
21
-116.85
0
LINE
8
BLACK
10
151.402
20
-116.342
11
152.418
21
-116.342
0
LINE
8
BLACK
10
154.45
20
-98.0338
11
154.45
21
-99.0498
0
LINE
8
BLACK
10
153.942
20
-98.5418
11
154.958
21
-98.5418
0
LINE
8
BLACK
10
154.45
20
-115.834
11
154.45
21
-116.85
0
LINE
8
BLACK
10
153.942
20
-116.342
11
154.958
21
-116.342
0
LINE
8
BLACK
10
156.99
20
-98.0338
11
156.99
21
-99.0498
0
LINE
8
BLACK
10
156.482
20
-98.5418
11
157.498
21
-98.5418
0
LINE
8
BLACK
10
156.99
20
-115.834
11
156.99
21
-116.85
0
LINE
8
BLACK
10
156.482
20
-116.342
11
157.498
21
-116.342
0
LINE
8
BLACK
10
159.53
20
-98.0338
11
159.53
21
-99.0498
0
LINE
8
BLACK
10
159.022
20
-98.5418
11
160.038
21
-98.5418
0
LINE
8
BLACK
10
159.53
20
-115.834
11
159.53
21
-116.85
0
LINE
8
BLACK
10
159.022
20
-116.342
11
160.038
21
-116.342
0
LINE
8
BLACK
10
162.07
20
-98.0338
11
162.07
21
-99.0498
0
LINE
8
BLACK
10
161.562
20
-98.5418
11
162.578
21
-98.5418
0
LINE
8
BLACK
10
162.07
20
-115.834
11
162.07
21
-116.85
0
LINE
8
BLACK
10
161.562
20
-116.342
11
162.578
21
-116.342
0
LINE
8
BLACK
10
164.61
20
-98.0338
11
164.61
21
-99.0498
0
LINE
8
BLACK
10
164.102
20
-98.5418
11
165.118
21
-98.5418
0
LINE
8
BLACK
10
164.61
20
-115.834
11
164.61
21
-116.85
0
LINE
8
BLACK
10
164.102
20
-116.342
11
165.118
21
-116.342
  0
TEXT
  7
KICAD
  8
BLACK
  10
100.443
  11
100.443
  20
-148.342
  21
-148.342
  40
3
  41
1
  50
0
  51
0
  71
0
  72
0
  73
2
  1
Drill Map:
0
LINE
8
BLACK
10
97.8078
20
-154.324
11
98.4428
21
-154.959
0
LINE
8
BLACK
10
98.4428
20
-154.324
11
97.8078
21
-154.959
  0
TEXT
  7
KICAD
  8
BLACK
  10
100.443
  11
100.443
  20
-154.642
  21
-154.642
  40
3
  41
1
  50
0
  51
0
  71
0
  72
0
  73
2
  1
0.64mm / 0.025" (25 holes)
0
CIRCLE
8
BLACK
10
98.0364
20
-158.602
40
0.4064
  0
TEXT
  7
KICAD
  8
BLACK
  10
100.443
  11
100.443
  20
-158.602
  21
-158.602
  40
3
  41
1
  50
0
  51
0
  71
0
  72
0
  73
2
  1
0.81mm / 0.032" (11 holes)
0
LINE
8
BLACK
10
97.9348
20
-162.054
11
97.9348
21
-163.07
0
LINE
8
BLACK
10
97.4268
20
-162.562
11
98.4428
21
-162.562
  0
TEXT
  7
KICAD
  8
BLACK
  10
100.443
  11
100.443
  20
-162.562
  21
-162.562
  40
3
  41
1
  50
0
  51
0
  71
0
  72
0
  73
2
  1
1.02mm / 0.040" (24 holes)
  0
ENDSEC
  0
EOF
