  0
SECTION
  2
HEADER
  9
$ANGBASE
  50
0.0
  9
$ANGDIR
  70
  1
  9
$MEASUREMENT
  70
0
  0
ENDSEC
  0
SECTION
  2
TABLES
  0
TABLE
  2
LTYPE
  70
1
  0
LTYPE
  2
CONTINUOUS
  70
0
  3
Solid line
  72
65
  73
0
  40
0.0
  0
ENDTAB
  0
TABLE
  2
STYLE
  70
4
  0
STYLE
  2
KICAD
  70
0
  40
0
  41
1
  42
1
  50
0
  71
0
  3
isocp.shx
  0
STYLE
  2
KICADB
  70
0
  40
0
  41
1
  42
1
  50
0
  71
0
  3
isocp.shx
  0
STYLE
  2
KICADI
  70
0
  40
0
  41
1
  42
1
  50
15
  71
0
  3
isocp.shx
  0
STYLE
  2
KICADBI
  70
0
  40
0
  41
1
  42
1
  50
15
  71
0
  3
isocp.shx
  0
ENDTAB
  0
TABLE
  2
LAYER
  70
24
  0
LAYER
  2
BLACK
  70
0
  62
250
  6
CONTINUOUS
  0
LAYER
  2
BLUE
  70
0
  62
5
  6
CONTINUOUS
  0
LAYER
  2
GREEN
  70
0
  62
3
  6
CONTINUOUS
  0
LAYER
  2
CYAN
  70
0
  62
4
  6
CONTINUOUS
  0
LAYER
  2
RED
  70
0
  62
1
  6
CONTINUOUS
  0
LAYER
  2
MAGENTA
  70
0
  62
6
  6
CONTINUOUS
  0
LAYER
  2
BROWN
  70
0
  62
54
  6
CONTINUOUS
  0
LAYER
  2
LIGHTGRAY
  70
0
  62
9
  6
CONTINUOUS
  0
LAYER
  2
DARKGRAY
  70
0
  62
8
  6
CONTINUOUS
  0
LAYER
  2
LIGHTBLUE
  70
0
  62
171
  6
CONTINUOUS
  0
LAYER
  2
LIGHTGREEN
  70
0
  62
91
  6
CONTINUOUS
  0
LAYER
  2
LIGHTCYAN
  70
0
  62
131
  6
CONTINUOUS
  0
LAYER
  2
LIGHTRED
  70
0
  62
11
  6
CONTINUOUS
  0
LAYER
  2
LIGHTMAGENTA
  70
0
  62
221
  6
CONTINUOUS
  0
LAYER
  2
YELLOW
  70
0
  62
2
  6
CONTINUOUS
  0
LAYER
  2
WHITE
  70
0
  62
7
  6
CONTINUOUS
  0
LAYER
  2
DARKDARKGRAY
  70
0
  62
251
  6
CONTINUOUS
  0
LAYER
  2
DARKBLUE
  70
0
  62
178
  6
CONTINUOUS
  0
LAYER
  2
DARKGREEN
  70
0
  62
98
  6
CONTINUOUS
  0
LAYER
  2
DARKCYAN
  70
0
  62
138
  6
CONTINUOUS
  0
LAYER
  2
DARKRED
  70
0
  62
18
  6
CONTINUOUS
  0
LAYER
  2
DARKMAGENTA
  70
0
  62
228
  6
CONTINUOUS
  0
LAYER
  2
DARKBROWN
  70
0
  62
58
  6
CONTINUOUS
  0
LAYER
  2
LIGHTYELLOW
  70
0
  62
51
  6
CONTINUOUS
  0
ENDTAB
  0
ENDSEC
  0
SECTION
  2
ENTITIES
0
LINE
8
BLACK
10
98.4428
20
-145.042
11
198.542
21
-145.042
0
LINE
8
BLACK
10
98.4428
20
-145.042
11
198.542
21
-145.042
0
LINE
8
BLACK
10
198.542
20
-145.042
11
198.542
21
-65.0418
0
LINE
8
BLACK
10
198.542
20
-145.042
11
198.542
21
-65.0418
0
LINE
8
BLACK
10
98.5418
20
-65.0418
11
198.542
21
-65.0418
0
LINE
8
BLACK
10
98.5418
20
-65.0418
11
198.542
21
-65.0418
0
LINE
8
BLACK
10
98.4923
20
-65.0418
11
98.4923
21
-145.042
0
LINE
8
BLACK
10
98.4923
20
-65.0418
11
98.4923
21
-145.042
0
LINE
8
BLACK
10
143.507
20
-101.277
11
144.142
21
-101.912
0
LINE
8
BLACK
10
144.142
20
-101.277
11
143.507
21
-101.912
0
LINE
8
BLACK
10
144.724
20
-102.225
11
145.359
21
-102.86
0
LINE
8
BLACK
10
145.359
20
-102.225
11
144.724
21
-102.86
0
LINE
8
BLACK
10
146.85
20
-103.36
11
147.485
21
-103.995
0
LINE
8
BLACK
10
147.485
20
-103.36
11
146.85
21
-103.995
0
LINE
8
BLACK
10
149.024
20
-104.125
11
149.659
21
-104.76
0
LINE
8
BLACK
10
149.659
20
-104.125
11
149.024
21
-104.76
0
LINE
8
BLACK
10
151.722
20
-102.326
11
152.357
21
-102.961
0
LINE
8
BLACK
10
152.357
20
-102.326
11
151.722
21
-102.961
0
LINE
8
BLACK
10
152.413
20
-95.8748
11
153.048
21
-96.5098
0
LINE
8
BLACK
10
153.048
20
-95.8748
11
152.413
21
-96.5098
0
LINE
8
BLACK
10
152.923
20
-99.6264
11
153.558
21
-100.261
0
LINE
8
BLACK
10
153.558
20
-99.6264
11
152.923
21
-100.261
0
LINE
8
BLACK
10
154.724
20
-95.8266
11
155.359
21
-96.4616
0
LINE
8
BLACK
10
155.359
20
-95.8266
11
154.724
21
-96.4616
0
LINE
8
BLACK
10
155.948
20
-101.3
11
156.583
21
-101.935
0
LINE
8
BLACK
10
156.583
20
-101.3
11
155.948
21
-101.935
0
LINE
8
BLACK
10
157.122
20
-102.326
11
157.757
21
-102.961
0
LINE
8
BLACK
10
157.757
20
-102.326
11
157.122
21
-102.961
0
LINE
8
BLACK
10
158.422
20
-101.026
11
159.057
21
-101.661
0
LINE
8
BLACK
10
159.057
20
-101.026
11
158.422
21
-101.661
0
LINE
8
BLACK
10
159.055
20
-97.0661
11
159.69
21
-97.7011
0
LINE
8
BLACK
10
159.69
20
-97.0661
11
159.055
21
-97.7011
0
LINE
8
BLACK
10
159.06
20
-106.05
11
159.695
21
-106.685
0
LINE
8
BLACK
10
159.695
20
-106.05
11
159.06
21
-106.685
0
LINE
8
BLACK
10
159.624
20
-95.1255
11
160.259
21
-95.7605
0
LINE
8
BLACK
10
160.259
20
-95.1255
11
159.624
21
-95.7605
0
CIRCLE
8
BLACK
10
139.631
20
-98.3336
40
0.4064
0
CIRCLE
8
BLACK
10
139.631
20
-105.954
40
0.4064
0
CIRCLE
8
BLACK
10
142.171
20
-98.3336
40
0.4064
0
CIRCLE
8
BLACK
10
142.171
20
-105.954
40
0.4064
0
CIRCLE
8
BLACK
10
144.711
20
-98.3336
40
0.4064
0
CIRCLE
8
BLACK
10
144.711
20
-105.954
40
0.4064
0
CIRCLE
8
BLACK
10
147.251
20
-98.3336
40
0.4064
0
CIRCLE
8
BLACK
10
147.251
20
-105.954
40
0.4064
0
LINE
8
BLACK
10
135.971
20
-92.5347
11
135.971
21
-93.5507
0
LINE
8
BLACK
10
135.463
20
-93.0427
11
136.479
21
-93.0427
0
LINE
8
BLACK
10
135.971
20
-110.335
11
135.971
21
-111.351
0
LINE
8
BLACK
10
135.463
20
-110.843
11
136.479
21
-110.843
0
LINE
8
BLACK
10
136.441
20
-99.0956
11
136.441
21
-100.112
0
LINE
8
BLACK
10
135.933
20
-99.6036
11
136.949
21
-99.6036
0
LINE
8
BLACK
10
136.441
20
-101.636
11
136.441
21
-102.652
0
LINE
8
BLACK
10
135.933
20
-102.144
11
136.949
21
-102.144
0
LINE
8
BLACK
10
136.441
20
-104.176
11
136.441
21
-105.192
0
LINE
8
BLACK
10
135.933
20
-104.684
11
136.949
21
-104.684
0
LINE
8
BLACK
10
138.511
20
-92.5347
11
138.511
21
-93.5507
0
LINE
8
BLACK
10
138.003
20
-93.0427
11
139.019
21
-93.0427
0
LINE
8
BLACK
10
138.511
20
-110.335
11
138.511
21
-111.351
0
LINE
8
BLACK
10
138.003
20
-110.843
11
139.019
21
-110.843
0
LINE
8
BLACK
10
141.051
20
-92.5347
11
141.051
21
-93.5507
0
LINE
8
BLACK
10
140.543
20
-93.0427
11
141.559
21
-93.0427
0
LINE
8
BLACK
10
141.051
20
-110.335
11
141.051
21
-111.351
0
LINE
8
BLACK
10
140.543
20
-110.843
11
141.559
21
-110.843
0
LINE
8
BLACK
10
143.591
20
-92.5347
11
143.591
21
-93.5507
0
LINE
8
BLACK
10
143.083
20
-93.0427
11
144.099
21
-93.0427
0
LINE
8
BLACK
10
143.591
20
-110.335
11
143.591
21
-111.351
0
LINE
8
BLACK
10
143.083
20
-110.843
11
144.099
21
-110.843
0
LINE
8
BLACK
10
146.131
20
-92.5347
11
146.131
21
-93.5507
0
LINE
8
BLACK
10
145.623
20
-93.0427
11
146.639
21
-93.0427
0
LINE
8
BLACK
10
146.131
20
-110.335
11
146.131
21
-111.351
0
LINE
8
BLACK
10
145.623
20
-110.843
11
146.639
21
-110.843
0
LINE
8
BLACK
10
148.671
20
-92.5347
11
148.671
21
-93.5507
0
LINE
8
BLACK
10
148.163
20
-93.0427
11
149.179
21
-93.0427
0
LINE
8
BLACK
10
148.671
20
-110.335
11
148.671
21
-111.351
0
LINE
8
BLACK
10
148.163
20
-110.843
11
149.179
21
-110.843
0
LINE
8
BLACK
10
151.211
20
-92.5347
11
151.211
21
-93.5507
0
LINE
8
BLACK
10
150.703
20
-93.0427
11
151.719
21
-93.0427
0
LINE
8
BLACK
10
151.211
20
-110.335
11
151.211
21
-111.351
0
LINE
8
BLACK
10
150.703
20
-110.843
11
151.719
21
-110.843
0
LINE
8
BLACK
10
153.751
20
-92.5347
11
153.751
21
-93.5507
0
LINE
8
BLACK
10
153.243
20
-93.0427
11
154.259
21
-93.0427
0
LINE
8
BLACK
10
153.751
20
-110.335
11
153.751
21
-111.351
0
LINE
8
BLACK
10
153.243
20
-110.843
11
154.259
21
-110.843
0
LINE
8
BLACK
10
156.291
20
-92.5347
11
156.291
21
-93.5507
0
LINE
8
BLACK
10
155.783
20
-93.0427
11
156.799
21
-93.0427
0
LINE
8
BLACK
10
156.291
20
-110.335
11
156.291
21
-111.351
0
LINE
8
BLACK
10
155.783
20
-110.843
11
156.799
21
-110.843
0
LINE
8
BLACK
10
158.831
20
-92.5347
11
158.831
21
-93.5507
0
LINE
8
BLACK
10
158.323
20
-93.0427
11
159.339
21
-93.0427
0
LINE
8
BLACK
10
158.831
20
-110.335
11
158.831
21
-111.351
0
LINE
8
BLACK
10
158.323
20
-110.843
11
159.339
21
-110.843
0
LINE
8
BLACK
10
161.371
20
-92.5347
11
161.371
21
-93.5507
0
LINE
8
BLACK
10
160.863
20
-93.0427
11
161.879
21
-93.0427
0
LINE
8
BLACK
10
161.371
20
-110.335
11
161.371
21
-111.351
0
LINE
8
BLACK
10
160.863
20
-110.843
11
161.879
21
-110.843
0
LINE
8
BLACK
10
163.241
20
-102.194
11
163.241
21
-103.21
0
LINE
8
BLACK
10
162.733
20
-102.702
11
163.749
21
-102.702
0
LINE
8
BLACK
10
163.241
20
-104.734
11
163.241
21
-105.75
0
LINE
8
BLACK
10
162.733
20
-105.242
11
163.749
21
-105.242
0
LINE
8
BLACK
10
163.241
20
-107.274
11
163.241
21
-108.29
0
LINE
8
BLACK
10
162.733
20
-107.782
11
163.749
21
-107.782
0
LINE
8
BLACK
10
163.911
20
-92.5347
11
163.911
21
-93.5507
0
LINE
8
BLACK
10
163.403
20
-93.0427
11
164.419
21
-93.0427
0
LINE
8
BLACK
10
163.911
20
-110.335
11
163.911
21
-111.351
0
LINE
8
BLACK
10
163.403
20
-110.843
11
164.419
21
-110.843
  0
TEXT
  7
KICAD
  8
BLACK
  10
100.443
  11
100.443
  20
-148.342
  21
-148.342
  40
3
  41
1
  50
0
  51
0
  71
0
  72
0
  73
2
  1
Drill Map:
0
LINE
8
BLACK
10
97.8078
20
-154.324
11
98.4428
21
-154.959
0
LINE
8
BLACK
10
98.4428
20
-154.324
11
97.8078
21
-154.959
  0
TEXT
  7
KICAD
  8
BLACK
  10
100.443
  11
100.443
  20
-154.642
  21
-154.642
  40
3
  41
1
  50
0
  51
0
  71
0
  72
0
  73
2
  1
0.64mm / 0.025" (14 holes)
0
CIRCLE
8
BLACK
10
98.0364
20
-158.602
40
0.4064
  0
TEXT
  7
KICAD
  8
BLACK
  10
100.443
  11
100.443
  20
-158.602
  21
-158.602
  40
3
  41
1
  50
0
  51
0
  71
0
  72
0
  73
2
  1
0.81mm / 0.032" (8 holes)
0
LINE
8
BLACK
10
97.9348
20
-162.054
11
97.9348
21
-163.07
0
LINE
8
BLACK
10
97.4268
20
-162.562
11
98.4428
21
-162.562
  0
TEXT
  7
KICAD
  8
BLACK
  10
100.443
  11
100.443
  20
-162.562
  21
-162.562
  40
3
  41
1
  50
0
  51
0
  71
0
  72
0
  73
2
  1
1.02mm / 0.040" (30 holes)
  0
ENDSEC
  0
EOF
