G04 (created by PCBNEW (2013-jul-07)-stable) date Mon 28 Dec 2015 12:37:34 PM PST*
%MOIN*%
G04 Gerber Fmt 3.4, Leading zero omitted, Abs format*
%FSLAX34Y34*%
G01*
G70*
G90*
G04 APERTURE LIST*
%ADD10C,0.00393701*%
%ADD11C,0.005*%
G04 APERTURE END LIST*
G54D10*
G54D11*
X57102Y-39308D02*
X56946Y-39308D01*
X56946Y-39308D02*
X56946Y-39544D01*
X56946Y-39544D02*
X57102Y-39544D01*
X57102Y-39544D02*
X57102Y-39308D01*
X56946Y-41119D02*
X57102Y-41119D01*
X57102Y-41119D02*
X57102Y-40883D01*
X57102Y-40883D02*
X56946Y-40883D01*
X56946Y-40883D02*
X56946Y-41119D01*
X55017Y-39741D02*
X55173Y-39741D01*
X55173Y-39741D02*
X55173Y-39427D01*
X55173Y-39427D02*
X55017Y-39427D01*
X55017Y-39427D02*
X55017Y-39741D01*
X55017Y-41001D02*
X55173Y-41001D01*
X55173Y-41001D02*
X55173Y-40687D01*
X55173Y-40687D02*
X55017Y-40687D01*
X55017Y-40687D02*
X55017Y-41001D01*
X56197Y-40252D02*
X56197Y-40096D01*
X56197Y-40096D02*
X55961Y-40096D01*
X55961Y-40096D02*
X55961Y-40252D01*
X55961Y-40252D02*
X56197Y-40252D01*
X56316Y-42536D02*
X56472Y-42536D01*
X56472Y-42536D02*
X56472Y-42222D01*
X56472Y-42222D02*
X56316Y-42222D01*
X56316Y-42222D02*
X56316Y-42536D01*
X57615Y-38205D02*
X57771Y-38205D01*
X57771Y-38205D02*
X57771Y-37891D01*
X57771Y-37891D02*
X57615Y-37891D01*
X57615Y-37891D02*
X57615Y-38205D01*
X57812Y-39860D02*
X57812Y-40016D01*
X57812Y-40016D02*
X58126Y-40016D01*
X58126Y-40016D02*
X58126Y-39860D01*
X58126Y-39860D02*
X57812Y-39860D01*
X55133Y-42261D02*
X54977Y-42261D01*
X54977Y-42261D02*
X54977Y-42497D01*
X54977Y-42497D02*
X55133Y-42497D01*
X55133Y-42497D02*
X55133Y-42261D01*
X56433Y-37930D02*
X56277Y-37930D01*
X56277Y-37930D02*
X56277Y-38166D01*
X56277Y-38166D02*
X56433Y-38166D01*
X56433Y-38166D02*
X56433Y-37930D01*
X54977Y-38166D02*
X55133Y-38166D01*
X55133Y-38166D02*
X55133Y-37930D01*
X55133Y-37930D02*
X54977Y-37930D01*
X54977Y-37930D02*
X54977Y-38166D01*
X57968Y-42261D02*
X57812Y-42261D01*
X57812Y-42261D02*
X57812Y-42497D01*
X57812Y-42497D02*
X57968Y-42497D01*
X57968Y-42497D02*
X57968Y-42261D01*
X58716Y-40252D02*
X58716Y-40096D01*
X58716Y-40096D02*
X58402Y-40096D01*
X58402Y-40096D02*
X58402Y-40252D01*
X58402Y-40252D02*
X58716Y-40252D01*
X60803Y-41474D02*
X60803Y-41630D01*
X60803Y-41630D02*
X61039Y-41630D01*
X61039Y-41630D02*
X61039Y-41474D01*
X61039Y-41474D02*
X60803Y-41474D01*
X60803Y-38758D02*
X60803Y-38914D01*
X60803Y-38914D02*
X61039Y-38914D01*
X61039Y-38914D02*
X61039Y-38758D01*
X61039Y-38758D02*
X60803Y-38758D01*
X61788Y-42064D02*
X61944Y-42064D01*
X61944Y-42064D02*
X61944Y-41828D01*
X61944Y-41828D02*
X61788Y-41828D01*
X61788Y-41828D02*
X61788Y-42064D01*
X62890Y-39112D02*
X62890Y-39268D01*
X62890Y-39268D02*
X63204Y-39268D01*
X63204Y-39268D02*
X63204Y-39112D01*
X63204Y-39112D02*
X62890Y-39112D01*
X62890Y-40411D02*
X62890Y-40567D01*
X62890Y-40567D02*
X63204Y-40567D01*
X63204Y-40567D02*
X63204Y-40411D01*
X63204Y-40411D02*
X62890Y-40411D01*
X61828Y-38009D02*
X61984Y-38009D01*
X61984Y-38009D02*
X61984Y-37695D01*
X61984Y-37695D02*
X61828Y-37695D01*
X61828Y-37695D02*
X61828Y-38009D01*
X61984Y-38600D02*
X61828Y-38600D01*
X61828Y-38600D02*
X61828Y-38836D01*
X61828Y-38836D02*
X61984Y-38836D01*
X61984Y-38836D02*
X61984Y-38600D01*
M02*
