G04 (created by PCBNEW (2013-jul-07)-stable) date Mon 28 Dec 2015 12:48:25 PM PST*
%MOIN*%
G04 Gerber Fmt 3.4, Leading zero omitted, Abs format*
%FSLAX34Y34*%
G01*
G70*
G90*
G04 APERTURE LIST*
%ADD10C,0.00393701*%
%ADD11C,0.002*%
G04 APERTURE END LIST*
G54D10*
G54D11*
X59944Y-40911D02*
X59944Y-39753D01*
X59944Y-39753D02*
X60718Y-39753D01*
X60718Y-39753D02*
X60718Y-40911D01*
X60718Y-40911D02*
X59944Y-40911D01*
X63238Y-43887D02*
X63238Y-45045D01*
X63238Y-45045D02*
X62464Y-45045D01*
X62464Y-45045D02*
X62464Y-43887D01*
X62464Y-43887D02*
X63238Y-43887D01*
X64476Y-41677D02*
X65634Y-41677D01*
X65634Y-41677D02*
X65634Y-42451D01*
X65634Y-42451D02*
X64476Y-42451D01*
X64476Y-42451D02*
X64476Y-41677D01*
X59694Y-40816D02*
X59694Y-41974D01*
X59694Y-41974D02*
X58920Y-41974D01*
X58920Y-41974D02*
X58920Y-40816D01*
X58920Y-40816D02*
X59694Y-40816D01*
X54117Y-40911D02*
X54117Y-39753D01*
X54117Y-39753D02*
X54891Y-39753D01*
X54891Y-39753D02*
X54891Y-40911D01*
X54891Y-40911D02*
X54117Y-40911D01*
X54183Y-42076D02*
X54183Y-43234D01*
X54183Y-43234D02*
X53409Y-43234D01*
X53409Y-43234D02*
X53409Y-42076D01*
X53409Y-42076D02*
X54183Y-42076D01*
X54183Y-43532D02*
X54183Y-44690D01*
X54183Y-44690D02*
X53409Y-44690D01*
X53409Y-44690D02*
X53409Y-43532D01*
X53409Y-43532D02*
X54183Y-43532D01*
X60972Y-44197D02*
X62130Y-44197D01*
X62130Y-44197D02*
X62130Y-44971D01*
X62130Y-44971D02*
X60972Y-44971D01*
X60972Y-44971D02*
X60972Y-44197D01*
X57332Y-41091D02*
X57332Y-42249D01*
X57332Y-42249D02*
X56558Y-42249D01*
X56558Y-42249D02*
X56558Y-41091D01*
X56558Y-41091D02*
X57332Y-41091D01*
X57760Y-43632D02*
X56602Y-43632D01*
X56602Y-43632D02*
X56602Y-42858D01*
X56602Y-42858D02*
X57760Y-42858D01*
X57760Y-42858D02*
X57760Y-43632D01*
X54358Y-44039D02*
X55516Y-44039D01*
X55516Y-44039D02*
X55516Y-44813D01*
X55516Y-44813D02*
X54358Y-44813D01*
X54358Y-44813D02*
X54358Y-44039D01*
X56072Y-39753D02*
X56072Y-40911D01*
X56072Y-40911D02*
X55298Y-40911D01*
X55298Y-40911D02*
X55298Y-39753D01*
X55298Y-39753D02*
X56072Y-39753D01*
X55595Y-42412D02*
X54437Y-42412D01*
X54437Y-42412D02*
X54437Y-41638D01*
X54437Y-41638D02*
X55595Y-41638D01*
X55595Y-41638D02*
X55595Y-42412D01*
X54437Y-40929D02*
X55595Y-40929D01*
X55595Y-40929D02*
X55595Y-41703D01*
X55595Y-41703D02*
X54437Y-41703D01*
X54437Y-41703D02*
X54437Y-40929D01*
X55653Y-44848D02*
X55653Y-43690D01*
X55653Y-43690D02*
X56427Y-43690D01*
X56427Y-43690D02*
X56427Y-44848D01*
X56427Y-44848D02*
X55653Y-44848D01*
X55692Y-42328D02*
X55692Y-41170D01*
X55692Y-41170D02*
X56466Y-41170D01*
X56466Y-41170D02*
X56466Y-42328D01*
X56466Y-42328D02*
X55692Y-42328D01*
X59944Y-43706D02*
X59944Y-42548D01*
X59944Y-42548D02*
X60718Y-42548D01*
X60718Y-42548D02*
X60718Y-43706D01*
X60718Y-43706D02*
X59944Y-43706D01*
X64340Y-43887D02*
X64340Y-45045D01*
X64340Y-45045D02*
X63566Y-45045D01*
X63566Y-45045D02*
X63566Y-43887D01*
X63566Y-43887D02*
X64340Y-43887D01*
X64476Y-40929D02*
X65634Y-40929D01*
X65634Y-40929D02*
X65634Y-41703D01*
X65634Y-41703D02*
X64476Y-41703D01*
X64476Y-41703D02*
X64476Y-40929D01*
X60049Y-43847D02*
X60049Y-45005D01*
X60049Y-45005D02*
X59275Y-45005D01*
X59275Y-45005D02*
X59275Y-43847D01*
X59275Y-43847D02*
X60049Y-43847D01*
X57332Y-39713D02*
X57332Y-40871D01*
X57332Y-40871D02*
X56558Y-40871D01*
X56558Y-40871D02*
X56558Y-39713D01*
X56558Y-39713D02*
X57332Y-39713D01*
X57783Y-39787D02*
X58941Y-39787D01*
X58941Y-39787D02*
X58941Y-40561D01*
X58941Y-40561D02*
X57783Y-40561D01*
X57783Y-40561D02*
X57783Y-39787D01*
X58941Y-41191D02*
X57783Y-41191D01*
X57783Y-41191D02*
X57783Y-40417D01*
X57783Y-40417D02*
X58941Y-40417D01*
X58941Y-40417D02*
X58941Y-41191D01*
X57686Y-43965D02*
X57686Y-45123D01*
X57686Y-45123D02*
X56912Y-45123D01*
X56912Y-45123D02*
X56912Y-43965D01*
X56912Y-43965D02*
X57686Y-43965D01*
X59099Y-44341D02*
X57941Y-44341D01*
X57941Y-44341D02*
X57941Y-43567D01*
X57941Y-43567D02*
X59099Y-43567D01*
X59099Y-43567D02*
X59099Y-44341D01*
X57941Y-44236D02*
X59099Y-44236D01*
X59099Y-44236D02*
X59099Y-45010D01*
X59099Y-45010D02*
X57941Y-45010D01*
X57941Y-45010D02*
X57941Y-44236D01*
X64476Y-40181D02*
X65634Y-40181D01*
X65634Y-40181D02*
X65634Y-40955D01*
X65634Y-40955D02*
X64476Y-40955D01*
X64476Y-40955D02*
X64476Y-40181D01*
X64476Y-42898D02*
X65634Y-42898D01*
X65634Y-42898D02*
X65634Y-43672D01*
X65634Y-43672D02*
X64476Y-43672D01*
X64476Y-43672D02*
X64476Y-42898D01*
X65634Y-40246D02*
X64476Y-40246D01*
X64476Y-40246D02*
X64476Y-39472D01*
X64476Y-39472D02*
X65634Y-39472D01*
X65634Y-39472D02*
X65634Y-40246D01*
X64476Y-43685D02*
X65634Y-43685D01*
X65634Y-43685D02*
X65634Y-44459D01*
X65634Y-44459D02*
X64476Y-44459D01*
X64476Y-44459D02*
X64476Y-43685D01*
M02*
