M48
;DRILL file {Pcbnew (2013-jul-07)-stable} date Mon 28 Dec 2015 12:48:03 PM PST
;FORMAT={-:-/ absolute / inch / decimal}
FMAT,2
INCH,TZ
T1C0.025
T2C0.032
T3C0.040
%
G90
G05
M72
T1
X5.3925Y-4.1272
X5.5076Y-4.0342
X5.6079Y-4.2694
X5.6079Y-4.3481
X5.6473Y-4.0292
X5.7488Y-4.0956
X5.7614Y-4.171
X5.7614Y-4.2615
X5.8205Y-4.2576
X5.9189Y-4.2576
X5.9267Y-4.336
X5.9283Y-4.0275
X5.9858Y-4.1041
X5.9858Y-4.2418
X6.0843Y-4.1355
X6.0843Y-4.3836
X6.2659Y-4.262
X6.2768Y-4.1343
X6.289Y-4.0096
X6.3402Y-4.4505
X6.3953Y-4.1828
X6.4544Y-4.4623
X6.4898Y-4.2655
X6.541Y-4.2773
X6.5567Y-3.9229
T2
X5.276Y-3.9407
X5.276Y-4.0407
X5.276Y-4.2407
X5.276Y-4.3407
X5.276Y-4.4407
X6.3414Y-3.5513
X6.3414Y-3.6513
X6.3414Y-3.7513
X6.4414Y-3.5513
X6.4414Y-3.6513
X6.4414Y-3.7513
T3
X5.3807Y-3.8796
X5.3807Y-4.5804
X5.4807Y-3.8796
X5.4807Y-4.5804
X5.5807Y-3.8796
X5.5807Y-4.5804
X5.6807Y-3.8796
X5.6807Y-4.5804
X5.7807Y-3.8796
X5.7807Y-4.5804
X5.8807Y-3.8796
X5.8807Y-4.5804
X5.9807Y-3.8796
X5.9807Y-4.5804
X6.0807Y-3.8796
X6.0807Y-4.5804
X6.1807Y-3.8796
X6.1807Y-4.5804
X6.2807Y-3.8796
X6.2807Y-4.5804
X6.3807Y-3.8796
X6.3807Y-4.5804
X6.4807Y-3.8796
X6.4807Y-4.5804
T0
M30
