G04 (created by PCBNEW (2013-jul-07)-stable) date Mon 28 Dec 2015 12:37:34 PM PST*
%MOIN*%
G04 Gerber Fmt 3.4, Leading zero omitted, Abs format*
%FSLAX34Y34*%
G01*
G70*
G90*
G04 APERTURE LIST*
%ADD10C,0.00393701*%
%ADD11R,0.059048X0.055048*%
%ADD12R,0.055048X0.059048*%
%ADD13O,0.065748X0.065748*%
%ADD14R,0.055048X0.031448*%
%ADD15R,0.027548X0.062948*%
%ADD16O,0.075748X0.075748*%
%ADD17R,0.078748X0.061748*%
%ADD18R,0.061748X0.078748*%
G04 APERTURE END LIST*
G54D10*
G54D11*
X57358Y-39426D03*
X56690Y-39426D03*
X56690Y-41001D03*
X57358Y-41001D03*
G54D12*
X54761Y-39584D03*
X55429Y-39584D03*
X54761Y-40844D03*
X55429Y-40844D03*
X56079Y-40508D03*
X56079Y-39840D03*
X56060Y-42379D03*
X56728Y-42379D03*
X57359Y-38048D03*
X58027Y-38048D03*
G54D11*
X57969Y-39604D03*
X57969Y-40272D03*
X55389Y-42379D03*
X54721Y-42379D03*
X56689Y-38048D03*
X56021Y-38048D03*
G54D13*
X54973Y-41714D03*
X55973Y-41714D03*
X55973Y-38714D03*
X54973Y-38714D03*
X56973Y-41714D03*
X57973Y-41714D03*
X56973Y-38714D03*
X57973Y-38714D03*
G54D11*
X54721Y-38048D03*
X55389Y-38048D03*
X58224Y-42379D03*
X57556Y-42379D03*
X58559Y-40508D03*
X58559Y-39840D03*
G54D12*
X60921Y-41218D03*
X60921Y-41886D03*
G54D14*
X60867Y-39790D03*
X60867Y-40046D03*
X60867Y-40301D03*
X60867Y-40557D03*
X59087Y-40557D03*
X59087Y-40301D03*
X59087Y-40046D03*
X59087Y-39790D03*
G54D12*
X60921Y-38502D03*
X60921Y-39170D03*
G54D11*
X61532Y-41946D03*
X62200Y-41946D03*
X63047Y-38856D03*
X63047Y-39524D03*
X63047Y-40155D03*
X63047Y-40823D03*
G54D12*
X61572Y-37852D03*
X62240Y-37852D03*
G54D11*
X62240Y-38718D03*
X61572Y-38718D03*
G54D15*
X61482Y-39343D03*
X61738Y-39343D03*
X61993Y-39343D03*
X62249Y-39343D03*
X62249Y-41005D03*
X61993Y-41005D03*
X61738Y-41005D03*
X61482Y-41005D03*
G54D16*
X53532Y-36631D03*
X54532Y-36631D03*
X55532Y-36631D03*
X56532Y-36631D03*
X57532Y-36631D03*
X58532Y-36631D03*
X59532Y-36631D03*
X60532Y-36631D03*
X61532Y-36631D03*
X62532Y-36631D03*
X63532Y-36631D03*
X64532Y-36631D03*
X53532Y-43639D03*
X54532Y-43639D03*
X55532Y-43639D03*
X56532Y-43639D03*
X57532Y-43639D03*
X58532Y-43639D03*
X59532Y-43639D03*
X60532Y-43639D03*
X61532Y-43639D03*
X62532Y-43639D03*
X63532Y-43639D03*
X64532Y-43639D03*
X53717Y-39214D03*
X53717Y-40214D03*
X53717Y-41214D03*
G54D17*
X64110Y-38039D03*
X64110Y-38639D03*
X64110Y-39239D03*
G54D18*
X60065Y-38639D03*
X59465Y-38639D03*
X58865Y-38639D03*
X58865Y-41789D03*
X59465Y-41789D03*
X60065Y-41789D03*
G54D16*
X64268Y-40434D03*
X64268Y-41434D03*
X64268Y-42434D03*
M02*
