G04 (created by PCBNEW (2013-jul-07)-stable) date Mon 28 Dec 2015 12:48:25 PM PST*
%MOIN*%
G04 Gerber Fmt 3.4, Leading zero omitted, Abs format*
%FSLAX34Y34*%
G01*
G70*
G90*
G04 APERTURE LIST*
%ADD10C,0.00393701*%
%ADD11R,0.0393X0.0433*%
%ADD12R,0.0433X0.0393*%
%ADD13R,0.0866X0.0236*%
%ADD14R,0.0236X0.0314*%
%ADD15O,0.048X0.048*%
%ADD16R,0.0216X0.0472*%
%ADD17O,0.06X0.06*%
%ADD18R,0.0118X0.0472*%
%ADD19C,0.0236*%
%ADD20C,0.024*%
%ADD21C,0.01*%
G04 APERTURE END LIST*
G54D10*
G54D11*
X60331Y-40666D03*
X60331Y-39998D03*
G54D12*
X62851Y-44132D03*
X62851Y-44800D03*
X64721Y-42064D03*
X65389Y-42064D03*
G54D13*
X61631Y-40357D03*
X63677Y-40357D03*
X61631Y-39857D03*
X61631Y-40857D03*
X61631Y-41357D03*
X63677Y-39857D03*
X63677Y-40857D03*
X63677Y-41357D03*
G54D12*
X59307Y-41061D03*
X59307Y-41729D03*
G54D14*
X60331Y-42123D03*
X60331Y-41139D03*
G54D11*
X54504Y-40666D03*
X54504Y-39998D03*
X53796Y-42321D03*
X53796Y-42989D03*
X53796Y-43777D03*
X53796Y-44445D03*
G54D15*
X52760Y-39407D03*
X52760Y-40407D03*
X52760Y-42407D03*
X52760Y-43407D03*
X52760Y-44407D03*
G54D12*
X61217Y-44584D03*
X61885Y-44584D03*
G54D11*
X56945Y-41336D03*
X56945Y-42004D03*
X57515Y-43245D03*
X56847Y-43245D03*
G54D12*
X54603Y-44426D03*
X55271Y-44426D03*
X55685Y-39998D03*
X55685Y-40666D03*
G54D16*
X54603Y-43717D03*
X54977Y-43717D03*
X55351Y-43717D03*
X55351Y-42695D03*
X54603Y-42695D03*
G54D12*
X55350Y-42025D03*
X54682Y-42025D03*
X54682Y-41316D03*
X55350Y-41316D03*
X56040Y-44603D03*
X56040Y-43935D03*
X56079Y-42083D03*
X56079Y-41415D03*
G54D17*
X53807Y-38796D03*
X54807Y-38796D03*
X55807Y-38796D03*
X56807Y-38796D03*
X57807Y-38796D03*
X58807Y-38796D03*
X59807Y-38796D03*
X60807Y-38796D03*
X61807Y-38796D03*
X62807Y-38796D03*
X63807Y-38796D03*
X64807Y-38796D03*
X53807Y-45804D03*
X54807Y-45804D03*
X55807Y-45804D03*
X56807Y-45804D03*
X57807Y-45804D03*
X58807Y-45804D03*
X59807Y-45804D03*
X60807Y-45804D03*
X61807Y-45804D03*
X62807Y-45804D03*
X63807Y-45804D03*
X64807Y-45804D03*
G54D11*
X60331Y-43461D03*
X60331Y-42793D03*
G54D12*
X63953Y-44132D03*
X63953Y-44800D03*
X64721Y-41316D03*
X65389Y-41316D03*
G54D13*
X61631Y-42602D03*
X63677Y-42602D03*
X61631Y-42102D03*
X61631Y-43102D03*
X61631Y-43602D03*
X63677Y-42102D03*
X63677Y-43102D03*
X63677Y-43602D03*
G54D12*
X59662Y-44092D03*
X59662Y-44760D03*
G54D14*
X60331Y-44918D03*
X60331Y-43934D03*
G54D12*
X56945Y-39958D03*
X56945Y-40626D03*
G54D11*
X58028Y-40174D03*
X58696Y-40174D03*
G54D12*
X58696Y-40804D03*
X58028Y-40804D03*
G54D18*
X58097Y-41627D03*
X58353Y-41627D03*
X58608Y-41627D03*
X58864Y-41627D03*
X58864Y-43289D03*
X58608Y-43289D03*
X58353Y-43289D03*
X58097Y-43289D03*
G54D12*
X57299Y-44210D03*
X57299Y-44878D03*
G54D11*
X58854Y-43954D03*
X58186Y-43954D03*
G54D12*
X58186Y-44623D03*
X58854Y-44623D03*
X64721Y-40568D03*
X65389Y-40568D03*
X64721Y-43285D03*
X65389Y-43285D03*
G54D15*
X64414Y-36513D03*
X64414Y-37513D03*
X64414Y-35513D03*
X63414Y-35513D03*
X63414Y-36513D03*
X63414Y-37513D03*
G54D12*
X65389Y-39859D03*
X64721Y-39859D03*
X64721Y-44072D03*
X65389Y-44072D03*
G54D19*
X59858Y-42418D03*
X59858Y-41041D03*
X65567Y-39229D03*
X63402Y-44505D03*
X64898Y-42655D03*
X63953Y-41828D03*
X65410Y-42773D03*
X56473Y-40292D03*
X58205Y-42576D03*
X59189Y-42576D03*
G54D20*
X59283Y-40275D03*
X57488Y-40956D03*
G54D19*
X64544Y-44623D03*
G54D20*
X62659Y-42620D03*
X62768Y-41343D03*
G54D19*
X56079Y-42694D03*
X56079Y-43481D03*
X57614Y-41710D03*
X57614Y-42615D03*
G54D20*
X59267Y-43360D03*
G54D19*
X62890Y-40096D03*
X60843Y-41355D03*
X60843Y-43836D03*
G54D20*
X55076Y-40342D03*
X53925Y-41272D03*
G54D21*
X64709Y-40952D02*
X64709Y-40947D01*
X64709Y-41049D02*
X64709Y-41411D01*
X64709Y-41411D02*
X64721Y-41316D01*
X64709Y-40952D02*
X64721Y-40568D01*
X60616Y-43289D02*
X60340Y-43438D01*
X60340Y-43438D02*
X60331Y-43934D01*
X61137Y-43092D02*
X60616Y-43289D01*
X60616Y-43289D02*
X60331Y-43462D01*
X61137Y-43092D02*
X61630Y-43102D01*
X65388Y-40947D02*
X64709Y-40947D01*
X65675Y-40936D02*
X65388Y-40947D01*
X63817Y-38811D02*
X63820Y-38808D01*
X63817Y-38811D02*
X63807Y-38796D01*
X60340Y-40736D02*
X60340Y-40794D01*
X60340Y-40794D02*
X60331Y-41139D01*
X60340Y-40736D02*
X60331Y-40666D01*
X61609Y-40794D02*
X61240Y-40822D01*
X60391Y-41070D02*
X60331Y-41139D01*
X61609Y-40794D02*
X61630Y-40857D01*
X56040Y-44603D02*
X55705Y-44800D01*
X55705Y-44800D02*
X55331Y-44820D01*
X55331Y-44820D02*
X54662Y-44820D01*
X54662Y-44820D02*
X54583Y-44741D01*
X54583Y-44741D02*
X54583Y-44446D01*
X54583Y-44446D02*
X54603Y-44426D01*
X60331Y-43934D02*
X60547Y-44092D01*
X60547Y-44092D02*
X60685Y-44269D01*
X60685Y-44269D02*
X60764Y-44485D01*
X60764Y-44485D02*
X61217Y-44584D01*
X61630Y-40857D02*
X61762Y-40818D01*
X61762Y-40818D02*
X61788Y-40844D01*
X61630Y-43102D02*
X61290Y-43062D01*
X61290Y-43062D02*
X61236Y-43088D01*
X61236Y-43088D02*
X61315Y-43048D01*
X59858Y-42418D02*
X59858Y-43245D01*
X59858Y-43245D02*
X60173Y-43363D01*
X60173Y-43363D02*
X60469Y-43363D01*
X60469Y-43363D02*
X60331Y-43462D01*
X63414Y-36513D02*
X63481Y-36513D01*
X64414Y-36513D02*
X63481Y-36513D01*
X63481Y-36513D02*
X63914Y-36907D01*
X63914Y-36907D02*
X63914Y-38690D01*
X63914Y-38690D02*
X63807Y-38796D01*
X54504Y-40666D02*
X52902Y-40666D01*
X52902Y-40666D02*
X52760Y-40407D01*
X52772Y-43363D02*
X52752Y-43383D01*
X52752Y-43383D02*
X52733Y-43403D01*
X52733Y-43403D02*
X52103Y-43403D01*
X52103Y-43403D02*
X51827Y-43127D01*
X51827Y-43127D02*
X51827Y-40883D01*
X51827Y-40883D02*
X51866Y-40844D01*
X51866Y-40844D02*
X52323Y-40844D01*
X52323Y-40844D02*
X52760Y-40407D01*
X64709Y-40952D02*
X64709Y-41049D01*
X64709Y-41049D02*
X64701Y-40962D01*
X64701Y-40962D02*
X65803Y-40962D01*
X65803Y-40962D02*
X65803Y-39505D01*
X65803Y-39505D02*
X65567Y-39229D01*
X63638Y-39544D02*
X63008Y-39584D01*
X59819Y-39584D02*
X56079Y-39584D01*
X56079Y-39584D02*
X55882Y-39584D01*
X55882Y-39584D02*
X54189Y-39584D01*
X54189Y-39584D02*
X53835Y-39702D01*
X53835Y-39702D02*
X53465Y-39702D01*
X53465Y-39702D02*
X52760Y-40407D01*
X63008Y-39584D02*
X59819Y-39584D01*
X59819Y-39584D02*
X59819Y-41001D01*
X59819Y-41001D02*
X59858Y-41041D01*
X56945Y-41336D02*
X56945Y-41277D01*
X56945Y-41277D02*
X56079Y-40844D01*
X56079Y-40844D02*
X56079Y-39584D01*
X54681Y-41316D02*
X54681Y-40903D01*
X54681Y-40903D02*
X54622Y-40844D01*
X54622Y-40844D02*
X54504Y-40666D01*
X54977Y-43718D02*
X54977Y-43915D01*
X54977Y-43915D02*
X54780Y-44111D01*
X54780Y-44111D02*
X54662Y-44111D01*
X54662Y-44111D02*
X54622Y-44151D01*
X54622Y-44151D02*
X54622Y-44407D01*
X54622Y-44407D02*
X54603Y-44426D01*
X54583Y-44446D02*
X54524Y-44446D01*
X54524Y-44446D02*
X54229Y-44151D01*
X54229Y-44151D02*
X54229Y-43757D01*
X54229Y-43757D02*
X53815Y-43757D01*
X53815Y-43757D02*
X53796Y-43777D01*
X53796Y-43777D02*
X53796Y-42989D01*
X52772Y-43363D02*
X53421Y-43363D01*
X53421Y-43363D02*
X53796Y-42989D01*
X52760Y-43407D02*
X52760Y-43391D01*
X52760Y-43391D02*
X52752Y-43383D01*
X64721Y-41316D02*
X64721Y-42064D01*
X64721Y-42064D02*
X64544Y-42222D01*
X64544Y-42222D02*
X64544Y-43285D01*
X64544Y-43285D02*
X64721Y-43285D01*
X64721Y-43285D02*
X64721Y-43304D01*
X64721Y-43304D02*
X64622Y-43403D01*
X64622Y-43403D02*
X64662Y-43265D01*
X64662Y-43265D02*
X64721Y-43285D01*
X61240Y-40822D02*
X60487Y-40822D01*
X60487Y-40822D02*
X60331Y-40666D01*
X60331Y-41139D02*
X59957Y-41139D01*
X59957Y-41139D02*
X59858Y-41041D01*
X63638Y-39544D02*
X63796Y-39478D01*
X63796Y-39478D02*
X63807Y-38796D01*
X53807Y-45804D02*
X52969Y-45804D01*
X52969Y-45804D02*
X51827Y-44584D01*
X51827Y-44584D02*
X51827Y-43757D01*
X51827Y-43757D02*
X52103Y-43403D01*
X54807Y-38796D02*
X55807Y-38796D01*
X55807Y-38796D02*
X55807Y-39509D01*
X55807Y-39509D02*
X55882Y-39584D01*
X65390Y-42064D02*
X65233Y-42320D01*
X65233Y-42320D02*
X65055Y-42458D01*
X65055Y-42458D02*
X64898Y-42655D01*
X63402Y-44505D02*
X63402Y-44741D01*
X63402Y-44741D02*
X63244Y-44899D01*
X63244Y-44899D02*
X62870Y-44899D01*
X62870Y-44899D02*
X62851Y-44800D01*
X62870Y-44899D02*
X62870Y-45741D01*
X62870Y-45741D02*
X62807Y-45804D01*
X60011Y-41946D02*
X60301Y-42024D01*
X59330Y-41934D02*
X60011Y-41946D01*
X60301Y-42024D02*
X60331Y-42123D01*
X59330Y-41934D02*
X59307Y-41729D01*
X60949Y-41788D02*
X60745Y-42024D01*
X61248Y-41686D02*
X60949Y-41788D01*
X62152Y-41686D02*
X61248Y-41686D01*
X62281Y-41596D02*
X62152Y-41686D01*
X62281Y-40417D02*
X62281Y-41596D01*
X61971Y-40342D02*
X62281Y-40417D01*
X61700Y-40342D02*
X61971Y-40342D01*
X60745Y-42024D02*
X60331Y-42123D01*
X61700Y-40342D02*
X61630Y-40357D01*
X63677Y-43602D02*
X63717Y-44013D01*
X63717Y-44013D02*
X63953Y-44131D01*
X59775Y-44904D02*
X60250Y-44904D01*
X59684Y-44814D02*
X59775Y-44904D01*
X60250Y-44904D02*
X60331Y-44918D01*
X59684Y-44814D02*
X59662Y-44761D01*
X61630Y-42602D02*
X62168Y-42641D01*
X62168Y-42641D02*
X62299Y-42812D01*
X62299Y-42812D02*
X62299Y-44978D01*
X62299Y-44978D02*
X60351Y-44978D01*
X60351Y-44978D02*
X60331Y-44918D01*
X65390Y-44072D02*
X65390Y-43285D01*
X63677Y-42102D02*
X63953Y-42064D01*
X63953Y-42064D02*
X63953Y-41828D01*
X65410Y-42773D02*
X65410Y-43107D01*
X65410Y-43107D02*
X65390Y-43285D01*
X58058Y-44723D02*
X57701Y-44212D01*
X58227Y-44656D02*
X58058Y-44723D01*
X57701Y-44212D02*
X57299Y-44210D01*
X58227Y-44656D02*
X58185Y-44623D01*
X58239Y-44578D02*
X58239Y-44091D01*
X58239Y-44091D02*
X58185Y-43954D01*
X58239Y-44578D02*
X58185Y-44623D01*
X58329Y-43910D02*
X58329Y-43368D01*
X58239Y-44001D02*
X58329Y-43910D01*
X58329Y-43368D02*
X58352Y-43290D01*
X58239Y-44001D02*
X58185Y-43954D01*
X56945Y-40627D02*
X56925Y-40627D01*
X56925Y-40627D02*
X56512Y-40450D01*
X56512Y-40450D02*
X56473Y-40292D01*
X57299Y-44879D02*
X56965Y-44879D01*
X56965Y-44879D02*
X56709Y-44978D01*
X56709Y-44978D02*
X56315Y-45253D01*
X56315Y-45253D02*
X55803Y-45253D01*
X55803Y-45253D02*
X55803Y-45800D01*
X55803Y-45800D02*
X55807Y-45804D01*
X64116Y-44948D02*
X64014Y-44869D01*
X64017Y-44927D02*
X64116Y-44948D01*
X64390Y-45006D02*
X64017Y-44927D01*
X65110Y-45018D02*
X64672Y-45006D01*
X64672Y-45006D02*
X64390Y-45006D01*
X65333Y-44860D02*
X65110Y-45018D01*
X65701Y-44689D02*
X65333Y-44860D01*
X65819Y-44329D02*
X65701Y-44689D01*
X65826Y-41501D02*
X65819Y-44329D01*
X64014Y-44869D02*
X63953Y-44800D01*
X65826Y-41501D02*
X65390Y-41316D01*
X64807Y-45804D02*
X64807Y-45141D01*
X64807Y-45141D02*
X64672Y-45006D01*
X58910Y-44538D02*
X58855Y-44623D01*
X58910Y-44538D02*
X58910Y-44010D01*
X58910Y-44010D02*
X58855Y-43954D01*
X58910Y-44010D02*
X59580Y-44010D01*
X59580Y-44010D02*
X59662Y-44092D01*
X58096Y-43290D02*
X58096Y-42763D01*
X58096Y-42763D02*
X58166Y-42576D01*
X58166Y-42576D02*
X58205Y-42576D01*
X59189Y-42576D02*
X59386Y-42576D01*
X59386Y-42576D02*
X59504Y-42694D01*
X59504Y-42694D02*
X59504Y-42891D01*
X59504Y-42891D02*
X59662Y-42970D01*
X59662Y-42970D02*
X59662Y-44092D01*
X58781Y-40104D02*
X58781Y-40827D01*
X58781Y-40827D02*
X58697Y-40804D01*
X58781Y-40104D02*
X58697Y-40174D01*
X58600Y-41019D02*
X58600Y-41561D01*
X58584Y-40838D02*
X58600Y-41019D01*
X58600Y-41561D02*
X58608Y-41626D01*
X58584Y-40838D02*
X58697Y-40804D01*
X56945Y-39958D02*
X57319Y-39958D01*
X57319Y-39958D02*
X57496Y-39859D01*
X57496Y-39859D02*
X57575Y-39820D01*
X57575Y-39820D02*
X57614Y-39781D01*
X57614Y-39781D02*
X58677Y-39781D01*
X58677Y-39781D02*
X58677Y-40076D01*
X58677Y-40076D02*
X58697Y-40174D01*
X59279Y-40940D02*
X59358Y-41042D01*
X59283Y-40275D02*
X59279Y-40940D01*
X58058Y-40838D02*
X57488Y-40956D01*
X59358Y-41042D02*
X59307Y-41060D01*
X58058Y-40838D02*
X58028Y-40804D01*
X58030Y-40197D02*
X58148Y-40025D01*
X58148Y-40025D02*
X58028Y-40174D01*
X58030Y-40197D02*
X58028Y-40804D01*
X58329Y-41137D02*
X58329Y-41561D01*
X58148Y-40956D02*
X58329Y-41137D01*
X58329Y-41561D02*
X58352Y-41626D01*
X58148Y-40956D02*
X58028Y-40804D01*
X65145Y-39511D02*
X65342Y-39958D01*
X64811Y-39492D02*
X65145Y-39511D01*
X65342Y-39958D02*
X65390Y-39859D01*
X64811Y-39492D02*
X64807Y-38796D01*
X64544Y-44623D02*
X64701Y-44328D01*
X64701Y-44328D02*
X64721Y-44072D01*
X61598Y-39789D02*
X60497Y-40025D01*
X61609Y-39800D02*
X61598Y-39789D01*
X60497Y-40025D02*
X60331Y-39997D01*
X61609Y-39800D02*
X61630Y-39857D01*
X62835Y-40794D02*
X63597Y-40794D01*
X62325Y-39891D02*
X62835Y-40794D01*
X61700Y-39891D02*
X62325Y-39891D01*
X63597Y-40794D02*
X63677Y-40857D01*
X61700Y-39891D02*
X61630Y-39857D01*
X62872Y-43942D02*
X62833Y-44188D01*
X62659Y-42620D02*
X62872Y-43942D01*
X63196Y-41343D02*
X62768Y-41343D01*
X63597Y-41336D02*
X63196Y-41343D01*
X62833Y-44188D02*
X62851Y-44131D01*
X63597Y-41336D02*
X63677Y-41357D01*
X54603Y-43718D02*
X54603Y-43383D01*
X54603Y-43383D02*
X54780Y-43206D01*
X54780Y-43206D02*
X55292Y-43206D01*
X55292Y-43206D02*
X55331Y-43245D01*
X55331Y-43245D02*
X55331Y-43698D01*
X55331Y-43698D02*
X55351Y-43718D01*
X55351Y-43718D02*
X55351Y-44348D01*
X55351Y-44348D02*
X55272Y-44426D01*
X55351Y-43718D02*
X55292Y-43718D01*
X55292Y-43718D02*
X55685Y-43088D01*
X55685Y-43088D02*
X56768Y-43088D01*
X56768Y-43088D02*
X56847Y-43245D01*
X60701Y-42527D02*
X60497Y-42645D01*
X60815Y-42414D02*
X60701Y-42527D01*
X61295Y-42099D02*
X60815Y-42414D01*
X60497Y-42645D02*
X60331Y-42792D01*
X61295Y-42099D02*
X61630Y-42102D01*
X63111Y-43041D02*
X63637Y-43081D01*
X63073Y-42768D02*
X63111Y-43041D01*
X63038Y-42099D02*
X63073Y-42768D01*
X63637Y-43081D02*
X63677Y-43102D01*
X63038Y-42099D02*
X61630Y-42102D01*
X55685Y-40666D02*
X55685Y-41159D01*
X55685Y-41159D02*
X55567Y-41277D01*
X55567Y-41277D02*
X55390Y-41277D01*
X55390Y-41277D02*
X55351Y-41316D01*
X55351Y-41316D02*
X55488Y-41237D01*
X55488Y-41237D02*
X55882Y-41237D01*
X55882Y-41237D02*
X56079Y-41415D01*
X55351Y-42694D02*
X55351Y-42025D01*
X58608Y-43290D02*
X58608Y-42133D01*
X58608Y-42133D02*
X58835Y-42103D01*
X58835Y-42103D02*
X58835Y-41655D01*
X58835Y-41655D02*
X58864Y-41626D01*
X56079Y-42084D02*
X56256Y-42163D01*
X56256Y-42163D02*
X56709Y-42182D01*
X56709Y-42182D02*
X56906Y-42044D01*
X56906Y-42044D02*
X56945Y-42005D01*
X56945Y-42005D02*
X57141Y-42123D01*
X57141Y-42123D02*
X58608Y-42133D01*
X56079Y-42084D02*
X56079Y-42694D01*
X56079Y-43481D02*
X56040Y-43934D01*
X64318Y-39840D02*
X64631Y-39879D01*
X64631Y-39879D02*
X64721Y-39859D01*
X64318Y-39840D02*
X63677Y-39857D01*
X65263Y-40315D02*
X65381Y-40665D01*
X64760Y-40088D02*
X65263Y-40315D01*
X65381Y-40665D02*
X65390Y-40568D01*
X64760Y-40088D02*
X64721Y-39859D01*
X52780Y-44426D02*
X52760Y-44407D01*
X53796Y-44446D02*
X52799Y-44446D01*
X52799Y-44446D02*
X52760Y-44407D01*
X58096Y-41626D02*
X57658Y-41626D01*
X57658Y-41626D02*
X57614Y-41670D01*
X57614Y-41670D02*
X57614Y-41710D01*
X57614Y-42615D02*
X57516Y-42852D01*
X57516Y-42852D02*
X57516Y-43245D01*
X57516Y-43245D02*
X57516Y-43580D01*
X57516Y-43580D02*
X57418Y-43796D01*
X57418Y-43796D02*
X56748Y-43796D01*
X56748Y-43796D02*
X56591Y-44072D01*
X56591Y-44072D02*
X56591Y-44741D01*
X56591Y-44741D02*
X56276Y-45017D01*
X56276Y-45017D02*
X53953Y-45017D01*
X53953Y-45017D02*
X53796Y-44859D01*
X53796Y-44859D02*
X53796Y-44446D01*
X58859Y-43054D02*
X58859Y-43242D01*
X59052Y-43059D02*
X58859Y-43054D01*
X59035Y-43059D02*
X59052Y-43059D01*
X59149Y-43133D02*
X59035Y-43059D01*
X59267Y-43360D02*
X59149Y-43133D01*
X58859Y-43242D02*
X58864Y-43290D01*
X53796Y-42320D02*
X52768Y-42320D01*
X52768Y-42320D02*
X52760Y-42407D01*
X53341Y-39408D02*
X52889Y-39408D01*
X53765Y-38826D02*
X53341Y-39408D01*
X52889Y-39408D02*
X52760Y-39407D01*
X53765Y-38826D02*
X53807Y-38796D01*
X61886Y-44584D02*
X61886Y-43976D01*
X61886Y-43976D02*
X61630Y-43602D01*
X63677Y-40357D02*
X63427Y-40318D01*
X63427Y-40318D02*
X63047Y-40292D01*
X63047Y-40292D02*
X62890Y-40096D01*
X63677Y-40357D02*
X64215Y-40318D01*
X64215Y-40318D02*
X64307Y-40647D01*
X64307Y-40647D02*
X64307Y-42615D01*
X64307Y-42615D02*
X63742Y-42615D01*
X63742Y-42615D02*
X63677Y-42602D01*
X61630Y-43602D02*
X61081Y-43838D01*
X61081Y-43838D02*
X60843Y-43836D01*
X60843Y-41355D02*
X61433Y-41355D01*
X61433Y-41355D02*
X61396Y-41316D01*
X61396Y-41316D02*
X61630Y-41357D01*
X61630Y-41357D02*
X61632Y-41318D01*
X55855Y-39946D02*
X55076Y-39946D01*
X55076Y-39946D02*
X54861Y-39946D01*
X54861Y-39946D02*
X54504Y-39997D01*
X55855Y-39946D02*
X55685Y-39997D01*
X54599Y-42539D02*
X54603Y-42694D01*
X55076Y-40342D02*
X55076Y-39946D01*
X54599Y-42539D02*
X54599Y-42107D01*
X54599Y-42107D02*
X54681Y-42025D01*
X54681Y-42025D02*
X53933Y-41516D01*
X53933Y-41516D02*
X53925Y-41272D01*
M02*
