G04 (created by PCBNEW (2013-jul-07)-stable) date Mon 28 Dec 2015 12:48:25 PM PST*
%MOIN*%
G04 Gerber Fmt 3.4, Leading zero omitted, Abs format*
%FSLAX34Y34*%
G01*
G70*
G90*
G04 APERTURE LIST*
%ADD10C,0.00393701*%
%ADD11C,0.004*%
%ADD12C,0.005*%
%ADD13C,0.006*%
%ADD14C,0.002*%
%ADD15C,0.0048*%
G04 APERTURE END LIST*
G54D10*
G54D11*
X60115Y-41965D02*
X60115Y-41297D01*
X60547Y-41297D02*
X60547Y-41965D01*
G54D12*
X60547Y-41886D02*
X60547Y-41650D01*
X60547Y-41650D02*
X60115Y-41650D01*
X60115Y-41650D02*
X60115Y-41886D01*
X60115Y-41886D02*
X60547Y-41886D01*
G54D13*
X53210Y-38457D02*
X50810Y-38457D01*
X50810Y-38457D02*
X50810Y-46157D01*
X50810Y-46157D02*
X53210Y-46157D01*
X53210Y-46157D02*
X53210Y-44707D01*
X53210Y-39107D02*
X53210Y-38457D01*
X53210Y-43107D02*
X53210Y-42707D01*
X53210Y-42107D02*
X53210Y-40707D01*
X53210Y-40107D02*
X53210Y-39707D01*
X53210Y-44107D02*
X53210Y-43707D01*
X55537Y-42887D02*
X55537Y-43525D01*
X54417Y-43525D02*
X54417Y-42887D01*
X54772Y-42887D02*
X55182Y-42887D01*
X54809Y-43525D02*
X54772Y-43525D01*
X55182Y-43525D02*
X55145Y-43525D01*
X54455Y-43525D02*
X54417Y-43525D01*
X55537Y-43525D02*
X55499Y-43525D01*
X55499Y-42887D02*
X55537Y-42887D01*
X54417Y-42887D02*
X54455Y-42887D01*
X62557Y-38296D02*
X63057Y-38296D01*
X63057Y-38296D02*
X63307Y-38546D01*
X63307Y-38546D02*
X63307Y-39046D01*
X63307Y-39046D02*
X63057Y-39296D01*
X63307Y-38546D02*
X63557Y-38296D01*
X63557Y-38296D02*
X64057Y-38296D01*
X64057Y-38296D02*
X64307Y-38546D01*
X64307Y-38546D02*
X64307Y-39046D01*
X64307Y-39046D02*
X64057Y-39296D01*
X64057Y-39296D02*
X63557Y-39296D01*
X63557Y-39296D02*
X63307Y-39046D01*
X61307Y-38546D02*
X61557Y-38296D01*
X61557Y-38296D02*
X62057Y-38296D01*
X62057Y-38296D02*
X62307Y-38546D01*
X62307Y-38546D02*
X62307Y-39046D01*
X62307Y-39046D02*
X62057Y-39296D01*
X62057Y-39296D02*
X61557Y-39296D01*
X61557Y-39296D02*
X61307Y-39046D01*
X62557Y-38296D02*
X62307Y-38546D01*
X62307Y-39046D02*
X62557Y-39296D01*
X63057Y-39296D02*
X62557Y-39296D01*
X59557Y-38296D02*
X60057Y-38296D01*
X60057Y-38296D02*
X60307Y-38546D01*
X60307Y-38546D02*
X60307Y-39046D01*
X60307Y-39046D02*
X60057Y-39296D01*
X60307Y-38546D02*
X60557Y-38296D01*
X60557Y-38296D02*
X61057Y-38296D01*
X61057Y-38296D02*
X61307Y-38546D01*
X61307Y-38546D02*
X61307Y-39046D01*
X61307Y-39046D02*
X61057Y-39296D01*
X61057Y-39296D02*
X60557Y-39296D01*
X60557Y-39296D02*
X60307Y-39046D01*
X58307Y-38546D02*
X58557Y-38296D01*
X58557Y-38296D02*
X59057Y-38296D01*
X59057Y-38296D02*
X59307Y-38546D01*
X59307Y-38546D02*
X59307Y-39046D01*
X59307Y-39046D02*
X59057Y-39296D01*
X59057Y-39296D02*
X58557Y-39296D01*
X58557Y-39296D02*
X58307Y-39046D01*
X59557Y-38296D02*
X59307Y-38546D01*
X59307Y-39046D02*
X59557Y-39296D01*
X60057Y-39296D02*
X59557Y-39296D01*
X56557Y-38296D02*
X57057Y-38296D01*
X57057Y-38296D02*
X57307Y-38546D01*
X57307Y-38546D02*
X57307Y-39046D01*
X57307Y-39046D02*
X57057Y-39296D01*
X57307Y-38546D02*
X57557Y-38296D01*
X57557Y-38296D02*
X58057Y-38296D01*
X58057Y-38296D02*
X58307Y-38546D01*
X58307Y-38546D02*
X58307Y-39046D01*
X58307Y-39046D02*
X58057Y-39296D01*
X58057Y-39296D02*
X57557Y-39296D01*
X57557Y-39296D02*
X57307Y-39046D01*
X55307Y-38546D02*
X55557Y-38296D01*
X55557Y-38296D02*
X56057Y-38296D01*
X56057Y-38296D02*
X56307Y-38546D01*
X56307Y-38546D02*
X56307Y-39046D01*
X56307Y-39046D02*
X56057Y-39296D01*
X56057Y-39296D02*
X55557Y-39296D01*
X55557Y-39296D02*
X55307Y-39046D01*
X56557Y-38296D02*
X56307Y-38546D01*
X56307Y-39046D02*
X56557Y-39296D01*
X57057Y-39296D02*
X56557Y-39296D01*
X53557Y-38296D02*
X54057Y-38296D01*
X54057Y-38296D02*
X54307Y-38546D01*
X54307Y-38546D02*
X54307Y-39046D01*
X54307Y-39046D02*
X54057Y-39296D01*
X54307Y-38546D02*
X54557Y-38296D01*
X54557Y-38296D02*
X55057Y-38296D01*
X55057Y-38296D02*
X55307Y-38546D01*
X55307Y-38546D02*
X55307Y-39046D01*
X55307Y-39046D02*
X55057Y-39296D01*
X55057Y-39296D02*
X54557Y-39296D01*
X54557Y-39296D02*
X54307Y-39046D01*
X53307Y-38546D02*
X53307Y-39046D01*
X53557Y-38296D02*
X53307Y-38546D01*
X53307Y-39046D02*
X53557Y-39296D01*
X54057Y-39296D02*
X53557Y-39296D01*
X64307Y-38546D02*
X64557Y-38296D01*
X64557Y-38296D02*
X65057Y-38296D01*
X65057Y-38296D02*
X65307Y-38546D01*
X65307Y-38546D02*
X65307Y-39046D01*
X65307Y-39046D02*
X65057Y-39296D01*
X65057Y-39296D02*
X64557Y-39296D01*
X64557Y-39296D02*
X64307Y-39046D01*
X62557Y-45304D02*
X63057Y-45304D01*
X63057Y-45304D02*
X63307Y-45554D01*
X63307Y-45554D02*
X63307Y-46054D01*
X63307Y-46054D02*
X63057Y-46304D01*
X63307Y-45554D02*
X63557Y-45304D01*
X63557Y-45304D02*
X64057Y-45304D01*
X64057Y-45304D02*
X64307Y-45554D01*
X64307Y-45554D02*
X64307Y-46054D01*
X64307Y-46054D02*
X64057Y-46304D01*
X64057Y-46304D02*
X63557Y-46304D01*
X63557Y-46304D02*
X63307Y-46054D01*
X61307Y-45554D02*
X61557Y-45304D01*
X61557Y-45304D02*
X62057Y-45304D01*
X62057Y-45304D02*
X62307Y-45554D01*
X62307Y-45554D02*
X62307Y-46054D01*
X62307Y-46054D02*
X62057Y-46304D01*
X62057Y-46304D02*
X61557Y-46304D01*
X61557Y-46304D02*
X61307Y-46054D01*
X62557Y-45304D02*
X62307Y-45554D01*
X62307Y-46054D02*
X62557Y-46304D01*
X63057Y-46304D02*
X62557Y-46304D01*
X59557Y-45304D02*
X60057Y-45304D01*
X60057Y-45304D02*
X60307Y-45554D01*
X60307Y-45554D02*
X60307Y-46054D01*
X60307Y-46054D02*
X60057Y-46304D01*
X60307Y-45554D02*
X60557Y-45304D01*
X60557Y-45304D02*
X61057Y-45304D01*
X61057Y-45304D02*
X61307Y-45554D01*
X61307Y-45554D02*
X61307Y-46054D01*
X61307Y-46054D02*
X61057Y-46304D01*
X61057Y-46304D02*
X60557Y-46304D01*
X60557Y-46304D02*
X60307Y-46054D01*
X58307Y-45554D02*
X58557Y-45304D01*
X58557Y-45304D02*
X59057Y-45304D01*
X59057Y-45304D02*
X59307Y-45554D01*
X59307Y-45554D02*
X59307Y-46054D01*
X59307Y-46054D02*
X59057Y-46304D01*
X59057Y-46304D02*
X58557Y-46304D01*
X58557Y-46304D02*
X58307Y-46054D01*
X59557Y-45304D02*
X59307Y-45554D01*
X59307Y-46054D02*
X59557Y-46304D01*
X60057Y-46304D02*
X59557Y-46304D01*
X56557Y-45304D02*
X57057Y-45304D01*
X57057Y-45304D02*
X57307Y-45554D01*
X57307Y-45554D02*
X57307Y-46054D01*
X57307Y-46054D02*
X57057Y-46304D01*
X57307Y-45554D02*
X57557Y-45304D01*
X57557Y-45304D02*
X58057Y-45304D01*
X58057Y-45304D02*
X58307Y-45554D01*
X58307Y-45554D02*
X58307Y-46054D01*
X58307Y-46054D02*
X58057Y-46304D01*
X58057Y-46304D02*
X57557Y-46304D01*
X57557Y-46304D02*
X57307Y-46054D01*
X55307Y-45554D02*
X55557Y-45304D01*
X55557Y-45304D02*
X56057Y-45304D01*
X56057Y-45304D02*
X56307Y-45554D01*
X56307Y-45554D02*
X56307Y-46054D01*
X56307Y-46054D02*
X56057Y-46304D01*
X56057Y-46304D02*
X55557Y-46304D01*
X55557Y-46304D02*
X55307Y-46054D01*
X56557Y-45304D02*
X56307Y-45554D01*
X56307Y-46054D02*
X56557Y-46304D01*
X57057Y-46304D02*
X56557Y-46304D01*
X53557Y-45304D02*
X54057Y-45304D01*
X54057Y-45304D02*
X54307Y-45554D01*
X54307Y-45554D02*
X54307Y-46054D01*
X54307Y-46054D02*
X54057Y-46304D01*
X54307Y-45554D02*
X54557Y-45304D01*
X54557Y-45304D02*
X55057Y-45304D01*
X55057Y-45304D02*
X55307Y-45554D01*
X55307Y-45554D02*
X55307Y-46054D01*
X55307Y-46054D02*
X55057Y-46304D01*
X55057Y-46304D02*
X54557Y-46304D01*
X54557Y-46304D02*
X54307Y-46054D01*
X53307Y-45554D02*
X53307Y-46054D01*
X53557Y-45304D02*
X53307Y-45554D01*
X53307Y-46054D02*
X53557Y-46304D01*
X54057Y-46304D02*
X53557Y-46304D01*
X64307Y-45554D02*
X64557Y-45304D01*
X64557Y-45304D02*
X65057Y-45304D01*
X65057Y-45304D02*
X65307Y-45554D01*
X65307Y-45554D02*
X65307Y-46054D01*
X65307Y-46054D02*
X65057Y-46304D01*
X65057Y-46304D02*
X64557Y-46304D01*
X64557Y-46304D02*
X64307Y-46054D01*
G54D11*
X60115Y-44760D02*
X60115Y-44092D01*
X60547Y-44092D02*
X60547Y-44760D01*
G54D12*
X60547Y-44681D02*
X60547Y-44445D01*
X60547Y-44445D02*
X60115Y-44445D01*
X60115Y-44445D02*
X60115Y-44681D01*
X60115Y-44681D02*
X60547Y-44681D01*
G54D13*
X59120Y-41947D02*
X59120Y-42970D01*
X57841Y-42970D02*
X57841Y-41947D01*
X58864Y-41947D02*
G75*
G02X58992Y-41819I128J0D01*
G74*
G01*
X57969Y-42075D02*
G75*
G02X57841Y-41947I0J128D01*
G74*
G01*
X57969Y-42842D02*
G75*
G03X57841Y-42970I0J-128D01*
G74*
G01*
X58864Y-42970D02*
G75*
G03X58992Y-43098I128J0D01*
G74*
G01*
G54D14*
X58305Y-42769D02*
G75*
G03X58305Y-42769I-196J0D01*
G74*
G01*
G54D13*
X64814Y-37913D02*
X64814Y-35113D01*
X63014Y-35113D02*
X64814Y-35113D01*
X63014Y-35113D02*
X63014Y-37913D01*
X64814Y-37913D02*
X63014Y-37913D01*
X63714Y-35263D02*
X64114Y-35263D01*
X64114Y-37763D02*
X63714Y-37763D01*
X63450Y-37164D02*
G75*
G03X63750Y-37295I463J651D01*
G74*
G01*
X63651Y-35919D02*
G75*
G03X63401Y-36911I262J-593D01*
G74*
G01*
X64176Y-37106D02*
G75*
G03X64426Y-36114I-262J593D01*
G74*
G01*
X64145Y-37278D02*
G75*
G03X64441Y-37113I-231J765D01*
G74*
G01*
X64713Y-36518D02*
G75*
G03X64644Y-36186I-799J5D01*
G74*
G01*
X63682Y-37278D02*
G75*
G02X63386Y-37113I231J765D01*
G74*
G01*
X63114Y-36518D02*
G75*
G02X63183Y-36186I799J5D01*
G74*
G01*
X64377Y-35861D02*
G75*
G03X64077Y-35730I-463J-651D01*
G74*
G01*
X63164Y-35813D02*
X63164Y-36163D01*
X64664Y-35813D02*
X64664Y-36163D01*
X64664Y-36863D02*
X64664Y-37213D01*
X63164Y-36863D02*
X63164Y-37213D01*
G54D15*
X50957Y-46268D02*
X50957Y-45868D01*
X51052Y-45868D01*
X51110Y-45887D01*
X51148Y-45926D01*
X51167Y-45964D01*
X51186Y-46040D01*
X51186Y-46097D01*
X51167Y-46173D01*
X51148Y-46211D01*
X51110Y-46249D01*
X51052Y-46268D01*
X50957Y-46268D01*
X51586Y-46230D02*
X51567Y-46249D01*
X51510Y-46268D01*
X51471Y-46268D01*
X51414Y-46249D01*
X51376Y-46211D01*
X51357Y-46173D01*
X51338Y-46097D01*
X51338Y-46040D01*
X51357Y-45964D01*
X51376Y-45926D01*
X51414Y-45887D01*
X51471Y-45868D01*
X51510Y-45868D01*
X51567Y-45887D01*
X51586Y-45907D01*
X51757Y-46116D02*
X52062Y-46116D01*
X52252Y-46268D02*
X52252Y-45868D01*
X52348Y-45868D01*
X52405Y-45887D01*
X52443Y-45926D01*
X52462Y-45964D01*
X52481Y-46040D01*
X52481Y-46097D01*
X52462Y-46173D01*
X52443Y-46211D01*
X52405Y-46249D01*
X52348Y-46268D01*
X52252Y-46268D01*
X52881Y-46230D02*
X52862Y-46249D01*
X52805Y-46268D01*
X52767Y-46268D01*
X52710Y-46249D01*
X52671Y-46211D01*
X52652Y-46173D01*
X52633Y-46097D01*
X52633Y-46040D01*
X52652Y-45964D01*
X52671Y-45926D01*
X52710Y-45887D01*
X52767Y-45868D01*
X52805Y-45868D01*
X52862Y-45887D01*
X52881Y-45907D01*
X51874Y-39968D02*
X51645Y-39968D01*
X51760Y-39968D02*
X51760Y-39568D01*
X51721Y-39626D01*
X51683Y-39664D01*
X51645Y-39683D01*
X51836Y-44618D02*
X51760Y-44618D01*
X51721Y-44637D01*
X51702Y-44657D01*
X51664Y-44714D01*
X51645Y-44790D01*
X51645Y-44942D01*
X51664Y-44980D01*
X51683Y-44999D01*
X51721Y-45018D01*
X51798Y-45018D01*
X51836Y-44999D01*
X51855Y-44980D01*
X51874Y-44942D01*
X51874Y-44847D01*
X51855Y-44809D01*
X51836Y-44790D01*
X51798Y-44771D01*
X51721Y-44771D01*
X51683Y-44790D01*
X51664Y-44809D01*
X51645Y-44847D01*
M02*
