G04 (created by PCBNEW (2013-jul-07)-stable) date Mon 28 Dec 2015 12:37:34 PM PST*
%MOIN*%
G04 Gerber Fmt 3.4, Leading zero omitted, Abs format*
%FSLAX34Y34*%
G01*
G70*
G90*
G04 APERTURE LIST*
%ADD10C,0.00393701*%
%ADD11C,0.0019*%
%ADD12O,0.05X0.05*%
%ADD13O,0.06X0.06*%
%ADD14C,0.0236*%
%ADD15C,0.024*%
%ADD16C,0.01*%
G04 APERTURE END LIST*
G54D10*
G54D11*
X61730Y-42592D02*
X61730Y-42352D01*
X61730Y-42443D02*
X61708Y-42432D01*
X61662Y-42432D01*
X61639Y-42443D01*
X61628Y-42455D01*
X61616Y-42477D01*
X61616Y-42546D01*
X61628Y-42569D01*
X61639Y-42580D01*
X61662Y-42592D01*
X61708Y-42592D01*
X61730Y-42580D01*
X61513Y-42592D02*
X61513Y-42432D01*
X61513Y-42477D02*
X61502Y-42455D01*
X61490Y-42443D01*
X61468Y-42432D01*
X61445Y-42432D01*
X61262Y-42592D02*
X61262Y-42466D01*
X61273Y-42443D01*
X61296Y-42432D01*
X61342Y-42432D01*
X61365Y-42443D01*
X61262Y-42580D02*
X61285Y-42592D01*
X61342Y-42592D01*
X61365Y-42580D01*
X61376Y-42557D01*
X61376Y-42535D01*
X61365Y-42512D01*
X61342Y-42500D01*
X61285Y-42500D01*
X61262Y-42489D01*
X61148Y-42592D02*
X61148Y-42432D01*
X61148Y-42352D02*
X61159Y-42363D01*
X61148Y-42375D01*
X61136Y-42363D01*
X61148Y-42352D01*
X61148Y-42375D01*
X61033Y-42432D02*
X61033Y-42592D01*
X61033Y-42455D02*
X61022Y-42443D01*
X60999Y-42432D01*
X60965Y-42432D01*
X60942Y-42443D01*
X60930Y-42466D01*
X60930Y-42592D01*
X60816Y-42500D02*
X60633Y-42500D01*
X60416Y-42592D02*
X60416Y-42352D01*
X60416Y-42580D02*
X60439Y-42592D01*
X60485Y-42592D01*
X60508Y-42580D01*
X60519Y-42569D01*
X60530Y-42546D01*
X60530Y-42477D01*
X60519Y-42455D01*
X60508Y-42443D01*
X60485Y-42432D01*
X60439Y-42432D01*
X60416Y-42443D01*
X60199Y-42432D02*
X60199Y-42592D01*
X60302Y-42432D02*
X60302Y-42557D01*
X60290Y-42580D01*
X60267Y-42592D01*
X60233Y-42592D01*
X60210Y-42580D01*
X60199Y-42569D01*
X60085Y-42592D02*
X60085Y-42432D01*
X60085Y-42352D02*
X60096Y-42363D01*
X60085Y-42375D01*
X60073Y-42363D01*
X60085Y-42352D01*
X60085Y-42375D01*
X59970Y-42432D02*
X59970Y-42592D01*
X59970Y-42455D02*
X59959Y-42443D01*
X59936Y-42432D01*
X59902Y-42432D01*
X59879Y-42443D01*
X59867Y-42466D01*
X59867Y-42592D01*
X59719Y-42592D02*
X59742Y-42580D01*
X59753Y-42569D01*
X59765Y-42546D01*
X59765Y-42477D01*
X59753Y-42455D01*
X59742Y-42443D01*
X59719Y-42432D01*
X59685Y-42432D01*
X59662Y-42443D01*
X59650Y-42455D01*
X59639Y-42477D01*
X59639Y-42546D01*
X59650Y-42569D01*
X59662Y-42580D01*
X59685Y-42592D01*
X59719Y-42592D01*
X59536Y-42500D02*
X59353Y-42500D01*
X59250Y-42523D02*
X59136Y-42523D01*
X59273Y-42592D02*
X59193Y-42352D01*
X59113Y-42592D01*
X59033Y-42500D02*
X58850Y-42500D01*
X58770Y-42352D02*
X58690Y-42592D01*
X58610Y-42352D01*
X58485Y-42352D02*
X58462Y-42352D01*
X58439Y-42363D01*
X58427Y-42375D01*
X58416Y-42397D01*
X58405Y-42443D01*
X58405Y-42500D01*
X58416Y-42546D01*
X58427Y-42569D01*
X58439Y-42580D01*
X58462Y-42592D01*
X58485Y-42592D01*
X58507Y-42580D01*
X58519Y-42569D01*
X58530Y-42546D01*
X58542Y-42500D01*
X58542Y-42443D01*
X58530Y-42397D01*
X58519Y-42375D01*
X58507Y-42363D01*
X58485Y-42352D01*
X58302Y-42569D02*
X58290Y-42580D01*
X58302Y-42592D01*
X58313Y-42580D01*
X58302Y-42569D01*
X58302Y-42592D01*
X58062Y-42592D02*
X58199Y-42592D01*
X58130Y-42592D02*
X58130Y-42352D01*
X58153Y-42386D01*
X58176Y-42409D01*
X58199Y-42420D01*
X57776Y-42592D02*
X57776Y-42432D01*
X57776Y-42455D02*
X57765Y-42443D01*
X57742Y-42432D01*
X57708Y-42432D01*
X57685Y-42443D01*
X57673Y-42466D01*
X57673Y-42592D01*
X57673Y-42466D02*
X57662Y-42443D01*
X57639Y-42432D01*
X57605Y-42432D01*
X57582Y-42443D01*
X57570Y-42466D01*
X57570Y-42592D01*
X57456Y-42592D02*
X57456Y-42352D01*
X57433Y-42500D02*
X57365Y-42592D01*
X57365Y-42432D02*
X57456Y-42523D01*
G54D12*
X54973Y-41714D03*
X55973Y-41714D03*
X55973Y-38714D03*
X54973Y-38714D03*
X56973Y-41714D03*
X57973Y-41714D03*
X56973Y-38714D03*
X57973Y-38714D03*
G54D13*
X53532Y-36631D03*
X54532Y-36631D03*
X55532Y-36631D03*
X56532Y-36631D03*
X57532Y-36631D03*
X58532Y-36631D03*
X59532Y-36631D03*
X60532Y-36631D03*
X61532Y-36631D03*
X62532Y-36631D03*
X63532Y-36631D03*
X64532Y-36631D03*
X53532Y-43639D03*
X54532Y-43639D03*
X55532Y-43639D03*
X56532Y-43639D03*
X57532Y-43639D03*
X58532Y-43639D03*
X59532Y-43639D03*
X60532Y-43639D03*
X61532Y-43639D03*
X62532Y-43639D03*
X63532Y-43639D03*
X64532Y-43639D03*
X53717Y-39214D03*
X53717Y-40214D03*
X53717Y-41214D03*
X64268Y-40434D03*
X64268Y-41434D03*
X64268Y-42434D03*
G54D14*
X57103Y-40371D03*
X61522Y-40007D03*
X62496Y-39899D03*
G54D15*
X62745Y-38340D03*
X62747Y-41877D03*
G54D14*
X62969Y-37576D03*
X61040Y-37852D03*
X58796Y-41119D03*
G54D15*
X56624Y-39998D03*
X57940Y-40818D03*
X60130Y-37871D03*
G54D14*
X60331Y-39348D03*
X59858Y-40411D03*
X61984Y-40411D03*
G54D16*
X58522Y-36595D02*
X58532Y-36631D01*
X54532Y-43639D02*
X54532Y-40332D01*
X54532Y-40332D02*
X54532Y-40253D01*
X54532Y-40253D02*
X54532Y-36631D01*
X53717Y-40214D02*
X53941Y-40253D01*
X53941Y-40253D02*
X54532Y-40253D01*
X57103Y-40371D02*
X54571Y-40371D01*
X54571Y-40371D02*
X54532Y-40332D01*
X61522Y-40007D02*
X62496Y-39899D01*
X62903Y-41643D02*
X62929Y-41367D01*
X62929Y-41367D02*
X62929Y-38576D01*
X62929Y-38576D02*
X62745Y-38340D01*
X62747Y-41877D02*
X62903Y-41643D01*
X62969Y-37576D02*
X61236Y-37576D01*
X61236Y-37576D02*
X61040Y-37852D01*
X58796Y-41119D02*
X58677Y-41198D01*
X58677Y-41198D02*
X57339Y-41198D01*
X57339Y-41198D02*
X57063Y-41552D01*
X57063Y-41552D02*
X56984Y-41741D01*
X56984Y-41741D02*
X56973Y-41714D01*
X56873Y-39473D02*
X57968Y-39472D01*
X56729Y-39763D02*
X56873Y-39473D01*
X56624Y-39998D02*
X56729Y-39763D01*
X57968Y-39472D02*
X57973Y-38714D01*
X56002Y-40818D02*
X57940Y-40818D01*
X55992Y-41655D02*
X56002Y-40818D01*
X55992Y-41655D02*
X55973Y-41714D01*
X59460Y-37675D02*
X57693Y-37675D01*
X57693Y-37675D02*
X56012Y-37675D01*
X56012Y-37675D02*
X54973Y-38714D01*
X59460Y-37675D02*
X60130Y-37871D01*
X57532Y-36631D02*
X57532Y-37513D01*
X57532Y-37513D02*
X57693Y-37675D01*
X64268Y-40434D02*
X64268Y-39151D01*
X64268Y-39151D02*
X63087Y-37970D01*
X63087Y-37970D02*
X61512Y-37970D01*
X61512Y-37970D02*
X61512Y-38166D01*
X61512Y-38166D02*
X60331Y-39348D01*
X61984Y-40411D02*
X59858Y-40411D01*
X57973Y-41714D02*
X58792Y-41714D01*
X58792Y-41714D02*
X59858Y-40411D01*
X59858Y-40411D02*
X59858Y-39229D01*
X59858Y-39229D02*
X60528Y-38324D01*
X60528Y-38324D02*
X60528Y-36635D01*
X60528Y-36635D02*
X60532Y-36631D01*
X64268Y-42434D02*
X62394Y-42434D01*
X62394Y-42434D02*
X62024Y-42064D01*
X62024Y-42064D02*
X62024Y-40450D01*
X62024Y-40450D02*
X61984Y-40411D01*
M02*
