M48
;DRILL file {Pcbnew (2013-jul-07)-stable} date Mon 28 Dec 2015 12:37:50 PM PST
;FORMAT={-:-/ absolute / inch / decimal}
FMAT,2
INCH,TZ
T1C0.025
T2C0.032
T3C0.040
%
G90
G05
M72
T1
X5.6624Y-3.9998
X5.7103Y-4.0371
X5.794Y-4.0818
X5.8796Y-4.1119
X5.9858Y-4.0411
X6.013Y-3.7871
X6.0331Y-3.9348
X6.104Y-3.7852
X6.1522Y-4.0007
X6.1984Y-4.0411
X6.2496Y-3.9899
X6.2745Y-3.834
X6.2747Y-4.1877
X6.2969Y-3.7576
T2
X5.4973Y-3.8714
X5.4973Y-4.1714
X5.5973Y-3.8714
X5.5973Y-4.1714
X5.6973Y-3.8714
X5.6973Y-4.1714
X5.7973Y-3.8714
X5.7973Y-4.1714
T3
X5.3532Y-3.6631
X5.3532Y-4.3639
X5.3717Y-3.9214
X5.3717Y-4.0214
X5.3717Y-4.1214
X5.4532Y-3.6631
X5.4532Y-4.3639
X5.5532Y-3.6631
X5.5532Y-4.3639
X5.6532Y-3.6631
X5.6532Y-4.3639
X5.7532Y-3.6631
X5.7532Y-4.3639
X5.8532Y-3.6631
X5.8532Y-4.3639
X5.9532Y-3.6631
X5.9532Y-4.3639
X6.0532Y-3.6631
X6.0532Y-4.3639
X6.1532Y-3.6631
X6.1532Y-4.3639
X6.2532Y-3.6631
X6.2532Y-4.3639
X6.3532Y-3.6631
X6.3532Y-4.3639
X6.4268Y-4.0434
X6.4268Y-4.1434
X6.4268Y-4.2434
X6.4532Y-3.6631
X6.4532Y-4.3639
T0
M30
