G75*
%MOIN*%
%OFA0B0*%
%FSLAX24Y24*%
%IPPOS*%
%LPD*%
%AMOC8*
5,1,8,0,0,1.08239X$1,22.5*
%
%ADD10R,0.0474X0.0513*%
%ADD11R,0.0513X0.0474*%
%ADD12R,0.0946X0.0316*%
%ADD13R,0.0316X0.0395*%
%ADD14C,0.0600*%
%ADD15R,0.0297X0.0552*%
%ADD16C,0.0680*%
%ADD17R,0.0198X0.0552*%
%ADD18OC8,0.0600*%
%ADD19C,0.0476*%
%ADD20C,0.0480*%
D10*
X015139Y012757D03*
X015139Y013427D03*
X015139Y014214D03*
X015139Y014883D03*
X015848Y016537D03*
X015848Y017206D03*
X018289Y015868D03*
X018289Y015198D03*
X018191Y013958D03*
X018860Y013958D03*
X019529Y013250D03*
X020198Y013250D03*
X021675Y013742D03*
X021675Y014411D03*
X021675Y016537D03*
X021675Y017206D03*
X020041Y017029D03*
X019372Y017029D03*
D11*
X019372Y016399D03*
X020041Y016399D03*
X020651Y016143D03*
X020651Y015474D03*
X018289Y016576D03*
X018289Y017246D03*
X017029Y017206D03*
X017029Y016537D03*
X016694Y015887D03*
X017423Y015789D03*
X017423Y015120D03*
X016694Y015179D03*
X016025Y015179D03*
X016025Y015887D03*
X017383Y013269D03*
X017383Y012600D03*
X016616Y012777D03*
X015946Y012777D03*
X018643Y012994D03*
X018643Y012324D03*
X019529Y012580D03*
X020198Y012580D03*
X021006Y012443D03*
X021006Y013112D03*
X022561Y012620D03*
X023230Y012620D03*
X024194Y012403D03*
X024194Y013072D03*
X025297Y013072D03*
X025297Y012403D03*
X026065Y013131D03*
X026734Y013131D03*
X026734Y013919D03*
X026065Y013919D03*
X026065Y015139D03*
X026734Y015139D03*
X026734Y015887D03*
X026065Y015887D03*
X026065Y016635D03*
X026734Y016635D03*
X026734Y017344D03*
X026065Y017344D03*
D12*
X025021Y017346D03*
X025021Y016846D03*
X025021Y016346D03*
X025021Y015846D03*
X025021Y015102D03*
X025021Y014602D03*
X025021Y014102D03*
X025021Y013602D03*
X022974Y013602D03*
X022974Y014102D03*
X022974Y014602D03*
X022974Y015102D03*
X022974Y015846D03*
X022974Y016346D03*
X022974Y016846D03*
X022974Y017346D03*
D13*
X021675Y016065D03*
X021675Y015080D03*
X021675Y013269D03*
X021675Y012285D03*
D14*
X014364Y012797D02*
X013844Y012797D01*
X013844Y013797D02*
X014364Y013797D01*
X014364Y014797D02*
X013844Y014797D01*
X013844Y016797D02*
X014364Y016797D01*
X014364Y017797D02*
X013844Y017797D01*
D15*
X015946Y014509D03*
X016694Y014509D03*
X016694Y013486D03*
X016320Y013486D03*
X015946Y013486D03*
D16*
X015151Y011699D02*
X015151Y011099D01*
X016151Y011099D02*
X016151Y011699D01*
X017151Y011699D02*
X017151Y011099D01*
X018151Y011099D02*
X018151Y011699D01*
X019151Y011699D02*
X019151Y011099D01*
X020151Y011099D02*
X020151Y011699D01*
X021151Y011699D02*
X021151Y011099D01*
X022151Y011099D02*
X022151Y011699D01*
X023151Y011699D02*
X023151Y011099D01*
X024151Y011099D02*
X024151Y011699D01*
X025151Y011699D02*
X025151Y011099D01*
X026151Y011099D02*
X026151Y011699D01*
X026151Y018107D02*
X026151Y018707D01*
X025151Y018707D02*
X025151Y018107D01*
X024151Y018107D02*
X024151Y018707D01*
X023151Y018707D02*
X023151Y018107D01*
X022151Y018107D02*
X022151Y018707D01*
X021151Y018707D02*
X021151Y018107D01*
X020151Y018107D02*
X020151Y018707D01*
X019151Y018707D02*
X019151Y018107D01*
X018151Y018107D02*
X018151Y018707D01*
X017151Y018707D02*
X017151Y018107D01*
X016151Y018107D02*
X016151Y018707D01*
X015151Y018707D02*
X015151Y018107D01*
D17*
X019440Y015577D03*
X019696Y015577D03*
X019952Y015577D03*
X020208Y015577D03*
X020208Y013914D03*
X019952Y013914D03*
X019696Y013914D03*
X019440Y013914D03*
D18*
X024757Y019691D03*
X024757Y020691D03*
X024757Y021691D03*
X025757Y021691D03*
X025757Y020691D03*
X025757Y019691D03*
D19*
X026911Y017974D03*
X024234Y017108D03*
X025297Y015376D03*
X026242Y014549D03*
X026754Y014431D03*
X024746Y012698D03*
X025887Y012580D03*
X022187Y013368D03*
X021202Y014785D03*
X020533Y014628D03*
X019549Y014628D03*
X018958Y014588D03*
X018958Y015494D03*
X017423Y014509D03*
X017423Y013722D03*
X017817Y016911D03*
X021202Y016163D03*
X022187Y015848D03*
D20*
X020627Y016928D03*
X018832Y016247D03*
X016420Y016861D03*
X015269Y015932D03*
X020611Y013844D03*
X024003Y014583D03*
X024112Y015860D03*
M02*
