%
M48
M72
T01C0.0236
T02C0.0240
T03C0.0320
T04C0.0400
%
T01
X17423Y13722
X17423Y14509
X18958Y14588
X19549Y14628
X20533Y14628
X21202Y14785
X21202Y16163
X22187Y15848
X24234Y17108
X25297Y15376
X26242Y14549
X26754Y14431
X24746Y12698
X25887Y12580
X22187Y13368
X18958Y15494
X17817Y16911
X26911Y17974
T02
X24112Y15860
X24003Y14583
X20611Y13844
X18832Y16247
X20627Y16928
X16420Y16861
X15269Y15932
T03
X14104Y16797
X14104Y17797
X14104Y14797
X14104Y13797
X14104Y12797
X24757Y19691
X24757Y20691
X24757Y21691
X25757Y21691
X25757Y20691
X25757Y19691
T04
X15151Y11399
X16151Y11399
X17151Y11399
X18151Y11399
X19151Y11399
X20151Y11399
X21151Y11399
X22151Y11399
X23151Y11399
X24151Y11399
X25151Y11399
X26151Y11399
X26151Y18407
X25151Y18407
X24151Y18407
X23151Y18407
X22151Y18407
X21151Y18407
X20151Y18407
X19151Y18407
X18151Y18407
X17151Y18407
X16151Y18407
X15151Y18407
M30
