G75*
%MOIN*%
%OFA0B0*%
%FSLAX24Y24*%
%IPPOS*%
%LPD*%
%AMOC8*
5,1,8,0,0,1.08239X$1,22.5*
%
%ADD10C,0.0000*%
%ADD11C,0.0010*%
%ADD12C,0.0040*%
%ADD13R,0.0433X0.0236*%
%ADD14C,0.0060*%
%ADD15C,0.0050*%
%ADD16C,0.0020*%
D10*
X000100Y000100D02*
X000139Y031596D01*
X039509Y031596D01*
X039509Y000100D01*
X000100Y000100D01*
D11*
X015408Y013220D02*
X015433Y013195D01*
X015533Y013195D01*
X015558Y013220D01*
X015558Y013270D01*
X015533Y013295D01*
X015558Y013342D02*
X015558Y013442D01*
X015558Y013392D02*
X015408Y013392D01*
X015458Y013342D01*
X015433Y013295D02*
X015408Y013270D01*
X015408Y013220D01*
X015433Y013489D02*
X015408Y013514D01*
X015408Y013564D01*
X015433Y013589D01*
X015533Y013489D01*
X015558Y013514D01*
X015558Y013564D01*
X015533Y013589D01*
X015433Y013589D01*
X015433Y013489D02*
X015533Y013489D01*
X015552Y013729D02*
X015577Y013754D01*
X015552Y013729D02*
X015502Y013729D01*
X015477Y013754D01*
X015477Y013854D01*
X015502Y013879D01*
X015552Y013879D01*
X015577Y013854D01*
X015624Y013879D02*
X015724Y013879D01*
X015724Y013854D01*
X015624Y013754D01*
X015624Y013729D01*
X015429Y013729D02*
X015379Y013729D01*
X015404Y013729D02*
X015404Y013879D01*
X015379Y013879D02*
X015429Y013879D01*
X015433Y014799D02*
X015533Y014799D01*
X015558Y014824D01*
X015558Y014874D01*
X015533Y014899D01*
X015533Y014946D02*
X015558Y014971D01*
X015558Y015021D01*
X015533Y015046D01*
X015433Y015046D01*
X015408Y015021D01*
X015408Y014971D01*
X015433Y014946D01*
X015458Y014946D01*
X015483Y014971D01*
X015483Y015046D01*
X015433Y014899D02*
X015408Y014874D01*
X015408Y014824D01*
X015433Y014799D01*
X016502Y014824D02*
X016527Y014799D01*
X016577Y014799D01*
X016602Y014824D01*
X016649Y014824D02*
X016674Y014799D01*
X016724Y014799D01*
X016749Y014824D01*
X016749Y014849D01*
X016724Y014874D01*
X016699Y014874D01*
X016724Y014874D02*
X016749Y014899D01*
X016749Y014924D01*
X016724Y014949D01*
X016674Y014949D01*
X016649Y014924D01*
X016602Y014924D02*
X016577Y014949D01*
X016527Y014949D01*
X016502Y014924D01*
X016502Y014824D01*
X016796Y014799D02*
X016896Y014899D01*
X016896Y014924D01*
X016871Y014949D01*
X016821Y014949D01*
X016796Y014924D01*
X016796Y014799D02*
X016896Y014799D01*
X017004Y014894D02*
X017004Y014969D01*
X017029Y014994D01*
X017079Y014994D01*
X017104Y014969D01*
X017104Y014894D01*
X017154Y014894D02*
X017004Y014894D01*
X017104Y014944D02*
X017154Y014994D01*
X017129Y015042D02*
X017154Y015067D01*
X017154Y015117D01*
X017129Y015142D01*
X017104Y015142D01*
X017079Y015117D01*
X017079Y015042D01*
X017129Y015042D01*
X017079Y015042D02*
X017029Y015092D01*
X017004Y015142D01*
X016825Y015487D02*
X016775Y015487D01*
X016750Y015512D01*
X016750Y015562D02*
X016800Y015587D01*
X016825Y015587D01*
X016850Y015562D01*
X016850Y015512D01*
X016825Y015487D01*
X016750Y015562D02*
X016750Y015637D01*
X016850Y015637D01*
X016703Y015612D02*
X016678Y015637D01*
X016628Y015637D01*
X016603Y015612D01*
X016555Y015612D02*
X016530Y015637D01*
X016480Y015637D01*
X016455Y015612D01*
X016455Y015512D01*
X016480Y015487D01*
X016530Y015487D01*
X016555Y015512D01*
X016603Y015487D02*
X016703Y015587D01*
X016703Y015612D01*
X016703Y015487D02*
X016603Y015487D01*
X016628Y016330D02*
X016628Y016405D01*
X016654Y016430D01*
X016704Y016430D01*
X016729Y016405D01*
X016729Y016330D01*
X016779Y016330D02*
X016628Y016330D01*
X016729Y016380D02*
X016779Y016430D01*
X016754Y016478D02*
X016779Y016503D01*
X016779Y016553D01*
X016754Y016578D01*
X016729Y016578D01*
X016704Y016553D01*
X016704Y016528D01*
X016704Y016553D02*
X016679Y016578D01*
X016654Y016578D01*
X016628Y016553D01*
X016628Y016503D01*
X016654Y016478D01*
X016654Y016625D02*
X016628Y016650D01*
X016628Y016700D01*
X016654Y016725D01*
X016754Y016725D01*
X016779Y016700D01*
X016779Y016650D01*
X016754Y016625D01*
X016704Y016650D02*
X016704Y016725D01*
X016704Y016650D02*
X016679Y016625D01*
X016654Y016625D01*
X015579Y016657D02*
X015579Y016707D01*
X015554Y016732D01*
X015529Y016732D01*
X015504Y016707D01*
X015504Y016632D01*
X015554Y016632D01*
X015579Y016657D01*
X015579Y016585D02*
X015579Y016485D01*
X015479Y016585D01*
X015454Y016585D01*
X015429Y016560D01*
X015429Y016510D01*
X015454Y016485D01*
X015454Y016437D02*
X015429Y016412D01*
X015429Y016362D01*
X015454Y016337D01*
X015554Y016337D01*
X015579Y016362D01*
X015579Y016412D01*
X015554Y016437D01*
X015504Y016632D02*
X015454Y016682D01*
X015429Y016732D01*
X017875Y016646D02*
X017875Y016546D01*
X017950Y016546D01*
X017925Y016596D01*
X017925Y016621D01*
X017950Y016646D01*
X018000Y016646D01*
X018025Y016621D01*
X018025Y016571D01*
X018000Y016546D01*
X018025Y016499D02*
X018025Y016399D01*
X018025Y016352D02*
X017975Y016302D01*
X017975Y016327D02*
X017975Y016252D01*
X018025Y016252D02*
X017875Y016252D01*
X017875Y016327D01*
X017900Y016352D01*
X017950Y016352D01*
X017975Y016327D01*
X017925Y016399D02*
X017875Y016449D01*
X018025Y016449D01*
X017999Y015400D02*
X017999Y015300D01*
X017999Y015350D02*
X017849Y015350D01*
X017899Y015300D01*
X017899Y015253D02*
X017924Y015228D01*
X017949Y015253D01*
X017974Y015253D01*
X017999Y015228D01*
X017999Y015178D01*
X017974Y015153D01*
X017974Y015106D02*
X017999Y015081D01*
X017999Y015031D01*
X017974Y015006D01*
X017874Y015006D01*
X017849Y015031D01*
X017849Y015081D01*
X017874Y015106D01*
X017874Y015153D02*
X017849Y015178D01*
X017849Y015228D01*
X017874Y015253D01*
X017899Y015253D01*
X017924Y015228D02*
X017924Y015203D01*
X017945Y014359D02*
X018020Y014359D01*
X018045Y014334D01*
X018045Y014284D01*
X018020Y014259D01*
X017945Y014259D01*
X017995Y014259D02*
X018045Y014209D01*
X018092Y014234D02*
X018117Y014209D01*
X018167Y014209D01*
X018192Y014234D01*
X018192Y014259D01*
X018167Y014284D01*
X018142Y014284D01*
X018167Y014284D02*
X018192Y014309D01*
X018192Y014334D01*
X018167Y014359D01*
X018117Y014359D01*
X018092Y014334D01*
X018239Y014334D02*
X018239Y014309D01*
X018264Y014284D01*
X018314Y014284D01*
X018339Y014259D01*
X018339Y014234D01*
X018314Y014209D01*
X018264Y014209D01*
X018239Y014234D01*
X018239Y014259D01*
X018264Y014284D01*
X018314Y014284D02*
X018339Y014309D01*
X018339Y014334D01*
X018314Y014359D01*
X018264Y014359D01*
X018239Y014334D01*
X017945Y014359D02*
X017945Y014209D01*
X017090Y012809D02*
X016990Y012809D01*
X016965Y012784D01*
X016965Y012734D01*
X016990Y012709D01*
X017015Y012709D01*
X017040Y012734D01*
X017040Y012809D01*
X017090Y012809D02*
X017115Y012784D01*
X017115Y012734D01*
X017090Y012709D01*
X017115Y012661D02*
X017115Y012561D01*
X017015Y012661D01*
X016990Y012661D01*
X016965Y012636D01*
X016965Y012586D01*
X016990Y012561D01*
X016990Y012514D02*
X017040Y012514D01*
X017065Y012489D01*
X017065Y012414D01*
X017115Y012414D02*
X016965Y012414D01*
X016965Y012489D01*
X016990Y012514D01*
X017065Y012464D02*
X017115Y012514D01*
X016771Y012527D02*
X016671Y012527D01*
X016671Y012452D01*
X016721Y012477D01*
X016746Y012477D01*
X016771Y012452D01*
X016771Y012402D01*
X016746Y012377D01*
X016696Y012377D01*
X016671Y012402D01*
X016624Y012377D02*
X016524Y012377D01*
X016574Y012377D02*
X016574Y012527D01*
X016524Y012477D01*
X016477Y012502D02*
X016452Y012527D01*
X016402Y012527D01*
X016377Y012502D01*
X016377Y012402D01*
X016402Y012377D01*
X016452Y012377D01*
X016477Y012402D01*
X018229Y012437D02*
X018254Y012412D01*
X018229Y012437D02*
X018229Y012487D01*
X018254Y012512D01*
X018279Y012512D01*
X018379Y012412D01*
X018379Y012512D01*
X018379Y012365D02*
X018379Y012265D01*
X018379Y012218D02*
X018329Y012168D01*
X018329Y012193D02*
X018329Y012118D01*
X018379Y012118D02*
X018229Y012118D01*
X018229Y012193D01*
X018254Y012218D01*
X018304Y012218D01*
X018329Y012193D01*
X018279Y012265D02*
X018229Y012315D01*
X018379Y012315D01*
X020012Y012291D02*
X020012Y012191D01*
X020038Y012166D01*
X020088Y012166D01*
X020113Y012191D01*
X020160Y012166D02*
X020260Y012266D01*
X020260Y012291D01*
X020235Y012316D01*
X020185Y012316D01*
X020160Y012291D01*
X020113Y012291D02*
X020088Y012316D01*
X020038Y012316D01*
X020012Y012291D01*
X020160Y012166D02*
X020260Y012166D01*
X020307Y012166D02*
X020407Y012266D01*
X020407Y012291D01*
X020382Y012316D01*
X020332Y012316D01*
X020307Y012291D01*
X020307Y012166D02*
X020407Y012166D01*
X020286Y012845D02*
X020286Y012870D01*
X020386Y012970D01*
X020386Y012995D01*
X020286Y012995D01*
X020189Y012995D02*
X020189Y012845D01*
X020139Y012845D02*
X020239Y012845D01*
X020139Y012945D02*
X020189Y012995D01*
X020092Y012970D02*
X020092Y012920D01*
X020067Y012895D01*
X019992Y012895D01*
X020042Y012895D02*
X020092Y012845D01*
X019992Y012845D02*
X019992Y012995D01*
X020067Y012995D01*
X020092Y012970D01*
X021260Y012896D02*
X021411Y012896D01*
X021411Y012946D02*
X021411Y012845D01*
X021411Y012798D02*
X021411Y012698D01*
X021411Y012651D02*
X021360Y012601D01*
X021360Y012626D02*
X021360Y012551D01*
X021411Y012551D02*
X021260Y012551D01*
X021260Y012626D01*
X021285Y012651D01*
X021335Y012651D01*
X021360Y012626D01*
X021310Y012698D02*
X021260Y012748D01*
X021411Y012748D01*
X021310Y012845D02*
X021260Y012896D01*
X021300Y013153D02*
X021300Y013228D01*
X021325Y013253D01*
X021425Y013253D01*
X021450Y013228D01*
X021450Y013153D01*
X021300Y013153D01*
X021350Y013300D02*
X021300Y013350D01*
X021450Y013350D01*
X021450Y013300D02*
X021450Y013400D01*
X021395Y013989D02*
X021295Y013989D01*
X021270Y014014D01*
X021270Y014064D01*
X021295Y014089D01*
X021320Y014136D02*
X021270Y014186D01*
X021420Y014186D01*
X021420Y014136D02*
X021420Y014236D01*
X021395Y014089D02*
X021420Y014064D01*
X021420Y014014D01*
X021395Y013989D01*
X021070Y015464D02*
X020920Y015464D01*
X020920Y015539D01*
X020945Y015564D01*
X020995Y015564D01*
X021020Y015539D01*
X021020Y015464D01*
X021020Y015514D02*
X021070Y015564D01*
X021070Y015612D02*
X021070Y015712D01*
X021070Y015662D02*
X020920Y015662D01*
X020970Y015612D01*
X020995Y015759D02*
X020920Y015834D01*
X021070Y015834D01*
X020995Y015859D02*
X020995Y015759D01*
X021260Y015869D02*
X021260Y015944D01*
X021285Y015969D01*
X021385Y015969D01*
X021410Y015944D01*
X021410Y015869D01*
X021260Y015869D01*
X021285Y016016D02*
X021260Y016042D01*
X021260Y016092D01*
X021285Y016117D01*
X021310Y016117D01*
X021335Y016092D01*
X021360Y016117D01*
X021385Y016117D01*
X021410Y016092D01*
X021410Y016042D01*
X021385Y016016D01*
X021335Y016067D02*
X021335Y016092D01*
X021381Y016652D02*
X021406Y016677D01*
X021406Y016727D01*
X021381Y016752D01*
X021406Y016800D02*
X021406Y016900D01*
X021406Y016850D02*
X021256Y016850D01*
X021306Y016800D01*
X021281Y016752D02*
X021256Y016727D01*
X021256Y016677D01*
X021281Y016652D01*
X021381Y016652D01*
X021381Y016947D02*
X021356Y016947D01*
X021331Y016972D01*
X021331Y017022D01*
X021356Y017047D01*
X021381Y017047D01*
X021406Y017022D01*
X021406Y016972D01*
X021381Y016947D01*
X021331Y016972D02*
X021306Y016947D01*
X021281Y016947D01*
X021256Y016972D01*
X021256Y017022D01*
X021281Y017047D01*
X021306Y017047D01*
X021331Y017022D01*
X022741Y017575D02*
X022791Y017575D01*
X022766Y017575D02*
X022766Y017726D01*
X022741Y017726D02*
X022791Y017726D01*
X022839Y017701D02*
X022839Y017600D01*
X022864Y017575D01*
X022914Y017575D01*
X022939Y017600D01*
X022986Y017575D02*
X023086Y017575D01*
X023134Y017575D02*
X023234Y017575D01*
X023184Y017575D02*
X023184Y017726D01*
X023134Y017676D01*
X023036Y017726D02*
X023036Y017575D01*
X022986Y017676D02*
X023036Y017726D01*
X022939Y017701D02*
X022914Y017726D01*
X022864Y017726D01*
X022839Y017701D01*
X022835Y015678D02*
X022785Y015678D01*
X022760Y015653D01*
X022760Y015553D01*
X022785Y015528D01*
X022835Y015528D01*
X022860Y015553D01*
X022908Y015528D02*
X023008Y015528D01*
X022958Y015528D02*
X022958Y015678D01*
X022908Y015628D01*
X022860Y015653D02*
X022835Y015678D01*
X022712Y015678D02*
X022662Y015678D01*
X022687Y015678D02*
X022687Y015528D01*
X022662Y015528D02*
X022712Y015528D01*
X023055Y015553D02*
X023155Y015653D01*
X023155Y015553D01*
X023130Y015528D01*
X023080Y015528D01*
X023055Y015553D01*
X023055Y015653D01*
X023080Y015678D01*
X023130Y015678D01*
X023155Y015653D01*
X025865Y015533D02*
X025865Y015433D01*
X025890Y015408D01*
X025940Y015408D01*
X025965Y015433D01*
X026012Y015408D02*
X026112Y015408D01*
X026062Y015408D02*
X026062Y015558D01*
X026012Y015508D01*
X025965Y015533D02*
X025940Y015558D01*
X025890Y015558D01*
X025865Y015533D01*
X026159Y015533D02*
X026159Y015508D01*
X026185Y015483D01*
X026260Y015483D01*
X026260Y015433D02*
X026260Y015533D01*
X026235Y015558D01*
X026185Y015558D01*
X026159Y015533D01*
X026159Y015433D02*
X026185Y015408D01*
X026235Y015408D01*
X026260Y015433D01*
X026248Y016142D02*
X026273Y016167D01*
X026273Y016192D01*
X026248Y016217D01*
X026173Y016217D01*
X026173Y016167D01*
X026198Y016142D01*
X026248Y016142D01*
X026173Y016217D02*
X026223Y016268D01*
X026273Y016293D01*
X026076Y016293D02*
X026076Y016142D01*
X026026Y016142D02*
X026126Y016142D01*
X026026Y016242D02*
X026076Y016293D01*
X025979Y016268D02*
X025954Y016293D01*
X025904Y016293D01*
X025879Y016268D01*
X025879Y016167D01*
X025904Y016142D01*
X025954Y016142D01*
X025979Y016167D01*
X025954Y016890D02*
X025979Y016915D01*
X025954Y016890D02*
X025904Y016890D01*
X025879Y016915D01*
X025879Y017016D01*
X025904Y017041D01*
X025954Y017041D01*
X025979Y017016D01*
X026026Y017016D02*
X026051Y017041D01*
X026101Y017041D01*
X026126Y017016D01*
X026126Y016991D01*
X026026Y016890D01*
X026126Y016890D01*
X026173Y016915D02*
X026198Y016890D01*
X026248Y016890D01*
X026273Y016915D01*
X026273Y016940D01*
X026248Y016965D01*
X026223Y016965D01*
X026248Y016965D02*
X026273Y016991D01*
X026273Y017016D01*
X026248Y017041D01*
X026198Y017041D01*
X026173Y017016D01*
X026153Y017608D02*
X026153Y017633D01*
X026253Y017733D01*
X026253Y017759D01*
X026153Y017759D01*
X026105Y017733D02*
X026080Y017759D01*
X026030Y017759D01*
X026005Y017733D01*
X025958Y017733D02*
X025933Y017759D01*
X025883Y017759D01*
X025858Y017733D01*
X025858Y017633D01*
X025883Y017608D01*
X025933Y017608D01*
X025958Y017633D01*
X026005Y017608D02*
X026105Y017708D01*
X026105Y017733D01*
X026105Y017608D02*
X026005Y017608D01*
X026012Y014324D02*
X025987Y014299D01*
X026012Y014324D02*
X026062Y014324D01*
X026087Y014299D01*
X026087Y014274D01*
X025987Y014174D01*
X026087Y014174D01*
X026134Y014249D02*
X026234Y014249D01*
X026209Y014174D02*
X026209Y014324D01*
X026134Y014249D01*
X025939Y014299D02*
X025914Y014324D01*
X025864Y014324D01*
X025839Y014299D01*
X025839Y014199D01*
X025864Y014174D01*
X025914Y014174D01*
X025939Y014199D01*
X025914Y013497D02*
X025864Y013497D01*
X025839Y013472D01*
X025839Y013372D01*
X025864Y013347D01*
X025914Y013347D01*
X025939Y013372D01*
X025987Y013347D02*
X026087Y013447D01*
X026087Y013472D01*
X026062Y013497D01*
X026012Y013497D01*
X025987Y013472D01*
X025939Y013472D02*
X025914Y013497D01*
X025987Y013347D02*
X026087Y013347D01*
X026134Y013372D02*
X026134Y013397D01*
X026159Y013422D01*
X026209Y013422D01*
X026234Y013397D01*
X026234Y013372D01*
X026209Y013347D01*
X026159Y013347D01*
X026134Y013372D01*
X026159Y013422D02*
X026134Y013447D01*
X026134Y013472D01*
X026159Y013497D01*
X026209Y013497D01*
X026234Y013472D01*
X026234Y013447D01*
X026209Y013422D01*
X025741Y013121D02*
X025716Y013121D01*
X025616Y013221D01*
X025591Y013221D01*
X025591Y013121D01*
X025616Y013074D02*
X025666Y013074D01*
X025691Y013049D01*
X025691Y012974D01*
X025691Y013024D02*
X025741Y013074D01*
X025741Y012974D02*
X025591Y012974D01*
X025591Y013049D01*
X025616Y013074D01*
X024613Y013074D02*
X024613Y012974D01*
X024613Y012926D02*
X024563Y012876D01*
X024563Y012901D02*
X024563Y012826D01*
X024613Y012826D02*
X024463Y012826D01*
X024463Y012901D01*
X024488Y012926D01*
X024538Y012926D01*
X024563Y012901D01*
X024513Y012974D02*
X024463Y013024D01*
X024613Y013024D01*
X024588Y013121D02*
X024563Y013121D01*
X024538Y013146D01*
X024538Y013196D01*
X024563Y013221D01*
X024588Y013221D01*
X024613Y013196D01*
X024613Y013146D01*
X024588Y013121D01*
X024538Y013146D02*
X024513Y013121D01*
X024488Y013121D01*
X024463Y013146D01*
X024463Y013196D01*
X024488Y013221D01*
X024513Y013221D01*
X024538Y013196D01*
X023425Y012344D02*
X023400Y012369D01*
X023350Y012369D01*
X023325Y012344D01*
X023325Y012244D01*
X023425Y012344D01*
X023425Y012244D01*
X023400Y012219D01*
X023350Y012219D01*
X023325Y012244D01*
X023278Y012219D02*
X023178Y012219D01*
X023278Y012319D01*
X023278Y012344D01*
X023253Y012369D01*
X023203Y012369D01*
X023178Y012344D01*
X023130Y012344D02*
X023105Y012369D01*
X023055Y012369D01*
X023030Y012344D01*
X023030Y012244D01*
X023055Y012219D01*
X023105Y012219D01*
X023130Y012244D01*
X019560Y016624D02*
X019460Y016624D01*
X019412Y016624D02*
X019312Y016624D01*
X019412Y016724D01*
X019412Y016749D01*
X019387Y016774D01*
X019337Y016774D01*
X019312Y016749D01*
X019265Y016749D02*
X019240Y016774D01*
X019190Y016774D01*
X019165Y016749D01*
X019165Y016649D01*
X019190Y016624D01*
X019240Y016624D01*
X019265Y016649D01*
X019460Y016724D02*
X019510Y016774D01*
X019510Y016624D01*
X019516Y017284D02*
X019541Y017309D01*
X019541Y017334D01*
X019516Y017359D01*
X019441Y017359D01*
X019441Y017309D01*
X019466Y017284D01*
X019516Y017284D01*
X019441Y017359D02*
X019491Y017409D01*
X019541Y017434D01*
X019344Y017434D02*
X019344Y017284D01*
X019294Y017284D02*
X019394Y017284D01*
X019294Y017384D02*
X019344Y017434D01*
X019246Y017409D02*
X019221Y017434D01*
X019146Y017434D01*
X019146Y017284D01*
X019146Y017334D02*
X019221Y017334D01*
X019246Y017359D01*
X019246Y017409D01*
X019196Y017334D02*
X019246Y017284D01*
D12*
X021458Y015907D02*
X021458Y015238D01*
X021891Y015238D02*
X021891Y015907D01*
X021891Y013112D02*
X021891Y012443D01*
X021458Y012443D02*
X021458Y013112D01*
D13*
X021675Y012639D03*
X021675Y015435D03*
D14*
X020464Y015257D02*
X020464Y014233D01*
X020462Y014213D01*
X020458Y014193D01*
X020450Y014175D01*
X020440Y014158D01*
X020427Y014142D01*
X020411Y014129D01*
X020394Y014119D01*
X020376Y014111D01*
X020356Y014107D01*
X020336Y014105D01*
X019312Y014105D02*
X019292Y014107D01*
X019272Y014111D01*
X019254Y014119D01*
X019237Y014129D01*
X019221Y014142D01*
X019208Y014158D01*
X019198Y014175D01*
X019190Y014193D01*
X019186Y014213D01*
X019184Y014233D01*
X019184Y015257D01*
X019186Y015277D01*
X019190Y015297D01*
X019198Y015315D01*
X019208Y015332D01*
X019221Y015348D01*
X019237Y015361D01*
X019254Y015371D01*
X019272Y015379D01*
X019292Y015383D01*
X019312Y015385D01*
X020336Y015385D02*
X020356Y015383D01*
X020376Y015379D01*
X020394Y015371D01*
X020411Y015361D01*
X020427Y015348D01*
X020440Y015332D01*
X020450Y015315D01*
X020458Y015297D01*
X020462Y015277D01*
X020464Y015257D01*
X020401Y017907D02*
X019901Y017907D01*
X019651Y018157D01*
X019401Y017907D01*
X018901Y017907D01*
X018651Y018157D01*
X018401Y017907D01*
X017901Y017907D01*
X017651Y018157D01*
X017401Y017907D01*
X016901Y017907D01*
X016651Y018157D01*
X016401Y017907D01*
X015901Y017907D01*
X015651Y018157D01*
X015401Y017907D01*
X014901Y017907D01*
X014651Y018157D01*
X014651Y018657D01*
X014901Y018907D01*
X015401Y018907D01*
X015651Y018657D01*
X015901Y018907D01*
X016401Y018907D01*
X016651Y018657D01*
X016651Y018157D01*
X016651Y018657D02*
X016901Y018907D01*
X017401Y018907D01*
X017651Y018657D01*
X017901Y018907D01*
X018401Y018907D01*
X018651Y018657D01*
X018901Y018907D01*
X019401Y018907D01*
X019651Y018657D01*
X019651Y018157D01*
X019651Y018657D02*
X019901Y018907D01*
X020401Y018907D01*
X020651Y018657D01*
X020901Y018907D01*
X021401Y018907D01*
X021651Y018657D01*
X021901Y018907D01*
X022401Y018907D01*
X022651Y018657D01*
X022651Y018157D01*
X022401Y017907D01*
X021901Y017907D01*
X021651Y018157D01*
X021401Y017907D01*
X020901Y017907D01*
X020651Y018157D01*
X020401Y017907D01*
X020651Y018157D02*
X020651Y018657D01*
X021651Y018657D02*
X021651Y018157D01*
X022651Y018157D02*
X022901Y017907D01*
X023401Y017907D01*
X023651Y018157D01*
X023901Y017907D01*
X024401Y017907D01*
X024651Y018157D01*
X024901Y017907D01*
X025401Y017907D01*
X025651Y018157D01*
X025901Y017907D01*
X026401Y017907D01*
X026651Y018157D01*
X026651Y018657D01*
X026401Y018907D01*
X025901Y018907D01*
X025651Y018657D01*
X025651Y018157D01*
X025651Y018657D02*
X025401Y018907D01*
X024901Y018907D01*
X024651Y018657D01*
X024651Y018157D01*
X024651Y018657D02*
X024401Y018907D01*
X023901Y018907D01*
X023651Y018657D01*
X023651Y018157D01*
X023651Y018657D02*
X023401Y018907D01*
X022901Y018907D01*
X022651Y018657D01*
X024357Y019291D02*
X026157Y019291D01*
X026157Y022091D01*
X024357Y022091D01*
X024357Y019291D01*
X025057Y019441D02*
X025457Y019441D01*
X026007Y019991D02*
X026007Y020341D01*
X026007Y021041D02*
X026007Y021391D01*
X025457Y021941D02*
X025057Y021941D01*
X024507Y021391D02*
X024507Y021041D01*
X024507Y020341D02*
X024507Y019991D01*
X025785Y020090D02*
X025821Y020123D01*
X025854Y020159D01*
X025886Y020197D01*
X025915Y020236D01*
X025942Y020277D01*
X025966Y020320D01*
X025987Y020364D01*
X024729Y020090D02*
X024693Y020123D01*
X024660Y020159D01*
X024628Y020197D01*
X024599Y020236D01*
X024572Y020277D01*
X024548Y020320D01*
X024527Y020364D01*
X024744Y021091D02*
X024776Y021128D01*
X024811Y021164D01*
X024848Y021196D01*
X024887Y021225D01*
X024928Y021252D01*
X024972Y021275D01*
X025017Y021295D01*
X025063Y021311D01*
X025111Y021324D01*
X025159Y021334D01*
X025208Y021339D01*
X025257Y021341D01*
X025306Y021339D01*
X025355Y021334D01*
X025403Y021324D01*
X025451Y021311D01*
X025497Y021295D01*
X025542Y021275D01*
X025586Y021252D01*
X025627Y021225D01*
X025666Y021196D01*
X025703Y021164D01*
X025738Y021128D01*
X025770Y021091D01*
X024729Y021292D02*
X024693Y021259D01*
X024660Y021223D01*
X024628Y021185D01*
X024599Y021146D01*
X024572Y021105D01*
X024548Y021062D01*
X024527Y021018D01*
X025785Y021292D02*
X025821Y021259D01*
X025854Y021223D01*
X025886Y021185D01*
X025915Y021146D01*
X025942Y021105D01*
X025966Y021062D01*
X025987Y021018D01*
X025421Y021474D02*
X025367Y021483D01*
X025312Y021489D01*
X025257Y021491D01*
X025202Y021489D01*
X025147Y021483D01*
X025093Y021474D01*
X024744Y020291D02*
X024776Y020254D01*
X024811Y020218D01*
X024848Y020186D01*
X024887Y020157D01*
X024928Y020130D01*
X024972Y020107D01*
X025017Y020087D01*
X025063Y020071D01*
X025111Y020058D01*
X025159Y020048D01*
X025208Y020043D01*
X025257Y020041D01*
X025306Y020043D01*
X025355Y020048D01*
X025403Y020058D01*
X025451Y020071D01*
X025497Y020087D01*
X025542Y020107D01*
X025586Y020130D01*
X025627Y020157D01*
X025666Y020186D01*
X025703Y020218D01*
X025738Y020254D01*
X025770Y020291D01*
X025421Y019908D02*
X025367Y019899D01*
X025312Y019893D01*
X025257Y019891D01*
X025202Y019893D01*
X025147Y019899D01*
X025093Y019908D01*
X018651Y018657D02*
X018651Y018157D01*
X017651Y018157D02*
X017651Y018657D01*
X015651Y018657D02*
X015651Y018157D01*
X014554Y018097D02*
X014554Y018747D01*
X012154Y018747D01*
X012154Y011047D01*
X014554Y011047D01*
X014554Y012497D01*
X014554Y013097D02*
X014554Y013497D01*
X014554Y014097D02*
X014554Y014497D01*
X014554Y015097D02*
X014554Y016497D01*
X014554Y017097D02*
X014554Y017497D01*
X015760Y014317D02*
X015798Y014317D01*
X015760Y014317D02*
X015760Y013679D01*
X015798Y013679D01*
X016115Y013679D02*
X016152Y013679D01*
X016489Y013679D02*
X016526Y013679D01*
X016843Y013679D02*
X016880Y013679D01*
X016880Y014317D01*
X016843Y014317D01*
X016526Y014317D02*
X016115Y014317D01*
X015901Y011899D02*
X016401Y011899D01*
X016651Y011649D01*
X016651Y011149D01*
X016401Y010899D01*
X015901Y010899D01*
X015651Y011149D01*
X015401Y010899D01*
X014901Y010899D01*
X014651Y011149D01*
X014651Y011649D01*
X014901Y011899D01*
X015401Y011899D01*
X015651Y011649D01*
X015901Y011899D01*
X015651Y011649D02*
X015651Y011149D01*
X016651Y011149D02*
X016901Y010899D01*
X017401Y010899D01*
X017651Y011149D01*
X017901Y010899D01*
X018401Y010899D01*
X018651Y011149D01*
X018901Y010899D01*
X019401Y010899D01*
X019651Y011149D01*
X019651Y011649D01*
X019401Y011899D01*
X018901Y011899D01*
X018651Y011649D01*
X018651Y011149D01*
X018651Y011649D02*
X018401Y011899D01*
X017901Y011899D01*
X017651Y011649D01*
X017651Y011149D01*
X017651Y011649D02*
X017401Y011899D01*
X016901Y011899D01*
X016651Y011649D01*
X019651Y011649D02*
X019901Y011899D01*
X020401Y011899D01*
X020651Y011649D01*
X020901Y011899D01*
X021401Y011899D01*
X021651Y011649D01*
X021901Y011899D01*
X022401Y011899D01*
X022651Y011649D01*
X022651Y011149D01*
X022401Y010899D01*
X021901Y010899D01*
X021651Y011149D01*
X021401Y010899D01*
X020901Y010899D01*
X020651Y011149D01*
X020401Y010899D01*
X019901Y010899D01*
X019651Y011149D01*
X020651Y011149D02*
X020651Y011649D01*
X021651Y011649D02*
X021651Y011149D01*
X022651Y011149D02*
X022901Y010899D01*
X023401Y010899D01*
X023651Y011149D01*
X023901Y010899D01*
X024401Y010899D01*
X024651Y011149D01*
X024901Y010899D01*
X025401Y010899D01*
X025651Y011149D01*
X025901Y010899D01*
X026401Y010899D01*
X026651Y011149D01*
X026651Y011649D01*
X026401Y011899D01*
X025901Y011899D01*
X025651Y011649D01*
X025651Y011149D01*
X025651Y011649D02*
X025401Y011899D01*
X024901Y011899D01*
X024651Y011649D01*
X024651Y011149D01*
X024651Y011649D02*
X024401Y011899D01*
X023901Y011899D01*
X023651Y011649D01*
X023651Y011149D01*
X023651Y011649D02*
X023401Y011899D01*
X022901Y011899D01*
X022651Y011649D01*
D15*
X014186Y011614D02*
X014127Y011672D01*
X014011Y011672D01*
X013952Y011614D01*
X013952Y011380D01*
X014011Y011322D01*
X014127Y011322D01*
X014186Y011380D01*
X013817Y011380D02*
X013817Y011614D01*
X013759Y011672D01*
X013584Y011672D01*
X013584Y011322D01*
X013759Y011322D01*
X013817Y011380D01*
X013449Y011497D02*
X013216Y011497D01*
X013081Y011614D02*
X013022Y011672D01*
X012906Y011672D01*
X012847Y011614D01*
X012847Y011380D01*
X012906Y011322D01*
X013022Y011322D01*
X013081Y011380D01*
X012712Y011380D02*
X012712Y011614D01*
X012654Y011672D01*
X012479Y011672D01*
X012479Y011322D01*
X012654Y011322D01*
X012712Y011380D01*
X013187Y012572D02*
X013304Y012572D01*
X013362Y012630D01*
X013362Y012689D01*
X013304Y012747D01*
X013129Y012747D01*
X013129Y012630D01*
X013187Y012572D01*
X013129Y012747D02*
X013246Y012864D01*
X013362Y012922D01*
X013362Y017622D02*
X013129Y017622D01*
X013246Y017622D02*
X013246Y017972D01*
X013129Y017855D01*
D16*
X012768Y018867D02*
X012675Y018867D01*
X012768Y018961D01*
X012768Y018984D01*
X012745Y019008D01*
X012698Y019008D01*
X012675Y018984D01*
X012574Y019008D02*
X012574Y018867D01*
X012528Y018867D02*
X012621Y018867D01*
X012528Y018961D02*
X012574Y019008D01*
X012474Y018984D02*
X012450Y019008D01*
X012404Y019008D01*
X012380Y018984D01*
X012380Y018891D01*
X012404Y018867D01*
X012450Y018867D01*
X012474Y018891D01*
X012329Y018867D02*
X012282Y018867D01*
X012305Y018867D02*
X012305Y019008D01*
X012282Y019008D02*
X012329Y019008D01*
X014356Y018885D02*
X014379Y018861D01*
X014402Y018861D01*
X014426Y018885D01*
X014426Y019002D01*
X014449Y019002D02*
X014402Y019002D01*
X014503Y019002D02*
X014573Y019002D01*
X014596Y018978D01*
X014596Y018932D01*
X014573Y018908D01*
X014503Y018908D01*
X014503Y018861D02*
X014503Y019002D01*
X014650Y019002D02*
X014650Y018932D01*
X014697Y018955D01*
X014720Y018955D01*
X014744Y018932D01*
X014744Y018885D01*
X014720Y018861D01*
X014674Y018861D01*
X014650Y018885D01*
X014650Y019002D02*
X014744Y019002D01*
X019255Y014434D02*
X019257Y014461D01*
X019263Y014488D01*
X019272Y014514D01*
X019285Y014538D01*
X019301Y014561D01*
X019320Y014580D01*
X019342Y014597D01*
X019366Y014611D01*
X019391Y014621D01*
X019418Y014628D01*
X019445Y014631D01*
X019473Y014630D01*
X019500Y014625D01*
X019526Y014617D01*
X019550Y014605D01*
X019573Y014589D01*
X019594Y014571D01*
X019611Y014550D01*
X019626Y014526D01*
X019637Y014501D01*
X019645Y014475D01*
X019649Y014448D01*
X019649Y014420D01*
X019645Y014393D01*
X019637Y014367D01*
X019626Y014342D01*
X019611Y014318D01*
X019594Y014297D01*
X019573Y014279D01*
X019551Y014263D01*
X019526Y014251D01*
X019500Y014243D01*
X019473Y014238D01*
X019445Y014237D01*
X019418Y014240D01*
X019391Y014247D01*
X019366Y014257D01*
X019342Y014271D01*
X019320Y014288D01*
X019301Y014307D01*
X019285Y014330D01*
X019272Y014354D01*
X019263Y014380D01*
X019257Y014407D01*
X019255Y014434D01*
X019290Y014055D02*
X019290Y013962D01*
X019197Y014055D01*
X019173Y014055D01*
X019150Y014032D01*
X019150Y013985D01*
X019173Y013962D01*
X019173Y013908D02*
X019150Y013885D01*
X019150Y013838D01*
X019173Y013815D01*
X019267Y013815D01*
X019290Y013838D01*
X019290Y013885D01*
X019267Y013908D01*
X019290Y013763D02*
X019290Y013716D01*
X019290Y013740D02*
X019150Y013740D01*
X019150Y013763D02*
X019150Y013716D01*
X014744Y010970D02*
X014697Y010947D01*
X014650Y010900D01*
X014720Y010900D01*
X014744Y010877D01*
X014744Y010853D01*
X014720Y010830D01*
X014674Y010830D01*
X014650Y010853D01*
X014650Y010900D01*
X014596Y010900D02*
X014573Y010877D01*
X014503Y010877D01*
X014503Y010830D02*
X014503Y010970D01*
X014573Y010970D01*
X014596Y010947D01*
X014596Y010900D01*
X014449Y010970D02*
X014402Y010970D01*
X014426Y010970D02*
X014426Y010853D01*
X014402Y010830D01*
X014379Y010830D01*
X014356Y010853D01*
X026251Y019435D02*
X026275Y019411D01*
X026298Y019411D01*
X026322Y019435D01*
X026322Y019481D01*
X026345Y019505D01*
X026368Y019505D01*
X026392Y019481D01*
X026392Y019435D01*
X026368Y019411D01*
X026251Y019435D02*
X026251Y019481D01*
X026275Y019505D01*
X026275Y019559D02*
X026251Y019582D01*
X026251Y019629D01*
X026275Y019652D01*
X026298Y019652D01*
X026392Y019559D01*
X026392Y019652D01*
M02*
