G75*
%MOIN*%
%OFA0B0*%
%FSLAX24Y24*%
%IPPOS*%
%LPD*%
%AMOC8*
5,1,8,0,0,1.08239X$1,22.5*
%
%ADD10R,0.0394X0.0433*%
%ADD11R,0.0433X0.0394*%
%ADD12R,0.0866X0.0236*%
%ADD13R,0.0236X0.0315*%
%ADD14C,0.0520*%
%ADD15R,0.0217X0.0472*%
%ADD16C,0.0600*%
%ADD17R,0.0118X0.0472*%
%ADD18OC8,0.0520*%
%ADD19C,0.0100*%
%ADD20C,0.0396*%
%ADD21C,0.0400*%
D10*
X015139Y012757D03*
X015139Y013427D03*
X015139Y014214D03*
X015139Y014883D03*
X015848Y016537D03*
X015848Y017206D03*
X018289Y015868D03*
X018289Y015198D03*
X018191Y013958D03*
X018860Y013958D03*
X019529Y013250D03*
X020198Y013250D03*
X021675Y013742D03*
X021675Y014411D03*
X021675Y016537D03*
X021675Y017206D03*
X020041Y017029D03*
X019372Y017029D03*
D11*
X019372Y016399D03*
X020041Y016399D03*
X020651Y016143D03*
X020651Y015474D03*
X018289Y016576D03*
X018289Y017246D03*
X017029Y017206D03*
X017029Y016537D03*
X016694Y015887D03*
X017423Y015789D03*
X017423Y015120D03*
X016694Y015179D03*
X016025Y015179D03*
X016025Y015887D03*
X017383Y013269D03*
X017383Y012600D03*
X016616Y012777D03*
X015946Y012777D03*
X018643Y012994D03*
X018643Y012324D03*
X019529Y012580D03*
X020198Y012580D03*
X021006Y012443D03*
X021006Y013112D03*
X022561Y012620D03*
X023230Y012620D03*
X024194Y012403D03*
X024194Y013072D03*
X025297Y013072D03*
X025297Y012403D03*
X026065Y013131D03*
X026734Y013131D03*
X026734Y013919D03*
X026065Y013919D03*
X026065Y015139D03*
X026734Y015139D03*
X026734Y015887D03*
X026065Y015887D03*
X026065Y016635D03*
X026734Y016635D03*
X026734Y017344D03*
X026065Y017344D03*
D12*
X025021Y017346D03*
X025021Y016846D03*
X025021Y016346D03*
X025021Y015846D03*
X025021Y015102D03*
X025021Y014602D03*
X025021Y014102D03*
X025021Y013602D03*
X022974Y013602D03*
X022974Y014102D03*
X022974Y014602D03*
X022974Y015102D03*
X022974Y015846D03*
X022974Y016346D03*
X022974Y016846D03*
X022974Y017346D03*
D13*
X021675Y016065D03*
X021675Y015080D03*
X021675Y013269D03*
X021675Y012285D03*
D14*
X014364Y012797D02*
X013844Y012797D01*
X013844Y013797D02*
X014364Y013797D01*
X014364Y014797D02*
X013844Y014797D01*
X013844Y016797D02*
X014364Y016797D01*
X014364Y017797D02*
X013844Y017797D01*
D15*
X015946Y014509D03*
X016694Y014509D03*
X016694Y013486D03*
X016320Y013486D03*
X015946Y013486D03*
D16*
X016151Y011699D02*
X016151Y011099D01*
X015151Y011099D02*
X015151Y011699D01*
X017151Y011699D02*
X017151Y011099D01*
X018151Y011099D02*
X018151Y011699D01*
X019151Y011699D02*
X019151Y011099D01*
X020151Y011099D02*
X020151Y011699D01*
X021151Y011699D02*
X021151Y011099D01*
X022151Y011099D02*
X022151Y011699D01*
X023151Y011699D02*
X023151Y011099D01*
X024151Y011099D02*
X024151Y011699D01*
X025151Y011699D02*
X025151Y011099D01*
X026151Y011099D02*
X026151Y011699D01*
X026151Y018107D02*
X026151Y018707D01*
X025151Y018707D02*
X025151Y018107D01*
X024151Y018107D02*
X024151Y018707D01*
X023151Y018707D02*
X023151Y018107D01*
X022151Y018107D02*
X022151Y018707D01*
X021151Y018707D02*
X021151Y018107D01*
X020151Y018107D02*
X020151Y018707D01*
X019151Y018707D02*
X019151Y018107D01*
X018151Y018107D02*
X018151Y018707D01*
X017151Y018707D02*
X017151Y018107D01*
X016151Y018107D02*
X016151Y018707D01*
X015151Y018707D02*
X015151Y018107D01*
D17*
X019440Y015577D03*
X019696Y015577D03*
X019952Y015577D03*
X020208Y015577D03*
X020208Y013914D03*
X019952Y013914D03*
X019696Y013914D03*
X019440Y013914D03*
D18*
X024757Y019691D03*
X024757Y020691D03*
X024757Y021691D03*
X025757Y021691D03*
X025757Y020691D03*
X025757Y019691D03*
D19*
X012029Y019194D02*
X012029Y010691D01*
X014977Y010683D01*
X014915Y010714D01*
X014858Y010756D01*
X014808Y010806D01*
X014766Y010863D01*
X014734Y010926D01*
X014712Y010994D01*
X014701Y011064D01*
X014701Y011349D01*
X015101Y011349D01*
X015101Y011449D01*
X014701Y011449D01*
X014701Y011735D01*
X014712Y011805D01*
X014734Y011872D01*
X014766Y011935D01*
X014808Y011992D01*
X014858Y012042D01*
X014915Y012084D01*
X014978Y012116D01*
X015046Y012138D01*
X015084Y012144D01*
X015065Y012163D01*
X014959Y012269D01*
X014959Y012410D01*
X014888Y012410D01*
X014812Y012487D01*
X014812Y012577D01*
X014696Y012577D01*
X014695Y012576D01*
X014585Y012466D01*
X014442Y012406D01*
X013766Y012406D01*
X013623Y012466D01*
X013513Y012576D01*
X013453Y012719D01*
X013453Y012875D01*
X013513Y013018D01*
X013623Y013128D01*
X013766Y013188D01*
X014442Y013188D01*
X014585Y013128D01*
X014695Y013018D01*
X014728Y012938D01*
X014812Y012938D01*
X014812Y013028D01*
X014865Y013082D01*
X014850Y013090D01*
X014822Y013118D01*
X014803Y013152D01*
X014793Y013190D01*
X014793Y013378D01*
X015091Y013378D01*
X015091Y013475D01*
X014793Y013475D01*
X014793Y013663D01*
X014803Y013701D01*
X014822Y013735D01*
X014850Y013763D01*
X014885Y013783D01*
X014923Y013793D01*
X015091Y013793D01*
X015091Y013475D01*
X015188Y013475D01*
X015486Y013475D01*
X015486Y013663D01*
X015476Y013701D01*
X015456Y013735D01*
X015428Y013763D01*
X015394Y013783D01*
X015356Y013793D01*
X015188Y013793D01*
X015188Y013475D01*
X015188Y013378D01*
X015486Y013378D01*
X015486Y013190D01*
X015476Y013152D01*
X015456Y013118D01*
X015428Y013090D01*
X015413Y013082D01*
X015467Y013028D01*
X015467Y012487D01*
X015390Y012410D01*
X015329Y012410D01*
X015372Y012367D01*
X017021Y012367D01*
X017017Y012383D01*
X017017Y012552D01*
X017335Y012552D01*
X017335Y012648D01*
X017017Y012648D01*
X017017Y012817D01*
X017027Y012855D01*
X017047Y012889D01*
X017075Y012917D01*
X017109Y012937D01*
X017128Y012942D01*
X017113Y012942D01*
X017036Y013018D01*
X017036Y013520D01*
X017113Y013597D01*
X017119Y013597D01*
X017094Y013657D01*
X017094Y013787D01*
X017144Y013908D01*
X017171Y013935D01*
X017129Y013935D01*
X016933Y013622D01*
X016933Y013195D01*
X016875Y013137D01*
X016875Y013105D01*
X016886Y013105D01*
X016963Y013028D01*
X016963Y012526D01*
X016886Y012450D01*
X016345Y012450D01*
X016292Y012503D01*
X016283Y012488D01*
X016255Y012460D01*
X016221Y012441D01*
X016183Y012430D01*
X015995Y012430D01*
X015995Y012729D01*
X015898Y012729D01*
X015580Y012729D01*
X015580Y012561D01*
X015590Y012522D01*
X015610Y012488D01*
X015638Y012460D01*
X015672Y012441D01*
X015710Y012430D01*
X015898Y012430D01*
X015898Y012729D01*
X015898Y012826D01*
X015898Y013119D01*
X015995Y013119D01*
X015995Y012826D01*
X015898Y012826D01*
X015580Y012826D01*
X015580Y012994D01*
X015590Y013032D01*
X015610Y013066D01*
X015638Y013094D01*
X015672Y013114D01*
X015710Y013124D01*
X015779Y013124D01*
X015707Y013195D01*
X015707Y013776D01*
X015766Y013834D01*
X015766Y013895D01*
X015943Y014072D01*
X016013Y014143D01*
X015784Y014143D01*
X015707Y014219D01*
X015707Y014800D01*
X015759Y014851D01*
X015755Y014851D01*
X015678Y014928D01*
X015678Y015196D01*
X015224Y015504D01*
X015209Y015504D01*
X015164Y015545D01*
X015114Y015580D01*
X015111Y015595D01*
X015099Y015606D01*
X015098Y015645D01*
X015081Y015651D01*
X014988Y015744D01*
X014938Y015866D01*
X014938Y015997D01*
X014988Y016119D01*
X015081Y016212D01*
X015203Y016262D01*
X015334Y016262D01*
X015456Y016212D01*
X015549Y016119D01*
X015599Y015997D01*
X015599Y015866D01*
X015549Y015744D01*
X015535Y015730D01*
X015667Y015641D01*
X015659Y015671D01*
X015659Y015839D01*
X015977Y015839D01*
X016074Y015839D01*
X016074Y015541D01*
X016261Y015541D01*
X016300Y015551D01*
X016334Y015571D01*
X016362Y015598D01*
X016370Y015613D01*
X016424Y015560D01*
X016965Y015560D01*
X017042Y015636D01*
X017042Y015785D01*
X017076Y015785D01*
X017076Y015538D01*
X017152Y015461D01*
X017694Y015461D01*
X017770Y015538D01*
X017770Y016040D01*
X017694Y016117D01*
X017331Y016117D01*
X017301Y016147D01*
X017295Y016147D01*
X017291Y016151D01*
X017221Y016147D01*
X017210Y016147D01*
X017210Y016209D01*
X017300Y016209D01*
X017376Y016286D01*
X017376Y016788D01*
X017300Y016865D01*
X016758Y016865D01*
X016751Y016857D01*
X016751Y016886D01*
X016758Y016879D01*
X017300Y016879D01*
X017376Y016955D01*
X017376Y017180D01*
X017379Y017182D01*
X017379Y017212D01*
X017393Y017238D01*
X017379Y017284D01*
X017379Y017332D01*
X017376Y017335D01*
X017376Y017457D01*
X017300Y017534D01*
X016758Y017534D01*
X016682Y017457D01*
X016682Y017438D01*
X016265Y017438D01*
X016253Y017447D01*
X016192Y017438D01*
X016176Y017438D01*
X016176Y017477D01*
X016099Y017554D01*
X015597Y017554D01*
X015520Y017477D01*
X015520Y016936D01*
X015574Y016882D01*
X015559Y016874D01*
X015531Y016846D01*
X015511Y016811D01*
X015501Y016773D01*
X015501Y016585D01*
X015800Y016585D01*
X015800Y016489D01*
X015501Y016489D01*
X015501Y016301D01*
X015511Y016263D01*
X015531Y016228D01*
X015559Y016200D01*
X015593Y016181D01*
X015631Y016170D01*
X015685Y016170D01*
X015669Y016142D01*
X015659Y016104D01*
X015659Y015936D01*
X015977Y015936D01*
X015977Y015839D01*
X015977Y015541D01*
X015814Y015541D01*
X015865Y015506D01*
X016296Y015506D01*
X016360Y015442D01*
X016424Y015506D01*
X016965Y015506D01*
X017042Y015430D01*
X017042Y014928D01*
X016965Y014851D01*
X016882Y014851D01*
X016933Y014800D01*
X016933Y014279D01*
X016938Y014280D01*
X016954Y014296D01*
X017009Y014296D01*
X017061Y014309D01*
X017081Y014296D01*
X017171Y014296D01*
X017144Y014323D01*
X017094Y014444D01*
X017094Y014575D01*
X017144Y014696D01*
X017237Y014788D01*
X017242Y014791D01*
X017242Y014792D01*
X017152Y014792D01*
X017076Y014869D01*
X017076Y015371D01*
X017152Y015447D01*
X017694Y015447D01*
X017770Y015371D01*
X017770Y015214D01*
X017961Y015206D01*
X017961Y015469D01*
X018015Y015523D01*
X018000Y015531D01*
X017972Y015559D01*
X017952Y015593D01*
X017942Y015631D01*
X017942Y015819D01*
X018241Y015819D01*
X018241Y015916D01*
X018241Y016234D01*
X018072Y016234D01*
X018034Y016224D01*
X018000Y016204D01*
X017972Y016176D01*
X017952Y016142D01*
X017942Y016104D01*
X017942Y015916D01*
X018241Y015916D01*
X018337Y015916D01*
X018337Y016234D01*
X018501Y016234D01*
X018501Y016249D01*
X018018Y016249D01*
X017942Y016325D01*
X017942Y016520D01*
X017841Y016563D01*
X017827Y016560D01*
X017790Y016582D01*
X017751Y016582D01*
X017630Y016632D01*
X017538Y016725D01*
X017488Y016846D01*
X017488Y016976D01*
X017538Y017097D01*
X017630Y017190D01*
X017751Y017240D01*
X017882Y017240D01*
X017942Y017215D01*
X017942Y017497D01*
X018018Y017573D01*
X018560Y017573D01*
X018636Y017497D01*
X018636Y017438D01*
X018691Y017468D01*
X018692Y017472D01*
X018756Y017504D01*
X018818Y017538D01*
X018818Y017538D01*
X018883Y017604D01*
X020096Y017604D01*
X020202Y017498D01*
X020202Y017376D01*
X020292Y017376D01*
X020369Y017300D01*
X020369Y017137D01*
X020440Y017209D01*
X020562Y017259D01*
X020693Y017259D01*
X020815Y017209D01*
X020908Y017115D01*
X020958Y016994D01*
X020958Y016862D01*
X020908Y016741D01*
X020815Y016648D01*
X021328Y016648D01*
X021328Y016585D02*
X021626Y016585D01*
X021626Y016489D01*
X021328Y016489D01*
X021328Y016301D01*
X021338Y016263D01*
X021358Y016228D01*
X021386Y016200D01*
X021407Y016188D01*
X021407Y016074D01*
X021666Y016074D01*
X021666Y016372D01*
X021626Y016372D01*
X021626Y016489D01*
X021723Y016489D01*
X021723Y016585D01*
X022022Y016585D01*
X022022Y016773D01*
X022011Y016811D01*
X021992Y016846D01*
X021964Y016874D01*
X021949Y016882D01*
X022002Y016936D01*
X022002Y017028D01*
X022458Y017126D01*
X022487Y017097D01*
X023461Y017097D01*
X023496Y017132D01*
X023564Y017132D01*
X023656Y016968D01*
X023646Y016968D01*
X023538Y016994D01*
X023538Y017018D01*
X023461Y017095D01*
X022487Y017095D01*
X022410Y017018D01*
X022410Y016674D01*
X022481Y016603D01*
X022449Y016584D01*
X022421Y016556D01*
X022401Y016522D01*
X022391Y016484D01*
X022391Y016355D01*
X022965Y016355D01*
X022965Y016337D01*
X022391Y016337D01*
X022391Y016208D01*
X022401Y016170D01*
X022421Y016136D01*
X022449Y016108D01*
X022481Y016089D01*
X022446Y016054D01*
X022373Y016127D01*
X022252Y016177D01*
X022121Y016177D01*
X022000Y016127D01*
X021929Y016056D01*
X021684Y016056D01*
X021684Y016074D01*
X021666Y016074D01*
X021666Y016056D01*
X021407Y016056D01*
X021407Y015887D01*
X021417Y015849D01*
X021437Y015815D01*
X021465Y015787D01*
X021499Y015767D01*
X021537Y015757D01*
X021666Y015757D01*
X021666Y016056D01*
X021684Y016056D01*
X021684Y015757D01*
X021813Y015757D01*
X021851Y015767D01*
X021862Y015774D01*
X021908Y015662D01*
X022000Y015569D01*
X022121Y015519D01*
X022143Y015519D01*
X022141Y015516D01*
X021991Y015341D01*
X021897Y015319D01*
X021847Y015369D01*
X021673Y015369D01*
X021663Y015374D01*
X021646Y015369D01*
X021637Y015369D01*
X021450Y015419D01*
X021433Y015437D01*
X021380Y015438D01*
X021330Y015452D01*
X021308Y015439D01*
X020998Y015445D01*
X020998Y015725D01*
X020922Y015802D01*
X020398Y015802D01*
X020398Y015816D01*
X020922Y015816D01*
X020998Y015892D01*
X020998Y016394D01*
X020922Y016471D01*
X020805Y016471D01*
X020806Y016644D01*
X020815Y016648D01*
X020805Y016550D02*
X021626Y016550D01*
X021675Y016537D02*
X021831Y016381D01*
X022584Y016381D01*
X022953Y016409D01*
X022974Y016346D01*
X023106Y016385D01*
X023131Y016360D01*
X022965Y016353D02*
X022022Y016353D01*
X022022Y016301D02*
X022022Y016489D01*
X021723Y016489D01*
X021723Y016372D01*
X021684Y016372D01*
X021684Y016074D01*
X021943Y016074D01*
X021943Y016188D01*
X021964Y016200D01*
X021992Y016228D01*
X022011Y016263D01*
X022022Y016301D01*
X022007Y016254D02*
X022391Y016254D01*
X022410Y016156D02*
X022303Y016156D01*
X022443Y016057D02*
X022449Y016057D01*
X022187Y015848D02*
X022777Y015848D01*
X022740Y015887D01*
X022974Y015846D01*
X022976Y015885D01*
X023495Y015517D02*
X023625Y015608D01*
X023625Y016787D01*
X023315Y016861D01*
X023044Y016861D01*
X022974Y016846D01*
X023044Y017313D02*
X022974Y017346D01*
X022953Y017403D01*
X022942Y017415D01*
X021841Y017179D01*
X021675Y017206D01*
X021347Y017239D02*
X020741Y017239D01*
X020883Y017141D02*
X021347Y017141D01*
X021347Y017042D02*
X020938Y017042D01*
X020958Y016944D02*
X021347Y016944D01*
X021347Y016936D02*
X021401Y016882D01*
X021386Y016874D01*
X021358Y016846D01*
X021338Y016811D01*
X021328Y016773D01*
X021328Y016585D01*
X021328Y016451D02*
X020942Y016451D01*
X020998Y016353D02*
X021328Y016353D01*
X021343Y016254D02*
X020998Y016254D01*
X020998Y016156D02*
X021407Y016156D01*
X021301Y016065D02*
X021675Y016065D01*
X021735Y016134D01*
X021684Y016156D02*
X021666Y016156D01*
X021675Y016065D02*
X021684Y016409D01*
X021684Y016467D01*
X021675Y016537D01*
X021723Y016550D02*
X022417Y016550D01*
X022436Y016648D02*
X022022Y016648D01*
X022022Y016747D02*
X022410Y016747D01*
X022410Y016845D02*
X021992Y016845D01*
X022002Y016944D02*
X022410Y016944D01*
X022434Y017042D02*
X022066Y017042D01*
X022002Y017398D02*
X022002Y017477D01*
X021926Y017554D01*
X021424Y017554D01*
X021347Y017477D01*
X021347Y016936D01*
X021358Y016845D02*
X020951Y016845D01*
X020910Y016747D02*
X021328Y016747D01*
X021626Y016451D02*
X021723Y016451D01*
X021684Y016353D02*
X021666Y016353D01*
X021666Y016254D02*
X021684Y016254D01*
X021684Y016057D02*
X021931Y016057D01*
X021943Y016156D02*
X022070Y016156D01*
X022022Y016451D02*
X022391Y016451D01*
X021666Y016057D02*
X020998Y016057D01*
X020998Y015959D02*
X021407Y015959D01*
X021414Y015860D02*
X020966Y015860D01*
X020962Y015762D02*
X021520Y015762D01*
X021666Y015762D02*
X021684Y015762D01*
X021684Y015860D02*
X021666Y015860D01*
X021666Y015959D02*
X021684Y015959D01*
X021829Y015762D02*
X021867Y015762D01*
X021907Y015663D02*
X020998Y015663D01*
X020998Y015565D02*
X022012Y015565D01*
X022098Y015466D02*
X020998Y015466D01*
X020651Y015474D02*
X020674Y015269D01*
X021355Y015258D01*
X021644Y015179D01*
X021675Y015080D01*
X022089Y015179D01*
X022293Y015415D01*
X022592Y015517D01*
X023495Y015517D01*
X022974Y015102D02*
X024382Y015105D01*
X024417Y014436D01*
X024455Y014162D01*
X024981Y014123D01*
X025021Y014102D01*
X024611Y014351D02*
X024611Y014353D01*
X025508Y014353D01*
X025563Y014407D01*
X025726Y014407D01*
X025832Y014513D01*
X025832Y014793D01*
X026016Y014793D01*
X026016Y015091D01*
X026113Y015091D01*
X026113Y014851D01*
X026055Y014828D01*
X025963Y014735D01*
X025913Y014614D01*
X025913Y014483D01*
X025963Y014363D01*
X026055Y014270D01*
X026113Y014246D01*
X026113Y013967D01*
X026016Y013967D01*
X026016Y013870D01*
X026113Y013870D01*
X026113Y013572D01*
X026301Y013572D01*
X026339Y013582D01*
X026373Y013602D01*
X026401Y013630D01*
X026410Y013645D01*
X026463Y013591D01*
X026553Y013591D01*
X026553Y013459D01*
X026463Y013459D01*
X026399Y013395D01*
X026335Y013459D01*
X025794Y013459D01*
X025717Y013382D01*
X025717Y012881D01*
X025728Y012870D01*
X025701Y012859D01*
X025609Y012767D01*
X025586Y012712D01*
X025568Y012731D01*
X025074Y012731D01*
X025074Y012745D01*
X025568Y012745D01*
X025644Y012821D01*
X025644Y013323D01*
X025568Y013400D01*
X025555Y013400D01*
X025585Y013430D01*
X025585Y013774D01*
X025508Y013851D01*
X024534Y013851D01*
X024457Y013774D01*
X024457Y013430D01*
X024534Y013353D01*
X024864Y013353D01*
X024876Y013225D01*
X024866Y013204D01*
X024883Y013153D01*
X024888Y013099D01*
X024906Y013084D01*
X024913Y013062D01*
X024950Y013044D01*
X024950Y012960D01*
X024932Y012977D01*
X024811Y013027D01*
X024680Y013027D01*
X024559Y012977D01*
X024542Y012960D01*
X024542Y013323D01*
X024465Y013400D01*
X024376Y013400D01*
X024225Y014338D01*
X024240Y014353D01*
X024241Y014351D01*
X024247Y014346D01*
X024273Y014156D01*
X024269Y014101D01*
X024283Y014085D01*
X024286Y014063D01*
X024330Y014030D01*
X024366Y013987D01*
X024388Y013986D01*
X024405Y013973D01*
X024457Y013980D01*
X024457Y013930D01*
X024534Y013853D01*
X025508Y013853D01*
X025585Y013930D01*
X025585Y014274D01*
X025508Y014351D01*
X024611Y014351D01*
X024255Y014284D02*
X024234Y014284D01*
X024250Y014186D02*
X024269Y014186D01*
X024266Y014087D02*
X024281Y014087D01*
X024282Y013989D02*
X024365Y013989D01*
X024297Y013890D02*
X024497Y013890D01*
X024475Y013792D02*
X024313Y013792D01*
X024329Y013693D02*
X024457Y013693D01*
X024457Y013595D02*
X024345Y013595D01*
X024361Y013496D02*
X024457Y013496D01*
X024468Y013398D02*
X024490Y013398D01*
X024542Y013299D02*
X024869Y013299D01*
X024867Y013201D02*
X024542Y013201D01*
X024542Y013102D02*
X024888Y013102D01*
X024868Y013004D02*
X024950Y013004D01*
X025061Y013191D02*
X025021Y013602D01*
X025061Y013191D02*
X025297Y013072D01*
X025644Y013102D02*
X025717Y013102D01*
X025717Y013004D02*
X025644Y013004D01*
X025644Y012905D02*
X025717Y012905D01*
X025649Y012807D02*
X025629Y012807D01*
X025887Y012580D02*
X026045Y012876D01*
X026065Y013131D01*
X025717Y013201D02*
X025644Y013201D01*
X025644Y013299D02*
X025717Y013299D01*
X025732Y013398D02*
X025570Y013398D01*
X025585Y013496D02*
X026553Y013496D01*
X026460Y013595D02*
X026360Y013595D01*
X026397Y013398D02*
X026402Y013398D01*
X026113Y013595D02*
X026016Y013595D01*
X026016Y013572D02*
X026016Y013870D01*
X025698Y013870D01*
X025698Y013702D01*
X025708Y013664D01*
X025728Y013630D01*
X025756Y013602D01*
X025790Y013582D01*
X025828Y013572D01*
X026016Y013572D01*
X026016Y013693D02*
X026113Y013693D01*
X026113Y013792D02*
X026016Y013792D01*
X025966Y013801D02*
X026006Y013939D01*
X026065Y013919D01*
X026065Y013899D01*
X025966Y013801D01*
X026016Y013890D02*
X025545Y013890D01*
X025568Y013792D02*
X025698Y013792D01*
X025701Y013693D02*
X025585Y013693D01*
X025585Y013595D02*
X025769Y013595D01*
X025887Y013919D02*
X026065Y013919D01*
X026016Y013967D02*
X025698Y013967D01*
X025698Y014135D01*
X025708Y014174D01*
X025728Y014208D01*
X025756Y014236D01*
X025790Y014256D01*
X025828Y014266D01*
X026016Y014266D01*
X026016Y013967D01*
X026016Y013989D02*
X026113Y013989D01*
X026113Y014087D02*
X026016Y014087D01*
X026016Y014186D02*
X026113Y014186D01*
X026041Y014284D02*
X025575Y014284D01*
X025585Y014186D02*
X025715Y014186D01*
X025698Y014087D02*
X025585Y014087D01*
X025585Y013989D02*
X025698Y013989D01*
X025887Y013919D02*
X025887Y014982D01*
X026065Y015139D01*
X026065Y015887D01*
X026053Y015793D01*
X026053Y016155D01*
X026045Y016242D01*
X027147Y016242D01*
X027147Y017698D01*
X026911Y017974D01*
X027005Y017672D02*
X026696Y017672D01*
X026672Y017726D01*
X026673Y017758D01*
X026643Y017792D01*
X026624Y017834D01*
X026595Y017846D01*
X026574Y017869D01*
X026528Y017872D01*
X026521Y017874D01*
X026582Y018021D01*
X026582Y018793D01*
X026516Y018951D01*
X026395Y019072D01*
X026237Y019138D01*
X026066Y019138D01*
X025907Y019072D01*
X025786Y018951D01*
X025720Y018793D01*
X025720Y018021D01*
X025786Y017863D01*
X025907Y017742D01*
X025974Y017714D01*
X025972Y017672D01*
X025794Y017672D01*
X025717Y017595D01*
X025717Y017546D01*
X025670Y017545D01*
X025610Y017552D01*
X025597Y017543D01*
X025562Y017542D01*
X025508Y017595D01*
X024534Y017595D01*
X024457Y017518D01*
X024457Y017349D01*
X024420Y017387D01*
X024299Y017437D01*
X024168Y017437D01*
X024048Y017387D01*
X023955Y017294D01*
X023926Y017225D01*
X023850Y017360D01*
X023850Y017388D01*
X023814Y017423D01*
X023790Y017467D01*
X023763Y017474D01*
X023744Y017494D01*
X023694Y017494D01*
X023645Y017507D01*
X023622Y017494D01*
X023538Y017494D01*
X023538Y017518D01*
X023461Y017595D01*
X023017Y017595D01*
X023017Y017595D01*
X022995Y017595D01*
X022977Y017607D01*
X022923Y017595D01*
X022867Y017595D01*
X022866Y017595D01*
X022487Y017595D01*
X022410Y017518D01*
X022410Y017485D01*
X022002Y017398D01*
X022002Y017436D02*
X022180Y017436D01*
X022237Y017676D02*
X022066Y017676D01*
X021907Y017742D01*
X021786Y017863D01*
X021720Y018021D01*
X021720Y018793D01*
X021786Y018951D01*
X021907Y019072D01*
X022066Y019138D01*
X022237Y019138D01*
X022395Y019072D01*
X022516Y018951D01*
X022582Y018793D01*
X022582Y018021D01*
X022516Y017863D01*
X022395Y017742D01*
X022237Y017676D01*
X022370Y017732D02*
X022932Y017732D01*
X022907Y017742D02*
X023066Y017676D01*
X023237Y017676D01*
X023395Y017742D01*
X023516Y017863D01*
X023582Y018021D01*
X023582Y018793D01*
X023516Y018951D01*
X023395Y019072D01*
X023237Y019138D01*
X023066Y019138D01*
X022907Y019072D01*
X022786Y018951D01*
X022720Y018793D01*
X022720Y018021D01*
X022786Y017863D01*
X022907Y017742D01*
X022819Y017830D02*
X022483Y017830D01*
X022543Y017929D02*
X022759Y017929D01*
X022720Y018027D02*
X022582Y018027D01*
X022582Y018126D02*
X022720Y018126D01*
X022720Y018224D02*
X022582Y018224D01*
X022582Y018323D02*
X022720Y018323D01*
X022720Y018421D02*
X022582Y018421D01*
X022582Y018520D02*
X022720Y018520D01*
X022720Y018618D02*
X022582Y018618D01*
X022582Y018717D02*
X022720Y018717D01*
X022730Y018815D02*
X022573Y018815D01*
X022532Y018914D02*
X022771Y018914D01*
X022847Y019012D02*
X022455Y019012D01*
X022303Y019111D02*
X023000Y019111D01*
X023303Y019111D02*
X024000Y019111D01*
X024066Y019138D02*
X023907Y019072D01*
X023786Y018951D01*
X023720Y018793D01*
X023720Y018021D01*
X023786Y017863D01*
X023907Y017742D01*
X024066Y017676D01*
X024237Y017676D01*
X024395Y017742D01*
X024516Y017863D01*
X024582Y018021D01*
X024582Y018793D01*
X024516Y018951D01*
X024395Y019072D01*
X024237Y019138D01*
X024066Y019138D01*
X024303Y019111D02*
X024952Y019111D01*
X024978Y019124D02*
X024915Y019092D01*
X024858Y019050D01*
X024808Y019000D01*
X024766Y018943D01*
X024734Y018880D01*
X024712Y018812D01*
X024701Y018743D01*
X024701Y018457D01*
X025101Y018457D01*
X025101Y018357D01*
X024701Y018357D01*
X024701Y018072D01*
X024712Y018002D01*
X024734Y017934D01*
X024766Y017871D01*
X024808Y017814D01*
X024858Y017764D01*
X024915Y017722D01*
X024978Y017690D01*
X025046Y017668D01*
X025101Y017659D01*
X025101Y018357D01*
X025201Y018357D01*
X025201Y017659D01*
X025257Y017668D01*
X025324Y017690D01*
X025387Y017722D01*
X025444Y017764D01*
X025494Y017814D01*
X025536Y017871D01*
X025568Y017934D01*
X025590Y018002D01*
X025601Y018072D01*
X025601Y018357D01*
X025201Y018357D01*
X025201Y018457D01*
X025101Y018457D01*
X025101Y019155D01*
X025046Y019146D01*
X024978Y019124D01*
X025101Y019111D02*
X025201Y019111D01*
X025201Y019155D02*
X025201Y018457D01*
X025601Y018457D01*
X025601Y018743D01*
X025590Y018812D01*
X025568Y018880D01*
X025536Y018943D01*
X025494Y019000D01*
X025444Y019050D01*
X025387Y019092D01*
X025324Y019124D01*
X025257Y019146D01*
X025201Y019155D01*
X025201Y019012D02*
X025101Y019012D01*
X025101Y018914D02*
X025201Y018914D01*
X025201Y018815D02*
X025101Y018815D01*
X025101Y018717D02*
X025201Y018717D01*
X025201Y018618D02*
X025101Y018618D01*
X025101Y018520D02*
X025201Y018520D01*
X025257Y018513D02*
X025151Y018407D01*
X025139Y017726D01*
X024982Y017659D01*
X024352Y017620D01*
X021163Y017620D01*
X021163Y016202D01*
X021202Y016163D01*
X021301Y016065D01*
X020702Y016161D02*
X020623Y016263D01*
X020627Y016928D01*
X020514Y017239D02*
X020369Y017239D01*
X020369Y017141D02*
X020372Y017141D01*
X020331Y017338D02*
X021347Y017338D01*
X021347Y017436D02*
X020202Y017436D01*
X020165Y017535D02*
X021405Y017535D01*
X021370Y017732D02*
X021932Y017732D01*
X021819Y017830D02*
X021483Y017830D01*
X021516Y017863D02*
X021582Y018021D01*
X021582Y018793D01*
X021516Y018951D01*
X021395Y019072D01*
X021237Y019138D01*
X021066Y019138D01*
X020907Y019072D01*
X020786Y018951D01*
X020720Y018793D01*
X020720Y018021D01*
X020786Y017863D01*
X020907Y017742D01*
X021066Y017676D01*
X021237Y017676D01*
X021395Y017742D01*
X021516Y017863D01*
X021543Y017929D02*
X021759Y017929D01*
X021720Y018027D02*
X021582Y018027D01*
X021582Y018126D02*
X021720Y018126D01*
X021720Y018224D02*
X021582Y018224D01*
X021582Y018323D02*
X021720Y018323D01*
X021720Y018421D02*
X021582Y018421D01*
X021582Y018520D02*
X021720Y018520D01*
X021720Y018618D02*
X021582Y018618D01*
X021582Y018717D02*
X021720Y018717D01*
X021730Y018815D02*
X021573Y018815D01*
X021532Y018914D02*
X021771Y018914D01*
X021847Y019012D02*
X021455Y019012D01*
X021303Y019111D02*
X022000Y019111D01*
X021000Y019111D02*
X020303Y019111D01*
X020237Y019138D02*
X020066Y019138D01*
X019907Y019072D01*
X019786Y018951D01*
X019720Y018793D01*
X019720Y018021D01*
X019786Y017863D01*
X019907Y017742D01*
X020066Y017676D01*
X020237Y017676D01*
X020395Y017742D01*
X020516Y017863D01*
X020582Y018021D01*
X020582Y018793D01*
X020516Y018951D01*
X020395Y019072D01*
X020237Y019138D01*
X020000Y019111D02*
X019303Y019111D01*
X019237Y019138D02*
X019066Y019138D01*
X018907Y019072D01*
X018786Y018951D01*
X018720Y018793D01*
X018720Y018021D01*
X018786Y017863D01*
X018907Y017742D01*
X019066Y017676D01*
X019237Y017676D01*
X019395Y017742D01*
X019516Y017863D01*
X019582Y018021D01*
X019582Y018793D01*
X019516Y018951D01*
X019395Y019072D01*
X019237Y019138D01*
X019000Y019111D02*
X018303Y019111D01*
X018237Y019138D02*
X018066Y019138D01*
X017907Y019072D01*
X017786Y018951D01*
X017720Y018793D01*
X017720Y018021D01*
X017786Y017863D01*
X017907Y017742D01*
X018066Y017676D01*
X018237Y017676D01*
X018395Y017742D01*
X018516Y017863D01*
X018582Y018021D01*
X018582Y018793D01*
X018516Y018951D01*
X018395Y019072D01*
X018237Y019138D01*
X018000Y019111D02*
X017351Y019111D01*
X017324Y019124D02*
X017257Y019146D01*
X017201Y019155D01*
X017201Y018457D01*
X017101Y018457D01*
X017101Y018357D01*
X016701Y018357D01*
X016701Y018072D01*
X016712Y018002D01*
X016734Y017934D01*
X016766Y017871D01*
X016808Y017814D01*
X016858Y017764D01*
X016915Y017722D01*
X016978Y017690D01*
X017046Y017668D01*
X017101Y017659D01*
X017101Y018357D01*
X017201Y018357D01*
X017201Y017659D01*
X017257Y017668D01*
X017324Y017690D01*
X017387Y017722D01*
X017444Y017764D01*
X017494Y017814D01*
X017536Y017871D01*
X017568Y017934D01*
X017590Y018002D01*
X017601Y018072D01*
X017601Y018357D01*
X017201Y018357D01*
X017201Y018457D01*
X017601Y018457D01*
X017601Y018743D01*
X017590Y018812D01*
X017568Y018880D01*
X017536Y018943D01*
X017494Y019000D01*
X017444Y019050D01*
X017387Y019092D01*
X017324Y019124D01*
X017201Y019111D02*
X017101Y019111D01*
X017101Y019155D02*
X017046Y019146D01*
X016978Y019124D01*
X016915Y019092D01*
X016858Y019050D01*
X016808Y019000D01*
X016766Y018943D01*
X016734Y018880D01*
X016712Y018812D01*
X016701Y018743D01*
X016701Y018457D01*
X017101Y018457D01*
X017101Y019155D01*
X017101Y019012D02*
X017201Y019012D01*
X017201Y018914D02*
X017101Y018914D01*
X017101Y018815D02*
X017201Y018815D01*
X017201Y018717D02*
X017101Y018717D01*
X017101Y018618D02*
X017201Y018618D01*
X017201Y018520D02*
X017101Y018520D01*
X017101Y018421D02*
X016201Y018421D01*
X016201Y018457D02*
X016601Y018457D01*
X016601Y018743D01*
X016590Y018812D01*
X016568Y018880D01*
X016536Y018943D01*
X016494Y019000D01*
X016444Y019050D01*
X016387Y019092D01*
X016324Y019124D01*
X016257Y019146D01*
X016201Y019155D01*
X016201Y018457D01*
X016101Y018457D01*
X016101Y018357D01*
X015701Y018357D01*
X015701Y018072D01*
X015712Y018002D01*
X015734Y017934D01*
X015766Y017871D01*
X015808Y017814D01*
X015858Y017764D01*
X015915Y017722D01*
X015978Y017690D01*
X016046Y017668D01*
X016101Y017659D01*
X016101Y018357D01*
X016201Y018357D01*
X016201Y017659D01*
X016257Y017668D01*
X016324Y017690D01*
X016387Y017722D01*
X016444Y017764D01*
X016494Y017814D01*
X016536Y017871D01*
X016568Y017934D01*
X016590Y018002D01*
X016601Y018072D01*
X016601Y018357D01*
X016201Y018357D01*
X016201Y018457D01*
X016201Y018520D02*
X016101Y018520D01*
X016101Y018457D02*
X016101Y019155D01*
X016046Y019146D01*
X015978Y019124D01*
X015915Y019092D01*
X015858Y019050D01*
X015808Y019000D01*
X015766Y018943D01*
X015734Y018880D01*
X015712Y018812D01*
X015701Y018743D01*
X015701Y018457D01*
X016101Y018457D01*
X016101Y018421D02*
X015582Y018421D01*
X015582Y018323D02*
X015701Y018323D01*
X015701Y018224D02*
X015582Y018224D01*
X015582Y018126D02*
X015701Y018126D01*
X015708Y018027D02*
X015582Y018027D01*
X015582Y018021D02*
X015582Y018793D01*
X015516Y018951D01*
X015395Y019072D01*
X015237Y019138D01*
X015066Y019138D01*
X014907Y019072D01*
X014786Y018951D01*
X014720Y018793D01*
X014720Y018152D01*
X014653Y018060D01*
X014585Y018128D01*
X014442Y018188D01*
X013766Y018188D01*
X013623Y018128D01*
X013513Y018018D01*
X013453Y017875D01*
X013453Y017719D01*
X013513Y017576D01*
X013623Y017466D01*
X013766Y017406D01*
X014442Y017406D01*
X014585Y017466D01*
X014695Y017576D01*
X014712Y017615D01*
X014759Y017615D01*
X014771Y017626D01*
X014786Y017629D01*
X014822Y017678D01*
X014865Y017721D01*
X014865Y017737D01*
X014885Y017764D01*
X014907Y017742D01*
X015066Y017676D01*
X015237Y017676D01*
X015395Y017742D01*
X015516Y017863D01*
X015582Y018021D01*
X015543Y017929D02*
X015737Y017929D01*
X015796Y017830D02*
X015483Y017830D01*
X015370Y017732D02*
X015902Y017732D01*
X016101Y017732D02*
X016201Y017732D01*
X016201Y017830D02*
X016101Y017830D01*
X016101Y017929D02*
X016201Y017929D01*
X016201Y018027D02*
X016101Y018027D01*
X016101Y018126D02*
X016201Y018126D01*
X016201Y018224D02*
X016101Y018224D01*
X016101Y018323D02*
X016201Y018323D01*
X016151Y018407D02*
X017151Y018407D01*
X017151Y017694D01*
X017226Y017620D01*
X015533Y017620D01*
X015179Y017502D01*
X014809Y017502D01*
X014104Y016797D01*
X013667Y016360D01*
X013210Y016360D01*
X013171Y016320D01*
X013171Y014076D01*
X013446Y013801D01*
X013171Y013446D01*
X013171Y012620D01*
X014313Y011399D01*
X015151Y011399D01*
X015101Y011428D02*
X012029Y011428D01*
X012029Y011526D02*
X014701Y011526D01*
X014701Y011625D02*
X012029Y011625D01*
X012029Y011723D02*
X014701Y011723D01*
X014718Y011822D02*
X012029Y011822D01*
X012029Y011920D02*
X014759Y011920D01*
X014834Y012019D02*
X012029Y012019D01*
X012029Y012117D02*
X014981Y012117D01*
X015012Y012216D02*
X012029Y012216D01*
X012029Y012314D02*
X014959Y012314D01*
X014886Y012413D02*
X014457Y012413D01*
X014631Y012511D02*
X014812Y012511D01*
X015139Y012344D02*
X015139Y012757D01*
X014143Y012757D01*
X014104Y012797D01*
X014124Y012777D01*
X013751Y012413D02*
X012029Y012413D01*
X012029Y012511D02*
X013577Y012511D01*
X013499Y012610D02*
X012029Y012610D01*
X012029Y012708D02*
X013458Y012708D01*
X013453Y012807D02*
X012029Y012807D01*
X012029Y012905D02*
X013466Y012905D01*
X013507Y013004D02*
X012029Y013004D01*
X012029Y013102D02*
X013597Y013102D01*
X013687Y013417D02*
X013748Y013397D01*
X013812Y013387D01*
X014074Y013387D01*
X014074Y013767D01*
X013434Y013767D01*
X013434Y013765D01*
X013444Y013701D01*
X013464Y013639D01*
X013493Y013582D01*
X013531Y013530D01*
X013577Y013484D01*
X013629Y013446D01*
X013687Y013417D01*
X013746Y013398D02*
X012029Y013398D01*
X012029Y013496D02*
X013565Y013496D01*
X013487Y013595D02*
X012029Y013595D01*
X012029Y013693D02*
X013447Y013693D01*
X013446Y013801D02*
X014076Y013801D01*
X014096Y013820D01*
X014104Y013813D01*
X014104Y013797D01*
X014096Y013820D02*
X014116Y013840D01*
X014765Y013840D01*
X015139Y014214D01*
X015139Y013427D01*
X015159Y013446D01*
X015572Y013446D01*
X015572Y013053D01*
X015868Y012757D01*
X015927Y012757D01*
X015946Y012777D01*
X015966Y012797D01*
X015966Y013053D01*
X016006Y013092D01*
X016124Y013092D01*
X016320Y013289D01*
X016320Y013486D01*
X016316Y013482D02*
X016325Y013482D01*
X016325Y013100D01*
X016340Y013100D01*
X016292Y013051D01*
X016283Y013066D01*
X016255Y013094D01*
X016246Y013100D01*
X016316Y013100D01*
X016316Y013482D01*
X016316Y013398D02*
X016325Y013398D01*
X016316Y013299D02*
X016325Y013299D01*
X016316Y013201D02*
X016325Y013201D01*
X016316Y013102D02*
X016325Y013102D01*
X015995Y013102D02*
X015898Y013102D01*
X015898Y013004D02*
X015995Y013004D01*
X015995Y012905D02*
X015898Y012905D01*
X015898Y012807D02*
X015467Y012807D01*
X015467Y012905D02*
X015580Y012905D01*
X015583Y013004D02*
X015467Y013004D01*
X015440Y013102D02*
X015652Y013102D01*
X015707Y013201D02*
X015486Y013201D01*
X015486Y013299D02*
X015707Y013299D01*
X015707Y013398D02*
X015188Y013398D01*
X015091Y013398D02*
X014462Y013398D01*
X014460Y013397D02*
X014521Y013417D01*
X014579Y013446D01*
X014631Y013484D01*
X014677Y013530D01*
X014715Y013582D01*
X014744Y013639D01*
X014764Y013701D01*
X014774Y013765D01*
X014774Y013767D01*
X014134Y013767D01*
X014134Y013827D01*
X014074Y013827D01*
X014074Y014207D01*
X013812Y014207D01*
X013748Y014197D01*
X013687Y014177D01*
X013629Y014148D01*
X013577Y014110D01*
X013531Y014064D01*
X013493Y014012D01*
X013464Y013954D01*
X013444Y013893D01*
X013434Y013829D01*
X013434Y013827D01*
X014074Y013827D01*
X014074Y013767D01*
X014134Y013767D01*
X014134Y013387D01*
X014396Y013387D01*
X014460Y013397D01*
X014643Y013496D02*
X014793Y013496D01*
X014793Y013595D02*
X014721Y013595D01*
X014761Y013693D02*
X014801Y013693D01*
X014774Y013827D02*
X014774Y013829D01*
X014764Y013893D01*
X014744Y013954D01*
X014715Y014012D01*
X014677Y014064D01*
X014631Y014110D01*
X014579Y014148D01*
X014521Y014177D01*
X014460Y014197D01*
X014396Y014207D01*
X014134Y014207D01*
X014134Y013827D01*
X014774Y013827D01*
X014764Y013890D02*
X014838Y013890D01*
X014850Y013878D02*
X014885Y013858D01*
X014923Y013848D01*
X015091Y013848D01*
X015091Y014166D01*
X014793Y014166D01*
X014793Y013978D01*
X014803Y013940D01*
X014822Y013906D01*
X014850Y013878D01*
X014916Y013792D02*
X014134Y013792D01*
X014074Y013792D02*
X012029Y013792D01*
X012029Y013890D02*
X013444Y013890D01*
X013481Y013989D02*
X012029Y013989D01*
X012029Y014087D02*
X013554Y014087D01*
X013713Y014186D02*
X012029Y014186D01*
X012029Y014284D02*
X014793Y014284D01*
X014793Y014263D02*
X014793Y014450D01*
X014803Y014489D01*
X014822Y014523D01*
X014850Y014551D01*
X014865Y014559D01*
X014812Y014613D01*
X014812Y014703D01*
X014748Y014703D01*
X014695Y014576D01*
X014585Y014466D01*
X014442Y014406D01*
X013766Y014406D01*
X013623Y014466D01*
X013513Y014576D01*
X013453Y014719D01*
X013453Y014875D01*
X012029Y014875D01*
X012029Y014777D02*
X013453Y014777D01*
X013453Y014875D02*
X013513Y015018D01*
X013623Y015128D01*
X013766Y015188D01*
X014442Y015188D01*
X014585Y015128D01*
X014649Y015064D01*
X014812Y015064D01*
X014812Y015154D01*
X014888Y015231D01*
X015390Y015231D01*
X015467Y015154D01*
X015467Y014613D01*
X015413Y014559D01*
X015428Y014551D01*
X015456Y014523D01*
X015476Y014489D01*
X015486Y014450D01*
X015486Y014263D01*
X015188Y014263D01*
X015188Y014166D01*
X015486Y014166D01*
X015486Y013978D01*
X015476Y013940D01*
X015456Y013906D01*
X015428Y013878D01*
X015394Y013858D01*
X015356Y013848D01*
X015188Y013848D01*
X015188Y014166D01*
X015091Y014166D01*
X015091Y014263D01*
X014793Y014263D01*
X014793Y014383D02*
X012029Y014383D01*
X012029Y014481D02*
X013607Y014481D01*
X013511Y014580D02*
X012029Y014580D01*
X012029Y014678D02*
X013470Y014678D01*
X013494Y014974D02*
X012029Y014974D01*
X012029Y015072D02*
X013567Y015072D01*
X013725Y015171D02*
X012029Y015171D01*
X012029Y015269D02*
X015571Y015269D01*
X015678Y015171D02*
X015451Y015171D01*
X015467Y015072D02*
X015678Y015072D01*
X015678Y014974D02*
X015467Y014974D01*
X015467Y014875D02*
X015731Y014875D01*
X015707Y014777D02*
X015467Y014777D01*
X015467Y014678D02*
X015707Y014678D01*
X015707Y014580D02*
X015434Y014580D01*
X015478Y014481D02*
X015707Y014481D01*
X015707Y014383D02*
X015486Y014383D01*
X015486Y014284D02*
X015707Y014284D01*
X015741Y014186D02*
X015188Y014186D01*
X015091Y014186D02*
X014494Y014186D01*
X014654Y014087D02*
X014793Y014087D01*
X014793Y013989D02*
X014726Y013989D01*
X015091Y013989D02*
X015188Y013989D01*
X015188Y014087D02*
X015091Y014087D01*
X015091Y013890D02*
X015188Y013890D01*
X015188Y013792D02*
X015091Y013792D01*
X015091Y013693D02*
X015188Y013693D01*
X015188Y013595D02*
X015091Y013595D01*
X015091Y013496D02*
X015188Y013496D01*
X015486Y013496D02*
X015707Y013496D01*
X015707Y013595D02*
X015486Y013595D01*
X015478Y013693D02*
X015707Y013693D01*
X015723Y013792D02*
X015363Y013792D01*
X015441Y013890D02*
X015766Y013890D01*
X015859Y013989D02*
X015486Y013989D01*
X015486Y014087D02*
X015957Y014087D01*
X016124Y013998D02*
X016635Y013998D01*
X016675Y013958D01*
X016675Y013505D01*
X016694Y013486D01*
X016635Y013486D01*
X017029Y014116D01*
X018112Y014116D01*
X018191Y013958D01*
X018518Y013989D02*
X018532Y013989D01*
X018518Y014087D02*
X018532Y014087D01*
X018518Y014186D02*
X018532Y014186D01*
X018532Y014229D02*
X018532Y013688D01*
X018609Y013611D01*
X018656Y013611D01*
X018645Y013588D01*
X018140Y013588D01*
X018117Y013601D01*
X018068Y013588D01*
X018017Y013588D01*
X017998Y013569D01*
X017972Y013562D01*
X017947Y013518D01*
X017911Y013482D01*
X017911Y013455D01*
X017790Y013242D01*
X017754Y013206D01*
X017754Y013179D01*
X017741Y013156D01*
X017754Y013107D01*
X017754Y012544D01*
X017750Y012541D01*
X017750Y012552D01*
X017432Y012552D01*
X017432Y012648D01*
X017750Y012648D01*
X017750Y012817D01*
X017740Y012855D01*
X017720Y012889D01*
X017692Y012917D01*
X017658Y012937D01*
X017639Y012942D01*
X017654Y012942D01*
X017731Y013018D01*
X017731Y013520D01*
X017706Y013545D01*
X017752Y013657D01*
X017752Y013787D01*
X017702Y013908D01*
X017675Y013935D01*
X017863Y013935D01*
X017863Y013688D01*
X017940Y013611D01*
X018442Y013611D01*
X018518Y013688D01*
X018518Y014229D01*
X018442Y014306D01*
X018114Y014306D01*
X018098Y014311D01*
X018087Y014306D01*
X017940Y014306D01*
X017931Y014296D01*
X017675Y014296D01*
X017702Y014323D01*
X017752Y014444D01*
X017752Y014575D01*
X017702Y014696D01*
X017609Y014788D01*
X017604Y014791D01*
X017604Y014792D01*
X017694Y014792D01*
X017755Y014853D01*
X018033Y014841D01*
X018095Y014830D01*
X018106Y014838D01*
X018120Y014837D01*
X018135Y014851D01*
X018540Y014851D01*
X018588Y014899D01*
X018845Y014897D01*
X018772Y014867D01*
X018680Y014774D01*
X018629Y014654D01*
X018629Y014523D01*
X018679Y014403D01*
X018679Y014388D01*
X018664Y014352D01*
X018679Y014316D01*
X018679Y014306D01*
X018609Y014306D01*
X018532Y014229D01*
X018587Y014284D02*
X018463Y014284D01*
X018677Y014383D02*
X017726Y014383D01*
X017752Y014481D02*
X018647Y014481D01*
X018629Y014580D02*
X017750Y014580D01*
X017709Y014678D02*
X018640Y014678D01*
X018682Y014777D02*
X017621Y014777D01*
X017600Y015041D02*
X017423Y015120D01*
X017423Y014509D01*
X017119Y014383D02*
X016933Y014383D01*
X016933Y014481D02*
X017094Y014481D01*
X017096Y014580D02*
X016933Y014580D01*
X016933Y014678D02*
X017137Y014678D01*
X017225Y014777D02*
X016933Y014777D01*
X016989Y014875D02*
X017076Y014875D01*
X017076Y014974D02*
X017042Y014974D01*
X017042Y015072D02*
X017076Y015072D01*
X017076Y015171D02*
X017042Y015171D01*
X017042Y015269D02*
X017076Y015269D01*
X017076Y015368D02*
X017042Y015368D01*
X017005Y015466D02*
X017148Y015466D01*
X017076Y015565D02*
X016970Y015565D01*
X017042Y015663D02*
X017076Y015663D01*
X017076Y015762D02*
X017042Y015762D01*
X016911Y015927D02*
X016734Y015927D01*
X016694Y015887D01*
X016832Y015966D01*
X017226Y015966D01*
X017423Y015789D01*
X017770Y015762D02*
X017942Y015762D01*
X017942Y015663D02*
X017770Y015663D01*
X017770Y015565D02*
X017969Y015565D01*
X017961Y015466D02*
X017698Y015466D01*
X017770Y015368D02*
X017961Y015368D01*
X017961Y015269D02*
X017770Y015269D01*
X017600Y015041D02*
X018053Y015021D01*
X018250Y015159D01*
X018289Y015198D01*
X018485Y015080D01*
X019952Y015070D01*
X020179Y015100D01*
X020179Y015548D01*
X020208Y015577D01*
X019952Y015577D02*
X019944Y015643D01*
X019944Y016185D01*
X019928Y016365D01*
X020041Y016399D01*
X020125Y016377D01*
X020125Y017100D01*
X020041Y017029D01*
X020021Y017128D01*
X020021Y017423D01*
X018958Y017423D01*
X018919Y017383D01*
X018840Y017344D01*
X018663Y017246D01*
X018289Y017246D01*
X017942Y017239D02*
X017884Y017239D01*
X017942Y017338D02*
X017376Y017338D01*
X017376Y017436D02*
X017942Y017436D01*
X017980Y017535D02*
X016118Y017535D01*
X016205Y017257D02*
X015848Y017206D01*
X015520Y017239D02*
X012029Y017239D01*
X012029Y017141D02*
X013619Y017141D01*
X013629Y017148D02*
X013577Y017110D01*
X013531Y017064D01*
X013493Y017012D01*
X013464Y016954D01*
X013444Y016893D01*
X013434Y016829D01*
X013434Y016827D01*
X014074Y016827D01*
X014074Y017207D01*
X013812Y017207D01*
X013748Y017197D01*
X013687Y017177D01*
X013629Y017148D01*
X013515Y017042D02*
X012029Y017042D01*
X012029Y016944D02*
X013461Y016944D01*
X013436Y016845D02*
X012029Y016845D01*
X012029Y016747D02*
X013437Y016747D01*
X013434Y016765D02*
X013444Y016701D01*
X013464Y016639D01*
X013493Y016582D01*
X013531Y016530D01*
X013577Y016484D01*
X013629Y016446D01*
X013687Y016417D01*
X013748Y016397D01*
X013812Y016387D01*
X014074Y016387D01*
X014074Y016767D01*
X013434Y016767D01*
X013434Y016765D01*
X013461Y016648D02*
X012029Y016648D01*
X012029Y016550D02*
X013517Y016550D01*
X013622Y016451D02*
X012029Y016451D01*
X012029Y016353D02*
X015501Y016353D01*
X015501Y016451D02*
X014586Y016451D01*
X014579Y016446D02*
X014631Y016484D01*
X014677Y016530D01*
X014715Y016582D01*
X014744Y016639D01*
X014764Y016701D01*
X014774Y016765D01*
X014774Y016767D01*
X014134Y016767D01*
X014134Y016827D01*
X014074Y016827D01*
X014074Y016767D01*
X014134Y016767D01*
X014134Y016387D01*
X014396Y016387D01*
X014460Y016397D01*
X014521Y016417D01*
X014579Y016446D01*
X014691Y016550D02*
X015800Y016550D01*
X015848Y016537D02*
X015966Y016360D01*
X016025Y016301D01*
X016025Y015887D01*
X015977Y015860D02*
X015597Y015860D01*
X015599Y015959D02*
X015659Y015959D01*
X015659Y016057D02*
X015575Y016057D01*
X015513Y016156D02*
X015677Y016156D01*
X015516Y016254D02*
X015355Y016254D01*
X015183Y016254D02*
X012029Y016254D01*
X012029Y016156D02*
X015025Y016156D01*
X014963Y016057D02*
X012029Y016057D01*
X012029Y015959D02*
X014938Y015959D01*
X014940Y015860D02*
X012029Y015860D01*
X012029Y015762D02*
X014981Y015762D01*
X015070Y015663D02*
X012029Y015663D01*
X012029Y015565D02*
X015136Y015565D01*
X015281Y015466D02*
X012029Y015466D01*
X012029Y015368D02*
X015426Y015368D01*
X015277Y015687D02*
X015269Y015932D01*
X015277Y015687D02*
X016025Y015179D01*
X015943Y015096D01*
X015943Y014665D01*
X015946Y014509D01*
X016124Y013998D02*
X015946Y013820D01*
X015946Y013486D01*
X015927Y012757D02*
X015927Y012462D01*
X016006Y012383D01*
X016675Y012383D01*
X017049Y012403D01*
X017383Y012600D01*
X017335Y012610D02*
X016963Y012610D01*
X016963Y012708D02*
X017017Y012708D01*
X017017Y012807D02*
X016963Y012807D01*
X016963Y012905D02*
X017063Y012905D01*
X017051Y013004D02*
X016963Y013004D01*
X016889Y013102D02*
X017036Y013102D01*
X017036Y013201D02*
X016933Y013201D01*
X016933Y013299D02*
X017036Y013299D01*
X017036Y013398D02*
X016933Y013398D01*
X016933Y013496D02*
X017036Y013496D01*
X017110Y013595D02*
X016933Y013595D01*
X016978Y013693D02*
X017094Y013693D01*
X017096Y013792D02*
X017040Y013792D01*
X017101Y013890D02*
X017137Y013890D01*
X017423Y013722D02*
X017383Y013269D01*
X017731Y013299D02*
X017822Y013299D01*
X017879Y013398D02*
X017731Y013398D01*
X017731Y013496D02*
X017926Y013496D01*
X018092Y013407D02*
X017935Y013131D01*
X017935Y012462D01*
X017620Y012187D01*
X015297Y012187D01*
X015139Y012344D01*
X015393Y012413D02*
X017017Y012413D01*
X017017Y012511D02*
X016948Y012511D01*
X016616Y012777D02*
X016694Y012856D01*
X016694Y013486D01*
X017726Y013595D02*
X018093Y013595D01*
X018128Y013595D02*
X018648Y013595D01*
X018532Y013693D02*
X018518Y013693D01*
X018518Y013792D02*
X018532Y013792D01*
X018518Y013890D02*
X018532Y013890D01*
X018860Y013958D02*
X018860Y013624D01*
X018761Y013407D01*
X018092Y013407D01*
X018197Y013226D02*
X018296Y013226D01*
X018296Y012743D01*
X018373Y012666D01*
X018914Y012666D01*
X018991Y012743D01*
X018991Y012754D01*
X019182Y012480D01*
X019182Y012329D01*
X019258Y012253D01*
X019800Y012253D01*
X019864Y012317D01*
X019928Y012253D01*
X020469Y012253D01*
X020546Y012329D01*
X020546Y012831D01*
X020469Y012908D01*
X020455Y012908D01*
X020526Y012979D01*
X020526Y013013D01*
X020658Y013013D01*
X020658Y012861D01*
X020735Y012784D01*
X021276Y012784D01*
X021353Y012861D01*
X021353Y013363D01*
X021276Y013439D01*
X021186Y013439D01*
X021186Y014191D01*
X021201Y014220D01*
X021186Y014263D01*
X021186Y014309D01*
X021163Y014331D01*
X021153Y014362D01*
X021113Y014382D01*
X021080Y014415D01*
X021048Y014415D01*
X021029Y014424D01*
X021029Y014584D01*
X020923Y014690D01*
X020821Y014792D01*
X020812Y014814D01*
X020719Y014906D01*
X020598Y014956D01*
X020468Y014956D01*
X020347Y014906D01*
X020254Y014814D01*
X020204Y014693D01*
X020204Y014562D01*
X020254Y014441D01*
X020347Y014349D01*
X020389Y014331D01*
X020364Y014326D01*
X020280Y014328D01*
X020278Y014330D01*
X020205Y014330D01*
X020133Y014332D01*
X020133Y014912D01*
X020191Y014919D01*
X020254Y014919D01*
X020263Y014929D01*
X020277Y014931D01*
X020315Y014981D01*
X020359Y015025D01*
X020359Y015039D01*
X020368Y015049D01*
X020359Y015112D01*
X020359Y015168D01*
X020381Y015146D01*
X020538Y015146D01*
X020552Y015136D01*
X020596Y015090D01*
X020609Y015090D01*
X020619Y015082D01*
X020682Y015089D01*
X021329Y015078D01*
X021426Y015051D01*
X021426Y014869D01*
X021503Y014792D01*
X021847Y014792D01*
X021924Y014869D01*
X021924Y014954D01*
X022117Y015000D01*
X022154Y015003D01*
X022105Y014971D01*
X022084Y014971D01*
X022044Y014931D01*
X021997Y014900D01*
X021993Y014880D01*
X021934Y014821D01*
X021826Y014758D01*
X021424Y014758D01*
X021347Y014682D01*
X021347Y014140D01*
X021401Y014087D01*
X021386Y014078D01*
X021358Y014050D01*
X021338Y014016D01*
X021328Y013978D01*
X021328Y013790D01*
X021626Y013790D01*
X021626Y013693D01*
X021723Y013693D01*
X021723Y013577D01*
X021684Y013577D01*
X021684Y013278D01*
X021666Y013278D01*
X021666Y013260D01*
X021684Y013260D01*
X021684Y012962D01*
X021813Y012962D01*
X021851Y012972D01*
X021885Y012992D01*
X021913Y013020D01*
X021933Y013054D01*
X021943Y013092D01*
X021943Y013146D01*
X022000Y013089D01*
X022121Y013039D01*
X022252Y013039D01*
X022373Y013089D01*
X022465Y013181D01*
X022467Y013185D01*
X022498Y013184D01*
X022527Y013213D01*
X022853Y013353D01*
X022925Y013353D01*
X023049Y013172D01*
X023049Y012947D01*
X022959Y012947D01*
X022906Y012894D01*
X022897Y012909D01*
X022869Y012937D01*
X022835Y012956D01*
X022797Y012967D01*
X022609Y012967D01*
X022609Y012668D01*
X022512Y012668D01*
X022512Y012571D01*
X022194Y012571D01*
X022194Y012407D01*
X021924Y012407D01*
X021924Y012497D01*
X021847Y012573D01*
X021503Y012573D01*
X021426Y012497D01*
X021426Y012480D01*
X021353Y012480D01*
X021353Y012694D01*
X021276Y012770D01*
X020735Y012770D01*
X020658Y012694D01*
X020658Y012192D01*
X020735Y012115D01*
X020976Y012115D01*
X020915Y012084D01*
X020858Y012042D01*
X020808Y011992D01*
X020766Y011935D01*
X020734Y011872D01*
X020712Y011805D01*
X020701Y011735D01*
X020701Y011449D01*
X021101Y011449D01*
X021101Y011349D01*
X020701Y011349D01*
X020701Y011064D01*
X020712Y010994D01*
X020734Y010926D01*
X020766Y010863D01*
X020808Y010806D01*
X020858Y010756D01*
X020915Y010714D01*
X020978Y010682D01*
X021024Y010667D01*
X020284Y010669D01*
X020324Y010682D01*
X020387Y010714D01*
X020444Y010756D01*
X020494Y010806D01*
X020536Y010863D01*
X020568Y010926D01*
X020590Y010994D01*
X020601Y011064D01*
X020601Y011349D01*
X020201Y011349D01*
X020201Y011449D01*
X020101Y011449D01*
X020101Y011349D01*
X019701Y011349D01*
X019701Y011064D01*
X019712Y010994D01*
X019734Y010926D01*
X019766Y010863D01*
X019808Y010806D01*
X019858Y010756D01*
X019915Y010714D01*
X019978Y010682D01*
X020016Y010670D01*
X019245Y010672D01*
X019395Y010734D01*
X019516Y010855D01*
X019582Y011014D01*
X019582Y011785D01*
X019516Y011943D01*
X019395Y012064D01*
X019237Y012130D01*
X019066Y012130D01*
X018991Y012099D01*
X018991Y012575D01*
X018914Y012652D01*
X018373Y012652D01*
X018296Y012575D01*
X018296Y012513D01*
X018275Y012505D01*
X018234Y012505D01*
X018208Y012479D01*
X018115Y012444D01*
X018115Y012456D01*
X018120Y012525D01*
X018115Y012530D01*
X018115Y013084D01*
X018197Y013226D01*
X018182Y013201D02*
X018296Y013201D01*
X018296Y013102D02*
X018126Y013102D01*
X018115Y013004D02*
X018296Y013004D01*
X018296Y012905D02*
X018115Y012905D01*
X018115Y012807D02*
X018296Y012807D01*
X018331Y012708D02*
X018115Y012708D01*
X018115Y012610D02*
X018330Y012610D01*
X018290Y012511D02*
X018119Y012511D01*
X018309Y012324D02*
X018053Y012226D01*
X017659Y011950D01*
X017147Y011950D01*
X017147Y011403D01*
X017151Y011399D01*
X016037Y010680D02*
X015324Y010682D01*
X015387Y010714D01*
X015444Y010756D01*
X015494Y010806D01*
X015536Y010863D01*
X015568Y010926D01*
X015590Y010994D01*
X015601Y011064D01*
X015601Y011349D01*
X015201Y011349D01*
X015201Y011449D01*
X015601Y011449D01*
X015601Y011735D01*
X015590Y011805D01*
X015568Y011872D01*
X015536Y011935D01*
X015494Y011992D01*
X015481Y012006D01*
X015849Y012006D01*
X015786Y011943D01*
X015720Y011785D01*
X015720Y011014D01*
X015786Y010855D01*
X015907Y010734D01*
X016037Y010680D01*
X015903Y010738D02*
X015420Y010738D01*
X015324Y010682D02*
X015324Y010682D01*
X015517Y010837D02*
X015805Y010837D01*
X015753Y010935D02*
X015571Y010935D01*
X015596Y011034D02*
X015720Y011034D01*
X015720Y011132D02*
X015601Y011132D01*
X015601Y011231D02*
X015720Y011231D01*
X015720Y011329D02*
X015601Y011329D01*
X015720Y011428D02*
X015201Y011428D01*
X015601Y011526D02*
X015720Y011526D01*
X015720Y011625D02*
X015601Y011625D01*
X015601Y011723D02*
X015720Y011723D01*
X015736Y011822D02*
X015585Y011822D01*
X015544Y011920D02*
X015776Y011920D01*
X015898Y012511D02*
X015995Y012511D01*
X015995Y012610D02*
X015898Y012610D01*
X015898Y012708D02*
X015995Y012708D01*
X015580Y012708D02*
X015467Y012708D01*
X015467Y012610D02*
X015580Y012610D01*
X015597Y012511D02*
X015467Y012511D01*
X014812Y013004D02*
X014701Y013004D01*
X014611Y013102D02*
X014839Y013102D01*
X014793Y013201D02*
X012029Y013201D01*
X012029Y013299D02*
X014793Y013299D01*
X014134Y013398D02*
X014074Y013398D01*
X014074Y013496D02*
X014134Y013496D01*
X014134Y013595D02*
X014074Y013595D01*
X014074Y013693D02*
X014134Y013693D01*
X014134Y013890D02*
X014074Y013890D01*
X014074Y013989D02*
X014134Y013989D01*
X014134Y014087D02*
X014074Y014087D01*
X014074Y014186D02*
X014134Y014186D01*
X014601Y014481D02*
X014801Y014481D01*
X014845Y014580D02*
X014697Y014580D01*
X014738Y014678D02*
X014812Y014678D01*
X015139Y014883D02*
X014112Y014883D01*
X014104Y014797D01*
X014483Y015171D02*
X014828Y015171D01*
X014812Y015072D02*
X014641Y015072D01*
X015556Y015762D02*
X015659Y015762D01*
X015661Y015663D02*
X015634Y015663D01*
X015977Y015663D02*
X016074Y015663D01*
X016074Y015565D02*
X015977Y015565D01*
X015977Y015762D02*
X016074Y015762D01*
X016323Y015565D02*
X016419Y015565D01*
X016384Y015466D02*
X016336Y015466D01*
X016694Y015179D02*
X016694Y014509D01*
X016933Y014284D02*
X016942Y014284D01*
X017709Y013890D02*
X017863Y013890D01*
X017863Y013792D02*
X017750Y013792D01*
X017752Y013693D02*
X017863Y013693D01*
X017754Y013201D02*
X017731Y013201D01*
X017731Y013102D02*
X017754Y013102D01*
X017754Y013004D02*
X017716Y013004D01*
X017704Y012905D02*
X017754Y012905D01*
X017750Y012807D02*
X017754Y012807D01*
X017750Y012708D02*
X017754Y012708D01*
X017754Y012610D02*
X017432Y012610D01*
X018309Y012324D02*
X018643Y012324D01*
X018991Y012314D02*
X019197Y012314D01*
X019182Y012413D02*
X018991Y012413D01*
X018991Y012511D02*
X019160Y012511D01*
X019091Y012610D02*
X018956Y012610D01*
X018956Y012708D02*
X019023Y012708D01*
X019045Y012992D02*
X018643Y012994D01*
X019045Y012992D02*
X019402Y012480D01*
X019571Y012547D01*
X019529Y012580D01*
X019582Y012626D01*
X019582Y013113D01*
X019529Y013250D01*
X019582Y013203D01*
X019673Y013293D01*
X019673Y013835D01*
X019696Y013914D01*
X019440Y013914D02*
X019440Y014440D01*
X019509Y014628D01*
X019549Y014628D01*
X020133Y014580D02*
X020204Y014580D01*
X020204Y014678D02*
X020133Y014678D01*
X020133Y014777D02*
X020239Y014777D01*
X020316Y014875D02*
X020133Y014875D01*
X020309Y014974D02*
X021426Y014974D01*
X021426Y014875D02*
X020751Y014875D01*
X020837Y014777D02*
X021858Y014777D01*
X021924Y014875D02*
X021988Y014875D01*
X022006Y014974D02*
X022109Y014974D01*
X022159Y014790D02*
X022638Y015105D01*
X022974Y015102D01*
X022974Y014602D02*
X023511Y014563D01*
X023643Y014391D01*
X023643Y012226D01*
X021694Y012226D01*
X021675Y012285D01*
X021594Y012299D01*
X021119Y012299D01*
X021028Y012390D01*
X021006Y012443D01*
X020658Y012413D02*
X020546Y012413D01*
X020546Y012511D02*
X020658Y012511D01*
X020658Y012610D02*
X020546Y012610D01*
X020546Y012708D02*
X020673Y012708D01*
X020713Y012807D02*
X020546Y012807D01*
X020472Y012905D02*
X020658Y012905D01*
X020658Y013004D02*
X020526Y013004D01*
X020254Y013194D02*
X020924Y013194D01*
X021006Y013112D01*
X021006Y014234D01*
X020848Y014313D01*
X020848Y014509D01*
X020730Y014628D01*
X020533Y014628D01*
X020313Y014383D02*
X020133Y014383D01*
X020133Y014481D02*
X020238Y014481D01*
X020203Y014149D02*
X020395Y014145D01*
X020379Y014145D01*
X020493Y014071D01*
X020611Y013844D01*
X020208Y013914D02*
X020203Y013962D01*
X020203Y014149D01*
X019952Y013914D02*
X019952Y015070D01*
X020365Y015072D02*
X021349Y015072D01*
X021202Y014785D02*
X021202Y013958D01*
X021517Y013840D01*
X021813Y013840D01*
X021675Y013742D01*
X021959Y013914D01*
X022481Y014111D01*
X022974Y014102D01*
X022633Y014141D01*
X022580Y014116D01*
X022659Y014155D01*
X022391Y014186D02*
X022002Y014186D01*
X022002Y014140D02*
X022002Y014443D01*
X022094Y014496D01*
X022120Y014496D01*
X022156Y014532D01*
X022201Y014558D01*
X022207Y014583D01*
X022274Y014649D01*
X022410Y014739D01*
X022410Y014430D01*
X022481Y014359D01*
X022449Y014340D01*
X022421Y014312D01*
X022401Y014278D01*
X022391Y014240D01*
X022391Y014111D01*
X022965Y014111D01*
X022965Y014093D01*
X022391Y014093D01*
X022391Y013964D01*
X022401Y013926D01*
X022421Y013892D01*
X022449Y013864D01*
X022481Y013845D01*
X022410Y013774D01*
X022410Y013609D01*
X022373Y013646D01*
X022252Y013697D01*
X022121Y013697D01*
X022022Y013655D01*
X022022Y013693D01*
X022113Y013693D01*
X022022Y013693D02*
X021723Y013693D01*
X021626Y013693D01*
X021626Y013577D01*
X021666Y013577D01*
X021666Y013278D01*
X021407Y013278D01*
X021407Y013393D01*
X021386Y013405D01*
X021358Y013433D01*
X021338Y013467D01*
X021328Y013505D01*
X021328Y013693D01*
X021186Y013693D01*
X021186Y013595D02*
X021328Y013595D01*
X021328Y013693D02*
X021626Y013693D01*
X021684Y013766D02*
X021675Y013269D01*
X021891Y013112D01*
X022029Y012935D01*
X022108Y012718D01*
X022561Y012620D01*
X022512Y012610D02*
X021353Y012610D01*
X021353Y012511D02*
X021440Y012511D01*
X021338Y012708D02*
X022194Y012708D01*
X022194Y012668D02*
X022194Y012836D01*
X022204Y012874D01*
X022224Y012909D01*
X022252Y012937D01*
X022286Y012956D01*
X022324Y012967D01*
X022512Y012967D01*
X022512Y012668D01*
X022194Y012668D01*
X022194Y012807D02*
X021298Y012807D01*
X021353Y012905D02*
X022222Y012905D01*
X022386Y013102D02*
X023049Y013102D01*
X023049Y013004D02*
X021897Y013004D01*
X021943Y013102D02*
X021987Y013102D01*
X021684Y013102D02*
X021666Y013102D01*
X021666Y013004D02*
X021684Y013004D01*
X021666Y012962D02*
X021666Y013260D01*
X021407Y013260D01*
X021407Y013092D01*
X021417Y013054D01*
X021437Y013020D01*
X021465Y012992D01*
X021499Y012972D01*
X021537Y012962D01*
X021666Y012962D01*
X021453Y013004D02*
X021353Y013004D01*
X021353Y013102D02*
X021407Y013102D01*
X021407Y013201D02*
X021353Y013201D01*
X021353Y013299D02*
X021407Y013299D01*
X021399Y013398D02*
X021318Y013398D01*
X021330Y013496D02*
X021186Y013496D01*
X021186Y013792D02*
X021328Y013792D01*
X021328Y013890D02*
X021186Y013890D01*
X021186Y013989D02*
X021331Y013989D01*
X021401Y014087D02*
X021186Y014087D01*
X021186Y014186D02*
X021347Y014186D01*
X021347Y014284D02*
X021186Y014284D01*
X021112Y014383D02*
X021347Y014383D01*
X021347Y014481D02*
X021029Y014481D01*
X021029Y014580D02*
X021347Y014580D01*
X021347Y014678D02*
X020935Y014678D01*
X021675Y014411D02*
X021841Y014558D01*
X022045Y014676D01*
X022159Y014790D01*
X022318Y014678D02*
X022410Y014678D01*
X022410Y014580D02*
X022206Y014580D01*
X022069Y014481D02*
X022410Y014481D01*
X022457Y014383D02*
X022002Y014383D01*
X022002Y014284D02*
X022405Y014284D01*
X022391Y014087D02*
X021949Y014087D01*
X022002Y014140D01*
X021964Y014078D02*
X021949Y014087D01*
X021964Y014078D02*
X021992Y014050D01*
X022011Y014016D01*
X022022Y013978D01*
X022022Y013790D01*
X021723Y013790D01*
X021723Y013693D01*
X021684Y013766D02*
X021959Y013914D01*
X022022Y013890D02*
X022423Y013890D01*
X022428Y013792D02*
X022022Y013792D01*
X022019Y013989D02*
X022391Y013989D01*
X022410Y013693D02*
X022260Y013693D01*
X022187Y013368D02*
X022425Y013366D01*
X022974Y013602D01*
X023230Y013228D01*
X023230Y012620D01*
X022917Y012905D02*
X022899Y012905D01*
X022609Y012905D02*
X022512Y012905D01*
X022512Y012807D02*
X022609Y012807D01*
X022609Y012708D02*
X022512Y012708D01*
X022194Y012511D02*
X021909Y012511D01*
X021924Y012413D02*
X022194Y012413D01*
X022414Y012045D02*
X022888Y012045D01*
X022786Y011943D01*
X022720Y011785D01*
X022720Y011014D01*
X022786Y010855D01*
X022907Y010734D01*
X023066Y010669D01*
X023237Y010669D01*
X023395Y010734D01*
X023516Y010855D01*
X023582Y011014D01*
X023582Y011785D01*
X023516Y011943D01*
X023414Y012045D01*
X023718Y012045D01*
X023824Y012151D01*
X023824Y014300D01*
X023868Y014281D01*
X024010Y013400D01*
X023924Y013400D01*
X023847Y013323D01*
X023847Y012821D01*
X023924Y012745D01*
X024417Y012745D01*
X024417Y012731D01*
X023924Y012731D01*
X023847Y012654D01*
X023847Y012152D01*
X023924Y012076D01*
X023934Y012076D01*
X023907Y012064D01*
X023786Y011943D01*
X023720Y011785D01*
X023720Y011014D01*
X023786Y010855D01*
X023907Y010734D01*
X024066Y010669D01*
X024237Y010669D01*
X024395Y010734D01*
X024516Y010855D01*
X024582Y011014D01*
X024582Y011785D01*
X024516Y011943D01*
X024395Y012064D01*
X024395Y012064D01*
X024395Y012076D01*
X024465Y012076D01*
X024514Y012124D01*
X024663Y012124D01*
X024769Y012230D01*
X024926Y012387D01*
X024926Y012417D01*
X024932Y012420D01*
X024950Y012437D01*
X024950Y012152D01*
X024984Y012118D01*
X024978Y012116D01*
X024915Y012084D01*
X024858Y012042D01*
X024808Y011992D01*
X024766Y011935D01*
X024734Y011872D01*
X024712Y011805D01*
X024701Y011735D01*
X024701Y011449D01*
X025101Y011449D01*
X025101Y011349D01*
X024701Y011349D01*
X024701Y011064D01*
X024712Y010994D01*
X024734Y010926D01*
X024766Y010863D01*
X024808Y010806D01*
X024858Y010756D01*
X024915Y010714D01*
X024978Y010682D01*
X025046Y010660D01*
X025066Y010657D01*
X021277Y010667D01*
X021324Y010682D01*
X021387Y010714D01*
X021444Y010756D01*
X021494Y010806D01*
X021536Y010863D01*
X021568Y010926D01*
X021590Y010994D01*
X021601Y011064D01*
X021601Y011349D01*
X021201Y011349D01*
X021201Y011449D01*
X021601Y011449D01*
X021601Y011735D01*
X021590Y011805D01*
X021568Y011872D01*
X021536Y011935D01*
X021494Y011992D01*
X021444Y012042D01*
X021387Y012084D01*
X021324Y012116D01*
X021316Y012119D01*
X021426Y012119D01*
X021426Y012073D01*
X021503Y011997D01*
X021840Y011997D01*
X021786Y011943D01*
X021720Y011785D01*
X021720Y011014D01*
X021786Y010855D01*
X021907Y010734D01*
X022066Y010669D01*
X022237Y010669D01*
X022395Y010734D01*
X022516Y010855D01*
X022582Y011014D01*
X022582Y011785D01*
X022516Y011943D01*
X022414Y012045D01*
X022441Y012019D02*
X022861Y012019D01*
X022776Y011920D02*
X022526Y011920D01*
X022567Y011822D02*
X022736Y011822D01*
X022720Y011723D02*
X022582Y011723D01*
X022582Y011625D02*
X022720Y011625D01*
X022720Y011526D02*
X022582Y011526D01*
X022582Y011428D02*
X022720Y011428D01*
X022720Y011329D02*
X022582Y011329D01*
X022582Y011231D02*
X022720Y011231D01*
X022720Y011132D02*
X022582Y011132D01*
X022582Y011034D02*
X022720Y011034D01*
X022753Y010935D02*
X022549Y010935D01*
X022498Y010837D02*
X022805Y010837D01*
X022903Y010738D02*
X022399Y010738D01*
X021903Y010738D02*
X021420Y010738D01*
X021517Y010837D02*
X021805Y010837D01*
X021753Y010935D02*
X021571Y010935D01*
X021596Y011034D02*
X021720Y011034D01*
X021720Y011132D02*
X021601Y011132D01*
X021601Y011231D02*
X021720Y011231D01*
X021720Y011329D02*
X021601Y011329D01*
X021720Y011428D02*
X021201Y011428D01*
X021101Y011428D02*
X020201Y011428D01*
X020201Y011449D02*
X020601Y011449D01*
X020601Y011735D01*
X020590Y011805D01*
X020568Y011872D01*
X020536Y011935D01*
X020494Y011992D01*
X020444Y012042D01*
X020387Y012084D01*
X020324Y012116D01*
X020257Y012138D01*
X020201Y012147D01*
X020201Y011449D01*
X020201Y011526D02*
X020101Y011526D01*
X020101Y011449D02*
X020101Y012147D01*
X020046Y012138D01*
X019978Y012116D01*
X019915Y012084D01*
X019858Y012042D01*
X019808Y011992D01*
X019766Y011935D01*
X019734Y011872D01*
X019712Y011805D01*
X019701Y011735D01*
X019701Y011449D01*
X020101Y011449D01*
X020101Y011428D02*
X019582Y011428D01*
X019582Y011526D02*
X019701Y011526D01*
X019701Y011625D02*
X019582Y011625D01*
X019582Y011723D02*
X019701Y011723D01*
X019718Y011822D02*
X019567Y011822D01*
X019526Y011920D02*
X019759Y011920D01*
X019834Y012019D02*
X019441Y012019D01*
X019268Y012117D02*
X019981Y012117D01*
X020101Y012117D02*
X020201Y012117D01*
X020201Y012019D02*
X020101Y012019D01*
X020101Y011920D02*
X020201Y011920D01*
X020201Y011822D02*
X020101Y011822D01*
X020101Y011723D02*
X020201Y011723D01*
X020201Y011625D02*
X020101Y011625D01*
X019701Y011329D02*
X019582Y011329D01*
X019582Y011231D02*
X019701Y011231D01*
X019701Y011132D02*
X019582Y011132D01*
X019582Y011034D02*
X019706Y011034D01*
X019731Y010935D02*
X019549Y010935D01*
X019498Y010837D02*
X019786Y010837D01*
X019883Y010738D02*
X019399Y010738D01*
X020420Y010738D02*
X020883Y010738D01*
X020786Y010837D02*
X020517Y010837D01*
X020571Y010935D02*
X020731Y010935D01*
X020706Y011034D02*
X020596Y011034D01*
X020601Y011132D02*
X020701Y011132D01*
X020701Y011231D02*
X020601Y011231D01*
X020601Y011329D02*
X020701Y011329D01*
X020701Y011526D02*
X020601Y011526D01*
X020601Y011625D02*
X020701Y011625D01*
X020701Y011723D02*
X020601Y011723D01*
X020585Y011822D02*
X020718Y011822D01*
X020759Y011920D02*
X020544Y011920D01*
X020468Y012019D02*
X020834Y012019D01*
X020733Y012117D02*
X020321Y012117D01*
X020530Y012314D02*
X020658Y012314D01*
X020658Y012216D02*
X018991Y012216D01*
X018991Y012117D02*
X019034Y012117D01*
X019861Y012314D02*
X019866Y012314D01*
X020198Y012580D02*
X020254Y012665D01*
X020254Y013194D01*
X020198Y013250D01*
X018860Y013958D02*
X018860Y014352D01*
X018958Y014588D01*
X018792Y014875D02*
X018564Y014875D01*
X018617Y015260D02*
X018617Y015469D01*
X018563Y015523D01*
X018578Y015531D01*
X018606Y015559D01*
X018626Y015593D01*
X018636Y015631D01*
X018636Y015819D01*
X018337Y015819D01*
X018337Y015916D01*
X018636Y015916D01*
X018636Y015976D01*
X018645Y015967D01*
X018766Y015917D01*
X018898Y015917D01*
X019019Y015967D01*
X019112Y016060D01*
X019117Y016072D01*
X019412Y016072D01*
X019492Y015992D01*
X019492Y015944D01*
X019327Y015944D01*
X019250Y015868D01*
X019250Y015758D01*
X019159Y015758D01*
X019145Y015772D01*
X019024Y015823D01*
X018893Y015823D01*
X018772Y015772D01*
X018680Y015680D01*
X018629Y015559D01*
X018629Y015428D01*
X018680Y015307D01*
X018728Y015259D01*
X018617Y015260D01*
X018617Y015269D02*
X018718Y015269D01*
X018655Y015368D02*
X018617Y015368D01*
X018617Y015466D02*
X018629Y015466D01*
X018632Y015565D02*
X018609Y015565D01*
X018636Y015663D02*
X018672Y015663D01*
X018636Y015762D02*
X018761Y015762D01*
X018665Y015959D02*
X018636Y015959D01*
X018337Y015959D02*
X018241Y015959D01*
X018289Y015927D02*
X017423Y016360D01*
X017423Y017620D01*
X017226Y017620D01*
X017201Y017732D02*
X017101Y017732D01*
X017101Y017830D02*
X017201Y017830D01*
X017201Y017929D02*
X017101Y017929D01*
X017101Y018027D02*
X017201Y018027D01*
X017201Y018126D02*
X017101Y018126D01*
X017101Y018224D02*
X017201Y018224D01*
X017201Y018323D02*
X017101Y018323D01*
X017201Y018421D02*
X017720Y018421D01*
X017720Y018323D02*
X017601Y018323D01*
X017601Y018224D02*
X017720Y018224D01*
X017720Y018126D02*
X017601Y018126D01*
X017594Y018027D02*
X017720Y018027D01*
X017759Y017929D02*
X017565Y017929D01*
X017506Y017830D02*
X017819Y017830D01*
X017932Y017732D02*
X017400Y017732D01*
X017423Y017620D02*
X021163Y017620D01*
X020932Y017732D02*
X020370Y017732D01*
X020483Y017830D02*
X020819Y017830D01*
X020759Y017929D02*
X020543Y017929D01*
X020582Y018027D02*
X020720Y018027D01*
X020720Y018126D02*
X020582Y018126D01*
X020582Y018224D02*
X020720Y018224D01*
X020720Y018323D02*
X020582Y018323D01*
X020582Y018421D02*
X020720Y018421D01*
X020720Y018520D02*
X020582Y018520D01*
X020582Y018618D02*
X020720Y018618D01*
X020720Y018717D02*
X020582Y018717D01*
X020573Y018815D02*
X020730Y018815D01*
X020771Y018914D02*
X020532Y018914D01*
X020455Y019012D02*
X020847Y019012D01*
X019847Y019012D02*
X019455Y019012D01*
X019532Y018914D02*
X019771Y018914D01*
X019730Y018815D02*
X019573Y018815D01*
X019582Y018717D02*
X019720Y018717D01*
X019720Y018618D02*
X019582Y018618D01*
X019582Y018520D02*
X019720Y018520D01*
X019720Y018421D02*
X019582Y018421D01*
X019582Y018323D02*
X019720Y018323D01*
X019720Y018224D02*
X019582Y018224D01*
X019582Y018126D02*
X019720Y018126D01*
X019720Y018027D02*
X019582Y018027D01*
X019543Y017929D02*
X019759Y017929D01*
X019819Y017830D02*
X019483Y017830D01*
X019370Y017732D02*
X019932Y017732D01*
X019492Y017179D02*
X019372Y017029D01*
X019374Y017007D02*
X019372Y016399D01*
X019492Y016247D01*
X019673Y016067D01*
X019673Y015643D01*
X019696Y015577D01*
X019440Y015577D02*
X019002Y015577D01*
X018958Y015533D01*
X018958Y015494D01*
X019155Y015762D02*
X019250Y015762D01*
X019250Y015860D02*
X018337Y015860D01*
X018289Y015868D02*
X018289Y015927D01*
X018241Y015860D02*
X017770Y015860D01*
X017770Y015959D02*
X017942Y015959D01*
X017942Y016057D02*
X017753Y016057D01*
X017960Y016156D02*
X017210Y016156D01*
X017344Y016254D02*
X018013Y016254D01*
X017942Y016353D02*
X017376Y016353D01*
X017376Y016451D02*
X017942Y016451D01*
X017873Y016550D02*
X017376Y016550D01*
X017376Y016648D02*
X017614Y016648D01*
X017529Y016747D02*
X017376Y016747D01*
X017319Y016845D02*
X017488Y016845D01*
X017488Y016944D02*
X017365Y016944D01*
X017376Y017042D02*
X017515Y017042D01*
X017581Y017141D02*
X017376Y017141D01*
X017393Y017239D02*
X017749Y017239D01*
X017817Y016911D02*
X017856Y016754D01*
X018269Y016576D01*
X018289Y016576D01*
X018832Y016247D02*
X019402Y016365D01*
X019372Y016399D01*
X019427Y016057D02*
X019109Y016057D01*
X018999Y015959D02*
X019492Y015959D01*
X019374Y017007D02*
X019492Y017179D01*
X018811Y017535D02*
X018598Y017535D01*
X018370Y017732D02*
X018932Y017732D01*
X018819Y017830D02*
X018483Y017830D01*
X018543Y017929D02*
X018759Y017929D01*
X018720Y018027D02*
X018582Y018027D01*
X018582Y018126D02*
X018720Y018126D01*
X018720Y018224D02*
X018582Y018224D01*
X018582Y018323D02*
X018720Y018323D01*
X018720Y018421D02*
X018582Y018421D01*
X018582Y018520D02*
X018720Y018520D01*
X018720Y018618D02*
X018582Y018618D01*
X018582Y018717D02*
X018720Y018717D01*
X018730Y018815D02*
X018573Y018815D01*
X018532Y018914D02*
X018771Y018914D01*
X018847Y019012D02*
X018455Y019012D01*
X017847Y019012D02*
X017483Y019012D01*
X017551Y018914D02*
X017771Y018914D01*
X017730Y018815D02*
X017589Y018815D01*
X017601Y018717D02*
X017720Y018717D01*
X017720Y018618D02*
X017601Y018618D01*
X017601Y018520D02*
X017720Y018520D01*
X016952Y019111D02*
X016351Y019111D01*
X016201Y019111D02*
X016101Y019111D01*
X016101Y019012D02*
X016201Y019012D01*
X016201Y018914D02*
X016101Y018914D01*
X016101Y018815D02*
X016201Y018815D01*
X016201Y018717D02*
X016101Y018717D01*
X016101Y018618D02*
X016201Y018618D01*
X016601Y018618D02*
X016701Y018618D01*
X016701Y018520D02*
X016601Y018520D01*
X016601Y018717D02*
X016701Y018717D01*
X016713Y018815D02*
X016589Y018815D01*
X016551Y018914D02*
X016751Y018914D01*
X016820Y019012D02*
X016483Y019012D01*
X015952Y019111D02*
X015303Y019111D01*
X015455Y019012D02*
X015820Y019012D01*
X015751Y018914D02*
X015532Y018914D01*
X015573Y018815D02*
X015713Y018815D01*
X015701Y018717D02*
X015582Y018717D01*
X015582Y018618D02*
X015701Y018618D01*
X015701Y018520D02*
X015582Y018520D01*
X015151Y018407D02*
X015108Y018377D01*
X014684Y017796D01*
X014233Y017796D01*
X014104Y017797D01*
X014514Y017436D02*
X015520Y017436D01*
X015520Y017338D02*
X012029Y017338D01*
X012029Y017436D02*
X013694Y017436D01*
X013554Y017535D02*
X012029Y017535D01*
X012029Y017633D02*
X013489Y017633D01*
X013453Y017732D02*
X012029Y017732D01*
X012029Y017830D02*
X013453Y017830D01*
X013476Y017929D02*
X012029Y017929D01*
X012029Y018027D02*
X013522Y018027D01*
X013620Y018126D02*
X012029Y018126D01*
X012029Y018224D02*
X014720Y018224D01*
X014720Y018323D02*
X012029Y018323D01*
X012029Y018421D02*
X014720Y018421D01*
X014720Y018520D02*
X012029Y018520D01*
X012029Y018618D02*
X014720Y018618D01*
X014720Y018717D02*
X012029Y018717D01*
X012029Y018815D02*
X014730Y018815D01*
X014771Y018914D02*
X012029Y018914D01*
X012029Y019012D02*
X014847Y019012D01*
X015000Y019111D02*
X012029Y019111D01*
X012029Y019194D02*
X027383Y019155D01*
X027354Y012897D01*
X027344Y012917D01*
X027350Y015666D01*
X027365Y015701D01*
X027350Y015738D01*
X027351Y015777D01*
X027324Y015804D01*
X027309Y015840D01*
X027273Y015855D01*
X027245Y015883D01*
X027207Y015883D01*
X027081Y015936D01*
X027081Y016138D01*
X027005Y016215D01*
X026463Y016215D01*
X026410Y016161D01*
X026401Y016176D01*
X026373Y016204D01*
X026339Y016224D01*
X026301Y016234D01*
X026113Y016234D01*
X026113Y015936D01*
X026016Y015936D01*
X026016Y016234D01*
X025832Y016234D01*
X025832Y016289D01*
X026016Y016289D01*
X026016Y016587D01*
X026113Y016587D01*
X026113Y016289D01*
X026301Y016289D01*
X026339Y016299D01*
X026373Y016319D01*
X026401Y016346D01*
X026410Y016361D01*
X026463Y016308D01*
X027005Y016308D01*
X027081Y016384D01*
X027081Y016886D01*
X027005Y016963D01*
X026773Y016963D01*
X026754Y017017D01*
X027005Y017017D01*
X027081Y017093D01*
X027081Y017595D01*
X027005Y017672D01*
X027043Y017633D02*
X027376Y017633D01*
X027376Y017535D02*
X027081Y017535D01*
X027081Y017436D02*
X027376Y017436D01*
X027375Y017338D02*
X027081Y017338D01*
X027081Y017239D02*
X027375Y017239D01*
X027374Y017141D02*
X027081Y017141D01*
X027030Y017042D02*
X027374Y017042D01*
X027373Y016944D02*
X027024Y016944D01*
X027081Y016845D02*
X027373Y016845D01*
X027372Y016747D02*
X027081Y016747D01*
X027081Y016648D02*
X027372Y016648D01*
X027371Y016550D02*
X027081Y016550D01*
X027081Y016451D02*
X027371Y016451D01*
X027370Y016353D02*
X027049Y016353D01*
X027019Y016268D02*
X026732Y016256D01*
X026053Y016256D01*
X026053Y016252D01*
X026053Y016155D01*
X026016Y016156D02*
X026113Y016156D01*
X026113Y016057D02*
X026016Y016057D01*
X026016Y015959D02*
X026113Y015959D01*
X026113Y015839D02*
X026113Y015541D01*
X026301Y015541D01*
X026339Y015551D01*
X026373Y015571D01*
X026401Y015598D01*
X026410Y015613D01*
X026463Y015560D01*
X026989Y015560D01*
X026988Y015467D01*
X026463Y015467D01*
X026410Y015413D01*
X026401Y015428D01*
X026373Y015456D01*
X026339Y015476D01*
X026301Y015486D01*
X026113Y015486D01*
X026113Y015188D01*
X026016Y015188D01*
X026016Y015486D01*
X025832Y015486D01*
X025832Y015541D01*
X026016Y015541D01*
X026016Y015839D01*
X026113Y015839D01*
X026113Y015762D02*
X026016Y015762D01*
X026016Y015663D02*
X026113Y015663D01*
X026113Y015565D02*
X026016Y015565D01*
X026016Y015466D02*
X026113Y015466D01*
X026113Y015368D02*
X026016Y015368D01*
X026016Y015269D02*
X026113Y015269D01*
X026113Y015072D02*
X026016Y015072D01*
X026016Y014974D02*
X026113Y014974D01*
X026113Y014875D02*
X026016Y014875D01*
X026004Y014777D02*
X025832Y014777D01*
X025832Y014678D02*
X025939Y014678D01*
X025913Y014580D02*
X025832Y014580D01*
X025800Y014481D02*
X025914Y014481D01*
X025955Y014383D02*
X025538Y014383D01*
X025651Y014588D02*
X025086Y014588D01*
X025021Y014602D01*
X025021Y015102D02*
X025297Y015139D01*
X025297Y015376D01*
X025021Y015846D02*
X024941Y015867D01*
X024540Y015860D01*
X024112Y015860D01*
X024179Y016409D02*
X023669Y017313D01*
X023044Y017313D01*
X023522Y017535D02*
X024474Y017535D01*
X024457Y017436D02*
X024301Y017436D01*
X024167Y017436D02*
X023807Y017436D01*
X023863Y017338D02*
X023999Y017338D01*
X023932Y017239D02*
X023918Y017239D01*
X024234Y017108D02*
X024391Y016911D01*
X024771Y016885D01*
X025021Y016846D01*
X025559Y016885D01*
X025651Y016557D01*
X025651Y014588D01*
X026242Y014549D02*
X026399Y014746D01*
X026576Y014883D01*
X026734Y015139D01*
X026462Y015466D02*
X026356Y015466D01*
X026363Y015565D02*
X026458Y015565D01*
X026734Y015887D02*
X027170Y015703D01*
X027163Y012874D01*
X027045Y012515D01*
X026677Y012343D01*
X026454Y012186D01*
X026016Y012198D01*
X026151Y012062D01*
X026151Y011399D01*
X026582Y011428D02*
X027348Y011428D01*
X027348Y011526D02*
X026582Y011526D01*
X026582Y011625D02*
X027349Y011625D01*
X027349Y011723D02*
X026582Y011723D01*
X026582Y011785D02*
X026516Y011943D01*
X026458Y012002D01*
X026497Y011995D01*
X026509Y012004D01*
X026524Y012003D01*
X026569Y012046D01*
X026768Y012186D01*
X027057Y012321D01*
X027060Y012320D01*
X027124Y012352D01*
X027189Y012383D01*
X027190Y012386D01*
X027193Y012387D01*
X027216Y012456D01*
X027240Y012523D01*
X027239Y012526D01*
X027321Y012777D01*
X027344Y012799D01*
X027344Y012845D01*
X027354Y012877D01*
X027344Y010651D01*
X025233Y010657D01*
X025257Y010660D01*
X025324Y010682D01*
X025387Y010714D01*
X025444Y010756D01*
X025494Y010806D01*
X025536Y010863D01*
X025568Y010926D01*
X025590Y010994D01*
X025601Y011064D01*
X025601Y011349D01*
X025201Y011349D01*
X025201Y011449D01*
X025601Y011449D01*
X025601Y011735D01*
X025590Y011805D01*
X025568Y011872D01*
X025536Y011935D01*
X025494Y011992D01*
X025444Y012042D01*
X025411Y012067D01*
X025452Y012072D01*
X025644Y012032D01*
X025659Y012017D01*
X025715Y012017D01*
X025770Y012005D01*
X025787Y012017D01*
X025860Y012017D01*
X025786Y011943D01*
X025720Y011785D01*
X025720Y011014D01*
X025786Y010855D01*
X025907Y010734D01*
X026066Y010669D01*
X026237Y010669D01*
X026395Y010734D01*
X026516Y010855D01*
X026582Y011014D01*
X026582Y011785D01*
X026567Y011822D02*
X027350Y011822D01*
X027350Y011920D02*
X026526Y011920D01*
X026540Y012019D02*
X027350Y012019D01*
X027351Y012117D02*
X026670Y012117D01*
X026830Y012216D02*
X027351Y012216D01*
X027352Y012314D02*
X027042Y012314D01*
X027202Y012413D02*
X027352Y012413D01*
X027353Y012511D02*
X027236Y012511D01*
X027266Y012610D02*
X027353Y012610D01*
X027354Y012708D02*
X027299Y012708D01*
X027344Y012807D02*
X027354Y012807D01*
X027350Y012905D02*
X027355Y012905D01*
X027344Y013004D02*
X027355Y013004D01*
X027344Y013102D02*
X027355Y013102D01*
X027345Y013201D02*
X027356Y013201D01*
X027345Y013299D02*
X027356Y013299D01*
X027345Y013398D02*
X027357Y013398D01*
X027345Y013496D02*
X027357Y013496D01*
X027346Y013595D02*
X027358Y013595D01*
X027346Y013693D02*
X027358Y013693D01*
X027346Y013792D02*
X027359Y013792D01*
X027346Y013890D02*
X027359Y013890D01*
X027346Y013989D02*
X027360Y013989D01*
X027347Y014087D02*
X027360Y014087D01*
X027347Y014186D02*
X027360Y014186D01*
X027347Y014284D02*
X027361Y014284D01*
X027347Y014383D02*
X027361Y014383D01*
X027348Y014481D02*
X027362Y014481D01*
X027348Y014580D02*
X027362Y014580D01*
X027348Y014678D02*
X027363Y014678D01*
X027363Y014777D02*
X027348Y014777D01*
X027348Y014875D02*
X027364Y014875D01*
X027364Y014974D02*
X027349Y014974D01*
X027349Y015072D02*
X027365Y015072D01*
X027365Y015171D02*
X027349Y015171D01*
X027349Y015269D02*
X027365Y015269D01*
X027366Y015368D02*
X027350Y015368D01*
X027350Y015466D02*
X027366Y015466D01*
X027367Y015565D02*
X027350Y015565D01*
X027350Y015663D02*
X027367Y015663D01*
X027368Y015762D02*
X027351Y015762D01*
X027368Y015860D02*
X027268Y015860D01*
X027369Y015959D02*
X027081Y015959D01*
X027081Y016057D02*
X027369Y016057D01*
X027370Y016156D02*
X027064Y016156D01*
X027370Y016254D02*
X025832Y016254D01*
X026016Y016353D02*
X026113Y016353D01*
X026113Y016451D02*
X026016Y016451D01*
X026016Y016550D02*
X026113Y016550D01*
X026065Y016635D02*
X026053Y016252D01*
X026405Y016353D02*
X026419Y016353D01*
X026725Y016539D02*
X026734Y016635D01*
X026725Y016539D02*
X026607Y016889D01*
X026104Y017116D01*
X026065Y017344D01*
X025974Y017324D01*
X025661Y017364D01*
X025021Y017346D01*
X025101Y017732D02*
X025201Y017732D01*
X025201Y017830D02*
X025101Y017830D01*
X025101Y017929D02*
X025201Y017929D01*
X025201Y018027D02*
X025101Y018027D01*
X025101Y018126D02*
X025201Y018126D01*
X025201Y018224D02*
X025101Y018224D01*
X025101Y018323D02*
X025201Y018323D01*
X025161Y018393D02*
X025151Y018407D01*
X025161Y018393D02*
X025164Y018395D01*
X025201Y018421D02*
X025720Y018421D01*
X025720Y018323D02*
X025601Y018323D01*
X025601Y018224D02*
X025720Y018224D01*
X025720Y018126D02*
X025601Y018126D01*
X025594Y018027D02*
X025720Y018027D01*
X025759Y017929D02*
X025565Y017929D01*
X025506Y017830D02*
X025819Y017830D01*
X025932Y017732D02*
X025400Y017732D01*
X025755Y017633D02*
X014789Y017633D01*
X014865Y017732D02*
X014932Y017732D01*
X014654Y017535D02*
X015578Y017535D01*
X015520Y017141D02*
X014588Y017141D01*
X014579Y017148D02*
X014521Y017177D01*
X014460Y017197D01*
X014396Y017207D01*
X014134Y017207D01*
X014134Y016827D01*
X014774Y016827D01*
X014774Y016829D01*
X014764Y016893D01*
X014744Y016954D01*
X014715Y017012D01*
X014677Y017064D01*
X014631Y017110D01*
X014579Y017148D01*
X014693Y017042D02*
X015520Y017042D01*
X015520Y016944D02*
X014747Y016944D01*
X014771Y016845D02*
X015531Y016845D01*
X015501Y016747D02*
X014771Y016747D01*
X014747Y016648D02*
X015501Y016648D01*
X015848Y016537D02*
X014246Y016537D01*
X014104Y016797D01*
X014074Y016845D02*
X014134Y016845D01*
X014134Y016747D02*
X014074Y016747D01*
X014074Y016648D02*
X014134Y016648D01*
X014134Y016550D02*
X014074Y016550D01*
X014074Y016451D02*
X014134Y016451D01*
X014134Y016944D02*
X014074Y016944D01*
X014074Y017042D02*
X014134Y017042D01*
X014134Y017141D02*
X014074Y017141D01*
X014588Y018126D02*
X014701Y018126D01*
X016205Y017257D02*
X016420Y017257D01*
X016420Y016861D01*
X016195Y016619D02*
X016233Y016581D01*
X016354Y016530D01*
X016486Y016530D01*
X016607Y016581D01*
X016682Y016655D01*
X016682Y016286D01*
X016753Y016215D01*
X016424Y016215D01*
X016370Y016161D01*
X016362Y016176D01*
X016334Y016204D01*
X016300Y016224D01*
X016261Y016234D01*
X016168Y016234D01*
X016185Y016263D01*
X016195Y016301D01*
X016195Y016489D01*
X015896Y016489D01*
X015896Y016585D01*
X016195Y016585D01*
X016195Y016619D01*
X016308Y016550D02*
X015896Y016550D01*
X016195Y016451D02*
X016682Y016451D01*
X016682Y016353D02*
X016195Y016353D01*
X016180Y016254D02*
X016714Y016254D01*
X016682Y016550D02*
X016532Y016550D01*
X016675Y016648D02*
X016682Y016648D01*
X017029Y016537D02*
X017029Y016045D01*
X016911Y015927D01*
X017029Y017206D02*
X017198Y017257D01*
X016420Y017257D01*
X016400Y017732D02*
X016902Y017732D01*
X016796Y017830D02*
X016506Y017830D01*
X016565Y017929D02*
X016737Y017929D01*
X016708Y018027D02*
X016594Y018027D01*
X016601Y018126D02*
X016701Y018126D01*
X016701Y018224D02*
X016601Y018224D01*
X016601Y018323D02*
X016701Y018323D01*
X018241Y016156D02*
X018337Y016156D01*
X018337Y016057D02*
X018241Y016057D01*
X020651Y016143D02*
X020702Y016161D01*
X021848Y015368D02*
X022013Y015368D01*
X023824Y014284D02*
X023861Y014284D01*
X023884Y014186D02*
X023824Y014186D01*
X023824Y014087D02*
X023900Y014087D01*
X023916Y013989D02*
X023824Y013989D01*
X023824Y013890D02*
X023931Y013890D01*
X023947Y013792D02*
X023824Y013792D01*
X023824Y013693D02*
X023963Y013693D01*
X023979Y013595D02*
X023824Y013595D01*
X023824Y013496D02*
X023995Y013496D01*
X023921Y013398D02*
X023824Y013398D01*
X023824Y013299D02*
X023847Y013299D01*
X023847Y013201D02*
X023824Y013201D01*
X023824Y013102D02*
X023847Y013102D01*
X023847Y013004D02*
X023824Y013004D01*
X023824Y012905D02*
X023847Y012905D01*
X023862Y012807D02*
X023824Y012807D01*
X023824Y012708D02*
X023901Y012708D01*
X023847Y012610D02*
X023824Y012610D01*
X023824Y012511D02*
X023847Y012511D01*
X023847Y012413D02*
X023824Y012413D01*
X023824Y012314D02*
X023847Y012314D01*
X023847Y012216D02*
X023824Y012216D01*
X023790Y012117D02*
X023882Y012117D01*
X023861Y012019D02*
X023441Y012019D01*
X023526Y011920D02*
X023776Y011920D01*
X023736Y011822D02*
X023567Y011822D01*
X023582Y011723D02*
X023720Y011723D01*
X023720Y011625D02*
X023582Y011625D01*
X023582Y011526D02*
X023720Y011526D01*
X023720Y011428D02*
X023582Y011428D01*
X023582Y011329D02*
X023720Y011329D01*
X023720Y011231D02*
X023582Y011231D01*
X023582Y011132D02*
X023720Y011132D01*
X023720Y011034D02*
X023582Y011034D01*
X023549Y010935D02*
X023753Y010935D01*
X023805Y010837D02*
X023498Y010837D01*
X023399Y010738D02*
X023903Y010738D01*
X024399Y010738D02*
X024883Y010738D01*
X024786Y010837D02*
X024498Y010837D01*
X024549Y010935D02*
X024731Y010935D01*
X024706Y011034D02*
X024582Y011034D01*
X024582Y011132D02*
X024701Y011132D01*
X024701Y011231D02*
X024582Y011231D01*
X024582Y011329D02*
X024701Y011329D01*
X024582Y011428D02*
X025101Y011428D01*
X025201Y011428D02*
X025720Y011428D01*
X025720Y011526D02*
X025601Y011526D01*
X025601Y011625D02*
X025720Y011625D01*
X025720Y011723D02*
X025601Y011723D01*
X025585Y011822D02*
X025736Y011822D01*
X025776Y011920D02*
X025544Y011920D01*
X025468Y012019D02*
X025657Y012019D01*
X025734Y012197D02*
X026016Y012198D01*
X025734Y012197D02*
X025361Y012276D01*
X025460Y012256D01*
X025358Y012334D01*
X025297Y012403D01*
X024950Y012413D02*
X024926Y012413D01*
X024950Y012314D02*
X024853Y012314D01*
X024950Y012216D02*
X024755Y012216D01*
X024588Y012305D02*
X024214Y012305D01*
X024214Y011462D01*
X024151Y011399D01*
X024582Y011526D02*
X024701Y011526D01*
X024701Y011625D02*
X024582Y011625D01*
X024582Y011723D02*
X024701Y011723D01*
X024718Y011822D02*
X024567Y011822D01*
X024526Y011920D02*
X024759Y011920D01*
X024834Y012019D02*
X024441Y012019D01*
X024507Y012117D02*
X024981Y012117D01*
X024746Y012462D02*
X024588Y012305D01*
X024746Y012462D02*
X024746Y012698D01*
X024623Y013004D02*
X024542Y013004D01*
X024194Y013072D02*
X024176Y013015D01*
X024216Y013261D01*
X024003Y014583D01*
X022962Y013299D02*
X022727Y013299D01*
X022515Y013201D02*
X023030Y013201D01*
X024194Y012403D02*
X024214Y012305D01*
X025601Y011329D02*
X025720Y011329D01*
X025720Y011231D02*
X025601Y011231D01*
X025601Y011132D02*
X025720Y011132D01*
X025720Y011034D02*
X025596Y011034D01*
X025571Y010935D02*
X025753Y010935D01*
X025805Y010837D02*
X025517Y010837D01*
X025420Y010738D02*
X025903Y010738D01*
X026399Y010738D02*
X027344Y010738D01*
X027345Y010837D02*
X026498Y010837D01*
X026549Y010935D02*
X027345Y010935D01*
X027346Y011034D02*
X026582Y011034D01*
X026582Y011132D02*
X027346Y011132D01*
X027347Y011231D02*
X026582Y011231D01*
X026582Y011329D02*
X027347Y011329D01*
X026734Y013131D02*
X026734Y013919D01*
X026754Y014096D01*
X026754Y014431D01*
X025021Y016346D02*
X024941Y016409D01*
X024179Y016409D01*
X023614Y017042D02*
X023514Y017042D01*
X023370Y017732D02*
X023932Y017732D01*
X023819Y017830D02*
X023483Y017830D01*
X023543Y017929D02*
X023759Y017929D01*
X023720Y018027D02*
X023582Y018027D01*
X023582Y018126D02*
X023720Y018126D01*
X023720Y018224D02*
X023582Y018224D01*
X023582Y018323D02*
X023720Y018323D01*
X023720Y018421D02*
X023582Y018421D01*
X023582Y018520D02*
X023720Y018520D01*
X023720Y018618D02*
X023582Y018618D01*
X023582Y018717D02*
X023720Y018717D01*
X023730Y018815D02*
X023573Y018815D01*
X023532Y018914D02*
X023771Y018914D01*
X023847Y019012D02*
X023455Y019012D01*
X024455Y019012D02*
X024820Y019012D01*
X024751Y018914D02*
X024532Y018914D01*
X024573Y018815D02*
X024713Y018815D01*
X024701Y018717D02*
X024582Y018717D01*
X024582Y018618D02*
X024701Y018618D01*
X024701Y018520D02*
X024582Y018520D01*
X024582Y018421D02*
X025101Y018421D01*
X025257Y018513D02*
X025257Y020297D01*
X024824Y020691D01*
X025757Y020691D01*
X024824Y020691D02*
X024757Y020691D01*
X025351Y019111D02*
X026000Y019111D01*
X025847Y019012D02*
X025483Y019012D01*
X025551Y018914D02*
X025771Y018914D01*
X025730Y018815D02*
X025589Y018815D01*
X025601Y018717D02*
X025720Y018717D01*
X025720Y018618D02*
X025601Y018618D01*
X025601Y018520D02*
X025720Y018520D01*
X026151Y018407D02*
X026155Y017712D01*
X026489Y017693D01*
X026686Y017246D01*
X026734Y017344D01*
X026672Y017732D02*
X027377Y017732D01*
X027377Y017830D02*
X026626Y017830D01*
X026543Y017929D02*
X027378Y017929D01*
X027378Y018027D02*
X026582Y018027D01*
X026582Y018126D02*
X027379Y018126D01*
X027379Y018224D02*
X026582Y018224D01*
X026582Y018323D02*
X027380Y018323D01*
X027380Y018421D02*
X026582Y018421D01*
X026582Y018520D02*
X027381Y018520D01*
X027381Y018618D02*
X026582Y018618D01*
X026582Y018717D02*
X027381Y018717D01*
X027382Y018815D02*
X026573Y018815D01*
X026532Y018914D02*
X027382Y018914D01*
X027383Y019012D02*
X026455Y019012D01*
X026303Y019111D02*
X027383Y019111D01*
X024701Y018323D02*
X024582Y018323D01*
X024582Y018224D02*
X024701Y018224D01*
X024701Y018126D02*
X024582Y018126D01*
X024582Y018027D02*
X024708Y018027D01*
X024737Y017929D02*
X024543Y017929D01*
X024483Y017830D02*
X024796Y017830D01*
X024902Y017732D02*
X024370Y017732D01*
X022426Y017535D02*
X021945Y017535D01*
X021723Y013595D02*
X021626Y013595D01*
X021666Y013496D02*
X021684Y013496D01*
X021684Y013398D02*
X021666Y013398D01*
X021666Y013299D02*
X021684Y013299D01*
X021684Y013201D02*
X021666Y013201D01*
X021426Y012117D02*
X021321Y012117D01*
X021468Y012019D02*
X021481Y012019D01*
X021544Y011920D02*
X021776Y011920D01*
X021736Y011822D02*
X021585Y011822D01*
X021601Y011723D02*
X021720Y011723D01*
X021720Y011625D02*
X021601Y011625D01*
X021601Y011526D02*
X021720Y011526D01*
X014883Y010738D02*
X012029Y010738D01*
X012029Y010837D02*
X014786Y010837D01*
X014731Y010935D02*
X012029Y010935D01*
X012029Y011034D02*
X014706Y011034D01*
X014701Y011132D02*
X012029Y011132D01*
X012029Y011231D02*
X014701Y011231D01*
X014701Y011329D02*
X012029Y011329D01*
D20*
X017423Y013722D03*
X017423Y014509D03*
X018958Y014588D03*
X019549Y014628D03*
X020533Y014628D03*
X021202Y014785D03*
X021202Y016163D03*
X022187Y015848D03*
X024234Y017108D03*
X025297Y015376D03*
X026242Y014549D03*
X026754Y014431D03*
X024746Y012698D03*
X025887Y012580D03*
X022187Y013368D03*
X018958Y015494D03*
X017817Y016911D03*
X026911Y017974D03*
D21*
X024112Y015860D03*
X024003Y014583D03*
X020611Y013844D03*
X018832Y016247D03*
X020627Y016928D03*
X016420Y016861D03*
X015269Y015932D03*
M02*
