G75*
%MOIN*%
%OFA0B0*%
%FSLAX24Y24*%
%IPPOS*%
%LPD*%
%AMOC8*
5,1,8,0,0,1.08239X$1,22.5*
%
%ADD10C,0.0020*%
%ADD11C,0.0520*%
%ADD12C,0.0600*%
%ADD13OC8,0.0520*%
%ADD14C,0.0396*%
%ADD15C,0.0100*%
%ADD16C,0.0400*%
D10*
X012350Y012809D02*
X012350Y012919D01*
X012387Y012955D01*
X012460Y012955D01*
X012497Y012919D01*
X012497Y012809D01*
X012571Y012809D02*
X012350Y012809D01*
X012350Y013030D02*
X012497Y013030D01*
X012497Y013103D02*
X012497Y013140D01*
X012497Y013103D02*
X012424Y013030D01*
X012387Y013214D02*
X012424Y013250D01*
X012424Y013361D01*
X012460Y013361D02*
X012350Y013361D01*
X012350Y013250D01*
X012387Y013214D01*
X012497Y013250D02*
X012497Y013324D01*
X012460Y013361D01*
X012497Y013435D02*
X012497Y013471D01*
X012350Y013471D01*
X012350Y013435D02*
X012350Y013508D01*
X012350Y013582D02*
X012497Y013582D01*
X012497Y013692D01*
X012460Y013729D01*
X012350Y013729D01*
X012460Y013803D02*
X012460Y013950D01*
X012460Y014024D02*
X012497Y014061D01*
X012497Y014171D01*
X012571Y014171D02*
X012350Y014171D01*
X012350Y014061D01*
X012387Y014024D01*
X012460Y014024D01*
X012497Y014245D02*
X012387Y014245D01*
X012350Y014282D01*
X012350Y014392D01*
X012497Y014392D01*
X012497Y014466D02*
X012497Y014503D01*
X012350Y014503D01*
X012350Y014539D02*
X012350Y014466D01*
X012350Y014613D02*
X012497Y014613D01*
X012497Y014723D01*
X012460Y014760D01*
X012350Y014760D01*
X012387Y014834D02*
X012350Y014871D01*
X012350Y014944D01*
X012387Y014981D01*
X012460Y014981D01*
X012497Y014944D01*
X012497Y014871D01*
X012460Y014834D01*
X012387Y014834D01*
X012460Y015055D02*
X012460Y015202D01*
X012460Y015276D02*
X012460Y015386D01*
X012424Y015423D01*
X012387Y015423D01*
X012350Y015386D01*
X012350Y015276D01*
X012571Y015276D01*
X012571Y015386D01*
X012534Y015423D01*
X012497Y015423D01*
X012460Y015386D01*
X012460Y015497D02*
X012460Y015644D01*
X012424Y015718D02*
X012350Y015792D01*
X012424Y015865D01*
X012571Y015865D01*
X012534Y015939D02*
X012571Y015976D01*
X012571Y016049D01*
X012534Y016086D01*
X012387Y015939D01*
X012350Y015976D01*
X012350Y016049D01*
X012387Y016086D01*
X012534Y016086D01*
X012534Y015939D02*
X012387Y015939D01*
X012387Y016160D02*
X012387Y016197D01*
X012350Y016197D01*
X012350Y016160D01*
X012387Y016160D01*
X012350Y016271D02*
X012350Y016418D01*
X012350Y016344D02*
X012571Y016344D01*
X012497Y016271D01*
X012460Y016492D02*
X012460Y016639D01*
X012497Y016713D02*
X012497Y016749D01*
X012460Y016786D01*
X012497Y016823D01*
X012460Y016860D01*
X012350Y016860D01*
X012350Y016934D02*
X012571Y016934D01*
X012497Y017044D02*
X012424Y016934D01*
X012350Y017044D01*
X012350Y016786D02*
X012460Y016786D01*
X012497Y016713D02*
X012350Y016713D01*
X012424Y015718D02*
X012571Y015718D01*
X012607Y014503D02*
X012571Y014503D01*
X012607Y013471D02*
X012571Y013471D01*
D11*
X013844Y013797D02*
X014364Y013797D01*
X014364Y014797D02*
X013844Y014797D01*
X013844Y016797D02*
X014364Y016797D01*
X014364Y017797D02*
X013844Y017797D01*
X013844Y012797D02*
X014364Y012797D01*
D12*
X015151Y011699D02*
X015151Y011099D01*
X016151Y011099D02*
X016151Y011699D01*
X017151Y011699D02*
X017151Y011099D01*
X018151Y011099D02*
X018151Y011699D01*
X019151Y011699D02*
X019151Y011099D01*
X020151Y011099D02*
X020151Y011699D01*
X021151Y011699D02*
X021151Y011099D01*
X022151Y011099D02*
X022151Y011699D01*
X023151Y011699D02*
X023151Y011099D01*
X024151Y011099D02*
X024151Y011699D01*
X025151Y011699D02*
X025151Y011099D01*
X026151Y011099D02*
X026151Y011699D01*
X026151Y018107D02*
X026151Y018707D01*
X025151Y018707D02*
X025151Y018107D01*
X024151Y018107D02*
X024151Y018707D01*
X023151Y018707D02*
X023151Y018107D01*
X022151Y018107D02*
X022151Y018707D01*
X021151Y018707D02*
X021151Y018107D01*
X020151Y018107D02*
X020151Y018707D01*
X019151Y018707D02*
X019151Y018107D01*
X018151Y018107D02*
X018151Y018707D01*
X017151Y018707D02*
X017151Y018107D01*
X016151Y018107D02*
X016151Y018707D01*
X015151Y018707D02*
X015151Y018107D01*
D13*
X024757Y019691D03*
X024757Y020691D03*
X024757Y021691D03*
X025757Y021691D03*
X025757Y020691D03*
X025757Y019691D03*
D14*
X026911Y017974D03*
X024234Y017108D03*
X025297Y015376D03*
X026242Y014549D03*
X026754Y014431D03*
X024746Y012698D03*
X025887Y012580D03*
X022187Y013368D03*
X021202Y014785D03*
X020533Y014628D03*
X019549Y014628D03*
X018958Y014588D03*
X018958Y015494D03*
X017423Y014509D03*
X017423Y013722D03*
X017817Y016911D03*
X021202Y016163D03*
X022187Y015848D03*
D15*
X012029Y019194D02*
X012029Y010691D01*
X014977Y010683D01*
X014915Y010714D01*
X014858Y010756D01*
X014808Y010806D01*
X014766Y010863D01*
X014734Y010926D01*
X014712Y010994D01*
X014701Y011064D01*
X014701Y011349D01*
X015101Y011349D01*
X015101Y011449D01*
X014701Y011449D01*
X014701Y011735D01*
X014712Y011805D01*
X014734Y011872D01*
X014766Y011935D01*
X014808Y011992D01*
X014821Y012006D01*
X013702Y012006D01*
X013648Y011994D01*
X013630Y012006D01*
X013608Y012006D01*
X013569Y012045D01*
X013078Y012360D01*
X013057Y012360D01*
X013017Y012399D01*
X012971Y012429D01*
X012966Y012451D01*
X012951Y012466D01*
X012951Y012522D01*
X012939Y012576D01*
X012951Y012594D01*
X012951Y015332D01*
X013057Y015438D01*
X014644Y015438D01*
X014644Y016497D01*
X014631Y016484D01*
X014579Y016446D01*
X014521Y016417D01*
X014460Y016397D01*
X014396Y016387D01*
X014134Y016387D01*
X014134Y016767D01*
X014074Y016767D01*
X013434Y016767D01*
X013434Y016765D01*
X013444Y016701D01*
X013464Y016639D01*
X013493Y016582D01*
X013531Y016530D01*
X013577Y016484D01*
X013629Y016446D01*
X013687Y016417D01*
X013748Y016397D01*
X013812Y016387D01*
X014074Y016387D01*
X014074Y016767D01*
X014074Y016827D01*
X014074Y017207D01*
X013812Y017207D01*
X013748Y017197D01*
X013687Y017177D01*
X013629Y017148D01*
X013577Y017110D01*
X013531Y017064D01*
X013493Y017012D01*
X013464Y016954D01*
X013444Y016893D01*
X013434Y016829D01*
X013434Y016827D01*
X014074Y016827D01*
X014134Y016827D01*
X014134Y017207D01*
X014396Y017207D01*
X014460Y017197D01*
X014521Y017177D01*
X014579Y017148D01*
X014631Y017110D01*
X014644Y017097D01*
X014644Y017524D01*
X014585Y017466D01*
X014442Y017406D01*
X013766Y017406D01*
X013623Y017466D01*
X013513Y017576D01*
X013453Y017719D01*
X013453Y017875D01*
X013513Y018018D01*
X013623Y018128D01*
X013766Y018188D01*
X014442Y018188D01*
X014585Y018128D01*
X014644Y018070D01*
X014644Y018470D01*
X014720Y018547D01*
X014720Y018793D01*
X014786Y018951D01*
X014907Y019072D01*
X015066Y019138D01*
X015237Y019138D01*
X015395Y019072D01*
X015516Y018951D01*
X015582Y018793D01*
X015582Y018021D01*
X015516Y017863D01*
X015395Y017742D01*
X015237Y017676D01*
X015066Y017676D01*
X015005Y017701D01*
X015005Y016136D01*
X015081Y016212D01*
X015203Y016262D01*
X015334Y016262D01*
X015456Y016212D01*
X015549Y016119D01*
X015551Y016115D01*
X016239Y016121D01*
X016239Y016578D01*
X016233Y016581D01*
X016140Y016674D01*
X016089Y016795D01*
X016089Y016927D01*
X016140Y017048D01*
X016233Y017141D01*
X016258Y017152D01*
X016258Y017576D01*
X016364Y017682D01*
X016482Y017800D01*
X016821Y017800D01*
X016808Y017814D01*
X016766Y017871D01*
X016734Y017934D01*
X016712Y018002D01*
X016701Y018072D01*
X016701Y018357D01*
X017101Y018357D01*
X017101Y018457D01*
X016701Y018457D01*
X016701Y018743D01*
X016712Y018812D01*
X016734Y018880D01*
X016766Y018943D01*
X016808Y019000D01*
X016858Y019050D01*
X016915Y019092D01*
X016978Y019124D01*
X017046Y019146D01*
X017101Y019155D01*
X017101Y018457D01*
X017201Y018457D01*
X017201Y019155D01*
X017257Y019146D01*
X017324Y019124D01*
X017387Y019092D01*
X017444Y019050D01*
X017494Y019000D01*
X017536Y018943D01*
X017568Y018880D01*
X017590Y018812D01*
X017601Y018743D01*
X017601Y018457D01*
X017201Y018457D01*
X017201Y018357D01*
X017601Y018357D01*
X017601Y018072D01*
X017590Y018002D01*
X017568Y017934D01*
X017536Y017871D01*
X017494Y017814D01*
X017481Y017800D01*
X017781Y017800D01*
X017815Y017834D01*
X017786Y017863D01*
X017720Y018021D01*
X017720Y018793D01*
X017786Y018951D01*
X017907Y019072D01*
X018066Y019138D01*
X018237Y019138D01*
X018395Y019072D01*
X018516Y018951D01*
X018582Y018793D01*
X018582Y018021D01*
X018516Y017863D01*
X018395Y017742D01*
X018237Y017676D01*
X018168Y017676D01*
X018037Y017545D01*
X018017Y017525D01*
X023775Y017525D01*
X023822Y017539D01*
X023847Y017525D01*
X023876Y017525D01*
X023910Y017490D01*
X024077Y017399D01*
X024168Y017437D01*
X024299Y017437D01*
X024420Y017387D01*
X024513Y017294D01*
X024563Y017173D01*
X024563Y017042D01*
X024565Y017042D01*
X024563Y017042D02*
X024513Y016922D01*
X024420Y016829D01*
X024299Y016779D01*
X024168Y016779D01*
X024048Y016829D01*
X023955Y016922D01*
X023953Y016927D01*
X022684Y016927D01*
X022367Y016668D01*
X022367Y016129D01*
X022373Y016127D01*
X022465Y016034D01*
X022515Y015913D01*
X022515Y015783D01*
X022465Y015662D01*
X022373Y015569D01*
X022367Y015567D01*
X022367Y013649D01*
X022373Y013646D01*
X022465Y013554D01*
X022515Y013433D01*
X022515Y013302D01*
X022465Y013181D01*
X022373Y013089D01*
X022252Y013039D01*
X022121Y013039D01*
X022000Y013089D01*
X021908Y013181D01*
X021895Y013213D01*
X021895Y012891D01*
X022226Y012560D01*
X022226Y012560D01*
X022332Y012454D01*
X022332Y012091D01*
X022395Y012064D01*
X022516Y011943D01*
X022582Y011785D01*
X022582Y011014D01*
X022516Y010855D01*
X022395Y010734D01*
X022237Y010669D01*
X022066Y010669D01*
X021907Y010734D01*
X021786Y010855D01*
X021720Y011014D01*
X021720Y011785D01*
X021786Y011943D01*
X021907Y012064D01*
X021970Y012091D01*
X021970Y012305D01*
X021639Y012636D01*
X021639Y012636D01*
X021533Y012742D01*
X021533Y016415D01*
X021080Y016415D01*
X020123Y015458D01*
X020017Y015352D01*
X019256Y015352D01*
X019237Y015307D01*
X019145Y015215D01*
X019139Y015213D01*
X019139Y014869D01*
X019145Y014867D01*
X019237Y014774D01*
X019245Y014754D01*
X019270Y014814D01*
X019363Y014906D01*
X019483Y014956D01*
X019614Y014956D01*
X019735Y014906D01*
X019828Y014814D01*
X019830Y014808D01*
X020252Y014808D01*
X020254Y014814D01*
X020347Y014906D01*
X020468Y014956D01*
X020598Y014956D01*
X020719Y014906D01*
X020812Y014814D01*
X020862Y014693D01*
X020862Y014562D01*
X020812Y014441D01*
X020719Y014349D01*
X020598Y014299D01*
X020468Y014299D01*
X020347Y014349D01*
X020254Y014441D01*
X020252Y014447D01*
X019830Y014447D01*
X019828Y014441D01*
X019735Y014349D01*
X019614Y014299D01*
X019483Y014299D01*
X019363Y014349D01*
X019270Y014441D01*
X019262Y014461D01*
X019237Y014402D01*
X019145Y014309D01*
X019024Y014259D01*
X018893Y014259D01*
X018772Y014309D01*
X018680Y014402D01*
X018629Y014523D01*
X018629Y014654D01*
X018680Y014774D01*
X018772Y014867D01*
X018778Y014869D01*
X018778Y015213D01*
X018772Y015215D01*
X018680Y015307D01*
X018629Y015428D01*
X018629Y015559D01*
X018680Y015680D01*
X018772Y015772D01*
X018893Y015823D01*
X019024Y015823D01*
X019145Y015772D01*
X019203Y015714D01*
X019868Y015714D01*
X020746Y016592D01*
X020746Y016619D01*
X020693Y016597D01*
X020562Y016597D01*
X020440Y016648D01*
X020347Y016741D01*
X020344Y016747D01*
X019174Y016747D01*
X019086Y016461D01*
X019112Y016435D01*
X019163Y016313D01*
X019163Y016181D01*
X019112Y016060D01*
X019019Y015967D01*
X018898Y015917D01*
X018766Y015917D01*
X018645Y015967D01*
X018552Y016060D01*
X018501Y016181D01*
X018501Y016313D01*
X018552Y016435D01*
X018645Y016528D01*
X018741Y016568D01*
X018860Y016955D01*
X018860Y017003D01*
X018881Y017024D01*
X018889Y017053D01*
X018932Y017075D01*
X018966Y017109D01*
X018995Y017109D01*
X019022Y017123D01*
X019067Y017109D01*
X020344Y017109D01*
X020347Y017115D01*
X020395Y017163D01*
X018029Y017163D01*
X018095Y017097D01*
X018145Y016976D01*
X018145Y016846D01*
X018095Y016725D01*
X018003Y016632D01*
X017997Y016630D01*
X017997Y015183D01*
X017891Y015077D01*
X014637Y015077D01*
X014695Y015018D01*
X014711Y014980D01*
X015409Y014983D01*
X015412Y014986D01*
X015483Y014983D01*
X015555Y014984D01*
X015558Y014981D01*
X015562Y014981D01*
X015610Y014929D01*
X015661Y014878D01*
X015661Y014874D01*
X015687Y014847D01*
X015738Y014796D01*
X015738Y014793D01*
X015740Y014790D01*
X015738Y014718D01*
X015738Y014050D01*
X015946Y013359D01*
X017603Y013359D01*
X017603Y013359D01*
X017678Y013359D01*
X017753Y013359D01*
X017753Y013359D01*
X018844Y013357D01*
X018919Y013357D01*
X018994Y013357D01*
X018994Y013357D01*
X020383Y013355D01*
X020405Y013582D01*
X020331Y013656D01*
X020280Y013778D01*
X020280Y013909D01*
X020331Y014031D01*
X020424Y014124D01*
X020545Y014174D01*
X020677Y014174D01*
X020798Y014124D01*
X020891Y014031D01*
X020942Y013909D01*
X020942Y013778D01*
X020891Y013656D01*
X020798Y013563D01*
X020765Y013549D01*
X020729Y013166D01*
X020728Y013099D01*
X020722Y013092D01*
X020721Y013083D01*
X020669Y013040D01*
X020622Y012993D01*
X020613Y012993D01*
X020605Y012987D01*
X020539Y012994D01*
X019332Y012995D01*
X019332Y012091D01*
X019395Y012064D01*
X019516Y011943D01*
X019582Y011785D01*
X019582Y011014D01*
X019516Y010855D01*
X019395Y010734D01*
X019245Y010672D01*
X020016Y010670D01*
X019978Y010682D01*
X019915Y010714D01*
X019858Y010756D01*
X019808Y010806D01*
X019766Y010863D01*
X019734Y010926D01*
X019712Y010994D01*
X019701Y011064D01*
X019701Y011349D01*
X020101Y011349D01*
X020101Y011449D01*
X019701Y011449D01*
X019701Y011735D01*
X019712Y011805D01*
X019734Y011872D01*
X019766Y011935D01*
X019808Y011992D01*
X019858Y012042D01*
X019915Y012084D01*
X019978Y012116D01*
X020046Y012138D01*
X020101Y012147D01*
X020101Y011449D01*
X020201Y011449D01*
X020201Y012147D01*
X020257Y012138D01*
X020324Y012116D01*
X020387Y012084D01*
X020444Y012042D01*
X020494Y011992D01*
X020536Y011935D01*
X020568Y011872D01*
X020590Y011805D01*
X020601Y011735D01*
X020601Y011449D01*
X020201Y011449D01*
X020201Y011349D01*
X020601Y011349D01*
X020601Y011064D01*
X020590Y010994D01*
X020568Y010926D01*
X020536Y010863D01*
X020494Y010806D01*
X020444Y010756D01*
X020387Y010714D01*
X020324Y010682D01*
X020284Y010669D01*
X021024Y010667D01*
X020978Y010682D01*
X020915Y010714D01*
X020858Y010756D01*
X020808Y010806D01*
X020766Y010863D01*
X020734Y010926D01*
X020712Y010994D01*
X020701Y011064D01*
X020701Y011349D01*
X021101Y011349D01*
X021101Y011449D01*
X020701Y011449D01*
X020701Y011735D01*
X020712Y011805D01*
X020734Y011872D01*
X020766Y011935D01*
X020808Y011992D01*
X020858Y012042D01*
X020915Y012084D01*
X020978Y012116D01*
X021046Y012138D01*
X021101Y012147D01*
X021101Y011449D01*
X021201Y011449D01*
X021201Y012147D01*
X021257Y012138D01*
X021324Y012116D01*
X021387Y012084D01*
X021444Y012042D01*
X021494Y011992D01*
X021536Y011935D01*
X021568Y011872D01*
X021590Y011805D01*
X021601Y011735D01*
X021601Y011449D01*
X021201Y011449D01*
X021201Y011349D01*
X021601Y011349D01*
X021601Y011064D01*
X021590Y010994D01*
X021568Y010926D01*
X021536Y010863D01*
X021494Y010806D01*
X021444Y010756D01*
X021387Y010714D01*
X021324Y010682D01*
X021277Y010667D01*
X025066Y010657D01*
X025046Y010660D01*
X024978Y010682D01*
X024915Y010714D01*
X024858Y010756D01*
X024808Y010806D01*
X024766Y010863D01*
X024734Y010926D01*
X024712Y010994D01*
X024701Y011064D01*
X024701Y011349D01*
X025101Y011349D01*
X025101Y011449D01*
X024701Y011449D01*
X024701Y011735D01*
X024712Y011805D01*
X024734Y011872D01*
X024766Y011935D01*
X024808Y011992D01*
X024858Y012042D01*
X024862Y012045D01*
X024414Y012045D01*
X024516Y011943D01*
X024582Y011785D01*
X024582Y011014D01*
X024516Y010855D01*
X024395Y010734D01*
X024237Y010669D01*
X024066Y010669D01*
X023907Y010734D01*
X023786Y010855D01*
X023720Y011014D01*
X023720Y011785D01*
X023786Y011943D01*
X023904Y012061D01*
X023886Y012065D01*
X023856Y012112D01*
X023817Y012151D01*
X023817Y012173D01*
X023805Y012191D01*
X023817Y012245D01*
X023817Y012301D01*
X023832Y012316D01*
X024281Y014394D01*
X024190Y014303D01*
X024069Y014253D01*
X023937Y014253D01*
X023815Y014303D01*
X023722Y014396D01*
X023672Y014518D01*
X023672Y014649D01*
X023722Y014771D01*
X023815Y014864D01*
X023819Y014865D01*
X023822Y014880D01*
X023822Y014934D01*
X023838Y014950D01*
X023904Y015233D01*
X023931Y015419D01*
X023931Y015577D01*
X023924Y015580D01*
X023831Y015673D01*
X023781Y015794D01*
X023781Y015926D01*
X023831Y016047D01*
X023924Y016140D01*
X024046Y016191D01*
X024178Y016191D01*
X024299Y016140D01*
X024392Y016047D01*
X024443Y015926D01*
X024443Y015794D01*
X024392Y015673D01*
X024299Y015580D01*
X024293Y015577D01*
X024293Y015466D01*
X024512Y015466D01*
X024491Y015368D02*
X024293Y015368D01*
X024293Y015392D02*
X024301Y015453D01*
X024293Y015466D01*
X024293Y015392D02*
X024293Y015331D01*
X024282Y015320D01*
X024270Y015239D01*
X024274Y015232D01*
X024259Y015166D01*
X024249Y015099D01*
X024243Y015094D01*
X024189Y014864D01*
X024190Y014864D01*
X024283Y014771D01*
X024333Y014649D01*
X024333Y014638D01*
X024565Y015710D01*
X024565Y017445D01*
X024367Y017730D01*
X024237Y017676D01*
X024066Y017676D01*
X023907Y017742D01*
X023786Y017863D01*
X023720Y018021D01*
X023720Y018793D01*
X023786Y018951D01*
X023907Y019072D01*
X023974Y019100D01*
X023974Y019164D01*
X012029Y019194D01*
X012029Y019111D02*
X015000Y019111D01*
X014847Y019012D02*
X012029Y019012D01*
X012029Y018914D02*
X014771Y018914D01*
X014730Y018815D02*
X012029Y018815D01*
X012029Y018717D02*
X014720Y018717D01*
X014720Y018618D02*
X012029Y018618D01*
X012029Y018520D02*
X014693Y018520D01*
X014644Y018421D02*
X012029Y018421D01*
X012029Y018323D02*
X014644Y018323D01*
X014644Y018224D02*
X012029Y018224D01*
X012029Y018126D02*
X013620Y018126D01*
X013522Y018027D02*
X012029Y018027D01*
X012029Y017929D02*
X013476Y017929D01*
X013453Y017830D02*
X012029Y017830D01*
X012029Y017732D02*
X013453Y017732D01*
X013489Y017633D02*
X012029Y017633D01*
X012029Y017535D02*
X013554Y017535D01*
X013694Y017436D02*
X012029Y017436D01*
X012029Y017338D02*
X014644Y017338D01*
X014644Y017436D02*
X014514Y017436D01*
X014644Y017239D02*
X012029Y017239D01*
X012029Y017141D02*
X012242Y017141D01*
X012224Y017129D02*
X012201Y017014D01*
X012213Y016996D01*
X012210Y016992D01*
X012210Y016654D01*
X012292Y016572D01*
X012320Y016572D01*
X012320Y016558D01*
X012292Y016558D01*
X012210Y016476D01*
X012210Y015918D01*
X012243Y015884D01*
X012210Y015850D01*
X012210Y015733D01*
X012292Y015651D01*
X012320Y015623D01*
X012320Y015555D01*
X012292Y015527D01*
X012210Y015445D01*
X012210Y015218D01*
X012292Y015136D01*
X012320Y015136D01*
X012320Y015113D01*
X012246Y015039D01*
X012210Y015003D01*
X012210Y014702D01*
X012225Y014687D01*
X012210Y014672D01*
X012210Y014002D01*
X012246Y013966D01*
X012320Y013892D01*
X012320Y013870D01*
X012292Y013870D01*
X012210Y013787D01*
X012210Y013671D01*
X012225Y013655D01*
X012210Y013640D01*
X012210Y013192D01*
X012246Y013155D01*
X012262Y013140D01*
X012210Y013088D01*
X012210Y012750D01*
X012292Y012668D01*
X012555Y012668D01*
X012629Y012668D01*
X012711Y012750D01*
X012711Y012867D01*
X012638Y012940D01*
X012638Y013331D01*
X012665Y013331D01*
X012748Y013413D01*
X012748Y013530D01*
X012665Y013612D01*
X012638Y013612D01*
X012638Y013750D01*
X012601Y013787D01*
X012601Y013966D01*
X012638Y014002D01*
X012638Y014039D01*
X012711Y014113D01*
X012711Y014229D01*
X012638Y014302D01*
X012638Y014303D01*
X012623Y014318D01*
X012638Y014334D01*
X012638Y014362D01*
X012665Y014362D01*
X012748Y014444D01*
X012748Y014561D01*
X012665Y014643D01*
X012638Y014643D01*
X012638Y014782D01*
X012622Y014797D01*
X012638Y014813D01*
X012638Y015003D01*
X012601Y015039D01*
X012601Y015136D01*
X012629Y015136D01*
X012711Y015218D01*
X012711Y015445D01*
X012675Y015481D01*
X012601Y015555D01*
X012601Y015578D01*
X012629Y015578D01*
X012711Y015660D01*
X012711Y015777D01*
X012696Y015792D01*
X012711Y015807D01*
X012711Y016108D01*
X012675Y016144D01*
X012675Y016144D01*
X012622Y016197D01*
X012629Y016203D01*
X012711Y016286D01*
X012711Y016402D01*
X012629Y016485D01*
X012601Y016485D01*
X012601Y016618D01*
X012638Y016654D01*
X012638Y016802D01*
X012711Y016875D01*
X012711Y016992D01*
X012636Y017067D01*
X012624Y017129D01*
X012527Y017193D01*
X012424Y017173D01*
X012321Y017193D01*
X012224Y017129D01*
X012206Y017042D02*
X012029Y017042D01*
X012029Y016944D02*
X012210Y016944D01*
X012210Y016845D02*
X012029Y016845D01*
X012029Y016747D02*
X012210Y016747D01*
X012216Y016648D02*
X012029Y016648D01*
X012029Y016550D02*
X012283Y016550D01*
X012210Y016451D02*
X012029Y016451D01*
X012029Y016353D02*
X012210Y016353D01*
X012210Y016254D02*
X012029Y016254D01*
X012029Y016156D02*
X012210Y016156D01*
X012210Y016057D02*
X012029Y016057D01*
X012029Y015959D02*
X012210Y015959D01*
X012220Y015860D02*
X012029Y015860D01*
X012029Y015762D02*
X012210Y015762D01*
X012280Y015663D02*
X012029Y015663D01*
X012029Y015565D02*
X012320Y015565D01*
X012231Y015466D02*
X012029Y015466D01*
X012029Y015368D02*
X012210Y015368D01*
X012210Y015269D02*
X012029Y015269D01*
X012029Y015171D02*
X012257Y015171D01*
X012279Y015072D02*
X012029Y015072D01*
X012029Y014974D02*
X012210Y014974D01*
X012210Y014875D02*
X012029Y014875D01*
X012029Y014777D02*
X012210Y014777D01*
X012216Y014678D02*
X012029Y014678D01*
X012029Y014580D02*
X012210Y014580D01*
X012210Y014481D02*
X012029Y014481D01*
X012029Y014383D02*
X012210Y014383D01*
X012210Y014284D02*
X012029Y014284D01*
X012029Y014186D02*
X012210Y014186D01*
X012210Y014087D02*
X012029Y014087D01*
X012029Y013989D02*
X012224Y013989D01*
X012320Y013890D02*
X012029Y013890D01*
X012029Y013792D02*
X012214Y013792D01*
X012210Y013693D02*
X012029Y013693D01*
X012029Y013595D02*
X012210Y013595D01*
X012210Y013496D02*
X012029Y013496D01*
X012029Y013398D02*
X012210Y013398D01*
X012210Y013299D02*
X012029Y013299D01*
X012029Y013201D02*
X012210Y013201D01*
X012224Y013102D02*
X012029Y013102D01*
X012029Y013004D02*
X012210Y013004D01*
X012210Y012905D02*
X012029Y012905D01*
X012029Y012807D02*
X012210Y012807D01*
X012252Y012708D02*
X012029Y012708D01*
X012029Y012610D02*
X012951Y012610D01*
X012951Y012708D02*
X012669Y012708D01*
X012711Y012807D02*
X012951Y012807D01*
X012951Y012905D02*
X012673Y012905D01*
X012638Y013004D02*
X012951Y013004D01*
X012951Y013102D02*
X012638Y013102D01*
X012638Y013201D02*
X012951Y013201D01*
X012951Y013299D02*
X012638Y013299D01*
X012732Y013398D02*
X012951Y013398D01*
X012951Y013496D02*
X012748Y013496D01*
X012683Y013595D02*
X012951Y013595D01*
X012951Y013693D02*
X012638Y013693D01*
X012601Y013792D02*
X012951Y013792D01*
X012951Y013890D02*
X012601Y013890D01*
X012624Y013989D02*
X012951Y013989D01*
X012951Y014087D02*
X012686Y014087D01*
X012711Y014186D02*
X012951Y014186D01*
X012951Y014284D02*
X012656Y014284D01*
X012686Y014383D02*
X012951Y014383D01*
X012951Y014481D02*
X012748Y014481D01*
X012729Y014580D02*
X012951Y014580D01*
X012951Y014678D02*
X012638Y014678D01*
X012638Y014777D02*
X012951Y014777D01*
X012951Y014875D02*
X012638Y014875D01*
X012638Y014974D02*
X012951Y014974D01*
X012951Y015072D02*
X012601Y015072D01*
X012664Y015171D02*
X012951Y015171D01*
X012951Y015269D02*
X012711Y015269D01*
X012711Y015368D02*
X012986Y015368D01*
X013131Y015257D02*
X017817Y015257D01*
X017817Y016911D01*
X018118Y017042D02*
X018886Y017042D01*
X018856Y016944D02*
X018145Y016944D01*
X018145Y016845D02*
X018826Y016845D01*
X018796Y016747D02*
X018104Y016747D01*
X018019Y016648D02*
X018766Y016648D01*
X018698Y016550D02*
X017997Y016550D01*
X017997Y016451D02*
X018568Y016451D01*
X018518Y016353D02*
X017997Y016353D01*
X017997Y016254D02*
X018501Y016254D01*
X018512Y016156D02*
X017997Y016156D01*
X017997Y016057D02*
X018554Y016057D01*
X018665Y015959D02*
X017997Y015959D01*
X017997Y015860D02*
X020014Y015860D01*
X020112Y015959D02*
X018999Y015959D01*
X019109Y016057D02*
X020211Y016057D01*
X020309Y016156D02*
X019152Y016156D01*
X019163Y016254D02*
X020408Y016254D01*
X020506Y016353D02*
X019146Y016353D01*
X019096Y016451D02*
X020605Y016451D01*
X020703Y016550D02*
X019113Y016550D01*
X019144Y016648D02*
X020440Y016648D01*
X020345Y016747D02*
X019174Y016747D01*
X019040Y016928D02*
X018832Y016247D01*
X018761Y015762D02*
X017997Y015762D01*
X017997Y015663D02*
X018672Y015663D01*
X018632Y015565D02*
X017997Y015565D01*
X017997Y015466D02*
X018629Y015466D01*
X018655Y015368D02*
X017997Y015368D01*
X017997Y015269D02*
X018718Y015269D01*
X018778Y015171D02*
X017985Y015171D01*
X017609Y014788D02*
X017488Y014838D01*
X017357Y014838D01*
X017237Y014788D01*
X017144Y014696D01*
X017094Y014575D01*
X017094Y014444D01*
X017144Y014323D01*
X017237Y014231D01*
X017242Y014228D01*
X017242Y014003D01*
X017237Y014001D01*
X017144Y013908D01*
X017094Y013787D01*
X017094Y013657D01*
X017144Y013536D01*
X017237Y013443D01*
X017357Y013393D01*
X017488Y013393D01*
X017609Y013443D01*
X017702Y013536D01*
X017752Y013657D01*
X017752Y013787D01*
X017702Y013908D01*
X017609Y014001D01*
X017604Y014003D01*
X017604Y014228D01*
X017609Y014231D01*
X017702Y014323D01*
X017752Y014444D01*
X017752Y014575D01*
X017702Y014696D01*
X017609Y014788D01*
X017621Y014777D02*
X018682Y014777D01*
X018640Y014678D02*
X017709Y014678D01*
X017750Y014580D02*
X018629Y014580D01*
X018647Y014481D02*
X017752Y014481D01*
X017726Y014383D02*
X018699Y014383D01*
X018833Y014284D02*
X017662Y014284D01*
X017604Y014186D02*
X021533Y014186D01*
X021533Y014284D02*
X019083Y014284D01*
X019218Y014383D02*
X019329Y014383D01*
X019549Y014628D02*
X020533Y014628D01*
X020316Y014875D02*
X019766Y014875D01*
X019331Y014875D02*
X019139Y014875D01*
X019139Y014974D02*
X021533Y014974D01*
X021533Y015072D02*
X019139Y015072D01*
X019139Y015171D02*
X021533Y015171D01*
X021533Y015269D02*
X019199Y015269D01*
X018958Y015494D02*
X018998Y015533D01*
X019943Y015533D01*
X020927Y016517D01*
X020927Y016596D01*
X021675Y016596D01*
X021714Y016478D01*
X021714Y012817D01*
X022151Y012380D01*
X022151Y011399D01*
X021720Y011428D02*
X021201Y011428D01*
X021151Y011399D02*
X021151Y014734D01*
X021202Y014785D01*
X021202Y016163D01*
X021018Y016353D02*
X021533Y016353D01*
X021533Y016254D02*
X020919Y016254D01*
X020821Y016156D02*
X021533Y016156D01*
X021533Y016057D02*
X020722Y016057D01*
X020624Y015959D02*
X021533Y015959D01*
X021533Y015860D02*
X020525Y015860D01*
X020427Y015762D02*
X021533Y015762D01*
X021533Y015663D02*
X020328Y015663D01*
X020230Y015565D02*
X021533Y015565D01*
X021533Y015466D02*
X020131Y015466D01*
X020033Y015368D02*
X021533Y015368D01*
X021533Y014875D02*
X020751Y014875D01*
X020827Y014777D02*
X021533Y014777D01*
X021533Y014678D02*
X020862Y014678D01*
X020862Y014580D02*
X021533Y014580D01*
X021533Y014481D02*
X020828Y014481D01*
X020753Y014383D02*
X021533Y014383D01*
X021533Y014087D02*
X020835Y014087D01*
X020909Y013989D02*
X021533Y013989D01*
X021533Y013890D02*
X020942Y013890D01*
X020942Y013792D02*
X021533Y013792D01*
X021533Y013693D02*
X020907Y013693D01*
X020830Y013595D02*
X021533Y013595D01*
X021533Y013496D02*
X020760Y013496D01*
X020750Y013398D02*
X021533Y013398D01*
X021533Y013299D02*
X020741Y013299D01*
X020732Y013201D02*
X021533Y013201D01*
X021533Y013102D02*
X020728Y013102D01*
X020633Y013004D02*
X021533Y013004D01*
X021533Y012905D02*
X019332Y012905D01*
X019332Y012807D02*
X021533Y012807D01*
X021567Y012708D02*
X019332Y012708D01*
X019332Y012610D02*
X021666Y012610D01*
X021764Y012511D02*
X019332Y012511D01*
X019332Y012413D02*
X021863Y012413D01*
X021961Y012314D02*
X019332Y012314D01*
X019332Y012216D02*
X021970Y012216D01*
X021970Y012117D02*
X021321Y012117D01*
X021201Y012117D02*
X021101Y012117D01*
X021101Y012019D02*
X021201Y012019D01*
X021201Y011920D02*
X021101Y011920D01*
X021101Y011822D02*
X021201Y011822D01*
X021201Y011723D02*
X021101Y011723D01*
X021101Y011625D02*
X021201Y011625D01*
X021201Y011526D02*
X021101Y011526D01*
X021101Y011428D02*
X020201Y011428D01*
X020151Y011399D02*
X021151Y011399D01*
X020701Y011329D02*
X020601Y011329D01*
X020601Y011231D02*
X020701Y011231D01*
X020701Y011132D02*
X020601Y011132D01*
X020596Y011034D02*
X020706Y011034D01*
X020731Y010935D02*
X020571Y010935D01*
X020517Y010837D02*
X020786Y010837D01*
X020883Y010738D02*
X020420Y010738D01*
X019883Y010738D02*
X019399Y010738D01*
X019498Y010837D02*
X019786Y010837D01*
X019731Y010935D02*
X019549Y010935D01*
X019582Y011034D02*
X019706Y011034D01*
X019701Y011132D02*
X019582Y011132D01*
X019582Y011231D02*
X019701Y011231D01*
X019701Y011329D02*
X019582Y011329D01*
X019582Y011428D02*
X020101Y011428D01*
X020101Y011526D02*
X020201Y011526D01*
X020201Y011625D02*
X020101Y011625D01*
X020101Y011723D02*
X020201Y011723D01*
X020201Y011822D02*
X020101Y011822D01*
X020101Y011920D02*
X020201Y011920D01*
X020201Y012019D02*
X020101Y012019D01*
X020101Y012117D02*
X020201Y012117D01*
X020321Y012117D02*
X020981Y012117D01*
X020834Y012019D02*
X020468Y012019D01*
X020544Y011920D02*
X020759Y011920D01*
X020718Y011822D02*
X020585Y011822D01*
X020601Y011723D02*
X020701Y011723D01*
X020701Y011625D02*
X020601Y011625D01*
X020601Y011526D02*
X020701Y011526D01*
X021601Y011526D02*
X021720Y011526D01*
X021720Y011625D02*
X021601Y011625D01*
X021601Y011723D02*
X021720Y011723D01*
X021736Y011822D02*
X021585Y011822D01*
X021544Y011920D02*
X021776Y011920D01*
X021861Y012019D02*
X021468Y012019D01*
X021601Y011329D02*
X021720Y011329D01*
X021720Y011231D02*
X021601Y011231D01*
X021601Y011132D02*
X021720Y011132D01*
X021720Y011034D02*
X021596Y011034D01*
X021571Y010935D02*
X021753Y010935D01*
X021805Y010837D02*
X021517Y010837D01*
X021420Y010738D02*
X021903Y010738D01*
X022399Y010738D02*
X022903Y010738D01*
X022907Y010734D02*
X023066Y010669D01*
X023237Y010669D01*
X023395Y010734D01*
X023516Y010855D01*
X023582Y011014D01*
X023582Y011785D01*
X023516Y011943D01*
X023395Y012064D01*
X023237Y012130D01*
X023066Y012130D01*
X022907Y012064D01*
X022786Y011943D01*
X022720Y011785D01*
X022720Y011014D01*
X022786Y010855D01*
X022907Y010734D01*
X022805Y010837D02*
X022498Y010837D01*
X022549Y010935D02*
X022753Y010935D01*
X022720Y011034D02*
X022582Y011034D01*
X022582Y011132D02*
X022720Y011132D01*
X022720Y011231D02*
X022582Y011231D01*
X022582Y011329D02*
X022720Y011329D01*
X022720Y011428D02*
X022582Y011428D01*
X022582Y011526D02*
X022720Y011526D01*
X022720Y011625D02*
X022582Y011625D01*
X022582Y011723D02*
X022720Y011723D01*
X022736Y011822D02*
X022567Y011822D01*
X022526Y011920D02*
X022776Y011920D01*
X022861Y012019D02*
X022441Y012019D01*
X022332Y012117D02*
X023034Y012117D01*
X023268Y012117D02*
X023851Y012117D01*
X023861Y012019D02*
X023441Y012019D01*
X023526Y011920D02*
X023776Y011920D01*
X023736Y011822D02*
X023567Y011822D01*
X023582Y011723D02*
X023720Y011723D01*
X023720Y011625D02*
X023582Y011625D01*
X023582Y011526D02*
X023720Y011526D01*
X023720Y011428D02*
X023582Y011428D01*
X023582Y011329D02*
X023720Y011329D01*
X023720Y011231D02*
X023582Y011231D01*
X023582Y011132D02*
X023720Y011132D01*
X023720Y011034D02*
X023582Y011034D01*
X023549Y010935D02*
X023753Y010935D01*
X023805Y010837D02*
X023498Y010837D01*
X023399Y010738D02*
X023903Y010738D01*
X024399Y010738D02*
X024883Y010738D01*
X024786Y010837D02*
X024498Y010837D01*
X024549Y010935D02*
X024731Y010935D01*
X024706Y011034D02*
X024582Y011034D01*
X024582Y011132D02*
X024701Y011132D01*
X024701Y011231D02*
X024582Y011231D01*
X024582Y011329D02*
X024701Y011329D01*
X024582Y011428D02*
X025101Y011428D01*
X025101Y011449D02*
X025101Y012045D01*
X025201Y012045D01*
X025201Y011449D01*
X025601Y011449D01*
X025601Y011735D01*
X025590Y011805D01*
X025568Y011872D01*
X025536Y011935D01*
X025494Y011992D01*
X025444Y012042D01*
X025387Y012084D01*
X025377Y012089D01*
X025438Y012151D01*
X025438Y012400D01*
X025606Y012400D01*
X025609Y012394D01*
X025701Y012302D01*
X025822Y012251D01*
X025953Y012251D01*
X026074Y012302D01*
X026166Y012394D01*
X026216Y012515D01*
X026216Y012646D01*
X026166Y012767D01*
X026074Y012859D01*
X025953Y012909D01*
X025822Y012909D01*
X025701Y012859D01*
X025609Y012767D01*
X025606Y012761D01*
X025183Y012761D01*
X025077Y012655D01*
X025077Y012407D01*
X024901Y012407D01*
X024932Y012420D01*
X025024Y012512D01*
X025074Y012633D01*
X025074Y012764D01*
X025024Y012885D01*
X025018Y012891D01*
X025079Y012973D01*
X025123Y013017D01*
X025123Y013032D01*
X025132Y013044D01*
X025123Y013105D01*
X025123Y014368D01*
X025961Y014368D01*
X025963Y014363D01*
X026055Y014270D01*
X026176Y014220D01*
X026307Y014220D01*
X026428Y014270D01*
X026454Y014296D01*
X026475Y014244D01*
X026567Y014152D01*
X026688Y014102D01*
X026819Y014102D01*
X026940Y014152D01*
X027032Y014244D01*
X027082Y014365D01*
X027082Y014496D01*
X027032Y014617D01*
X026940Y014709D01*
X026934Y014712D01*
X026934Y014996D01*
X026948Y015044D01*
X026934Y015068D01*
X026934Y015096D01*
X026899Y015131D01*
X026737Y015422D01*
X026737Y015450D01*
X026702Y015485D01*
X026678Y015529D01*
X026651Y015536D01*
X026632Y015556D01*
X026582Y015556D01*
X026534Y015570D01*
X026510Y015556D01*
X025578Y015556D01*
X025576Y015562D01*
X025483Y015654D01*
X025362Y015704D01*
X025231Y015704D01*
X025111Y015654D01*
X025018Y015562D01*
X024968Y015441D01*
X024968Y015310D01*
X025018Y015189D01*
X025111Y015097D01*
X025231Y015047D01*
X025362Y015047D01*
X025483Y015097D01*
X025576Y015189D01*
X025578Y015195D01*
X026450Y015195D01*
X026573Y014974D01*
X026573Y014712D01*
X026567Y014709D01*
X026542Y014684D01*
X026520Y014735D01*
X026428Y014828D01*
X026307Y014878D01*
X026176Y014878D01*
X026055Y014828D01*
X025963Y014735D01*
X025961Y014730D01*
X024868Y014730D01*
X024762Y014624D01*
X024762Y013152D01*
X024705Y013077D01*
X024677Y013063D01*
X024662Y013020D01*
X024559Y012977D01*
X024467Y012885D01*
X024417Y012764D01*
X024417Y012633D01*
X024467Y012512D01*
X024559Y012420D01*
X024591Y012407D01*
X024222Y012407D01*
X024911Y015600D01*
X024926Y015616D01*
X024926Y015671D01*
X024938Y015726D01*
X024926Y015744D01*
X024926Y017485D01*
X024937Y017543D01*
X024926Y017558D01*
X024926Y017576D01*
X024885Y017618D01*
X024582Y018053D01*
X024582Y018793D01*
X024516Y018951D01*
X024395Y019072D01*
X024336Y019097D01*
X024336Y019127D01*
X024400Y019163D01*
X025943Y019159D01*
X025982Y019120D01*
X025982Y019103D01*
X025907Y019072D01*
X025786Y018951D01*
X025720Y018793D01*
X025720Y018021D01*
X025786Y017863D01*
X025907Y017742D01*
X026066Y017676D01*
X026237Y017676D01*
X026395Y017742D01*
X026516Y017863D01*
X026582Y018021D01*
X026582Y018793D01*
X026516Y018951D01*
X026395Y019072D01*
X026344Y019094D01*
X026344Y019158D01*
X027383Y019155D01*
X027344Y010651D01*
X025233Y010657D01*
X025257Y010660D01*
X025324Y010682D01*
X025387Y010714D01*
X025444Y010756D01*
X025494Y010806D01*
X025536Y010863D01*
X025568Y010926D01*
X025590Y010994D01*
X025601Y011064D01*
X025601Y011349D01*
X025201Y011349D01*
X025201Y011449D01*
X025101Y011449D01*
X025151Y011399D02*
X025151Y011608D01*
X025730Y012187D01*
X026911Y012187D01*
X027147Y012423D01*
X027147Y017698D01*
X026990Y017895D01*
X026911Y017974D01*
X026822Y017826D01*
X026626Y017492D01*
X026517Y017502D01*
X025494Y017502D01*
X025100Y018131D01*
X025100Y018356D01*
X025151Y018407D01*
X025101Y018421D02*
X024582Y018421D01*
X024582Y018323D02*
X024701Y018323D01*
X024701Y018357D02*
X024701Y018072D01*
X024712Y018002D01*
X024734Y017934D01*
X024766Y017871D01*
X024808Y017814D01*
X024858Y017764D01*
X024915Y017722D01*
X024978Y017690D01*
X025046Y017668D01*
X025101Y017659D01*
X025101Y018357D01*
X024701Y018357D01*
X024701Y018457D02*
X025101Y018457D01*
X025101Y018357D01*
X025201Y018357D01*
X025201Y017659D01*
X025257Y017668D01*
X025324Y017690D01*
X025387Y017722D01*
X025444Y017764D01*
X025494Y017814D01*
X025536Y017871D01*
X025568Y017934D01*
X025590Y018002D01*
X025601Y018072D01*
X025601Y018357D01*
X025201Y018357D01*
X025201Y018457D01*
X025101Y018457D01*
X025101Y019155D01*
X025046Y019146D01*
X024978Y019124D01*
X024915Y019092D01*
X024858Y019050D01*
X024808Y019000D01*
X024766Y018943D01*
X024734Y018880D01*
X024712Y018812D01*
X024701Y018743D01*
X024701Y018457D01*
X024701Y018520D02*
X024582Y018520D01*
X024582Y018618D02*
X024701Y018618D01*
X024701Y018717D02*
X024582Y018717D01*
X024573Y018815D02*
X024713Y018815D01*
X024751Y018914D02*
X024532Y018914D01*
X024455Y019012D02*
X024820Y019012D01*
X024952Y019111D02*
X024336Y019111D01*
X024155Y019234D02*
X024769Y019572D01*
X024757Y019691D01*
X025101Y019111D02*
X025201Y019111D01*
X025201Y019155D02*
X025201Y018457D01*
X025601Y018457D01*
X025601Y018743D01*
X025590Y018812D01*
X025568Y018880D01*
X025536Y018943D01*
X025494Y019000D01*
X025444Y019050D01*
X025387Y019092D01*
X025324Y019124D01*
X025257Y019146D01*
X025201Y019155D01*
X025201Y019012D02*
X025101Y019012D01*
X025101Y018914D02*
X025201Y018914D01*
X025201Y018815D02*
X025101Y018815D01*
X025101Y018717D02*
X025201Y018717D01*
X025201Y018618D02*
X025101Y018618D01*
X025101Y018520D02*
X025201Y018520D01*
X025201Y018421D02*
X025720Y018421D01*
X025720Y018323D02*
X025601Y018323D01*
X025601Y018224D02*
X025720Y018224D01*
X025720Y018126D02*
X025601Y018126D01*
X025594Y018027D02*
X025720Y018027D01*
X025759Y017929D02*
X025565Y017929D01*
X025506Y017830D02*
X025819Y017830D01*
X025932Y017732D02*
X025400Y017732D01*
X025201Y017732D02*
X025101Y017732D01*
X025101Y017830D02*
X025201Y017830D01*
X025201Y017929D02*
X025101Y017929D01*
X025101Y018027D02*
X025201Y018027D01*
X025201Y018126D02*
X025101Y018126D01*
X025101Y018224D02*
X025201Y018224D01*
X025201Y018323D02*
X025101Y018323D01*
X024701Y018224D02*
X024582Y018224D01*
X024582Y018126D02*
X024701Y018126D01*
X024708Y018027D02*
X024600Y018027D01*
X024669Y017929D02*
X024737Y017929D01*
X024737Y017830D02*
X024796Y017830D01*
X024806Y017732D02*
X024902Y017732D01*
X024874Y017633D02*
X027376Y017633D01*
X027376Y017535D02*
X024935Y017535D01*
X024926Y017436D02*
X027376Y017436D01*
X027375Y017338D02*
X024926Y017338D01*
X024926Y017239D02*
X027375Y017239D01*
X027374Y017141D02*
X024926Y017141D01*
X024926Y017042D02*
X027374Y017042D01*
X027373Y016944D02*
X024926Y016944D01*
X024926Y016845D02*
X027373Y016845D01*
X027372Y016747D02*
X024926Y016747D01*
X024926Y016648D02*
X027372Y016648D01*
X027371Y016550D02*
X024926Y016550D01*
X024926Y016451D02*
X027371Y016451D01*
X027370Y016353D02*
X024926Y016353D01*
X024926Y016254D02*
X027370Y016254D01*
X027370Y016156D02*
X024926Y016156D01*
X024926Y016057D02*
X027369Y016057D01*
X027369Y015959D02*
X024926Y015959D01*
X024926Y015860D02*
X027368Y015860D01*
X027368Y015762D02*
X024926Y015762D01*
X024926Y015663D02*
X025132Y015663D01*
X025021Y015565D02*
X024903Y015565D01*
X024882Y015466D02*
X024978Y015466D01*
X024968Y015368D02*
X024861Y015368D01*
X024840Y015269D02*
X024985Y015269D01*
X025037Y015171D02*
X024818Y015171D01*
X024797Y015072D02*
X025170Y015072D01*
X025423Y015072D02*
X026519Y015072D01*
X026573Y014974D02*
X024776Y014974D01*
X024754Y014875D02*
X026170Y014875D01*
X026313Y014875D02*
X026573Y014875D01*
X026573Y014777D02*
X026479Y014777D01*
X026242Y014549D02*
X024943Y014549D01*
X024943Y013092D01*
X024824Y012935D01*
X024746Y012698D01*
X025074Y012708D02*
X025130Y012708D01*
X025077Y012610D02*
X025065Y012610D01*
X025077Y012511D02*
X025023Y012511D01*
X025077Y012413D02*
X024915Y012413D01*
X024577Y012413D02*
X024223Y012413D01*
X024244Y012511D02*
X024468Y012511D01*
X024427Y012610D02*
X024265Y012610D01*
X024287Y012708D02*
X024417Y012708D01*
X024435Y012807D02*
X024308Y012807D01*
X024329Y012905D02*
X024487Y012905D01*
X024623Y013004D02*
X024350Y013004D01*
X024372Y013102D02*
X024724Y013102D01*
X024762Y013201D02*
X024393Y013201D01*
X024414Y013299D02*
X024762Y013299D01*
X024762Y013398D02*
X024435Y013398D01*
X024457Y013496D02*
X024762Y013496D01*
X024762Y013595D02*
X024478Y013595D01*
X024499Y013693D02*
X024762Y013693D01*
X024762Y013792D02*
X024521Y013792D01*
X024542Y013890D02*
X024762Y013890D01*
X024762Y013989D02*
X024563Y013989D01*
X024584Y014087D02*
X024762Y014087D01*
X024762Y014186D02*
X024606Y014186D01*
X024627Y014284D02*
X024762Y014284D01*
X024762Y014383D02*
X024648Y014383D01*
X024669Y014481D02*
X024762Y014481D01*
X024762Y014580D02*
X024691Y014580D01*
X024712Y014678D02*
X024816Y014678D01*
X024733Y014777D02*
X026004Y014777D01*
X026041Y014284D02*
X025123Y014284D01*
X025123Y014186D02*
X026534Y014186D01*
X026458Y014284D02*
X026442Y014284D01*
X026754Y014431D02*
X026754Y015021D01*
X026557Y015376D01*
X025297Y015376D01*
X025462Y015663D02*
X027367Y015663D01*
X027367Y015565D02*
X026553Y015565D01*
X026525Y015565D02*
X025573Y015565D01*
X025557Y015171D02*
X026464Y015171D01*
X026768Y015368D02*
X027366Y015368D01*
X027366Y015466D02*
X026722Y015466D01*
X026823Y015269D02*
X027365Y015269D01*
X027365Y015171D02*
X026877Y015171D01*
X026934Y015072D02*
X027365Y015072D01*
X027364Y014974D02*
X026934Y014974D01*
X026934Y014875D02*
X027364Y014875D01*
X027363Y014777D02*
X026934Y014777D01*
X026971Y014678D02*
X027363Y014678D01*
X027362Y014580D02*
X027048Y014580D01*
X027082Y014481D02*
X027362Y014481D01*
X027361Y014383D02*
X027082Y014383D01*
X027049Y014284D02*
X027361Y014284D01*
X027360Y014186D02*
X026973Y014186D01*
X027360Y014087D02*
X025123Y014087D01*
X025123Y013989D02*
X027360Y013989D01*
X027359Y013890D02*
X025123Y013890D01*
X025123Y013792D02*
X027359Y013792D01*
X027358Y013693D02*
X025123Y013693D01*
X025123Y013595D02*
X027358Y013595D01*
X027357Y013496D02*
X025123Y013496D01*
X025123Y013398D02*
X027357Y013398D01*
X027356Y013299D02*
X025123Y013299D01*
X025123Y013201D02*
X027356Y013201D01*
X027355Y013102D02*
X025124Y013102D01*
X025109Y013004D02*
X027355Y013004D01*
X027355Y012905D02*
X025963Y012905D01*
X025812Y012905D02*
X025028Y012905D01*
X025057Y012807D02*
X025649Y012807D01*
X025887Y012580D02*
X025257Y012580D01*
X025257Y012226D01*
X023998Y012226D01*
X024746Y015691D01*
X024746Y017502D01*
X024116Y018407D01*
X024151Y018407D02*
X024155Y018490D01*
X024155Y019234D01*
X023974Y019111D02*
X023303Y019111D01*
X023237Y019138D02*
X023066Y019138D01*
X022907Y019072D01*
X022786Y018951D01*
X022720Y018793D01*
X022720Y018021D01*
X022786Y017863D01*
X022907Y017742D01*
X023066Y017676D01*
X023237Y017676D01*
X023395Y017742D01*
X023516Y017863D01*
X023582Y018021D01*
X023582Y018793D01*
X023516Y018951D01*
X023395Y019072D01*
X023237Y019138D01*
X023000Y019111D02*
X022303Y019111D01*
X022237Y019138D02*
X022066Y019138D01*
X021907Y019072D01*
X021786Y018951D01*
X021720Y018793D01*
X021720Y018021D01*
X021786Y017863D01*
X021907Y017742D01*
X022066Y017676D01*
X022237Y017676D01*
X022395Y017742D01*
X022516Y017863D01*
X022582Y018021D01*
X022582Y018793D01*
X022516Y018951D01*
X022395Y019072D01*
X022237Y019138D01*
X022000Y019111D02*
X021303Y019111D01*
X021237Y019138D02*
X021066Y019138D01*
X020907Y019072D01*
X020786Y018951D01*
X020720Y018793D01*
X020720Y018021D01*
X020786Y017863D01*
X020907Y017742D01*
X021066Y017676D01*
X021237Y017676D01*
X021395Y017742D01*
X021516Y017863D01*
X021582Y018021D01*
X021582Y018793D01*
X021516Y018951D01*
X021395Y019072D01*
X021237Y019138D01*
X021000Y019111D02*
X020303Y019111D01*
X020237Y019138D02*
X020066Y019138D01*
X019907Y019072D01*
X019786Y018951D01*
X019720Y018793D01*
X019720Y018021D01*
X019786Y017863D01*
X019907Y017742D01*
X020066Y017676D01*
X020237Y017676D01*
X020395Y017742D01*
X020516Y017863D01*
X020582Y018021D01*
X020582Y018793D01*
X020516Y018951D01*
X020395Y019072D01*
X020237Y019138D01*
X020000Y019111D02*
X019303Y019111D01*
X019237Y019138D02*
X019066Y019138D01*
X018907Y019072D01*
X018786Y018951D01*
X018720Y018793D01*
X018720Y018021D01*
X018786Y017863D01*
X018907Y017742D01*
X019066Y017676D01*
X019237Y017676D01*
X019395Y017742D01*
X019516Y017863D01*
X019582Y018021D01*
X019582Y018793D01*
X019516Y018951D01*
X019395Y019072D01*
X019237Y019138D01*
X019000Y019111D02*
X018303Y019111D01*
X018455Y019012D02*
X018847Y019012D01*
X018771Y018914D02*
X018532Y018914D01*
X018573Y018815D02*
X018730Y018815D01*
X018720Y018717D02*
X018582Y018717D01*
X018582Y018618D02*
X018720Y018618D01*
X018720Y018520D02*
X018582Y018520D01*
X018582Y018421D02*
X018720Y018421D01*
X018720Y018323D02*
X018582Y018323D01*
X018582Y018224D02*
X018720Y018224D01*
X018720Y018126D02*
X018582Y018126D01*
X018582Y018027D02*
X018720Y018027D01*
X018759Y017929D02*
X018543Y017929D01*
X018483Y017830D02*
X018819Y017830D01*
X018932Y017732D02*
X018370Y017732D01*
X018125Y017633D02*
X024434Y017633D01*
X024503Y017535D02*
X023829Y017535D01*
X023808Y017535D02*
X018026Y017535D01*
X017856Y017620D02*
X016557Y017620D01*
X016439Y017502D01*
X016439Y016880D01*
X016420Y016861D01*
X016420Y015941D01*
X015269Y015932D01*
X015513Y016156D02*
X016239Y016156D01*
X016239Y016254D02*
X015355Y016254D01*
X015183Y016254D02*
X015005Y016254D01*
X015005Y016156D02*
X015025Y016156D01*
X015005Y016353D02*
X016239Y016353D01*
X016239Y016451D02*
X015005Y016451D01*
X015005Y016550D02*
X016239Y016550D01*
X016165Y016648D02*
X015005Y016648D01*
X015005Y016747D02*
X016110Y016747D01*
X016089Y016845D02*
X015005Y016845D01*
X015005Y016944D02*
X016096Y016944D01*
X016137Y017042D02*
X015005Y017042D01*
X015005Y017141D02*
X016232Y017141D01*
X016258Y017239D02*
X015005Y017239D01*
X015005Y017338D02*
X016258Y017338D01*
X016258Y017436D02*
X015005Y017436D01*
X015005Y017535D02*
X016258Y017535D01*
X016314Y017633D02*
X015005Y017633D01*
X015370Y017732D02*
X015902Y017732D01*
X015915Y017722D02*
X015978Y017690D01*
X016046Y017668D01*
X016101Y017659D01*
X016101Y018357D01*
X015701Y018357D01*
X015701Y018072D01*
X015712Y018002D01*
X015734Y017934D01*
X015766Y017871D01*
X015808Y017814D01*
X015858Y017764D01*
X015915Y017722D01*
X015796Y017830D02*
X015483Y017830D01*
X015543Y017929D02*
X015737Y017929D01*
X015708Y018027D02*
X015582Y018027D01*
X015582Y018126D02*
X015701Y018126D01*
X015701Y018224D02*
X015582Y018224D01*
X015582Y018323D02*
X015701Y018323D01*
X015701Y018457D02*
X016101Y018457D01*
X016101Y018357D01*
X016201Y018357D01*
X016201Y017659D01*
X016257Y017668D01*
X016324Y017690D01*
X016387Y017722D01*
X016444Y017764D01*
X016494Y017814D01*
X016536Y017871D01*
X016568Y017934D01*
X016590Y018002D01*
X016601Y018072D01*
X016601Y018357D01*
X016201Y018357D01*
X016201Y018457D01*
X016101Y018457D01*
X016101Y019155D01*
X016046Y019146D01*
X015978Y019124D01*
X015915Y019092D01*
X015858Y019050D01*
X015808Y019000D01*
X015766Y018943D01*
X015734Y018880D01*
X015712Y018812D01*
X015701Y018743D01*
X015701Y018457D01*
X015701Y018520D02*
X015582Y018520D01*
X015582Y018618D02*
X015701Y018618D01*
X015701Y018717D02*
X015582Y018717D01*
X015573Y018815D02*
X015713Y018815D01*
X015751Y018914D02*
X015532Y018914D01*
X015455Y019012D02*
X015820Y019012D01*
X015952Y019111D02*
X015303Y019111D01*
X015151Y018407D02*
X015139Y018395D01*
X014824Y018395D01*
X014824Y015494D01*
X017108Y015494D01*
X017108Y017344D01*
X023801Y017344D01*
X024234Y017108D01*
X022620Y017108D01*
X022187Y016754D01*
X022187Y015848D01*
X022187Y013368D01*
X022489Y013496D02*
X024087Y013496D01*
X024066Y013398D02*
X022515Y013398D01*
X022514Y013299D02*
X024044Y013299D01*
X024023Y013201D02*
X022473Y013201D01*
X022386Y013102D02*
X024002Y013102D01*
X023981Y013004D02*
X021895Y013004D01*
X021895Y013102D02*
X021987Y013102D01*
X021900Y013201D02*
X021895Y013201D01*
X021895Y012905D02*
X023959Y012905D01*
X023938Y012807D02*
X021980Y012807D01*
X022078Y012708D02*
X023917Y012708D01*
X023896Y012610D02*
X022177Y012610D01*
X022275Y012511D02*
X023874Y012511D01*
X023853Y012413D02*
X022332Y012413D01*
X022332Y012314D02*
X023830Y012314D01*
X023811Y012216D02*
X022332Y012216D01*
X022425Y013595D02*
X024108Y013595D01*
X024130Y013693D02*
X022367Y013693D01*
X022367Y013792D02*
X024151Y013792D01*
X024172Y013890D02*
X022367Y013890D01*
X022367Y013989D02*
X024193Y013989D01*
X024215Y014087D02*
X022367Y014087D01*
X022367Y014186D02*
X024236Y014186D01*
X024257Y014284D02*
X024144Y014284D01*
X024270Y014383D02*
X024278Y014383D01*
X024322Y014678D02*
X024342Y014678D01*
X024363Y014777D02*
X024277Y014777D01*
X024192Y014875D02*
X024385Y014875D01*
X024406Y014974D02*
X024215Y014974D01*
X024237Y015072D02*
X024427Y015072D01*
X024449Y015171D02*
X024260Y015171D01*
X024274Y015269D02*
X024470Y015269D01*
X024534Y015565D02*
X024293Y015565D01*
X024383Y015663D02*
X024555Y015663D01*
X024565Y015762D02*
X024429Y015762D01*
X024443Y015860D02*
X024565Y015860D01*
X024565Y015959D02*
X024429Y015959D01*
X024383Y016057D02*
X024565Y016057D01*
X024565Y016156D02*
X024263Y016156D01*
X023961Y016156D02*
X022367Y016156D01*
X022367Y016254D02*
X024565Y016254D01*
X024565Y016353D02*
X022367Y016353D01*
X022367Y016451D02*
X024565Y016451D01*
X024565Y016550D02*
X022367Y016550D01*
X022367Y016648D02*
X024565Y016648D01*
X024565Y016747D02*
X022463Y016747D01*
X022584Y016845D02*
X024032Y016845D01*
X024436Y016845D02*
X024565Y016845D01*
X024565Y016944D02*
X024522Y016944D01*
X024563Y017141D02*
X024565Y017141D01*
X024565Y017239D02*
X024535Y017239D01*
X024565Y017338D02*
X024469Y017338D01*
X024565Y017436D02*
X024301Y017436D01*
X024167Y017436D02*
X024010Y017436D01*
X023932Y017732D02*
X023370Y017732D01*
X023483Y017830D02*
X023819Y017830D01*
X023759Y017929D02*
X023543Y017929D01*
X023582Y018027D02*
X023720Y018027D01*
X023720Y018126D02*
X023582Y018126D01*
X023582Y018224D02*
X023720Y018224D01*
X023720Y018323D02*
X023582Y018323D01*
X023582Y018421D02*
X023720Y018421D01*
X023720Y018520D02*
X023582Y018520D01*
X023582Y018618D02*
X023720Y018618D01*
X023720Y018717D02*
X023582Y018717D01*
X023573Y018815D02*
X023730Y018815D01*
X023771Y018914D02*
X023532Y018914D01*
X023455Y019012D02*
X023847Y019012D01*
X022847Y019012D02*
X022455Y019012D01*
X022532Y018914D02*
X022771Y018914D01*
X022730Y018815D02*
X022573Y018815D01*
X022582Y018717D02*
X022720Y018717D01*
X022720Y018618D02*
X022582Y018618D01*
X022582Y018520D02*
X022720Y018520D01*
X022720Y018421D02*
X022582Y018421D01*
X022582Y018323D02*
X022720Y018323D01*
X022720Y018224D02*
X022582Y018224D01*
X022582Y018126D02*
X022720Y018126D01*
X022720Y018027D02*
X022582Y018027D01*
X022543Y017929D02*
X022759Y017929D01*
X022819Y017830D02*
X022483Y017830D01*
X022370Y017732D02*
X022932Y017732D01*
X021932Y017732D02*
X021370Y017732D01*
X021483Y017830D02*
X021819Y017830D01*
X021759Y017929D02*
X021543Y017929D01*
X021582Y018027D02*
X021720Y018027D01*
X021720Y018126D02*
X021582Y018126D01*
X021582Y018224D02*
X021720Y018224D01*
X021720Y018323D02*
X021582Y018323D01*
X021582Y018421D02*
X021720Y018421D01*
X021720Y018520D02*
X021582Y018520D01*
X021582Y018618D02*
X021720Y018618D01*
X021720Y018717D02*
X021582Y018717D01*
X021573Y018815D02*
X021730Y018815D01*
X021771Y018914D02*
X021532Y018914D01*
X021455Y019012D02*
X021847Y019012D01*
X020847Y019012D02*
X020455Y019012D01*
X020532Y018914D02*
X020771Y018914D01*
X020730Y018815D02*
X020573Y018815D01*
X020582Y018717D02*
X020720Y018717D01*
X020720Y018618D02*
X020582Y018618D01*
X020582Y018520D02*
X020720Y018520D01*
X020720Y018421D02*
X020582Y018421D01*
X020582Y018323D02*
X020720Y018323D01*
X020720Y018224D02*
X020582Y018224D01*
X020582Y018126D02*
X020720Y018126D01*
X020720Y018027D02*
X020582Y018027D01*
X020543Y017929D02*
X020759Y017929D01*
X020819Y017830D02*
X020483Y017830D01*
X020370Y017732D02*
X020932Y017732D01*
X020372Y017141D02*
X018052Y017141D01*
X017856Y017620D02*
X018151Y017915D01*
X018151Y018407D01*
X017720Y018421D02*
X017201Y018421D01*
X017201Y018520D02*
X017101Y018520D01*
X017101Y018618D02*
X017201Y018618D01*
X017201Y018717D02*
X017101Y018717D01*
X017101Y018815D02*
X017201Y018815D01*
X017201Y018914D02*
X017101Y018914D01*
X017101Y019012D02*
X017201Y019012D01*
X017201Y019111D02*
X017101Y019111D01*
X016952Y019111D02*
X016351Y019111D01*
X016324Y019124D02*
X016257Y019146D01*
X016201Y019155D01*
X016201Y018457D01*
X016601Y018457D01*
X016601Y018743D01*
X016590Y018812D01*
X016568Y018880D01*
X016536Y018943D01*
X016494Y019000D01*
X016444Y019050D01*
X016387Y019092D01*
X016324Y019124D01*
X016201Y019111D02*
X016101Y019111D01*
X016101Y019012D02*
X016201Y019012D01*
X016201Y018914D02*
X016101Y018914D01*
X016101Y018815D02*
X016201Y018815D01*
X016201Y018717D02*
X016101Y018717D01*
X016101Y018618D02*
X016201Y018618D01*
X016201Y018520D02*
X016101Y018520D01*
X016101Y018421D02*
X015582Y018421D01*
X016101Y018323D02*
X016201Y018323D01*
X016201Y018421D02*
X017101Y018421D01*
X016701Y018323D02*
X016601Y018323D01*
X016601Y018224D02*
X016701Y018224D01*
X016701Y018126D02*
X016601Y018126D01*
X016594Y018027D02*
X016708Y018027D01*
X016737Y017929D02*
X016565Y017929D01*
X016506Y017830D02*
X016796Y017830D01*
X016413Y017732D02*
X016400Y017732D01*
X016201Y017732D02*
X016101Y017732D01*
X016101Y017830D02*
X016201Y017830D01*
X016201Y017929D02*
X016101Y017929D01*
X016101Y018027D02*
X016201Y018027D01*
X016201Y018126D02*
X016101Y018126D01*
X016101Y018224D02*
X016201Y018224D01*
X016601Y018520D02*
X016701Y018520D01*
X016701Y018618D02*
X016601Y018618D01*
X016601Y018717D02*
X016701Y018717D01*
X016713Y018815D02*
X016589Y018815D01*
X016551Y018914D02*
X016751Y018914D01*
X016820Y019012D02*
X016483Y019012D01*
X017351Y019111D02*
X018000Y019111D01*
X017847Y019012D02*
X017483Y019012D01*
X017551Y018914D02*
X017771Y018914D01*
X017730Y018815D02*
X017589Y018815D01*
X017601Y018717D02*
X017720Y018717D01*
X017720Y018618D02*
X017601Y018618D01*
X017601Y018520D02*
X017720Y018520D01*
X017720Y018323D02*
X017601Y018323D01*
X017601Y018224D02*
X017720Y018224D01*
X017720Y018126D02*
X017601Y018126D01*
X017594Y018027D02*
X017720Y018027D01*
X017759Y017929D02*
X017565Y017929D01*
X017506Y017830D02*
X017811Y017830D01*
X019040Y016928D02*
X020627Y016928D01*
X019932Y017732D02*
X019370Y017732D01*
X019483Y017830D02*
X019819Y017830D01*
X019759Y017929D02*
X019543Y017929D01*
X019582Y018027D02*
X019720Y018027D01*
X019720Y018126D02*
X019582Y018126D01*
X019582Y018224D02*
X019720Y018224D01*
X019720Y018323D02*
X019582Y018323D01*
X019582Y018421D02*
X019720Y018421D01*
X019720Y018520D02*
X019582Y018520D01*
X019582Y018618D02*
X019720Y018618D01*
X019720Y018717D02*
X019582Y018717D01*
X019573Y018815D02*
X019730Y018815D01*
X019771Y018914D02*
X019532Y018914D01*
X019455Y019012D02*
X019847Y019012D01*
X022443Y016057D02*
X023841Y016057D01*
X023795Y015959D02*
X022497Y015959D01*
X022515Y015860D02*
X023781Y015860D01*
X023795Y015762D02*
X022507Y015762D01*
X022466Y015663D02*
X023841Y015663D01*
X023931Y015565D02*
X022367Y015565D01*
X022367Y015466D02*
X023931Y015466D01*
X023924Y015368D02*
X022367Y015368D01*
X022367Y015269D02*
X023909Y015269D01*
X023889Y015171D02*
X022367Y015171D01*
X022367Y015072D02*
X023867Y015072D01*
X023844Y014974D02*
X022367Y014974D01*
X022367Y014875D02*
X023821Y014875D01*
X023728Y014777D02*
X022367Y014777D01*
X022367Y014678D02*
X023684Y014678D01*
X023672Y014580D02*
X022367Y014580D01*
X022367Y014481D02*
X023687Y014481D01*
X023736Y014383D02*
X022367Y014383D01*
X022367Y014284D02*
X023861Y014284D01*
X024003Y014583D02*
X024003Y014859D01*
X024081Y015200D01*
X024112Y015406D01*
X024112Y015860D01*
X026370Y017732D02*
X027377Y017732D01*
X027377Y017830D02*
X026483Y017830D01*
X026543Y017929D02*
X027378Y017929D01*
X027378Y018027D02*
X026582Y018027D01*
X026582Y018126D02*
X027379Y018126D01*
X027379Y018224D02*
X026582Y018224D01*
X026582Y018323D02*
X027380Y018323D01*
X027380Y018421D02*
X026582Y018421D01*
X026582Y018520D02*
X027381Y018520D01*
X027381Y018618D02*
X026582Y018618D01*
X026582Y018717D02*
X027381Y018717D01*
X027382Y018815D02*
X026573Y018815D01*
X026532Y018914D02*
X027382Y018914D01*
X027383Y019012D02*
X026455Y019012D01*
X026344Y019111D02*
X027383Y019111D01*
X026163Y019194D02*
X026163Y018419D01*
X026151Y018407D01*
X025771Y018914D02*
X025551Y018914D01*
X025589Y018815D02*
X025730Y018815D01*
X025720Y018717D02*
X025601Y018717D01*
X025601Y018618D02*
X025720Y018618D01*
X025720Y018520D02*
X025601Y018520D01*
X025483Y019012D02*
X025847Y019012D01*
X025982Y019111D02*
X025351Y019111D01*
X025757Y019600D02*
X026163Y019194D01*
X025757Y019600D02*
X025757Y019691D01*
X026626Y017515D02*
X026626Y017492D01*
X026126Y012807D02*
X027354Y012807D01*
X027354Y012708D02*
X026190Y012708D01*
X026216Y012610D02*
X027353Y012610D01*
X027353Y012511D02*
X026215Y012511D01*
X026174Y012413D02*
X027352Y012413D01*
X027352Y012314D02*
X026086Y012314D01*
X026066Y012130D02*
X025907Y012064D01*
X025786Y011943D01*
X025720Y011785D01*
X025720Y011014D01*
X025786Y010855D01*
X025907Y010734D01*
X026066Y010669D01*
X026237Y010669D01*
X026395Y010734D01*
X026516Y010855D01*
X026582Y011014D01*
X026582Y011785D01*
X026516Y011943D01*
X026395Y012064D01*
X026237Y012130D01*
X026066Y012130D01*
X026034Y012117D02*
X025404Y012117D01*
X025438Y012216D02*
X027351Y012216D01*
X027351Y012117D02*
X026268Y012117D01*
X026441Y012019D02*
X027350Y012019D01*
X027350Y011920D02*
X026526Y011920D01*
X026567Y011822D02*
X027350Y011822D01*
X027349Y011723D02*
X026582Y011723D01*
X026582Y011625D02*
X027349Y011625D01*
X027348Y011526D02*
X026582Y011526D01*
X026582Y011428D02*
X027348Y011428D01*
X027347Y011329D02*
X026582Y011329D01*
X026582Y011231D02*
X027347Y011231D01*
X027346Y011132D02*
X026582Y011132D01*
X026582Y011034D02*
X027346Y011034D01*
X027345Y010935D02*
X026549Y010935D01*
X026498Y010837D02*
X027345Y010837D01*
X027344Y010738D02*
X026399Y010738D01*
X025903Y010738D02*
X025420Y010738D01*
X025517Y010837D02*
X025805Y010837D01*
X025753Y010935D02*
X025571Y010935D01*
X025596Y011034D02*
X025720Y011034D01*
X025720Y011132D02*
X025601Y011132D01*
X025601Y011231D02*
X025720Y011231D01*
X025720Y011329D02*
X025601Y011329D01*
X025720Y011428D02*
X025201Y011428D01*
X025201Y011526D02*
X025101Y011526D01*
X025101Y011625D02*
X025201Y011625D01*
X025201Y011723D02*
X025101Y011723D01*
X025101Y011822D02*
X025201Y011822D01*
X025201Y011920D02*
X025101Y011920D01*
X025101Y012019D02*
X025201Y012019D01*
X025468Y012019D02*
X025861Y012019D01*
X025776Y011920D02*
X025544Y011920D01*
X025585Y011822D02*
X025736Y011822D01*
X025720Y011723D02*
X025601Y011723D01*
X025601Y011625D02*
X025720Y011625D01*
X025720Y011526D02*
X025601Y011526D01*
X025689Y012314D02*
X025438Y012314D01*
X024834Y012019D02*
X024441Y012019D01*
X024526Y011920D02*
X024759Y011920D01*
X024718Y011822D02*
X024567Y011822D01*
X024582Y011723D02*
X024701Y011723D01*
X024701Y011625D02*
X024582Y011625D01*
X024582Y011526D02*
X024701Y011526D01*
X020548Y013174D02*
X020611Y013844D01*
X020387Y014087D02*
X017604Y014087D01*
X017621Y013989D02*
X020313Y013989D01*
X020280Y013890D02*
X017709Y013890D01*
X017750Y013792D02*
X020280Y013792D01*
X020315Y013693D02*
X017752Y013693D01*
X017726Y013595D02*
X020392Y013595D01*
X020397Y013496D02*
X017662Y013496D01*
X017499Y013398D02*
X020387Y013398D01*
X020548Y013174D02*
X018919Y013176D01*
X019151Y012944D01*
X019151Y011399D01*
X018720Y011428D02*
X018582Y011428D01*
X018582Y011526D02*
X018720Y011526D01*
X018720Y011625D02*
X018582Y011625D01*
X018582Y011723D02*
X018720Y011723D01*
X018720Y011785D02*
X018720Y011014D01*
X018786Y010855D01*
X018907Y010734D01*
X019056Y010672D01*
X018251Y010675D01*
X018395Y010734D01*
X018516Y010855D01*
X018582Y011014D01*
X018582Y011785D01*
X018516Y011943D01*
X018395Y012064D01*
X018237Y012130D01*
X018066Y012130D01*
X017907Y012064D01*
X017786Y011943D01*
X017720Y011785D01*
X017720Y011014D01*
X017786Y010855D01*
X017907Y010734D01*
X018050Y010675D01*
X017258Y010677D01*
X017395Y010734D01*
X017516Y010855D01*
X017582Y011014D01*
X017582Y011785D01*
X017516Y011943D01*
X017395Y012064D01*
X017237Y012130D01*
X017066Y012130D01*
X016907Y012064D01*
X016786Y011943D01*
X016720Y011785D01*
X016720Y011014D01*
X016786Y010855D01*
X016907Y010734D01*
X017043Y010678D01*
X016264Y010680D01*
X016395Y010734D01*
X016516Y010855D01*
X016582Y011014D01*
X016582Y011785D01*
X016516Y011943D01*
X016395Y012064D01*
X016375Y012073D01*
X016277Y012170D01*
X016080Y012367D01*
X013736Y012367D01*
X013312Y012640D01*
X013312Y015077D01*
X013571Y015077D01*
X013513Y015018D01*
X013453Y014875D01*
X013312Y014875D01*
X013312Y014777D02*
X013453Y014777D01*
X013453Y014719D02*
X013513Y014576D01*
X013623Y014466D01*
X013766Y014406D01*
X014442Y014406D01*
X014585Y014466D01*
X014695Y014576D01*
X014713Y014619D01*
X015376Y014621D01*
X015376Y014069D01*
X015362Y014043D01*
X015376Y013997D01*
X015376Y013949D01*
X015397Y013928D01*
X015631Y013151D01*
X015631Y013103D01*
X015652Y013082D01*
X015661Y013054D01*
X015703Y013032D01*
X015737Y012997D01*
X015767Y012997D01*
X015793Y012984D01*
X015839Y012997D01*
X017678Y012997D01*
X018844Y012996D01*
X018970Y012869D01*
X018970Y012091D01*
X018907Y012064D01*
X018786Y011943D01*
X018720Y011785D01*
X018736Y011822D02*
X018567Y011822D01*
X018526Y011920D02*
X018776Y011920D01*
X018861Y012019D02*
X018441Y012019D01*
X018268Y012117D02*
X018970Y012117D01*
X018970Y012216D02*
X016232Y012216D01*
X016134Y012314D02*
X018970Y012314D01*
X018970Y012413D02*
X014457Y012413D01*
X014442Y012406D02*
X014585Y012466D01*
X014695Y012576D01*
X014755Y012719D01*
X014755Y012875D01*
X014695Y013018D01*
X014585Y013128D01*
X014442Y013188D01*
X013766Y013188D01*
X013623Y013128D01*
X013513Y013018D01*
X013453Y012875D01*
X013453Y012719D01*
X013513Y012576D01*
X013623Y012466D01*
X013766Y012406D01*
X014442Y012406D01*
X014631Y012511D02*
X018970Y012511D01*
X018970Y012610D02*
X014709Y012610D01*
X014750Y012708D02*
X018970Y012708D01*
X018970Y012807D02*
X014755Y012807D01*
X014742Y012905D02*
X018935Y012905D01*
X018919Y013176D02*
X017678Y013178D01*
X015812Y013178D01*
X015557Y014024D01*
X015557Y014721D01*
X015481Y014803D01*
X014104Y014797D01*
X014115Y014814D01*
X014641Y015072D02*
X018778Y015072D01*
X018778Y014974D02*
X015568Y014974D01*
X015661Y014875D02*
X018778Y014875D01*
X018958Y014588D02*
X018958Y015494D01*
X019155Y015762D02*
X019915Y015762D01*
X019255Y014777D02*
X019235Y014777D01*
X019769Y014383D02*
X020313Y014383D01*
X019981Y012117D02*
X019332Y012117D01*
X019441Y012019D02*
X019834Y012019D01*
X019759Y011920D02*
X019526Y011920D01*
X019567Y011822D02*
X019718Y011822D01*
X019701Y011723D02*
X019582Y011723D01*
X019582Y011625D02*
X019701Y011625D01*
X019701Y011526D02*
X019582Y011526D01*
X018720Y011329D02*
X018582Y011329D01*
X018582Y011231D02*
X018720Y011231D01*
X018720Y011132D02*
X018582Y011132D01*
X018582Y011034D02*
X018720Y011034D01*
X018753Y010935D02*
X018549Y010935D01*
X018498Y010837D02*
X018805Y010837D01*
X018903Y010738D02*
X018399Y010738D01*
X017903Y010738D02*
X017399Y010738D01*
X017498Y010837D02*
X017805Y010837D01*
X017753Y010935D02*
X017549Y010935D01*
X017582Y011034D02*
X017720Y011034D01*
X017720Y011132D02*
X017582Y011132D01*
X017582Y011231D02*
X017720Y011231D01*
X017720Y011329D02*
X017582Y011329D01*
X017582Y011428D02*
X017720Y011428D01*
X017720Y011526D02*
X017582Y011526D01*
X017582Y011625D02*
X017720Y011625D01*
X017720Y011723D02*
X017582Y011723D01*
X017567Y011822D02*
X017736Y011822D01*
X017776Y011920D02*
X017526Y011920D01*
X017441Y012019D02*
X017861Y012019D01*
X018034Y012117D02*
X017268Y012117D01*
X017034Y012117D02*
X016331Y012117D01*
X016441Y012019D02*
X016861Y012019D01*
X016776Y011920D02*
X016526Y011920D01*
X016567Y011822D02*
X016736Y011822D01*
X016720Y011723D02*
X016582Y011723D01*
X016582Y011625D02*
X016720Y011625D01*
X016720Y011526D02*
X016582Y011526D01*
X016582Y011428D02*
X016720Y011428D01*
X016720Y011329D02*
X016582Y011329D01*
X016582Y011231D02*
X016720Y011231D01*
X016720Y011132D02*
X016582Y011132D01*
X016582Y011034D02*
X016720Y011034D01*
X016753Y010935D02*
X016549Y010935D01*
X016498Y010837D02*
X016805Y010837D01*
X016903Y010738D02*
X016399Y010738D01*
X016037Y010680D02*
X015324Y010682D01*
X015387Y010714D01*
X015444Y010756D01*
X015494Y010806D01*
X015536Y010863D01*
X015568Y010926D01*
X015590Y010994D01*
X015601Y011064D01*
X015601Y011349D01*
X015201Y011349D01*
X015201Y011449D01*
X015601Y011449D01*
X015601Y011735D01*
X015590Y011805D01*
X015568Y011872D01*
X015536Y011935D01*
X015494Y011992D01*
X015481Y012006D01*
X015849Y012006D01*
X015786Y011943D01*
X015720Y011785D01*
X015720Y011014D01*
X015786Y010855D01*
X015907Y010734D01*
X016037Y010680D01*
X015903Y010738D02*
X015420Y010738D01*
X015324Y010682D02*
X015324Y010682D01*
X015517Y010837D02*
X015805Y010837D01*
X015753Y010935D02*
X015571Y010935D01*
X015596Y011034D02*
X015720Y011034D01*
X015720Y011132D02*
X015601Y011132D01*
X015601Y011231D02*
X015720Y011231D01*
X015720Y011329D02*
X015601Y011329D01*
X015720Y011428D02*
X015201Y011428D01*
X015101Y011428D02*
X012029Y011428D01*
X012029Y011526D02*
X014701Y011526D01*
X014701Y011625D02*
X012029Y011625D01*
X012029Y011723D02*
X014701Y011723D01*
X014718Y011822D02*
X012029Y011822D01*
X012029Y011920D02*
X014759Y011920D01*
X014701Y011329D02*
X012029Y011329D01*
X012029Y011231D02*
X014701Y011231D01*
X014701Y011132D02*
X012029Y011132D01*
X012029Y011034D02*
X014706Y011034D01*
X014731Y010935D02*
X012029Y010935D01*
X012029Y010837D02*
X014786Y010837D01*
X014883Y010738D02*
X012029Y010738D01*
X012029Y012019D02*
X013595Y012019D01*
X013457Y012117D02*
X012029Y012117D01*
X012029Y012216D02*
X013304Y012216D01*
X013150Y012314D02*
X012029Y012314D01*
X012029Y012413D02*
X012997Y012413D01*
X012951Y012511D02*
X012029Y012511D01*
X013131Y012541D02*
X013131Y015257D01*
X013312Y015072D02*
X013567Y015072D01*
X013494Y014974D02*
X013312Y014974D01*
X013453Y014875D02*
X013453Y014719D01*
X013470Y014678D02*
X013312Y014678D01*
X013312Y014580D02*
X013511Y014580D01*
X013607Y014481D02*
X013312Y014481D01*
X013312Y014383D02*
X015376Y014383D01*
X015376Y014481D02*
X014601Y014481D01*
X014697Y014580D02*
X015376Y014580D01*
X015376Y014284D02*
X013312Y014284D01*
X013312Y014186D02*
X013713Y014186D01*
X013687Y014177D02*
X013629Y014148D01*
X013577Y014110D01*
X013531Y014064D01*
X013493Y014012D01*
X013464Y013954D01*
X013444Y013893D01*
X013434Y013829D01*
X013434Y013827D01*
X014074Y013827D01*
X014074Y014207D01*
X013812Y014207D01*
X013748Y014197D01*
X013687Y014177D01*
X013554Y014087D02*
X013312Y014087D01*
X013312Y013989D02*
X013481Y013989D01*
X013444Y013890D02*
X013312Y013890D01*
X013312Y013792D02*
X014074Y013792D01*
X014074Y013767D02*
X013434Y013767D01*
X013434Y013765D01*
X013444Y013701D01*
X013464Y013639D01*
X013493Y013582D01*
X013531Y013530D01*
X013577Y013484D01*
X013629Y013446D01*
X013687Y013417D01*
X013748Y013397D01*
X013812Y013387D01*
X014074Y013387D01*
X014074Y013767D01*
X014074Y013827D01*
X014134Y013827D01*
X014134Y014207D01*
X014396Y014207D01*
X014460Y014197D01*
X014521Y014177D01*
X014579Y014148D01*
X014631Y014110D01*
X014677Y014064D01*
X014715Y014012D01*
X014744Y013954D01*
X014764Y013893D01*
X014774Y013829D01*
X014774Y013827D01*
X014134Y013827D01*
X014134Y013767D01*
X014774Y013767D01*
X014774Y013765D01*
X014764Y013701D01*
X014744Y013639D01*
X014715Y013582D01*
X014677Y013530D01*
X014631Y013484D01*
X014579Y013446D01*
X014521Y013417D01*
X014460Y013397D01*
X014396Y013387D01*
X014134Y013387D01*
X014134Y013767D01*
X014074Y013767D01*
X014134Y013792D02*
X015438Y013792D01*
X015409Y013890D02*
X014764Y013890D01*
X014726Y013989D02*
X015376Y013989D01*
X015376Y014087D02*
X014654Y014087D01*
X014494Y014186D02*
X015376Y014186D01*
X015738Y014186D02*
X017242Y014186D01*
X017242Y014087D02*
X015738Y014087D01*
X015756Y013989D02*
X017224Y013989D01*
X017137Y013890D02*
X015786Y013890D01*
X015816Y013792D02*
X017096Y013792D01*
X017094Y013693D02*
X015846Y013693D01*
X015875Y013595D02*
X017120Y013595D01*
X017184Y013496D02*
X015905Y013496D01*
X015935Y013398D02*
X017347Y013398D01*
X017423Y013722D02*
X017423Y014509D01*
X017183Y014284D02*
X015738Y014284D01*
X015738Y014383D02*
X017119Y014383D01*
X017094Y014481D02*
X015738Y014481D01*
X015738Y014580D02*
X017096Y014580D01*
X017137Y014678D02*
X015738Y014678D01*
X015740Y014777D02*
X017225Y014777D01*
X015468Y013693D02*
X014761Y013693D01*
X014721Y013595D02*
X015498Y013595D01*
X015527Y013496D02*
X014643Y013496D01*
X014462Y013398D02*
X015557Y013398D01*
X015587Y013299D02*
X013312Y013299D01*
X013312Y013201D02*
X015617Y013201D01*
X015633Y013102D02*
X014611Y013102D01*
X014701Y013004D02*
X015731Y013004D01*
X016006Y012187D02*
X016202Y011990D01*
X016202Y011450D01*
X016151Y011399D01*
X015720Y011526D02*
X015601Y011526D01*
X015601Y011625D02*
X015720Y011625D01*
X015720Y011723D02*
X015601Y011723D01*
X015585Y011822D02*
X015736Y011822D01*
X015776Y011920D02*
X015544Y011920D01*
X016006Y012187D02*
X013683Y012187D01*
X013131Y012541D01*
X013359Y012610D02*
X013499Y012610D01*
X013512Y012511D02*
X013577Y012511D01*
X013665Y012413D02*
X013751Y012413D01*
X013458Y012708D02*
X013312Y012708D01*
X013312Y012807D02*
X013453Y012807D01*
X013466Y012905D02*
X013312Y012905D01*
X013312Y013004D02*
X013507Y013004D01*
X013597Y013102D02*
X013312Y013102D01*
X013312Y013398D02*
X013746Y013398D01*
X013565Y013496D02*
X013312Y013496D01*
X013312Y013595D02*
X013487Y013595D01*
X013447Y013693D02*
X013312Y013693D01*
X014074Y013693D02*
X014134Y013693D01*
X014134Y013595D02*
X014074Y013595D01*
X014074Y013496D02*
X014134Y013496D01*
X014134Y013398D02*
X014074Y013398D01*
X014074Y013890D02*
X014134Y013890D01*
X014134Y013989D02*
X014074Y013989D01*
X014074Y014087D02*
X014134Y014087D01*
X014134Y014186D02*
X014074Y014186D01*
X014644Y015466D02*
X012690Y015466D01*
X012601Y015565D02*
X014644Y015565D01*
X014644Y015663D02*
X012711Y015663D01*
X012711Y015762D02*
X014644Y015762D01*
X014644Y015860D02*
X012711Y015860D01*
X012711Y015959D02*
X014644Y015959D01*
X014644Y016057D02*
X012711Y016057D01*
X012663Y016156D02*
X014644Y016156D01*
X014644Y016254D02*
X012679Y016254D01*
X012711Y016353D02*
X014644Y016353D01*
X014644Y016451D02*
X014586Y016451D01*
X014134Y016451D02*
X014074Y016451D01*
X014074Y016550D02*
X014134Y016550D01*
X014134Y016648D02*
X014074Y016648D01*
X014074Y016747D02*
X014134Y016747D01*
X014134Y016845D02*
X014074Y016845D01*
X014074Y016944D02*
X014134Y016944D01*
X014134Y017042D02*
X014074Y017042D01*
X014074Y017141D02*
X014134Y017141D01*
X014588Y017141D02*
X014644Y017141D01*
X013619Y017141D02*
X012606Y017141D01*
X012661Y017042D02*
X013515Y017042D01*
X013461Y016944D02*
X012711Y016944D01*
X012681Y016845D02*
X013436Y016845D01*
X013437Y016747D02*
X012638Y016747D01*
X012631Y016648D02*
X013461Y016648D01*
X013517Y016550D02*
X012601Y016550D01*
X012663Y016451D02*
X013622Y016451D01*
X014588Y018126D02*
X014644Y018126D01*
D16*
X016420Y016861D03*
X015269Y015932D03*
X018832Y016247D03*
X020627Y016928D03*
X024112Y015860D03*
X024003Y014583D03*
X020611Y013844D03*
M02*
