G75*
%MOIN*%
%OFA0B0*%
%FSLAX24Y24*%
%IPPOS*%
%LPD*%
%AMOC8*
5,1,8,0,0,1.08239X$1,22.5*
%
%ADD10R,0.0513X0.0474*%
%ADD11R,0.0474X0.0513*%
%ADD12C,0.0600*%
%ADD13R,0.0474X0.0237*%
%ADD14R,0.0198X0.0552*%
%ADD15C,0.0680*%
%ADD16R,0.0710X0.0540*%
%ADD17R,0.0540X0.0710*%
%ADD18C,0.0476*%
%ADD19C,0.0480*%
D10*
X016065Y014824D03*
X016734Y014824D03*
X018033Y016202D03*
X018702Y016202D03*
X019313Y016931D03*
X019903Y016694D03*
X019903Y017364D03*
X019313Y017600D03*
X018702Y017777D03*
X018033Y017777D03*
X018033Y019155D03*
X017364Y019155D03*
X016734Y019155D03*
X016065Y019155D03*
X018899Y014824D03*
X019569Y014824D03*
X022876Y015257D03*
X023545Y015257D03*
X024391Y016380D03*
X024391Y017049D03*
X024391Y017679D03*
X024391Y018348D03*
X023584Y018486D03*
X022915Y018486D03*
D11*
X022265Y018702D03*
X022915Y019352D03*
X023584Y019352D03*
X022265Y018033D03*
X022265Y015986D03*
X022265Y015317D03*
X018072Y014824D03*
X017403Y014824D03*
X016773Y016360D03*
X017423Y016694D03*
X017423Y017364D03*
X016773Y017620D03*
X016104Y017620D03*
X016104Y016360D03*
X018702Y019155D03*
X019372Y019155D03*
D12*
X019317Y018490D03*
X018317Y018490D03*
X017317Y018490D03*
X016317Y018490D03*
X016317Y015490D03*
X017317Y015490D03*
X018317Y015490D03*
X019317Y015490D03*
D13*
X020430Y016646D03*
X020430Y016902D03*
X020430Y017157D03*
X020430Y017413D03*
X022211Y017413D03*
X022211Y017157D03*
X022211Y016902D03*
X022211Y016646D03*
D14*
X022826Y016197D03*
X023082Y016197D03*
X023338Y016197D03*
X023594Y016197D03*
X023594Y017861D03*
X023338Y017861D03*
X023082Y017861D03*
X022826Y017861D03*
D15*
X014876Y013865D02*
X014876Y013265D01*
X015876Y013265D02*
X015876Y013865D01*
X016876Y013865D02*
X016876Y013265D01*
X017876Y013265D02*
X017876Y013865D01*
X018876Y013865D02*
X018876Y013265D01*
X019876Y013265D02*
X019876Y013865D01*
X020876Y013865D02*
X020876Y013265D01*
X021876Y013265D02*
X021876Y013865D01*
X022876Y013865D02*
X022876Y013265D01*
X023876Y013265D02*
X023876Y013865D01*
X024876Y013865D02*
X024876Y013265D01*
X025876Y013265D02*
X025876Y013865D01*
X025912Y014769D02*
X025312Y014769D01*
X025312Y015769D02*
X025912Y015769D01*
X025912Y016769D02*
X025312Y016769D01*
X024876Y020272D02*
X024876Y020872D01*
X023876Y020872D02*
X023876Y020272D01*
X022876Y020272D02*
X022876Y020872D01*
X021876Y020872D02*
X021876Y020272D01*
X020876Y020272D02*
X020876Y020872D01*
X019876Y020872D02*
X019876Y020272D01*
X018876Y020272D02*
X018876Y020872D01*
X017876Y020872D02*
X017876Y020272D01*
X016876Y020272D02*
X016876Y020872D01*
X015876Y020872D02*
X015876Y020272D01*
X014876Y020272D02*
X014876Y020872D01*
X014761Y017990D02*
X015361Y017990D01*
X015361Y016990D02*
X014761Y016990D01*
X014761Y015990D02*
X015361Y015990D01*
X025876Y020272D02*
X025876Y020872D01*
D16*
X025454Y019165D03*
X025454Y018565D03*
X025454Y017965D03*
D17*
X021409Y018565D03*
X020809Y018565D03*
X020209Y018565D03*
X020209Y015415D03*
X020809Y015415D03*
X021409Y015415D03*
D18*
X021202Y016793D03*
X020139Y016084D03*
X018446Y016832D03*
X021675Y017856D03*
X022866Y017197D03*
X023328Y016793D03*
X023840Y017305D03*
X024313Y019628D03*
X022383Y019352D03*
D19*
X021473Y019332D03*
X024089Y018864D03*
X024091Y015326D03*
X019284Y016385D03*
X017968Y017206D03*
M02*
