G75*
%MOIN*%
%OFA0B0*%
%FSLAX24Y24*%
%IPPOS*%
%LPD*%
%AMOC8*
5,1,8,0,0,1.08239X$1,22.5*
%
%ADD10C,0.0600*%
%ADD11C,0.0680*%
%ADD12OC8,0.0600*%
%ADD13C,0.0476*%
%ADD14C,0.0480*%
D10*
X013844Y012797D02*
X014364Y012797D01*
X014364Y013797D02*
X013844Y013797D01*
X013844Y014797D02*
X014364Y014797D01*
X014364Y016797D02*
X013844Y016797D01*
X013844Y017797D02*
X014364Y017797D01*
D11*
X015151Y011699D02*
X015151Y011099D01*
X016151Y011099D02*
X016151Y011699D01*
X017151Y011699D02*
X017151Y011099D01*
X018151Y011099D02*
X018151Y011699D01*
X019151Y011699D02*
X019151Y011099D01*
X020151Y011099D02*
X020151Y011699D01*
X021151Y011699D02*
X021151Y011099D01*
X022151Y011099D02*
X022151Y011699D01*
X023151Y011699D02*
X023151Y011099D01*
X024151Y011099D02*
X024151Y011699D01*
X025151Y011699D02*
X025151Y011099D01*
X026151Y011099D02*
X026151Y011699D01*
X026151Y018107D02*
X026151Y018707D01*
X025151Y018707D02*
X025151Y018107D01*
X024151Y018107D02*
X024151Y018707D01*
X023151Y018707D02*
X023151Y018107D01*
X022151Y018107D02*
X022151Y018707D01*
X021151Y018707D02*
X021151Y018107D01*
X020151Y018107D02*
X020151Y018707D01*
X019151Y018707D02*
X019151Y018107D01*
X018151Y018107D02*
X018151Y018707D01*
X017151Y018707D02*
X017151Y018107D01*
X016151Y018107D02*
X016151Y018707D01*
X015151Y018707D02*
X015151Y018107D01*
D12*
X024757Y019691D03*
X024757Y020691D03*
X024757Y021691D03*
X025757Y021691D03*
X025757Y020691D03*
X025757Y019691D03*
D13*
X026911Y017974D03*
X024234Y017108D03*
X025297Y015376D03*
X026242Y014549D03*
X026754Y014431D03*
X024746Y012698D03*
X025887Y012580D03*
X022187Y013368D03*
X021202Y014785D03*
X020533Y014628D03*
X019549Y014628D03*
X018958Y014588D03*
X018958Y015494D03*
X017423Y014509D03*
X017423Y013722D03*
X017817Y016911D03*
X021202Y016163D03*
X022187Y015848D03*
D14*
X020627Y016928D03*
X018832Y016247D03*
X016420Y016861D03*
X015269Y015932D03*
X020611Y013844D03*
X024003Y014583D03*
X024112Y015860D03*
M02*
