G75*
%MOIN*%
%OFA0B0*%
%FSLAX24Y24*%
%IPPOS*%
%LPD*%
%AMOC8*
5,1,8,0,0,1.08239X$1,22.5*
%
%ADD10R,0.0433X0.0394*%
%ADD11R,0.0394X0.0433*%
%ADD12R,0.0394X0.0157*%
%ADD13R,0.0118X0.0472*%
%ADD14R,0.0630X0.0460*%
%ADD15R,0.0460X0.0630*%
D10*
X016065Y014824D03*
X016734Y014824D03*
X018033Y016202D03*
X018702Y016202D03*
X019313Y016931D03*
X019903Y016694D03*
X019903Y017364D03*
X019313Y017600D03*
X018702Y017777D03*
X018033Y017777D03*
X018033Y019155D03*
X017364Y019155D03*
X016734Y019155D03*
X016065Y019155D03*
X018899Y014824D03*
X019569Y014824D03*
X022876Y015257D03*
X023545Y015257D03*
X024391Y016380D03*
X024391Y017049D03*
X024391Y017679D03*
X024391Y018348D03*
X023584Y018486D03*
X022915Y018486D03*
D11*
X022265Y018702D03*
X022915Y019352D03*
X023584Y019352D03*
X022265Y018033D03*
X022265Y015986D03*
X022265Y015317D03*
X018072Y014824D03*
X017403Y014824D03*
X016773Y016360D03*
X017423Y016694D03*
X017423Y017364D03*
X016773Y017620D03*
X016104Y017620D03*
X016104Y016360D03*
X018702Y019155D03*
X019372Y019155D03*
D12*
X020430Y017413D03*
X020430Y017157D03*
X020430Y016902D03*
X020430Y016646D03*
X022211Y016646D03*
X022211Y016902D03*
X022211Y017157D03*
X022211Y017413D03*
D13*
X022826Y017861D03*
X023082Y017861D03*
X023338Y017861D03*
X023594Y017861D03*
X023594Y016197D03*
X023338Y016197D03*
X023082Y016197D03*
X022826Y016197D03*
D14*
X025454Y017965D03*
X025454Y018565D03*
X025454Y019165D03*
D15*
X021409Y018565D03*
X020809Y018565D03*
X020209Y018565D03*
X020209Y015415D03*
X020809Y015415D03*
X021409Y015415D03*
M02*
