%
M48
M72
T01C0.0236
T02C0.0240
T03C0.0320
T04C0.0400
%
T01
X20139Y16084
X21202Y16793
X21675Y17856
X22866Y17197
X23328Y16793
X23840Y17305
X24313Y19628
X22383Y19352
X18446Y16832
T02
X17968Y17206
X19284Y16385
X21473Y19332
X24089Y18864
X24091Y15326
T03
X19317Y15490
X18317Y15490
X17317Y15490
X16317Y15490
X16317Y18490
X17317Y18490
X18317Y18490
X19317Y18490
T04
X14876Y13565
X15876Y13565
X16876Y13565
X17876Y13565
X18876Y13565
X19876Y13565
X20876Y13565
X21876Y13565
X22876Y13565
X23876Y13565
X24876Y13565
X25876Y13565
X25612Y14769
X25612Y15769
X25612Y16769
X25876Y20572
X24876Y20572
X23876Y20572
X22876Y20572
X21876Y20572
X20876Y20572
X19876Y20572
X18876Y20572
X17876Y20572
X16876Y20572
X15876Y20572
X14876Y20572
X15061Y17990
X15061Y16990
X15061Y15990
M30
